%TF.GenerationSoftware,KiCad,Pcbnew,9.0.7*%
%TF.CreationDate,2026-05-11T17:24:31-07:00*%
%TF.ProjectId,tamagotchi,74616d61-676f-4746-9368-692e6b696361,rev?*%
%TF.SameCoordinates,Original*%
%TF.FileFunction,Profile,NP*%
%FSLAX46Y46*%
G04 Gerber Fmt 4.6, Leading zero omitted, Abs format (unit mm)*
G04 Created by KiCad (PCBNEW 9.0.7) date 2026-05-11 17:24:31*
%MOMM*%
%LPD*%
G01*
G04 APERTURE LIST*
%ADD10C,0.200000*%
%TA.AperFunction,Profile*%
%ADD11C,0.200000*%
%TD*%
G04 APERTURE END LIST*
D10*
X75920000Y-39660000D02*
X75877198Y-39671199D01*
X75834411Y-39682477D01*
X75791639Y-39693834D01*
X75748882Y-39705270D01*
X75706139Y-39716785D01*
X75663412Y-39728378D01*
X75620699Y-39740051D01*
X75578001Y-39751802D01*
X75535318Y-39763632D01*
X75492651Y-39775540D01*
X75449998Y-39787528D01*
X75407361Y-39799594D01*
X75364739Y-39811739D01*
X75322132Y-39823963D01*
X75279541Y-39836266D01*
X75236965Y-39848648D01*
X75194404Y-39861108D01*
X75151859Y-39873648D01*
X75109329Y-39886266D01*
X75066815Y-39898963D01*
X75024316Y-39911738D01*
X74981834Y-39924593D01*
X74939367Y-39937526D01*
X74896915Y-39950538D01*
X74854480Y-39963629D01*
X74812060Y-39976799D01*
X74769656Y-39990047D01*
X74727269Y-40003375D01*
X74684897Y-40016781D01*
X74642542Y-40030266D01*
X74600202Y-40043830D01*
X74557879Y-40057472D01*
X74515572Y-40071194D01*
X74473281Y-40084994D01*
X74431007Y-40098873D01*
X74388749Y-40112831D01*
X74346508Y-40126867D01*
X74304283Y-40140983D01*
X74262075Y-40155177D01*
X74219883Y-40169450D01*
X74177708Y-40183802D01*
X74135550Y-40198232D01*
X74093408Y-40212741D01*
X74051284Y-40227330D01*
X74009176Y-40241997D01*
X73967085Y-40256742D01*
X73925011Y-40271567D01*
X73882955Y-40286470D01*
X73840915Y-40301452D01*
X73798893Y-40316513D01*
X73756888Y-40331653D01*
X73714900Y-40346871D01*
X73672930Y-40362169D01*
X73630977Y-40377545D01*
X73589041Y-40392999D01*
X73547123Y-40408533D01*
X73505223Y-40424145D01*
X73463340Y-40439837D01*
X73421476Y-40455607D01*
X73379628Y-40471455D01*
X73337799Y-40487383D01*
X73295988Y-40503389D01*
X73254194Y-40519474D01*
X73212419Y-40535638D01*
X73170662Y-40551880D01*
X73128922Y-40568202D01*
X73087202Y-40584602D01*
X73045499Y-40601081D01*
X73003815Y-40617638D01*
X72962149Y-40634275D01*
X72920501Y-40650990D01*
X72878872Y-40667784D01*
X72837262Y-40684657D01*
X72795670Y-40701608D01*
X72754097Y-40718638D01*
X72712543Y-40735747D01*
X72671008Y-40752935D01*
X72629491Y-40770201D01*
X72587994Y-40787546D01*
X72546516Y-40804970D01*
X72505056Y-40822473D01*
X72463616Y-40840054D01*
X72422195Y-40857714D01*
X72380794Y-40875453D01*
X72339411Y-40893270D01*
X72298049Y-40911167D01*
X72256705Y-40929142D01*
X72215382Y-40947195D01*
X72174078Y-40965328D01*
X72132793Y-40983539D01*
X72091529Y-41001829D01*
X72050284Y-41020197D01*
X72009059Y-41038644D01*
X71967855Y-41057170D01*
X71926670Y-41075775D01*
X71885505Y-41094458D01*
X71844361Y-41113220D01*
X71803237Y-41132060D01*
X71762133Y-41150980D01*
X71721049Y-41169978D01*
X71679986Y-41189054D01*
X71638944Y-41208209D01*
X71597922Y-41227443D01*
X71556921Y-41246756D01*
X71515941Y-41266147D01*
X71474981Y-41285617D01*
X71434042Y-41305165D01*
X71393125Y-41324793D01*
X71352228Y-41344498D01*
X71311353Y-41364283D01*
X71270498Y-41384146D01*
X71229665Y-41404087D01*
X71188854Y-41424107D01*
X71148063Y-41444206D01*
X71107295Y-41464383D01*
X71066547Y-41484639D01*
X71025822Y-41504974D01*
X70985118Y-41525387D01*
X70944436Y-41545878D01*
X70903776Y-41566448D01*
X70863137Y-41587097D01*
X70822521Y-41607824D01*
X70781927Y-41628630D01*
X70741355Y-41649514D01*
X70700805Y-41670477D01*
X70660278Y-41691519D01*
X70619773Y-41712638D01*
X70579291Y-41733837D01*
X70538831Y-41755114D01*
X70498393Y-41776469D01*
X70457979Y-41797902D01*
X70417587Y-41819415D01*
X70377218Y-41841005D01*
X70336872Y-41862674D01*
X70296549Y-41884422D01*
X70256249Y-41906248D01*
X70215973Y-41928152D01*
X70175719Y-41950135D01*
X70135489Y-41972196D01*
X70095283Y-41994336D01*
X70055100Y-42016553D01*
X70014940Y-42038850D01*
X69974805Y-42061224D01*
X69934693Y-42083677D01*
X69894604Y-42106208D01*
X69854540Y-42128818D01*
X69814500Y-42151506D01*
X69774484Y-42174272D01*
X69734492Y-42197116D01*
X69694524Y-42220039D01*
X69654581Y-42243040D01*
X69614662Y-42266119D01*
X69574767Y-42289277D01*
X69534897Y-42312512D01*
X69495052Y-42335826D01*
X69455232Y-42359218D01*
X69415436Y-42382689D01*
X69375666Y-42406237D01*
X69335920Y-42429864D01*
X69296199Y-42453568D01*
X69256504Y-42477351D01*
X69216834Y-42501212D01*
X69177189Y-42525151D01*
X69137570Y-42549168D01*
X69097976Y-42573263D01*
X69058408Y-42597437D01*
X69018866Y-42621688D01*
X68979349Y-42646017D01*
X68939859Y-42670424D01*
X68900394Y-42694910D01*
X68860955Y-42719473D01*
X68821543Y-42744114D01*
X68782156Y-42768833D01*
X68742796Y-42793630D01*
X68703463Y-42818505D01*
X68664156Y-42843458D01*
X68624875Y-42868489D01*
X68585622Y-42893598D01*
X68546395Y-42918784D01*
X68507195Y-42944048D01*
X68468022Y-42969390D01*
X68428875Y-42994810D01*
X68389757Y-43020307D01*
X68350665Y-43045883D01*
X68311600Y-43071536D01*
X68272563Y-43097266D01*
X68233554Y-43123075D01*
X68194572Y-43148961D01*
X68155618Y-43174925D01*
X68116692Y-43200966D01*
X68077793Y-43227085D01*
X68038923Y-43253281D01*
X68000080Y-43279555D01*
X67961266Y-43305907D01*
X67922480Y-43332336D01*
X67883722Y-43358842D01*
X67844993Y-43385426D01*
X67806292Y-43412088D01*
X67767620Y-43438827D01*
X67728977Y-43465643D01*
X67690362Y-43492537D01*
X67651776Y-43519507D01*
X67613220Y-43546556D01*
X67574692Y-43573681D01*
X67536194Y-43600884D01*
X67497725Y-43628164D01*
X67459285Y-43655522D01*
X67420875Y-43682956D01*
X67382495Y-43710468D01*
X67344144Y-43738057D01*
X67305823Y-43765723D01*
X67267532Y-43793466D01*
X67229271Y-43821286D01*
X67191040Y-43849183D01*
X67152839Y-43877157D01*
X67114668Y-43905208D01*
X67076528Y-43933336D01*
X67038418Y-43961541D01*
X67000339Y-43989823D01*
X66962290Y-44018182D01*
X66924272Y-44046618D01*
X66886286Y-44075130D01*
X66848330Y-44103719D01*
X66810405Y-44132385D01*
X66772511Y-44161128D01*
X66734649Y-44189947D01*
X66696818Y-44218844D01*
X66659018Y-44247816D01*
X66621250Y-44276865D01*
X66583514Y-44305991D01*
X66545809Y-44335194D01*
X66508136Y-44364472D01*
X66470496Y-44393828D01*
X66432887Y-44423259D01*
X66395311Y-44452768D01*
X66357767Y-44482352D01*
X66320255Y-44512013D01*
X66282776Y-44541750D01*
X66245329Y-44571563D01*
X66207915Y-44601453D01*
X66170534Y-44631419D01*
X66133186Y-44661461D01*
X66095870Y-44691579D01*
X66058588Y-44721773D01*
X66021339Y-44752043D01*
X65984124Y-44782389D01*
X65946941Y-44812811D01*
X65909793Y-44843310D01*
X65872678Y-44873883D01*
X65835596Y-44904533D01*
X65798549Y-44935259D01*
X65761535Y-44966060D01*
X65724556Y-44996938D01*
X65687611Y-45027891D01*
X65650700Y-45058919D01*
X65613823Y-45090023D01*
X65576981Y-45121203D01*
X65540173Y-45152458D01*
X65503400Y-45183789D01*
X65466662Y-45215195D01*
X65429959Y-45246677D01*
X65393291Y-45278234D01*
X65356657Y-45309866D01*
X65320059Y-45341574D01*
X65283497Y-45373357D01*
X65246970Y-45405215D01*
X65210478Y-45437148D01*
X65174022Y-45469156D01*
X65137602Y-45501240D01*
X65101218Y-45533398D01*
X65064869Y-45565632D01*
X65028557Y-45597940D01*
X64992281Y-45630323D01*
X64956041Y-45662781D01*
X64919838Y-45695314D01*
X64883671Y-45727922D01*
X64847540Y-45760604D01*
X64811447Y-45793361D01*
X64775390Y-45826192D01*
X64739370Y-45859099D01*
X64703388Y-45892079D01*
X64667442Y-45925134D01*
X64631534Y-45958264D01*
X64595663Y-45991467D01*
X64559830Y-46024746D01*
X64524034Y-46058098D01*
X64488276Y-46091525D01*
X64452556Y-46125025D01*
X64416873Y-46158600D01*
X64381229Y-46192249D01*
X64345623Y-46225972D01*
X64310055Y-46259769D01*
X64274526Y-46293639D01*
X64239035Y-46327584D01*
X64203583Y-46361602D01*
X64168169Y-46395694D01*
X64132794Y-46429860D01*
X64097458Y-46464099D01*
X64062161Y-46498412D01*
X64026904Y-46532799D01*
X63991685Y-46567259D01*
X63956506Y-46601792D01*
X63921367Y-46636399D01*
X63886267Y-46671078D01*
X63851206Y-46705832D01*
X63816186Y-46740658D01*
X63781206Y-46775557D01*
X63746265Y-46810530D01*
X63711365Y-46845575D01*
X63676505Y-46880694D01*
X63641685Y-46915885D01*
X63606906Y-46951149D01*
X63572168Y-46986486D01*
X63537470Y-47021895D01*
X63502813Y-47057378D01*
X63468197Y-47092932D01*
X63433622Y-47128560D01*
X63399088Y-47164259D01*
X63364596Y-47200031D01*
X63330145Y-47235876D01*
X63295735Y-47271792D01*
X63261367Y-47307781D01*
X63227041Y-47343842D01*
X63192757Y-47379975D01*
X63158515Y-47416180D01*
X63124314Y-47452457D01*
X63090156Y-47488806D01*
X63056040Y-47525227D01*
X63021967Y-47561719D01*
X62987936Y-47598283D01*
X62953948Y-47634919D01*
X62920003Y-47671626D01*
X62886100Y-47708405D01*
X62852241Y-47745255D01*
X62818424Y-47782176D01*
X62784651Y-47819169D01*
X62750921Y-47856233D01*
X62717235Y-47893368D01*
X62683592Y-47930574D01*
X62649993Y-47967851D01*
X62616437Y-48005199D01*
X62582926Y-48042618D01*
X62549458Y-48080107D01*
X62516035Y-48117668D01*
X62482655Y-48155299D01*
X62449321Y-48193000D01*
X62416030Y-48230772D01*
X62382785Y-48268615D01*
X62349584Y-48306527D01*
X62316427Y-48344510D01*
X62283316Y-48382563D01*
X62250250Y-48420687D01*
X62217229Y-48458880D01*
X62184253Y-48497143D01*
X62151323Y-48535476D01*
X62118438Y-48573879D01*
X62085598Y-48612352D01*
X62052805Y-48650894D01*
X62020057Y-48689506D01*
X61987355Y-48728188D01*
X61954699Y-48766939D01*
X61922090Y-48805759D01*
X61889527Y-48844648D01*
X61857010Y-48883607D01*
X61824540Y-48922635D01*
X61792116Y-48961732D01*
X61759739Y-49000897D01*
X61727409Y-49040132D01*
X61695126Y-49079436D01*
X61662890Y-49118808D01*
X61630701Y-49158248D01*
X61598560Y-49197758D01*
X61566466Y-49237335D01*
X61534420Y-49276982D01*
X61502421Y-49316696D01*
X61470470Y-49356479D01*
X61438567Y-49396329D01*
X61406712Y-49436248D01*
X61374905Y-49476235D01*
X61343146Y-49516289D01*
X61311436Y-49556412D01*
X61279774Y-49596602D01*
X61248161Y-49636860D01*
X61216597Y-49677185D01*
X61185081Y-49717578D01*
X61153614Y-49758038D01*
X61122196Y-49798565D01*
X61090828Y-49839159D01*
X61059508Y-49879821D01*
X61028238Y-49920550D01*
X60997018Y-49961345D01*
X60965847Y-50002207D01*
X60934726Y-50043136D01*
X60903655Y-50084132D01*
X60872633Y-50125194D01*
X60841662Y-50166323D01*
X60810741Y-50207518D01*
X60779870Y-50248780D01*
X60749050Y-50290107D01*
X60718280Y-50331501D01*
X60687560Y-50372960D01*
X60656892Y-50414486D01*
X60626274Y-50456077D01*
X60595707Y-50497734D01*
X60565192Y-50539457D01*
X60534727Y-50581245D01*
X60504314Y-50623099D01*
X60473952Y-50665018D01*
X60443642Y-50707002D01*
X60413384Y-50749052D01*
X60383177Y-50791166D01*
X60353022Y-50833346D01*
X60322919Y-50875590D01*
X60292868Y-50917899D01*
X60262869Y-50960273D01*
X60232923Y-51002711D01*
X60203029Y-51045214D01*
X60173187Y-51087782D01*
X60143399Y-51130413D01*
X60113663Y-51173109D01*
X60083979Y-51215868D01*
X60054349Y-51258692D01*
X60024772Y-51301580D01*
X59995248Y-51344531D01*
X59965778Y-51387546D01*
X59936360Y-51430625D01*
X59906997Y-51473767D01*
X59877687Y-51516973D01*
X59848431Y-51560242D01*
X59819228Y-51603574D01*
X59790080Y-51646969D01*
X59760986Y-51690427D01*
X59731945Y-51733947D01*
X59702960Y-51777531D01*
X59674028Y-51821177D01*
X59645151Y-51864886D01*
X59616329Y-51908658D01*
X59587562Y-51952491D01*
X59558849Y-51996387D01*
X59530191Y-52040345D01*
X59501589Y-52084365D01*
X59473041Y-52128447D01*
X59444549Y-52172591D01*
X59416113Y-52216797D01*
X59387731Y-52261064D01*
X59359406Y-52305392D01*
X59331136Y-52349782D01*
X59302922Y-52394234D01*
X59274764Y-52438746D01*
X59246662Y-52483320D01*
X59218616Y-52527954D01*
X59190626Y-52572649D01*
X59162693Y-52617405D01*
X59134816Y-52662222D01*
X59106996Y-52707099D01*
X59079232Y-52752037D01*
X59051525Y-52797035D01*
X59023875Y-52842093D01*
X58996283Y-52887211D01*
X58968747Y-52932389D01*
X58941268Y-52977627D01*
X58913847Y-53022925D01*
X58886483Y-53068282D01*
X58859177Y-53113699D01*
X58831929Y-53159175D01*
X58804738Y-53204711D01*
X58777605Y-53250306D01*
X58750530Y-53295959D01*
X58723513Y-53341672D01*
X58696554Y-53387444D01*
X58669653Y-53433274D01*
X58642811Y-53479163D01*
X58616028Y-53525110D01*
X58589303Y-53571116D01*
X58562636Y-53617180D01*
X58536029Y-53663302D01*
X58509480Y-53709482D01*
X58482990Y-53755721D01*
X58456559Y-53802016D01*
X58430188Y-53848370D01*
X58403876Y-53894781D01*
X58377623Y-53941250D01*
X58351430Y-53987776D01*
X58325296Y-54034359D01*
X58299222Y-54080999D01*
X58273208Y-54127696D01*
X58247254Y-54174450D01*
X58221360Y-54221261D01*
X58195526Y-54268129D01*
X58169752Y-54315052D01*
X58144039Y-54362033D01*
X58118386Y-54409069D01*
X58092793Y-54456162D01*
X58067261Y-54503311D01*
X58041790Y-54550515D01*
X58016380Y-54597776D01*
X57991030Y-54645092D01*
X57965742Y-54692463D01*
X57940514Y-54739890D01*
X57915348Y-54787373D01*
X57890244Y-54834910D01*
X57865200Y-54882502D01*
X57840218Y-54930150D01*
X57815298Y-54977852D01*
X57790439Y-55025609D01*
X57765643Y-55073420D01*
X57740908Y-55121286D01*
X57716235Y-55169207D01*
X57703922Y-55193187D01*
X57691624Y-55217181D01*
X57679342Y-55241189D01*
X57667075Y-55265209D01*
X57654824Y-55289244D01*
X57642589Y-55313292D01*
X57630369Y-55337354D01*
X57618165Y-55361428D01*
X57605977Y-55385517D01*
X57593804Y-55409618D01*
X57581646Y-55433733D01*
X57569505Y-55457862D01*
X57557379Y-55482004D01*
X57545269Y-55506158D01*
X57533174Y-55530327D01*
X57521095Y-55554509D01*
X57509032Y-55578704D01*
X57496985Y-55602912D01*
X57484953Y-55627134D01*
X57472937Y-55651369D01*
X57460937Y-55675617D01*
X57448953Y-55699878D01*
X57436984Y-55724153D01*
X57425031Y-55748440D01*
X57413094Y-55772742D01*
X57401173Y-55797055D01*
X57389267Y-55821383D01*
X57377378Y-55845723D01*
X57365504Y-55870077D01*
X57353647Y-55894443D01*
X57341805Y-55918823D01*
X57329979Y-55943215D01*
X57318168Y-55967621D01*
X57306374Y-55992040D01*
X57294596Y-56016472D01*
X57282834Y-56040916D01*
X57271087Y-56065374D01*
X57259357Y-56089845D01*
X57247642Y-56114328D01*
X57235944Y-56138825D01*
X57224262Y-56163335D01*
X57212595Y-56187857D01*
X57200945Y-56212392D01*
X57189310Y-56236940D01*
X57177692Y-56261501D01*
X57166090Y-56286075D01*
X57154503Y-56310662D01*
X57142933Y-56335261D01*
X57131379Y-56359874D01*
X57119841Y-56384499D01*
X57108319Y-56409137D01*
X57096813Y-56433787D01*
X57085324Y-56458451D01*
X57073850Y-56483126D01*
X57062393Y-56507815D01*
X57050952Y-56532517D01*
X57039527Y-56557231D01*
X57028118Y-56581957D01*
X57016725Y-56606697D01*
X57005349Y-56631449D01*
X56993989Y-56656213D01*
X56982645Y-56680990D01*
X56971317Y-56705780D01*
X56960006Y-56730582D01*
X56948711Y-56755397D01*
X56937432Y-56780224D01*
X56926169Y-56805064D01*
X56914923Y-56829916D01*
X56903693Y-56854781D01*
X56892479Y-56879658D01*
X56881282Y-56904548D01*
X56870101Y-56929450D01*
X56858936Y-56954364D01*
X56847788Y-56979291D01*
X56836656Y-57004231D01*
X56825541Y-57029182D01*
X56814441Y-57054146D01*
X56803359Y-57079122D01*
X56792292Y-57104111D01*
X56781243Y-57129112D01*
X56770209Y-57154125D01*
X56759192Y-57179150D01*
X56748192Y-57204188D01*
X56737208Y-57229237D01*
X56726240Y-57254300D01*
X56715289Y-57279374D01*
X56704355Y-57304460D01*
X56693437Y-57329559D01*
X56682535Y-57354669D01*
X56671650Y-57379792D01*
X56660782Y-57404927D01*
X56649930Y-57430074D01*
X56639095Y-57455233D01*
X56628276Y-57480405D01*
X56617474Y-57505588D01*
X56606689Y-57530783D01*
X56595920Y-57555990D01*
X56585168Y-57581210D01*
X56574432Y-57606441D01*
X56563713Y-57631684D01*
X56553011Y-57656939D01*
X56542326Y-57682206D01*
X56531657Y-57707485D01*
X56521004Y-57732776D01*
X56510369Y-57758079D01*
X56499750Y-57783393D01*
X56489148Y-57808720D01*
X56478563Y-57834058D01*
X56467994Y-57859408D01*
X56457442Y-57884770D01*
X56446907Y-57910144D01*
X56436389Y-57935529D01*
X56425887Y-57960927D01*
X56415402Y-57986336D01*
X56404935Y-58011756D01*
X56394483Y-58037189D01*
X56384049Y-58062632D01*
X56373632Y-58088088D01*
X56363231Y-58113555D01*
X56352847Y-58139035D01*
X56342480Y-58164525D01*
X56332130Y-58190027D01*
X56321797Y-58215541D01*
X56311481Y-58241066D01*
X56301182Y-58266603D01*
X56290899Y-58292152D01*
X56280634Y-58317712D01*
X56270385Y-58343283D01*
X56260153Y-58368866D01*
X56249939Y-58394460D01*
X56239741Y-58420066D01*
X56229560Y-58445683D01*
X56219397Y-58471312D01*
X56209250Y-58496952D01*
X56199120Y-58522603D01*
X56189007Y-58548266D01*
X56178912Y-58573940D01*
X56168833Y-58599626D01*
X56158772Y-58625323D01*
X56148727Y-58651031D01*
X56138700Y-58676750D01*
X56128689Y-58702481D01*
X56118696Y-58728223D01*
X56108720Y-58753976D01*
X56098761Y-58779740D01*
X56088819Y-58805516D01*
X56078894Y-58831302D01*
X56068986Y-58857100D01*
X56059095Y-58882909D01*
X56049222Y-58908730D01*
X56039366Y-58934561D01*
X56029527Y-58960403D01*
X56019705Y-58986256D01*
X56009900Y-59012121D01*
X56000113Y-59037996D01*
X55990342Y-59063883D01*
X55980589Y-59089781D01*
X55970853Y-59115689D01*
X55961135Y-59141609D01*
X55951433Y-59167539D01*
X55941749Y-59193481D01*
X55932082Y-59219433D01*
X55922433Y-59245396D01*
X55912801Y-59271371D01*
X55903186Y-59297356D01*
X55893588Y-59323352D01*
X55884008Y-59349358D01*
X55874445Y-59375376D01*
X55864899Y-59401405D01*
X55855371Y-59427444D01*
X55845860Y-59453494D01*
X55836366Y-59479555D01*
X55826890Y-59505626D01*
X55817431Y-59531708D01*
X55807990Y-59557801D01*
X55798566Y-59583905D01*
X55789159Y-59610019D01*
X55779770Y-59636144D01*
X55770398Y-59662280D01*
X55761044Y-59688426D01*
X55751707Y-59714583D01*
X55742388Y-59740750D01*
X55733086Y-59766928D01*
X55723801Y-59793117D01*
X55714534Y-59819316D01*
X55705285Y-59845526D01*
X55696053Y-59871746D01*
X55686838Y-59897976D01*
X55677641Y-59924217D01*
X55668462Y-59950469D01*
X55659300Y-59976731D01*
X55650156Y-60003003D01*
X55641029Y-60029286D01*
X55631920Y-60055579D01*
X55622828Y-60081883D01*
X55613754Y-60108197D01*
X55604698Y-60134521D01*
X55595659Y-60160856D01*
X55586638Y-60187200D01*
X55577634Y-60213556D01*
X55568648Y-60239921D01*
X55559680Y-60266297D01*
X55550729Y-60292683D01*
X55541796Y-60319079D01*
X55532880Y-60345485D01*
X55523983Y-60371902D01*
X55515103Y-60398328D01*
X55506240Y-60424765D01*
X55497396Y-60451212D01*
X55488569Y-60477670D01*
X55479760Y-60504136D01*
X55470968Y-60530614D01*
X55462194Y-60557101D01*
X55453438Y-60583599D01*
X55444700Y-60610106D01*
X55435979Y-60636624D01*
X55427277Y-60663151D01*
X55418592Y-60689688D01*
X55409925Y-60716235D01*
X55401275Y-60742793D01*
X55392644Y-60769360D01*
X55384030Y-60795938D01*
X55375434Y-60822524D01*
X55366856Y-60849122D01*
X55358296Y-60875728D01*
X55349753Y-60902345D01*
X55341229Y-60928971D01*
X55332722Y-60955608D01*
X55324233Y-60982254D01*
X55315762Y-61008910D01*
X55307309Y-61035575D01*
X55298874Y-61062251D01*
X55290457Y-61088935D01*
X55282057Y-61115631D01*
X55273676Y-61142335D01*
X55265312Y-61169049D01*
X55256967Y-61195773D01*
X55248639Y-61222507D01*
X55240329Y-61249249D01*
X55232037Y-61276002D01*
X55223764Y-61302764D01*
X55215508Y-61329537D01*
X55207270Y-61356318D01*
X55199050Y-61383109D01*
X55190849Y-61409909D01*
X55182665Y-61436719D01*
X55174499Y-61463538D01*
X55166351Y-61490368D01*
X55158222Y-61517206D01*
X55150110Y-61544054D01*
X55142016Y-61570911D01*
X55133941Y-61597778D01*
X55125883Y-61624654D01*
X55117844Y-61651539D01*
X55109822Y-61678434D01*
X55101819Y-61705338D01*
X55093834Y-61732251D01*
X55085867Y-61759174D01*
X55077918Y-61786106D01*
X55069987Y-61813048D01*
X55062074Y-61839998D01*
X55054180Y-61866958D01*
X55046303Y-61893927D01*
X55038445Y-61920905D01*
X55030605Y-61947892D01*
X55022783Y-61974889D01*
X55014979Y-62001894D01*
X55007194Y-62028910D01*
X54999426Y-62055933D01*
X54991677Y-62082967D01*
X54983946Y-62110008D01*
X54976233Y-62137060D01*
X54968539Y-62164119D01*
X54960862Y-62191189D01*
X54953204Y-62218267D01*
X54945564Y-62245355D01*
X54937943Y-62272450D01*
X54930340Y-62299556D01*
X54922755Y-62326670D01*
X54915188Y-62353793D01*
X54907639Y-62380925D01*
X54900109Y-62408066D01*
X54892597Y-62435215D01*
X54885103Y-62462375D01*
X54877628Y-62489541D01*
X54870171Y-62516718D01*
X54862732Y-62543903D01*
X54855312Y-62571097D01*
X54847910Y-62598299D01*
X54840526Y-62625511D01*
X54833161Y-62652731D01*
X54825814Y-62679960D01*
X54818486Y-62707197D01*
X54811175Y-62734444D01*
X54803884Y-62761699D01*
X54796610Y-62788963D01*
X54789355Y-62816235D01*
X54782118Y-62843516D01*
X54774900Y-62870805D01*
X54767700Y-62898104D01*
X54760519Y-62925410D01*
X54753356Y-62952726D01*
X54746212Y-62980049D01*
X54739085Y-63007382D01*
X54731978Y-63034722D01*
X54724889Y-63062072D01*
X54717818Y-63089429D01*
X54710766Y-63116796D01*
X54703732Y-63144170D01*
X54696717Y-63171553D01*
X54689720Y-63198944D01*
X54682742Y-63226345D01*
X54675782Y-63253752D01*
X54668841Y-63281169D01*
X54661918Y-63308594D01*
X54655014Y-63336028D01*
X54648129Y-63363469D01*
X54641262Y-63390919D01*
X54634413Y-63418376D01*
X54627583Y-63445844D01*
X54620772Y-63473317D01*
X54613979Y-63500801D01*
X54607205Y-63528291D01*
X54600449Y-63555791D01*
X54593712Y-63583298D01*
X54586993Y-63610814D01*
X54580294Y-63638337D01*
X54573612Y-63665870D01*
X54566950Y-63693409D01*
X54560306Y-63720957D01*
X54553680Y-63748513D01*
X54547073Y-63776078D01*
X54540486Y-63803649D01*
X54533916Y-63831230D01*
X54527365Y-63858817D01*
X54520833Y-63886414D01*
X54514320Y-63914017D01*
X54507825Y-63941630D01*
X54501349Y-63969250D01*
X54494891Y-63996878D01*
X54488453Y-64024513D01*
X54482032Y-64052158D01*
X54475631Y-64079809D01*
X54469249Y-64107469D01*
X54462885Y-64135135D01*
X54456540Y-64162811D01*
X54450213Y-64190493D01*
X54443905Y-64218185D01*
X54437617Y-64245882D01*
X54431346Y-64273589D01*
X54425095Y-64301302D01*
X54418862Y-64329025D01*
X54412649Y-64356753D01*
X54406453Y-64384491D01*
X54400277Y-64412235D01*
X54394119Y-64439988D01*
X54387981Y-64467747D01*
X54381861Y-64495516D01*
X54375760Y-64523290D01*
X54369677Y-64551074D01*
X54363614Y-64578863D01*
X54357569Y-64606662D01*
X54351543Y-64634467D01*
X54345536Y-64662280D01*
X54339548Y-64690100D01*
X54333579Y-64717929D01*
X54327629Y-64745763D01*
X54321697Y-64773607D01*
X54315784Y-64801457D01*
X54309890Y-64829315D01*
X54304015Y-64857179D01*
X54298159Y-64885053D01*
X54292322Y-64912932D01*
X54286504Y-64940820D01*
X54280705Y-64968714D01*
X54274924Y-64996616D01*
X54269163Y-65024525D01*
X54263420Y-65052442D01*
X54257696Y-65080365D01*
X54251991Y-65108297D01*
X54246306Y-65136234D01*
X54240638Y-65164181D01*
X54234991Y-65192132D01*
X54229362Y-65220093D01*
X54223752Y-65248059D01*
X54218160Y-65276034D01*
X54212589Y-65304015D01*
X54207035Y-65332004D01*
X54201501Y-65359999D01*
X54195986Y-65388002D01*
X54190490Y-65416011D01*
X54185013Y-65444029D01*
X54179555Y-65472052D01*
X54174115Y-65500084D01*
X54168695Y-65528121D01*
X54163294Y-65556166D01*
X54157912Y-65584217D01*
X54152549Y-65612277D01*
X54147205Y-65640342D01*
X54141880Y-65668415D01*
X54136574Y-65696494D01*
X54131287Y-65724581D01*
X54126020Y-65752674D01*
X54120771Y-65780775D01*
X54115541Y-65808881D01*
X54110331Y-65836996D01*
X54105139Y-65865116D01*
X54099967Y-65893244D01*
X54094814Y-65921378D01*
X54089679Y-65949519D01*
X54084564Y-65977666D01*
X54079468Y-66005822D01*
X54074391Y-66033982D01*
X54069334Y-66062151D01*
X54064295Y-66090325D01*
X54059275Y-66118507D01*
X54054275Y-66146694D01*
X54049294Y-66174889D01*
X54044332Y-66203090D01*
X54039389Y-66231298D01*
X54034465Y-66259512D01*
X54029560Y-66287734D01*
X54024675Y-66315960D01*
X54019808Y-66344195D01*
X54014961Y-66372435D01*
X54010133Y-66400683D01*
X54005325Y-66428936D01*
X54000535Y-66457196D01*
X53995765Y-66485462D01*
X53991013Y-66513736D01*
X53986282Y-66542014D01*
X53981569Y-66570301D01*
X53976875Y-66598592D01*
X53972201Y-66626892D01*
X53967546Y-66655196D01*
X53962910Y-66683508D01*
X53958293Y-66711824D01*
X53953696Y-66740149D01*
X53949118Y-66768478D01*
X53944559Y-66796816D01*
X53940019Y-66825158D01*
X53935499Y-66853508D01*
X53930998Y-66881862D01*
X53926516Y-66910224D01*
X53922053Y-66938591D01*
X53917610Y-66966966D01*
X53913186Y-66995345D01*
X53908781Y-67023732D01*
X53904396Y-67052123D01*
X53900029Y-67080522D01*
X53895683Y-67108926D01*
X53891355Y-67137337D01*
X53887047Y-67165753D01*
X53882758Y-67194177D01*
X53878488Y-67222605D01*
X53874238Y-67251040D01*
X53870007Y-67279480D01*
X53865795Y-67307928D01*
X53861603Y-67336380D01*
X53857430Y-67364839D01*
X53853276Y-67393303D01*
X53849142Y-67421775D01*
X53845027Y-67450250D01*
X53840931Y-67478734D01*
X53836855Y-67507221D01*
X53832798Y-67535716D01*
X53828761Y-67564215D01*
X53824743Y-67592722D01*
X53820744Y-67621233D01*
X53816765Y-67649751D01*
X53812805Y-67678273D01*
X53808864Y-67706803D01*
X53804943Y-67735337D01*
X53801042Y-67763879D01*
X53797159Y-67792424D01*
X53793296Y-67820977D01*
X53789453Y-67849534D01*
X53785629Y-67878098D01*
X53781824Y-67906666D01*
X53778039Y-67935242D01*
X53774273Y-67963821D01*
X53770527Y-67992408D01*
X53766800Y-68020998D01*
X53763093Y-68049596D01*
X53759405Y-68078198D01*
X53755736Y-68106807D01*
X53752087Y-68135420D01*
X53748457Y-68164040D01*
X53744847Y-68192664D01*
X53741256Y-68221296D01*
X53737685Y-68249930D01*
X53734133Y-68278573D01*
X53730601Y-68307218D01*
X53727088Y-68335871D01*
X53720895Y-68386793D01*
X53720895Y-78386793D02*
X53727897Y-78444331D01*
X53734977Y-78501843D01*
X53742135Y-78559331D01*
X53749369Y-78616793D01*
X53756682Y-78674230D01*
X53764071Y-78731641D01*
X53771538Y-78789027D01*
X53779082Y-78846387D01*
X53786704Y-78903722D01*
X53794403Y-78961030D01*
X53802179Y-79018312D01*
X53810032Y-79075569D01*
X53817962Y-79132799D01*
X53825969Y-79190003D01*
X53834054Y-79247180D01*
X53842215Y-79304331D01*
X53850454Y-79361455D01*
X53858769Y-79418553D01*
X53867161Y-79475623D01*
X53875631Y-79532667D01*
X53884177Y-79589683D01*
X53892799Y-79646673D01*
X53901499Y-79703635D01*
X53910275Y-79760570D01*
X53919128Y-79817477D01*
X53928058Y-79874357D01*
X53937064Y-79931209D01*
X53946147Y-79988033D01*
X53955306Y-80044829D01*
X53964542Y-80101598D01*
X53973854Y-80158338D01*
X53983243Y-80215049D01*
X53992708Y-80271733D01*
X54002249Y-80328388D01*
X54011867Y-80385014D01*
X54021561Y-80441612D01*
X54031331Y-80498181D01*
X54041177Y-80554721D01*
X54051099Y-80611232D01*
X54061098Y-80667714D01*
X54071173Y-80724167D01*
X54081323Y-80780590D01*
X54091550Y-80836984D01*
X54101852Y-80893349D01*
X54112230Y-80949683D01*
X54122685Y-81005988D01*
X54133214Y-81062263D01*
X54143820Y-81118508D01*
X54154502Y-81174723D01*
X54165259Y-81230908D01*
X54176091Y-81287062D01*
X54187000Y-81343186D01*
X54197983Y-81399279D01*
X54209043Y-81455342D01*
X54220178Y-81511374D01*
X54231388Y-81567375D01*
X54242673Y-81623345D01*
X54254034Y-81679284D01*
X54265470Y-81735191D01*
X54276981Y-81791068D01*
X54288568Y-81846913D01*
X54300230Y-81902726D01*
X54311966Y-81958507D01*
X54323778Y-82014257D01*
X54335665Y-82069975D01*
X54347626Y-82125661D01*
X54359663Y-82181314D01*
X54371775Y-82236936D01*
X54383961Y-82292525D01*
X54396222Y-82348082D01*
X54408557Y-82403606D01*
X54420968Y-82459097D01*
X54433453Y-82514555D01*
X54446012Y-82569981D01*
X54458646Y-82625374D01*
X54471355Y-82680733D01*
X54484138Y-82736059D01*
X54496995Y-82791352D01*
X54509927Y-82846611D01*
X54522933Y-82901836D01*
X54536013Y-82957028D01*
X54549167Y-83012186D01*
X54562396Y-83067310D01*
X54575698Y-83122400D01*
X54589075Y-83177456D01*
X54602525Y-83232477D01*
X54616050Y-83287464D01*
X54629648Y-83342417D01*
X54643320Y-83397334D01*
X54657066Y-83452217D01*
X54670886Y-83507065D01*
X54684779Y-83561879D01*
X54698746Y-83616656D01*
X54712786Y-83671399D01*
X54726900Y-83726107D01*
X54741087Y-83780778D01*
X54755348Y-83835415D01*
X54769682Y-83890015D01*
X54784089Y-83944580D01*
X54798570Y-83999109D01*
X54813124Y-84053602D01*
X54827751Y-84108058D01*
X54842451Y-84162478D01*
X54857224Y-84216862D01*
X54872069Y-84271210D01*
X54886988Y-84325520D01*
X54901980Y-84379794D01*
X54917044Y-84434031D01*
X54932181Y-84488231D01*
X54947391Y-84542394D01*
X54962674Y-84596520D01*
X54978029Y-84650608D01*
X54993456Y-84704659D01*
X55008956Y-84758673D01*
X55024529Y-84812648D01*
X55040173Y-84866586D01*
X55055890Y-84920486D01*
X55071679Y-84974347D01*
X55087541Y-85028171D01*
X55103474Y-85081956D01*
X55119480Y-85135703D01*
X55135557Y-85189411D01*
X55151706Y-85243081D01*
X55167927Y-85296712D01*
X55184220Y-85350304D01*
X55200585Y-85403857D01*
X55217021Y-85457370D01*
X55233529Y-85510845D01*
X55250109Y-85564280D01*
X55258426Y-85590984D01*
X55266760Y-85617676D01*
X55275113Y-85644359D01*
X55283483Y-85671032D01*
X55291871Y-85697696D01*
X55300276Y-85724348D01*
X55308700Y-85750992D01*
X55317141Y-85777625D01*
X55325601Y-85804249D01*
X55334078Y-85830861D01*
X55342573Y-85857465D01*
X55351085Y-85884058D01*
X55359616Y-85910641D01*
X55368164Y-85937214D01*
X55376730Y-85963778D01*
X55385314Y-85990330D01*
X55393915Y-86016873D01*
X55402534Y-86043405D01*
X55411172Y-86069928D01*
X55419826Y-86096440D01*
X55428499Y-86122943D01*
X55437189Y-86149434D01*
X55445896Y-86175917D01*
X55454622Y-86202388D01*
X55463365Y-86228850D01*
X55472126Y-86255300D01*
X55480904Y-86281742D01*
X55489700Y-86308172D01*
X55498514Y-86334593D01*
X55507346Y-86361002D01*
X55516195Y-86387402D01*
X55525061Y-86413791D01*
X55533946Y-86440170D01*
X55542848Y-86466538D01*
X55551767Y-86492897D01*
X55560704Y-86519244D01*
X55569659Y-86545582D01*
X55578631Y-86571909D01*
X55587621Y-86598226D01*
X55596629Y-86624531D01*
X55605654Y-86650828D01*
X55614696Y-86677112D01*
X55623756Y-86703387D01*
X55632834Y-86729651D01*
X55641929Y-86755905D01*
X55651041Y-86782147D01*
X55660172Y-86808380D01*
X55669319Y-86834602D01*
X55678484Y-86860814D01*
X55687667Y-86887014D01*
X55696867Y-86913204D01*
X55706084Y-86939383D01*
X55715319Y-86965553D01*
X55724572Y-86991710D01*
X55733842Y-87017858D01*
X55743129Y-87043994D01*
X55752433Y-87070121D01*
X55761755Y-87096236D01*
X55771095Y-87122341D01*
X55780451Y-87148434D01*
X55789826Y-87174517D01*
X55799217Y-87200589D01*
X55808626Y-87226651D01*
X55818053Y-87252701D01*
X55827496Y-87278741D01*
X55836957Y-87304770D01*
X55846436Y-87330788D01*
X55855931Y-87356795D01*
X55865444Y-87382792D01*
X55874974Y-87408777D01*
X55884522Y-87434752D01*
X55894087Y-87460715D01*
X55903669Y-87486668D01*
X55913268Y-87512609D01*
X55922885Y-87538540D01*
X55932519Y-87564459D01*
X55942170Y-87590368D01*
X55951838Y-87616265D01*
X55961524Y-87642152D01*
X55971226Y-87668027D01*
X55980946Y-87693892D01*
X55990683Y-87719745D01*
X56000438Y-87745587D01*
X56010209Y-87771418D01*
X56019998Y-87797238D01*
X56029804Y-87823047D01*
X56039627Y-87848845D01*
X56049467Y-87874631D01*
X56059325Y-87900406D01*
X56069199Y-87926170D01*
X56079090Y-87951923D01*
X56088999Y-87977664D01*
X56098925Y-88003395D01*
X56108867Y-88029114D01*
X56118828Y-88054822D01*
X56128804Y-88080518D01*
X56138798Y-88106204D01*
X56148809Y-88131877D01*
X56158838Y-88157540D01*
X56168883Y-88183191D01*
X56178945Y-88208831D01*
X56189024Y-88234459D01*
X56199120Y-88260076D01*
X56209233Y-88285681D01*
X56219363Y-88311276D01*
X56229510Y-88336858D01*
X56239675Y-88362429D01*
X56249856Y-88387989D01*
X56260054Y-88413537D01*
X56270268Y-88439074D01*
X56280500Y-88464599D01*
X56290749Y-88490112D01*
X56301015Y-88515615D01*
X56311297Y-88541105D01*
X56321597Y-88566584D01*
X56331913Y-88592051D01*
X56342246Y-88617507D01*
X56352596Y-88642951D01*
X56362963Y-88668384D01*
X56373347Y-88693804D01*
X56383748Y-88719213D01*
X56394165Y-88744610D01*
X56404599Y-88769996D01*
X56415050Y-88795370D01*
X56425518Y-88820733D01*
X56436003Y-88846083D01*
X56446504Y-88871422D01*
X56457022Y-88896748D01*
X56467557Y-88922064D01*
X56478109Y-88947367D01*
X56488677Y-88972659D01*
X56499262Y-88997938D01*
X56509864Y-89023206D01*
X56520483Y-89048461D01*
X56531118Y-89073706D01*
X56541770Y-89098938D01*
X56552438Y-89124158D01*
X56563124Y-89149366D01*
X56573826Y-89174563D01*
X56584544Y-89199747D01*
X56595279Y-89224919D01*
X56606031Y-89250079D01*
X56616799Y-89275228D01*
X56627584Y-89300364D01*
X56638386Y-89325489D01*
X56649204Y-89350601D01*
X56660039Y-89375701D01*
X56670890Y-89400789D01*
X56681758Y-89425865D01*
X56692643Y-89450929D01*
X56703544Y-89475981D01*
X56714461Y-89501020D01*
X56725395Y-89526048D01*
X56736346Y-89551063D01*
X56747313Y-89576067D01*
X56758296Y-89601057D01*
X56769296Y-89626036D01*
X56780313Y-89651003D01*
X56791346Y-89675957D01*
X56802395Y-89700899D01*
X56813461Y-89725829D01*
X56824543Y-89750746D01*
X56835642Y-89775651D01*
X56846757Y-89800544D01*
X56857888Y-89825424D01*
X56869036Y-89850292D01*
X56880200Y-89875148D01*
X56891380Y-89899991D01*
X56902577Y-89924822D01*
X56913791Y-89949641D01*
X56925020Y-89974447D01*
X56936266Y-89999241D01*
X56947528Y-90024022D01*
X56958807Y-90048790D01*
X56970101Y-90073547D01*
X56981412Y-90098290D01*
X56992740Y-90123022D01*
X57004083Y-90147740D01*
X57015443Y-90172447D01*
X57026819Y-90197140D01*
X57038211Y-90221821D01*
X57049620Y-90246490D01*
X57061045Y-90271146D01*
X57072485Y-90295789D01*
X57083943Y-90320420D01*
X57095416Y-90345037D01*
X57106905Y-90369643D01*
X57118411Y-90394235D01*
X57129932Y-90418815D01*
X57141470Y-90443382D01*
X57153024Y-90467937D01*
X57164594Y-90492478D01*
X57176180Y-90517008D01*
X57187782Y-90541524D01*
X57199401Y-90566027D01*
X57211035Y-90590518D01*
X57222686Y-90614996D01*
X57234352Y-90639461D01*
X57246035Y-90663913D01*
X57257733Y-90688352D01*
X57269448Y-90712779D01*
X57281178Y-90737192D01*
X57292925Y-90761593D01*
X57304687Y-90785980D01*
X57316466Y-90810355D01*
X57328260Y-90834717D01*
X57340070Y-90859066D01*
X57351896Y-90883402D01*
X57363739Y-90907725D01*
X57375597Y-90932035D01*
X57387471Y-90956332D01*
X57399361Y-90980616D01*
X57411267Y-91004887D01*
X57423188Y-91029144D01*
X57435126Y-91053389D01*
X57447079Y-91077621D01*
X57459048Y-91101839D01*
X57471033Y-91126045D01*
X57483034Y-91150237D01*
X57495051Y-91174416D01*
X57507083Y-91198582D01*
X57519131Y-91222735D01*
X57531195Y-91246874D01*
X57543275Y-91271001D01*
X57555370Y-91295114D01*
X57567482Y-91319214D01*
X57579609Y-91343300D01*
X57591751Y-91367374D01*
X57603909Y-91391434D01*
X57616083Y-91415481D01*
X57628273Y-91439514D01*
X57640478Y-91463534D01*
X57652700Y-91487541D01*
X57664936Y-91511535D01*
X57677188Y-91535515D01*
X57689456Y-91559481D01*
X57701740Y-91583435D01*
X57714039Y-91607375D01*
X57726354Y-91631301D01*
X57738684Y-91655214D01*
X57751030Y-91679114D01*
X57763391Y-91703000D01*
X57775768Y-91726873D01*
X57788160Y-91750732D01*
X57800568Y-91774577D01*
X57812992Y-91798410D01*
X57825431Y-91822228D01*
X57837885Y-91846033D01*
X57850355Y-91869825D01*
X57862840Y-91893602D01*
X57875341Y-91917367D01*
X57887857Y-91941117D01*
X57900389Y-91964854D01*
X57912936Y-91988578D01*
X57925499Y-92012287D01*
X57938077Y-92035983D01*
X57950670Y-92059666D01*
X57963278Y-92083334D01*
X57975902Y-92106989D01*
X57988542Y-92130631D01*
X58001196Y-92154258D01*
X58013866Y-92177872D01*
X58026551Y-92201472D01*
X58039252Y-92225058D01*
X58051968Y-92248630D01*
X58064699Y-92272189D01*
X58077445Y-92295733D01*
X58090207Y-92319264D01*
X58102984Y-92342781D01*
X58115776Y-92366284D01*
X58128583Y-92389774D01*
X58141405Y-92413249D01*
X58154243Y-92436710D01*
X58167096Y-92460158D01*
X58179964Y-92483591D01*
X58192847Y-92507011D01*
X58205745Y-92530417D01*
X58218659Y-92553808D01*
X58231587Y-92577186D01*
X58244531Y-92600550D01*
X58257490Y-92623899D01*
X58270463Y-92647235D01*
X58283452Y-92670556D01*
X58296456Y-92693864D01*
X58309475Y-92717157D01*
X58322509Y-92740436D01*
X58335558Y-92763701D01*
X58348622Y-92786953D01*
X58361701Y-92810189D01*
X58374795Y-92833412D01*
X58387904Y-92856621D01*
X58401028Y-92879815D01*
X58414167Y-92902995D01*
X58427321Y-92926161D01*
X58440489Y-92949313D01*
X58453673Y-92972450D01*
X58466871Y-92995574D01*
X58480085Y-93018683D01*
X58493313Y-93041777D01*
X58506556Y-93064858D01*
X58519814Y-93087924D01*
X58533087Y-93110976D01*
X58546375Y-93134013D01*
X58559677Y-93157036D01*
X58572994Y-93180045D01*
X58586326Y-93203039D01*
X58599673Y-93226019D01*
X58613035Y-93248985D01*
X58626411Y-93271936D01*
X58639802Y-93294872D01*
X58653208Y-93317795D01*
X58666628Y-93340702D01*
X58680063Y-93363596D01*
X58693513Y-93386475D01*
X58706978Y-93409339D01*
X58720457Y-93432189D01*
X58733951Y-93455024D01*
X58747459Y-93477845D01*
X58760982Y-93500651D01*
X58774520Y-93523442D01*
X58788072Y-93546219D01*
X58801639Y-93568982D01*
X58815220Y-93591729D01*
X58828817Y-93614463D01*
X58842427Y-93637181D01*
X58856052Y-93659885D01*
X58869692Y-93682574D01*
X58883346Y-93705249D01*
X58897014Y-93727909D01*
X58910698Y-93750554D01*
X58924395Y-93773184D01*
X58938107Y-93795800D01*
X58951834Y-93818401D01*
X58965575Y-93840987D01*
X58979330Y-93863558D01*
X58993100Y-93886115D01*
X59006884Y-93908657D01*
X59020682Y-93931184D01*
X59034495Y-93953696D01*
X59048322Y-93976193D01*
X59062164Y-93998675D01*
X59076020Y-94021143D01*
X59089890Y-94043596D01*
X59103774Y-94066034D01*
X59117673Y-94088456D01*
X59131586Y-94110864D01*
X59145514Y-94133257D01*
X59159455Y-94155635D01*
X59173411Y-94177998D01*
X59187381Y-94200347D01*
X59201365Y-94222680D01*
X59215364Y-94244998D01*
X59229377Y-94267301D01*
X59243403Y-94289589D01*
X59257444Y-94311862D01*
X59271500Y-94334120D01*
X59285569Y-94356363D01*
X59299652Y-94378591D01*
X59313750Y-94400803D01*
X59327861Y-94423001D01*
X59341987Y-94445183D01*
X59356127Y-94467351D01*
X59370281Y-94489503D01*
X59384449Y-94511640D01*
X59398630Y-94533762D01*
X59412826Y-94555869D01*
X59427036Y-94577960D01*
X59441260Y-94600036D01*
X59455498Y-94622097D01*
X59469750Y-94644143D01*
X59484016Y-94666173D01*
X59498296Y-94688189D01*
X59512589Y-94710188D01*
X59526897Y-94732173D01*
X59541218Y-94754142D01*
X59555554Y-94776097D01*
X59569903Y-94798035D01*
X59584266Y-94819959D01*
X59598643Y-94841866D01*
X59613034Y-94863759D01*
X59627438Y-94885636D01*
X59641857Y-94907498D01*
X59656289Y-94929345D01*
X59670735Y-94951176D01*
X59685194Y-94972991D01*
X59699668Y-94994791D01*
X59714155Y-95016576D01*
X59728656Y-95038345D01*
X59743171Y-95060099D01*
X59757699Y-95081837D01*
X59772241Y-95103559D01*
X59786797Y-95125267D01*
X59801366Y-95146958D01*
X59815949Y-95168635D01*
X59830546Y-95190295D01*
X59845156Y-95211940D01*
X59859780Y-95233569D01*
X59874418Y-95255183D01*
X59889069Y-95276781D01*
X59903733Y-95298363D01*
X59918411Y-95319930D01*
X59933103Y-95341481D01*
X59947808Y-95363017D01*
X59962527Y-95384537D01*
X59977259Y-95406040D01*
X59992005Y-95427529D01*
X60006764Y-95449002D01*
X60021537Y-95470459D01*
X60036323Y-95491900D01*
X60051123Y-95513326D01*
X60065935Y-95534735D01*
X60080762Y-95556129D01*
X60095601Y-95577507D01*
X60110455Y-95598870D01*
X60125321Y-95620216D01*
X60140201Y-95641547D01*
X60155094Y-95662861D01*
X60170000Y-95684161D01*
X60184920Y-95705443D01*
X60199853Y-95726711D01*
X60214799Y-95747962D01*
X60229759Y-95769198D01*
X60244732Y-95790417D01*
X60259718Y-95811621D01*
X60274717Y-95832808D01*
X60289730Y-95853980D01*
X60304755Y-95875136D01*
X60319794Y-95896276D01*
X60334846Y-95917399D01*
X60349912Y-95938507D01*
X60364990Y-95959599D01*
X60380082Y-95980675D01*
X60395186Y-96001734D01*
X60410304Y-96022778D01*
X60425434Y-96043805D01*
X60440578Y-96064817D01*
X60455735Y-96085812D01*
X60470905Y-96106792D01*
X60486088Y-96127754D01*
X60501284Y-96148702D01*
X60516493Y-96169632D01*
X60531715Y-96190548D01*
X60546950Y-96211446D01*
X60562198Y-96232329D01*
X60577459Y-96253195D01*
X60592733Y-96274045D01*
X60608019Y-96294879D01*
X60623319Y-96315697D01*
X60638631Y-96336498D01*
X60653957Y-96357283D01*
X60669295Y-96378052D01*
X60684646Y-96398805D01*
X60700010Y-96419541D01*
X60715387Y-96440261D01*
X60730776Y-96460965D01*
X60746179Y-96481652D01*
X60761594Y-96502323D01*
X60777022Y-96522978D01*
X60792462Y-96543616D01*
X60807916Y-96564239D01*
X60823382Y-96584844D01*
X60838861Y-96605434D01*
X60854352Y-96626007D01*
X60869857Y-96646564D01*
X60885373Y-96667103D01*
X60900903Y-96687627D01*
X60916445Y-96708134D01*
X60932000Y-96728625D01*
X60947567Y-96749099D01*
X60963148Y-96769558D01*
X60978740Y-96789998D01*
X60994345Y-96810424D01*
X61009963Y-96830832D01*
X61025593Y-96851224D01*
X61041236Y-96871599D01*
X61056891Y-96891958D01*
X61072559Y-96912300D01*
X61088239Y-96932626D01*
X61103932Y-96952934D01*
X61119637Y-96973227D01*
X61135354Y-96993503D01*
X61151085Y-97013762D01*
X61166827Y-97034005D01*
X61182582Y-97054231D01*
X61198349Y-97074440D01*
X61214129Y-97094633D01*
X61229921Y-97114809D01*
X61245725Y-97134968D01*
X61261541Y-97155110D01*
X61277371Y-97175237D01*
X61293212Y-97195346D01*
X61309066Y-97215439D01*
X61324931Y-97235514D01*
X61340809Y-97255573D01*
X61356699Y-97275615D01*
X61372602Y-97295641D01*
X61388517Y-97315649D01*
X61404444Y-97335642D01*
X61420383Y-97355616D01*
X61436334Y-97375575D01*
X61452297Y-97395516D01*
X61468273Y-97415441D01*
X61484261Y-97435348D01*
X61500261Y-97455240D01*
X61516272Y-97475113D01*
X61532297Y-97494971D01*
X61548332Y-97514811D01*
X61564381Y-97534635D01*
X61580441Y-97554441D01*
X61596513Y-97574231D01*
X61612597Y-97594003D01*
X61628694Y-97613759D01*
X61644802Y-97633497D01*
X61660922Y-97653219D01*
X61677054Y-97672924D01*
X61693198Y-97692612D01*
X61709354Y-97712282D01*
X61725522Y-97731936D01*
X61741701Y-97751573D01*
X61757894Y-97771193D01*
X61774097Y-97790795D01*
X61790313Y-97810381D01*
X61806539Y-97829949D01*
X61822779Y-97849501D01*
X61839029Y-97869035D01*
X61855292Y-97888553D01*
X61871566Y-97908053D01*
X61887853Y-97927536D01*
X61904151Y-97947002D01*
X61920461Y-97966451D01*
X61936782Y-97985882D01*
X61953115Y-98005297D01*
X61969460Y-98024694D01*
X61985817Y-98044075D01*
X62002184Y-98063437D01*
X62018565Y-98082784D01*
X62034956Y-98102112D01*
X62051359Y-98121424D01*
X62067773Y-98140717D01*
X62084200Y-98159995D01*
X62100638Y-98179254D01*
X62117087Y-98198497D01*
X62133548Y-98217722D01*
X62150021Y-98236930D01*
X62166505Y-98256120D01*
X62183001Y-98275294D01*
X62199507Y-98294449D01*
X62216026Y-98313588D01*
X62232556Y-98332709D01*
X62249098Y-98351814D01*
X62265650Y-98370900D01*
X62282215Y-98389970D01*
X62298790Y-98409021D01*
X62315377Y-98428056D01*
X62331975Y-98447073D01*
X62348586Y-98466073D01*
X62365206Y-98485055D01*
X62381839Y-98504020D01*
X62398483Y-98522967D01*
X62415138Y-98541898D01*
X62431804Y-98560810D01*
X62448482Y-98579706D01*
X62465171Y-98598583D01*
X62481871Y-98617444D01*
X62498582Y-98636286D01*
X62515305Y-98655111D01*
X62532039Y-98673919D01*
X62548784Y-98692709D01*
X62565540Y-98711481D01*
X62582308Y-98730237D01*
X62599086Y-98748974D01*
X62615876Y-98767695D01*
X62632676Y-98786397D01*
X62649488Y-98805082D01*
X62666311Y-98823749D01*
X62683145Y-98842399D01*
X62699990Y-98861031D01*
X62716846Y-98879646D01*
X62733713Y-98898242D01*
X62750592Y-98916822D01*
X62767480Y-98935383D01*
X62784381Y-98953928D01*
X62801291Y-98972453D01*
X62818214Y-98990963D01*
X62835146Y-99009453D01*
X62852091Y-99027927D01*
X62869045Y-99046382D01*
X62886011Y-99064820D01*
X62902987Y-99083240D01*
X62919975Y-99101643D01*
X62936973Y-99120027D01*
X62953983Y-99138395D01*
X62971002Y-99156743D01*
X62988033Y-99175075D01*
X63005074Y-99193388D01*
X63022127Y-99211685D01*
X63039189Y-99229962D01*
X63056264Y-99248223D01*
X63073348Y-99266465D01*
X63090444Y-99284691D01*
X63107549Y-99302897D01*
X63124666Y-99321087D01*
X63141793Y-99339257D01*
X63158932Y-99357411D01*
X63176080Y-99375546D01*
X63193239Y-99393664D01*
X63210409Y-99411763D01*
X63227590Y-99429846D01*
X63244780Y-99447909D01*
X63261983Y-99465956D01*
X63279194Y-99483983D01*
X63296417Y-99501994D01*
X63313650Y-99519986D01*
X63330895Y-99537961D01*
X63348148Y-99555917D01*
X63365414Y-99573856D01*
X63382688Y-99591776D01*
X63399974Y-99609679D01*
X63417270Y-99627563D01*
X63434577Y-99645430D01*
X63451893Y-99663278D01*
X63469221Y-99681109D01*
X63486559Y-99698921D01*
X63503907Y-99716716D01*
X63521265Y-99734492D01*
X63538635Y-99752251D01*
X63556013Y-99769991D01*
X63573403Y-99787714D01*
X63590802Y-99805417D01*
X63608213Y-99823104D01*
X63625632Y-99840772D01*
X63643064Y-99858422D01*
X63660504Y-99876054D01*
X63677955Y-99893668D01*
X63695416Y-99911263D01*
X63712888Y-99928841D01*
X63730369Y-99946400D01*
X63747861Y-99963942D01*
X63765362Y-99981465D01*
X63782875Y-99998970D01*
X63800396Y-100016456D01*
X63817929Y-100033926D01*
X63835471Y-100051376D01*
X63853024Y-100068809D01*
X63870586Y-100086222D01*
X63888159Y-100103618D01*
X63905741Y-100120995D01*
X63923334Y-100138356D01*
X63940936Y-100155696D01*
X63958549Y-100173020D01*
X63976171Y-100190324D01*
X63993804Y-100207611D01*
X64011446Y-100224878D01*
X64029099Y-100242129D01*
X64046760Y-100259360D01*
X64064433Y-100276574D01*
X64082114Y-100293768D01*
X64099807Y-100310946D01*
X64117508Y-100328104D01*
X64135220Y-100345245D01*
X64152941Y-100362366D01*
X64170673Y-100379470D01*
X64188413Y-100396554D01*
X64206165Y-100413622D01*
X64223924Y-100430670D01*
X64241695Y-100447700D01*
X64259475Y-100464711D01*
X64277265Y-100481705D01*
X64295064Y-100498680D01*
X64312874Y-100515637D01*
X64330692Y-100532574D01*
X64348521Y-100549495D01*
X64366359Y-100566395D01*
X64384207Y-100583279D01*
X64402064Y-100600143D01*
X64419932Y-100616990D01*
X64437808Y-100633817D01*
X64455694Y-100650626D01*
X64473589Y-100667416D01*
X64491496Y-100684189D01*
X64509410Y-100700942D01*
X64527335Y-100717678D01*
X64545268Y-100734394D01*
X64563212Y-100751093D01*
X64581164Y-100767772D01*
X64599127Y-100784434D01*
X64617098Y-100801076D01*
X64635080Y-100817701D01*
X64653070Y-100834306D01*
X64671071Y-100850894D01*
X64689079Y-100867462D01*
X64707099Y-100884013D01*
X64725126Y-100900544D01*
X64743164Y-100917057D01*
X64761210Y-100933551D01*
X64779267Y-100950027D01*
X64797332Y-100966484D01*
X64815407Y-100982923D01*
X64833491Y-100999342D01*
X64851585Y-101015744D01*
X64869686Y-101032126D01*
X64887799Y-101048491D01*
X64905919Y-101064836D01*
X64924050Y-101081164D01*
X64942188Y-101097471D01*
X64960338Y-101113761D01*
X64978495Y-101130032D01*
X64996662Y-101146285D01*
X65014837Y-101162517D01*
X65033023Y-101178733D01*
X65051216Y-101194929D01*
X65069420Y-101211107D01*
X65087632Y-101227265D01*
X65105854Y-101243406D01*
X65124084Y-101259526D01*
X65142324Y-101275630D01*
X65160571Y-101291713D01*
X65178830Y-101307779D01*
X65197095Y-101323825D01*
X65215371Y-101339853D01*
X65233655Y-101355862D01*
X65251949Y-101371853D01*
X65270250Y-101387823D01*
X65288562Y-101403777D01*
X65306881Y-101419710D01*
X65325211Y-101435626D01*
X65343548Y-101451522D01*
X65361896Y-101467400D01*
X65380250Y-101483258D01*
X65398615Y-101499099D01*
X65416988Y-101514919D01*
X65435370Y-101530722D01*
X65453760Y-101546505D01*
X65472160Y-101562270D01*
X65490568Y-101578015D01*
X65508986Y-101593743D01*
X65527410Y-101609451D01*
X65545846Y-101625141D01*
X65564288Y-101640810D01*
X65582740Y-101656463D01*
X65601200Y-101672094D01*
X65619670Y-101687709D01*
X65638147Y-101703303D01*
X65656634Y-101718880D01*
X65675128Y-101734436D01*
X65693632Y-101749975D01*
X65712144Y-101765494D01*
X65730665Y-101780995D01*
X65749194Y-101796476D01*
X65767732Y-101811939D01*
X65786278Y-101827382D01*
X65804833Y-101842807D01*
X65823396Y-101858212D01*
X65841969Y-101873600D01*
X65860548Y-101888967D01*
X65879138Y-101904316D01*
X65897734Y-101919646D01*
X65916340Y-101934957D01*
X65934954Y-101950248D01*
X65953577Y-101965522D01*
X65972207Y-101980775D01*
X65990847Y-101996011D01*
X66009493Y-102011226D01*
X66028150Y-102026424D01*
X66046814Y-102041601D01*
X66065487Y-102056761D01*
X66084167Y-102071900D01*
X66102857Y-102087021D01*
X66121553Y-102102122D01*
X66140260Y-102117206D01*
X66158973Y-102132269D01*
X66177696Y-102147314D01*
X66196425Y-102162339D01*
X66215165Y-102177347D01*
X66233911Y-102192333D01*
X66252666Y-102207302D01*
X66271428Y-102222251D01*
X66290201Y-102237182D01*
X66308979Y-102252092D01*
X66327767Y-102266985D01*
X66346562Y-102281857D01*
X66365366Y-102296712D01*
X66384177Y-102311546D01*
X66402998Y-102326362D01*
X66421825Y-102341158D01*
X66440662Y-102355936D01*
X66459504Y-102370694D01*
X66478357Y-102385434D01*
X66497216Y-102400153D01*
X66516085Y-102414854D01*
X66534960Y-102429535D01*
X66553845Y-102444199D01*
X66572735Y-102458841D01*
X66591636Y-102473466D01*
X66610542Y-102488070D01*
X66629459Y-102502657D01*
X66648381Y-102517223D01*
X66667313Y-102531771D01*
X66686251Y-102546299D01*
X66705199Y-102560809D01*
X66724153Y-102575298D01*
X66743116Y-102589769D01*
X66762086Y-102604220D01*
X66781065Y-102618653D01*
X66800049Y-102633065D01*
X66819044Y-102647460D01*
X66838044Y-102661833D01*
X66857054Y-102676190D01*
X66876070Y-102690525D01*
X66895096Y-102704843D01*
X66914127Y-102719139D01*
X66933168Y-102733419D01*
X66952214Y-102747677D01*
X66971270Y-102761917D01*
X66990332Y-102776137D01*
X67009403Y-102790339D01*
X67028480Y-102804521D01*
X67047567Y-102818684D01*
X67066659Y-102832827D01*
X67085761Y-102846952D01*
X67104868Y-102861056D01*
X67123985Y-102875142D01*
X67143107Y-102889208D01*
X67162239Y-102903255D01*
X67181376Y-102917282D01*
X67200523Y-102931291D01*
X67219676Y-102945280D01*
X67238837Y-102959250D01*
X67258004Y-102973200D01*
X67277181Y-102987132D01*
X67296363Y-103001043D01*
X67315555Y-103014936D01*
X67334751Y-103028808D01*
X67353958Y-103042662D01*
X67373169Y-103056496D01*
X67392390Y-103070312D01*
X67411616Y-103084106D01*
X67430852Y-103097883D01*
X67450093Y-103111639D01*
X67469343Y-103125378D01*
X67488598Y-103139095D01*
X67507863Y-103152795D01*
X67527133Y-103166473D01*
X67546412Y-103180134D01*
X67565696Y-103193774D01*
X67584990Y-103207395D01*
X67604289Y-103220996D01*
X67623597Y-103234580D01*
X67642910Y-103248142D01*
X67662232Y-103261686D01*
X67681560Y-103275209D01*
X67700896Y-103288715D01*
X67720238Y-103302199D01*
X67739589Y-103315666D01*
X67758945Y-103329111D01*
X67778310Y-103342539D01*
X67797680Y-103355946D01*
X67817059Y-103369335D01*
X67836443Y-103382702D01*
X67855836Y-103396052D01*
X67875234Y-103409381D01*
X67894642Y-103422692D01*
X67914054Y-103435982D01*
X67933475Y-103449254D01*
X67952901Y-103462505D01*
X67972336Y-103475739D01*
X67991776Y-103488951D01*
X68011225Y-103502145D01*
X68030679Y-103515318D01*
X68050142Y-103528473D01*
X68069609Y-103541607D01*
X68089086Y-103554724D01*
X68108567Y-103567819D01*
X68128057Y-103580896D01*
X68147552Y-103593952D01*
X68167056Y-103606990D01*
X68186564Y-103620007D01*
X68206082Y-103633007D01*
X68225604Y-103645985D01*
X68245135Y-103658945D01*
X68264670Y-103671884D01*
X68284215Y-103684805D01*
X68303764Y-103697705D01*
X68323322Y-103710587D01*
X68342884Y-103723448D01*
X68362455Y-103736291D01*
X68382031Y-103749112D01*
X68401616Y-103761916D01*
X68421205Y-103774699D01*
X68440803Y-103787464D01*
X68460405Y-103800207D01*
X68480016Y-103812933D01*
X68499632Y-103825637D01*
X68519256Y-103838324D01*
X68538885Y-103850989D01*
X68558522Y-103863636D01*
X68578164Y-103876262D01*
X68597815Y-103888871D01*
X68617469Y-103901458D01*
X68637133Y-103914026D01*
X68656801Y-103926574D01*
X68676477Y-103939104D01*
X68696158Y-103951613D01*
X68715848Y-103964103D01*
X68735541Y-103976573D01*
X68755243Y-103989024D01*
X68774950Y-104001454D01*
X68794665Y-104013866D01*
X68814384Y-104026257D01*
X68834112Y-104038630D01*
X68853844Y-104050982D01*
X68873585Y-104063316D01*
X68893329Y-104075628D01*
X68913083Y-104087923D01*
X68932840Y-104100196D01*
X68952606Y-104112451D01*
X68972376Y-104124685D01*
X68992154Y-104136901D01*
X69011937Y-104149096D01*
X69031728Y-104161272D01*
X69051523Y-104173428D01*
X69071326Y-104185565D01*
X69091134Y-104197681D01*
X69110949Y-104209779D01*
X69130769Y-104221856D01*
X69150597Y-104233914D01*
X69170429Y-104245952D01*
X69190270Y-104257971D01*
X69210114Y-104269969D01*
X69229967Y-104281949D01*
X69249824Y-104293908D01*
X69269689Y-104305849D01*
X69289558Y-104317768D01*
X69309435Y-104329670D01*
X69329316Y-104341550D01*
X69349205Y-104353412D01*
X69369098Y-104365252D01*
X69389000Y-104377075D01*
X69408905Y-104388876D01*
X69428818Y-104400659D01*
X69448735Y-104412421D01*
X69468660Y-104424165D01*
X69488589Y-104435888D01*
X69508527Y-104447592D01*
X69528468Y-104459275D01*
X69548417Y-104470940D01*
X69568369Y-104482584D01*
X69588330Y-104494209D01*
X69608295Y-104505813D01*
X69628268Y-104517399D01*
X69648244Y-104528964D01*
X69668228Y-104540511D01*
X69688216Y-104552036D01*
X69708213Y-104563543D01*
X69728212Y-104575029D01*
X69748220Y-104586497D01*
X69768231Y-104597944D01*
X69788251Y-104609372D01*
X69808273Y-104620779D01*
X69828304Y-104632167D01*
X69848339Y-104643535D01*
X69868381Y-104654884D01*
X69888427Y-104666212D01*
X69908480Y-104677522D01*
X69928538Y-104688811D01*
X69948603Y-104700081D01*
X69968671Y-104711330D01*
X69988748Y-104722561D01*
X70008828Y-104733770D01*
X70028916Y-104744961D01*
X70049007Y-104756131D01*
X70069106Y-104767283D01*
X70089208Y-104778413D01*
X70109318Y-104789526D01*
X70129432Y-104800617D01*
X70149553Y-104811689D01*
X70169678Y-104822741D01*
X70189810Y-104833774D01*
X70209946Y-104844785D01*
X70230090Y-104855779D01*
X70250236Y-104866751D01*
X70270391Y-104877705D01*
X70290549Y-104888638D01*
X70310714Y-104899552D01*
X70330883Y-104910445D01*
X70351059Y-104921320D01*
X70371239Y-104932174D01*
X70391426Y-104943009D01*
X70411616Y-104953823D01*
X70431815Y-104964618D01*
X70452016Y-104975393D01*
X70472225Y-104986149D01*
X70492437Y-104996884D01*
X70512656Y-105007600D01*
X70532879Y-105018295D01*
X70553109Y-105028972D01*
X70573343Y-105039628D01*
X70593584Y-105050265D01*
X70613827Y-105060881D01*
X70634079Y-105071478D01*
X70654334Y-105082055D01*
X70674596Y-105092612D01*
X70694861Y-105103149D01*
X70715133Y-105113667D01*
X70735409Y-105124165D01*
X70755692Y-105134643D01*
X70775978Y-105145101D01*
X70796271Y-105155539D01*
X70816568Y-105165957D01*
X70836871Y-105176357D01*
X70857178Y-105186735D01*
X70877492Y-105197094D01*
X70897809Y-105207433D01*
X70918134Y-105217753D01*
X70938461Y-105228052D01*
X70958795Y-105238332D01*
X70979133Y-105248591D01*
X70999478Y-105258832D01*
X71019825Y-105269051D01*
X71040180Y-105279252D01*
X71060538Y-105289432D01*
X71080903Y-105299593D01*
X71101271Y-105309733D01*
X71121646Y-105319855D01*
X71142024Y-105329955D01*
X71162409Y-105340037D01*
X71182796Y-105350098D01*
X71203192Y-105360140D01*
X71223589Y-105370161D01*
X71243994Y-105380163D01*
X71264402Y-105390145D01*
X71284817Y-105400107D01*
X71305234Y-105410049D01*
X71325659Y-105419972D01*
X71346086Y-105429874D01*
X71366521Y-105439757D01*
X71386958Y-105449619D01*
X71407402Y-105459463D01*
X71427849Y-105469285D01*
X71448303Y-105479089D01*
X71468759Y-105488872D01*
X71489223Y-105498636D01*
X71509689Y-105508379D01*
X71530162Y-105518103D01*
X71550638Y-105527807D01*
X71571120Y-105537491D01*
X71591606Y-105547155D01*
X71612098Y-105556800D01*
X71632593Y-105566424D01*
X71653094Y-105576029D01*
X71673598Y-105585613D01*
X71694110Y-105595178D01*
X71714623Y-105604722D01*
X71735144Y-105614248D01*
X71755667Y-105623752D01*
X71776197Y-105633238D01*
X71796729Y-105642703D01*
X71817269Y-105652149D01*
X71837810Y-105661574D01*
X71858359Y-105670980D01*
X71878909Y-105680366D01*
X71899467Y-105689732D01*
X71920027Y-105699078D01*
X71940594Y-105708404D01*
X71961163Y-105717710D01*
X71981740Y-105726997D01*
X72002318Y-105736263D01*
X72022903Y-105745510D01*
X72043491Y-105754736D01*
X72064085Y-105763944D01*
X72084681Y-105773130D01*
X72105285Y-105782298D01*
X72125890Y-105791444D01*
X72146502Y-105800572D01*
X72167117Y-105809679D01*
X72187738Y-105818767D01*
X72208361Y-105827834D01*
X72228992Y-105836882D01*
X72249624Y-105845909D01*
X72270263Y-105854918D01*
X72290904Y-105863905D01*
X72311552Y-105872874D01*
X72332201Y-105881821D01*
X72352858Y-105890750D01*
X72373516Y-105899658D01*
X72394182Y-105908547D01*
X72414849Y-105917415D01*
X72435523Y-105926264D01*
X72456199Y-105935093D01*
X72476882Y-105943902D01*
X72497566Y-105952690D01*
X72518258Y-105961460D01*
X72538951Y-105970208D01*
X72559651Y-105978938D01*
X72580352Y-105987647D01*
X72601061Y-105996337D01*
X72621771Y-106005006D01*
X72642488Y-106013656D01*
X72663207Y-106022285D01*
X72683932Y-106030895D01*
X72704659Y-106039485D01*
X72725393Y-106048055D01*
X72746128Y-106056605D01*
X72766871Y-106065135D01*
X72787614Y-106073645D01*
X72808365Y-106082136D01*
X72829117Y-106090606D01*
X72849876Y-106099057D01*
X72870636Y-106107487D01*
X72891403Y-106115898D01*
X72912172Y-106124288D01*
X72932947Y-106132659D01*
X72953724Y-106141010D01*
X72974508Y-106149341D01*
X72995293Y-106157652D01*
X73016084Y-106165943D01*
X73036877Y-106174214D01*
X73057677Y-106182466D01*
X73078478Y-106190697D01*
X73099286Y-106198909D01*
X73120095Y-106207100D01*
X73140911Y-106215272D01*
X73161728Y-106223423D01*
X73182552Y-106231555D01*
X73203377Y-106239667D01*
X73224209Y-106247759D01*
X73245042Y-106255830D01*
X73265882Y-106263883D01*
X73286723Y-106271915D01*
X73307570Y-106279927D01*
X73328419Y-106287919D01*
X73349275Y-106295892D01*
X73370131Y-106303844D01*
X73390994Y-106311777D01*
X73411859Y-106319689D01*
X73432730Y-106327582D01*
X73453602Y-106335455D01*
X73474481Y-106343308D01*
X73495360Y-106351140D01*
X73516247Y-106358954D01*
X73537134Y-106366747D01*
X73558028Y-106374520D01*
X73578923Y-106382273D01*
X73599825Y-106390007D01*
X73620728Y-106397720D01*
X73641637Y-106405414D01*
X73662547Y-106413087D01*
X73683464Y-106420741D01*
X73704382Y-106428374D01*
X73725306Y-106435988D01*
X73746231Y-106443581D01*
X73767163Y-106451156D01*
X73788096Y-106458709D01*
X73809035Y-106466244D01*
X73829975Y-106473757D01*
X73850922Y-106481252D01*
X73871869Y-106488726D01*
X73892823Y-106496180D01*
X73913778Y-106503614D01*
X73934739Y-106511029D01*
X73955701Y-106518423D01*
X73976670Y-106525798D01*
X73997639Y-106533153D01*
X74018615Y-106540488D01*
X74039591Y-106547802D01*
X74060574Y-106555098D01*
X74081558Y-106562372D01*
X74102548Y-106569627D01*
X74123539Y-106576862D01*
X74144537Y-106584078D01*
X74165535Y-106591273D01*
X74186539Y-106598448D01*
X74207544Y-106605603D01*
X74228556Y-106612739D01*
X74249568Y-106619854D01*
X74270586Y-106626950D01*
X74291606Y-106634025D01*
X74312631Y-106641082D01*
X74333657Y-106648117D01*
X74354690Y-106655133D01*
X74375723Y-106662129D01*
X74396762Y-106669105D01*
X74417803Y-106676061D01*
X74438849Y-106682997D01*
X74459896Y-106689913D01*
X74480949Y-106696810D01*
X74502003Y-106703686D01*
X74523063Y-106710543D01*
X74544123Y-106717379D01*
X74565190Y-106724196D01*
X74586258Y-106730992D01*
X74607331Y-106737769D01*
X74628405Y-106744526D01*
X74649486Y-106751263D01*
X74670567Y-106757979D01*
X74691653Y-106764677D01*
X74712741Y-106771353D01*
X74733835Y-106778011D01*
X74754929Y-106784648D01*
X74776029Y-106791265D01*
X74797130Y-106797862D01*
X74818237Y-106804440D01*
X74839344Y-106810997D01*
X74860457Y-106817535D01*
X74881571Y-106824052D01*
X74902691Y-106830551D01*
X74923812Y-106837028D01*
X74944938Y-106843486D01*
X74966065Y-106849924D01*
X74987198Y-106856342D01*
X75008331Y-106862740D01*
X75029471Y-106869118D01*
X75050610Y-106875476D01*
X75071756Y-106881815D01*
X75092902Y-106888133D01*
X75114054Y-106894432D01*
X75135207Y-106900710D01*
X75156365Y-106906969D01*
X75177524Y-106913207D01*
X75198689Y-106919426D01*
X75219854Y-106925624D01*
X75241025Y-106931804D01*
X75262196Y-106937962D01*
X75283373Y-106944101D01*
X75304551Y-106950220D01*
X75325734Y-106956320D01*
X75346918Y-106962399D01*
X75368108Y-106968458D01*
X75389298Y-106974497D01*
X75410493Y-106980517D01*
X75431689Y-106986516D01*
X75452891Y-106992496D01*
X75474093Y-106998455D01*
X75495301Y-107004396D01*
X75516509Y-107010315D01*
X75537723Y-107016215D01*
X75558938Y-107022095D01*
X75580158Y-107027955D01*
X75601378Y-107033795D01*
X75622604Y-107039615D01*
X75643830Y-107045415D01*
X75665062Y-107051196D01*
X75686294Y-107056956D01*
X75707532Y-107062697D01*
X75728770Y-107068417D01*
X75750014Y-107074118D01*
X75771258Y-107079799D01*
X75792507Y-107085460D01*
X75813757Y-107091100D01*
X75835012Y-107096721D01*
X75856268Y-107102322D01*
X75877529Y-107107904D01*
X75898790Y-107113464D01*
X75920057Y-107119006D01*
X75941325Y-107124527D01*
X75962597Y-107130029D01*
X75983870Y-107135510D01*
X76005149Y-107140972D01*
X76026427Y-107146413D01*
X76047711Y-107151835D01*
X76068996Y-107157237D01*
X76090285Y-107162619D01*
X76111575Y-107167980D01*
X76132870Y-107173323D01*
X76154166Y-107178645D01*
X76175467Y-107183947D01*
X76196768Y-107189229D01*
X76218075Y-107194492D01*
X76239381Y-107199734D01*
X76260693Y-107204957D01*
X76282005Y-107210159D01*
X76303323Y-107215342D01*
X76324641Y-107220504D01*
X76345964Y-107225647D01*
X76367287Y-107230770D01*
X76388615Y-107235873D01*
X76409944Y-107240956D01*
X76431278Y-107246019D01*
X76452612Y-107251062D01*
X76473951Y-107256086D01*
X76495290Y-107261089D01*
X76516635Y-107266073D01*
X76537980Y-107271036D01*
X76559330Y-107275980D01*
X76580680Y-107280903D01*
X76602035Y-107285808D01*
X76623390Y-107290691D01*
X76644751Y-107295555D01*
X76666111Y-107300399D01*
X76687477Y-107305224D01*
X76708843Y-107310027D01*
X76730214Y-107314812D01*
X76751585Y-107319576D01*
X76772961Y-107324321D01*
X76794337Y-107329045D01*
X76815719Y-107333750D01*
X76837100Y-107338435D01*
X76858487Y-107343100D01*
X76879873Y-107347744D01*
X76901265Y-107352369D01*
X76922656Y-107356974D01*
X76944053Y-107361560D01*
X76965450Y-107366125D01*
X76986852Y-107370670D01*
X77008253Y-107375195D01*
X77029660Y-107379701D01*
X77051067Y-107384186D01*
X77072479Y-107388652D01*
X77093890Y-107393098D01*
X77115307Y-107397524D01*
X77136724Y-107401929D01*
X77158146Y-107406316D01*
X77179567Y-107410681D01*
X77200994Y-107415028D01*
X77222420Y-107419354D01*
X77243852Y-107423660D01*
X77265283Y-107427947D01*
X77286720Y-107432213D01*
X77308156Y-107436460D01*
X77329597Y-107440687D01*
X77351039Y-107444893D01*
X77372485Y-107449080D01*
X77393931Y-107453247D01*
X77415381Y-107457394D01*
X77436832Y-107461521D01*
X77458288Y-107465628D01*
X77479743Y-107469716D01*
X77501204Y-107473783D01*
X77522664Y-107477830D01*
X77544129Y-107481858D01*
X77565594Y-107485866D01*
X77587064Y-107489854D01*
X77608533Y-107493821D01*
X77630008Y-107497769D01*
X77651482Y-107501697D01*
X77672961Y-107505605D01*
X77694440Y-107509493D01*
X77715924Y-107513362D01*
X77737407Y-107517210D01*
X77758896Y-107521038D01*
X77780384Y-107524847D01*
X77801876Y-107528636D01*
X77823369Y-107532404D01*
X77844866Y-107536153D01*
X77866364Y-107539882D01*
X77887866Y-107543591D01*
X77909367Y-107547280D01*
X77930874Y-107550949D01*
X77952380Y-107554598D01*
X77973891Y-107558228D01*
X77995401Y-107561837D01*
X78016917Y-107565426D01*
X78038432Y-107568996D01*
X78059951Y-107572546D01*
X78081471Y-107576075D01*
X78102995Y-107579585D01*
X78124519Y-107583075D01*
X78146047Y-107586545D01*
X78167575Y-107589995D01*
X78189108Y-107593426D01*
X78210641Y-107596836D01*
X78232178Y-107600226D01*
X78253715Y-107603596D01*
X78275256Y-107606947D01*
X78296797Y-107610278D01*
X78318343Y-107613589D01*
X78339888Y-107616879D01*
X78361438Y-107620150D01*
X78382988Y-107623401D01*
X78404542Y-107626632D01*
X78426096Y-107629843D01*
X78447654Y-107633035D01*
X78469212Y-107636206D01*
X78490775Y-107639358D01*
X78512337Y-107642489D01*
X78533904Y-107645601D01*
X78555470Y-107648692D01*
X78577041Y-107651764D01*
X78598612Y-107654816D01*
X78620186Y-107657848D01*
X78641761Y-107660860D01*
X78663340Y-107663852D01*
X78684919Y-107666824D01*
X78706502Y-107669777D01*
X78728085Y-107672709D01*
X78749672Y-107675621D01*
X78771259Y-107678514D01*
X78792850Y-107681387D01*
X78814440Y-107684239D01*
X78836036Y-107687072D01*
X78857630Y-107689885D01*
X78879230Y-107692678D01*
X78900828Y-107695451D01*
X78922431Y-107698204D01*
X78944034Y-107700937D01*
X78965641Y-107703651D01*
X78987248Y-107706344D01*
X79008859Y-107709018D01*
X79030469Y-107711671D01*
X79052084Y-107714305D01*
X79073698Y-107716919D01*
X79095317Y-107719513D01*
X79116935Y-107722086D01*
X79138558Y-107724641D01*
X79160180Y-107727175D01*
X79181806Y-107729689D01*
X79203432Y-107732183D01*
X79225062Y-107734657D01*
X79246692Y-107737112D01*
X79268326Y-107739546D01*
X79289959Y-107741961D01*
X79311597Y-107744356D01*
X79333234Y-107746730D01*
X79354875Y-107749085D01*
X79376516Y-107751420D01*
X79398162Y-107753735D01*
X79419806Y-107756030D01*
X79441455Y-107758305D01*
X79463103Y-107760560D01*
X79484756Y-107762796D01*
X79506408Y-107765011D01*
X79528064Y-107767207D01*
X79549720Y-107769382D01*
X79571379Y-107771538D01*
X79593039Y-107773673D01*
X79614702Y-107775789D01*
X79636365Y-107777885D01*
X79658032Y-107779961D01*
X79679698Y-107782017D01*
X79701369Y-107784053D01*
X79723039Y-107786069D01*
X79744713Y-107788065D01*
X79766387Y-107790042D01*
X79788064Y-107791998D01*
X79809741Y-107793934D01*
X79831422Y-107795851D01*
X79853103Y-107797747D01*
X79874788Y-107799624D01*
X79896472Y-107801481D01*
X79918160Y-107803318D01*
X79939847Y-107805134D01*
X79961539Y-107806931D01*
X79983230Y-107808708D01*
X80004925Y-107810466D01*
X80026619Y-107812203D01*
X80048318Y-107813920D01*
X80070015Y-107815617D01*
X80091717Y-107817295D01*
X80113418Y-107818952D01*
X80135123Y-107820589D01*
X80156828Y-107822207D01*
X80178537Y-107823805D01*
X80200244Y-107825382D01*
X80221956Y-107826940D01*
X80243668Y-107828478D01*
X80265383Y-107829996D01*
X80287097Y-107831494D01*
X80308816Y-107832972D01*
X80330533Y-107834430D01*
X80352255Y-107835868D01*
X80373976Y-107837286D01*
X80395701Y-107838684D01*
X80417425Y-107840062D01*
X80439154Y-107841421D01*
X80460881Y-107842759D01*
X80482613Y-107844078D01*
X80504343Y-107845376D01*
X80526078Y-107846655D01*
X80547812Y-107847913D01*
X80569550Y-107849152D01*
X80591287Y-107850371D01*
X80613028Y-107851570D01*
X80634768Y-107852748D01*
X80656512Y-107853907D01*
X80678256Y-107855046D01*
X80700003Y-107856165D01*
X80721750Y-107857264D01*
X80743500Y-107858343D01*
X80765250Y-107859402D01*
X80787003Y-107860442D01*
X80808756Y-107861461D01*
X80830512Y-107862460D01*
X80852268Y-107863439D01*
X80874028Y-107864399D01*
X80895786Y-107865338D01*
X80917549Y-107866258D01*
X80939311Y-107867157D01*
X80961076Y-107868037D01*
X80982841Y-107868896D01*
X81004610Y-107869736D01*
X81026378Y-107870556D01*
X81048149Y-107871355D01*
X81069920Y-107872135D01*
X81091695Y-107872895D01*
X81113469Y-107873635D01*
X81135246Y-107874354D01*
X81157023Y-107875054D01*
X81178803Y-107875734D01*
X81200583Y-107876394D01*
X81222366Y-107877034D01*
X81244149Y-107877654D01*
X81265935Y-107878254D01*
X81287721Y-107878834D01*
X81309510Y-107879394D01*
X81331298Y-107879934D01*
X81353090Y-107880455D01*
X81374881Y-107880955D01*
X81396676Y-107881435D01*
X81418470Y-107881895D01*
X81440268Y-107882335D01*
X81462065Y-107882756D01*
X81483865Y-107883156D01*
X81505665Y-107883536D01*
X81527468Y-107883896D01*
X81549270Y-107884237D01*
X81571076Y-107884557D01*
X81592882Y-107884857D01*
X81614690Y-107885138D01*
X81636498Y-107885398D01*
X81658310Y-107885638D01*
X81680121Y-107885859D01*
X81701935Y-107886059D01*
X81723748Y-107886240D01*
X81745565Y-107886400D01*
X81767381Y-107886540D01*
X81789201Y-107886661D01*
X81811020Y-107886761D01*
X81832842Y-107886842D01*
X81854664Y-107886902D01*
X81876488Y-107886943D01*
X81898313Y-107886963D01*
X81920140Y-107886963D01*
X81941967Y-107886944D01*
X81963797Y-107886904D01*
X81985627Y-107886845D01*
X82007460Y-107886765D01*
X82029292Y-107886665D01*
X82051127Y-107886546D01*
X82072962Y-107886406D01*
X82094800Y-107886246D01*
X82116637Y-107886067D01*
X82138477Y-107885867D01*
X82160317Y-107885647D01*
X82182160Y-107885408D01*
X82204003Y-107885148D01*
X82225848Y-107884868D01*
X82247693Y-107884568D01*
X82269541Y-107884249D01*
X82291389Y-107883909D01*
X82313239Y-107883549D01*
X82335089Y-107883169D01*
X82356942Y-107882769D01*
X82378795Y-107882349D01*
X82400650Y-107881909D01*
X82422505Y-107881449D01*
X82444363Y-107880969D01*
X82466220Y-107880469D01*
X82488081Y-107879949D01*
X82509941Y-107879409D01*
X82531804Y-107878849D01*
X82553666Y-107878268D01*
X82575531Y-107877668D01*
X82597396Y-107877048D01*
X82619263Y-107876407D01*
X82641130Y-107875747D01*
X82663000Y-107875067D01*
X82668193Y-107874902D01*
X82668193Y-107874902D02*
X82711921Y-107873472D01*
X82755642Y-107871962D01*
X82799356Y-107870372D01*
X82843062Y-107868703D01*
X82886760Y-107866954D01*
X82930451Y-107865125D01*
X82974134Y-107863216D01*
X83017810Y-107861228D01*
X83061478Y-107859159D01*
X83105138Y-107857012D01*
X83148790Y-107854784D01*
X83192435Y-107852477D01*
X83236072Y-107850090D01*
X83279701Y-107847623D01*
X83323322Y-107845077D01*
X83366936Y-107842451D01*
X83410541Y-107839746D01*
X83454139Y-107836961D01*
X83497728Y-107834096D01*
X83541310Y-107831151D01*
X83584883Y-107828127D01*
X83628449Y-107825024D01*
X83672006Y-107821840D01*
X83715555Y-107818578D01*
X83759096Y-107815235D01*
X83802629Y-107811813D01*
X83846153Y-107808311D01*
X83889669Y-107804730D01*
X83933177Y-107801069D01*
X83976677Y-107797329D01*
X84020168Y-107793509D01*
X84063651Y-107789610D01*
X84107125Y-107785631D01*
X84150591Y-107781572D01*
X84194048Y-107777434D01*
X84237497Y-107773216D01*
X84280937Y-107768919D01*
X84324369Y-107764543D01*
X84367791Y-107760087D01*
X84411206Y-107755551D01*
X84454611Y-107750936D01*
X84498008Y-107746241D01*
X84541396Y-107741467D01*
X84584775Y-107736613D01*
X84628145Y-107731680D01*
X84671506Y-107726667D01*
X84714858Y-107721575D01*
X84758202Y-107716404D01*
X84801536Y-107711153D01*
X84844861Y-107705822D01*
X84888177Y-107700412D01*
X84931484Y-107694923D01*
X84974782Y-107689354D01*
X85018070Y-107683705D01*
X85061349Y-107677978D01*
X85104619Y-107672170D01*
X85147880Y-107666284D01*
X85191131Y-107660317D01*
X85234373Y-107654272D01*
X85277606Y-107648147D01*
X85320828Y-107641942D01*
X85364042Y-107635658D01*
X85407246Y-107629295D01*
X85450440Y-107622852D01*
X85493624Y-107616330D01*
X85536799Y-107609728D01*
X85579964Y-107603047D01*
X85623119Y-107596287D01*
X85666265Y-107589447D01*
X85709400Y-107582527D01*
X85752526Y-107575529D01*
X85795642Y-107568450D01*
X85838747Y-107561293D01*
X85881843Y-107554056D01*
X85924929Y-107546740D01*
X85968004Y-107539344D01*
X86011070Y-107531868D01*
X86054125Y-107524314D01*
X86097170Y-107516680D01*
X86140204Y-107508966D01*
X86183228Y-107501173D01*
X86226242Y-107493301D01*
X86269246Y-107485350D01*
X86312239Y-107477318D01*
X86355221Y-107469208D01*
X86398193Y-107461018D01*
X86441154Y-107452749D01*
X86484105Y-107444400D01*
X86527045Y-107435972D01*
X86569974Y-107427465D01*
X86612892Y-107418878D01*
X86655800Y-107410211D01*
X86698696Y-107401466D01*
X86741582Y-107392641D01*
X86784457Y-107383736D01*
X86827321Y-107374752D01*
X86870173Y-107365689D01*
X86913015Y-107356546D01*
X86955845Y-107347324D01*
X86998664Y-107338022D01*
X87041472Y-107328642D01*
X87084269Y-107319181D01*
X87127054Y-107309642D01*
X87169827Y-107300022D01*
X87212590Y-107290324D01*
X87255340Y-107280546D01*
X87298080Y-107270689D01*
X87340807Y-107260752D01*
X87383523Y-107250736D01*
X87426227Y-107240640D01*
X87468920Y-107230465D01*
X87511600Y-107220211D01*
X87554269Y-107209877D01*
X87596926Y-107199464D01*
X87639571Y-107188971D01*
X87682204Y-107178399D01*
X87724824Y-107167748D01*
X87767433Y-107157017D01*
X87810029Y-107146206D01*
X87852613Y-107135317D01*
X87895185Y-107124348D01*
X87937745Y-107113299D01*
X87980292Y-107102171D01*
X88022827Y-107090964D01*
X88065349Y-107079677D01*
X88107858Y-107068311D01*
X88150355Y-107056865D01*
X88192840Y-107045340D01*
X88235311Y-107033735D01*
X88277770Y-107022051D01*
X88320216Y-107010288D01*
X88362649Y-106998445D01*
X88405069Y-106986523D01*
X88447476Y-106974521D01*
X88489871Y-106962440D01*
X88532251Y-106950280D01*
X88574619Y-106938040D01*
X88616974Y-106925721D01*
X88659315Y-106913322D01*
X88701643Y-106900843D01*
X88743957Y-106888286D01*
X88786258Y-106875649D01*
X88828546Y-106862932D01*
X88870820Y-106850136D01*
X88913080Y-106837261D01*
X88955326Y-106824306D01*
X88997559Y-106811271D01*
X89039778Y-106798158D01*
X89081983Y-106784964D01*
X89124174Y-106771692D01*
X89166351Y-106758340D01*
X89208514Y-106744908D01*
X89250663Y-106731397D01*
X89292798Y-106717806D01*
X89334919Y-106704136D01*
X89377025Y-106690387D01*
X89419116Y-106676558D01*
X89461194Y-106662650D01*
X89503257Y-106648662D01*
X89545305Y-106634595D01*
X89587339Y-106620448D01*
X89629357Y-106606222D01*
X89671362Y-106591917D01*
X89713351Y-106577532D01*
X89755325Y-106563067D01*
X89797285Y-106548523D01*
X89839230Y-106533900D01*
X89881159Y-106519197D01*
X89923073Y-106504415D01*
X89964972Y-106489553D01*
X90006856Y-106474612D01*
X90048725Y-106459591D01*
X90090578Y-106444491D01*
X90132415Y-106429312D01*
X90174237Y-106414053D01*
X90216044Y-106398714D01*
X90257834Y-106383296D01*
X90299609Y-106367799D01*
X90341369Y-106352222D01*
X90383112Y-106336566D01*
X90424839Y-106320830D01*
X90466551Y-106305015D01*
X90508246Y-106289121D01*
X90549925Y-106273147D01*
X90591588Y-106257093D01*
X90633234Y-106240960D01*
X90674865Y-106224748D01*
X90716478Y-106208456D01*
X90758076Y-106192085D01*
X90799656Y-106175634D01*
X90841220Y-106159104D01*
X90882768Y-106142494D01*
X90924298Y-106125805D01*
X90965812Y-106109037D01*
X91007308Y-106092189D01*
X91048788Y-106075262D01*
X91090251Y-106058255D01*
X91131696Y-106041169D01*
X91173124Y-106024003D01*
X91214535Y-106006758D01*
X91255929Y-105989434D01*
X91297305Y-105972030D01*
X91338664Y-105954547D01*
X91380005Y-105936984D01*
X91421328Y-105919342D01*
X91462633Y-105901621D01*
X91503921Y-105883820D01*
X91545191Y-105865940D01*
X91586443Y-105847980D01*
X91627677Y-105829941D01*
X91668892Y-105811823D01*
X91710090Y-105793625D01*
X91751269Y-105775348D01*
X91792430Y-105756992D01*
X91833572Y-105738556D01*
X91874696Y-105720041D01*
X91915801Y-105701446D01*
X91956888Y-105682772D01*
X91997956Y-105664019D01*
X92039005Y-105645186D01*
X92080035Y-105626274D01*
X92121046Y-105607283D01*
X92162038Y-105588212D01*
X92203011Y-105569063D01*
X92243965Y-105549833D01*
X92284899Y-105530525D01*
X92325814Y-105511137D01*
X92366710Y-105491670D01*
X92407586Y-105472123D01*
X92448442Y-105452498D01*
X92489279Y-105432793D01*
X92530096Y-105413009D01*
X92570893Y-105393145D01*
X92611670Y-105373202D01*
X92652427Y-105353180D01*
X92693164Y-105333079D01*
X92733880Y-105312899D01*
X92774577Y-105292639D01*
X92815253Y-105272300D01*
X92855908Y-105251882D01*
X92896543Y-105231384D01*
X92937158Y-105210808D01*
X92977751Y-105190152D01*
X93018324Y-105169417D01*
X93058876Y-105148603D01*
X93099407Y-105127710D01*
X93139917Y-105106738D01*
X93180406Y-105085686D01*
X93220874Y-105064556D01*
X93261320Y-105043346D01*
X93301745Y-105022057D01*
X93342148Y-105000689D01*
X93382530Y-104979242D01*
X93422890Y-104957716D01*
X93463229Y-104936111D01*
X93503545Y-104914427D01*
X93543840Y-104892664D01*
X93584113Y-104870821D01*
X93624363Y-104848900D01*
X93664592Y-104826900D01*
X93704798Y-104804821D01*
X93744982Y-104782662D01*
X93785143Y-104760425D01*
X93825282Y-104738109D01*
X93865398Y-104715714D01*
X93905491Y-104693240D01*
X93945562Y-104670687D01*
X93985609Y-104648055D01*
X94025634Y-104625344D01*
X94065636Y-104602555D01*
X94105614Y-104579686D01*
X94145569Y-104556739D01*
X94185501Y-104533713D01*
X94225409Y-104510608D01*
X94265294Y-104487424D01*
X94305155Y-104464161D01*
X94344992Y-104440820D01*
X94384806Y-104417400D01*
X94424596Y-104393901D01*
X94464361Y-104370323D01*
X94504103Y-104346667D01*
X94543820Y-104322932D01*
X94583513Y-104299119D01*
X94623182Y-104275226D01*
X94662826Y-104251255D01*
X94702445Y-104227206D01*
X94742040Y-104203078D01*
X94781610Y-104178871D01*
X94821155Y-104154586D01*
X94860675Y-104130222D01*
X94900171Y-104105780D01*
X94939641Y-104081259D01*
X94979085Y-104056659D01*
X95018505Y-104031982D01*
X95057899Y-104007225D01*
X95097267Y-103982391D01*
X95136610Y-103957478D01*
X95175927Y-103932486D01*
X95215218Y-103907416D01*
X95254483Y-103882268D01*
X95293722Y-103857042D01*
X95332935Y-103831737D01*
X95372122Y-103806354D01*
X95411283Y-103780892D01*
X95450417Y-103755353D01*
X95489524Y-103729735D01*
X95528605Y-103704039D01*
X95567659Y-103678265D01*
X95606687Y-103652413D01*
X95645687Y-103626482D01*
X95684660Y-103600474D01*
X95723607Y-103574387D01*
X95762526Y-103548223D01*
X95801417Y-103521980D01*
X95840281Y-103495659D01*
X95879118Y-103469261D01*
X95917927Y-103442784D01*
X95956708Y-103416230D01*
X95995462Y-103389598D01*
X96034187Y-103362887D01*
X96072885Y-103336099D01*
X96111554Y-103309234D01*
X96150195Y-103282290D01*
X96188808Y-103255269D01*
X96227392Y-103228170D01*
X96265947Y-103200993D01*
X96304474Y-103173738D01*
X96342973Y-103146406D01*
X96381442Y-103118997D01*
X96419882Y-103091510D01*
X96458293Y-103063945D01*
X96496675Y-103036302D01*
X96535028Y-103008583D01*
X96573351Y-102980785D01*
X96611645Y-102952911D01*
X96649909Y-102924959D01*
X96688144Y-102896929D01*
X96726349Y-102868823D01*
X96764523Y-102840639D01*
X96802668Y-102812377D01*
X96840783Y-102784039D01*
X96878867Y-102755623D01*
X96916921Y-102727130D01*
X96954944Y-102698560D01*
X96992937Y-102669913D01*
X97030899Y-102641189D01*
X97068831Y-102612388D01*
X97106731Y-102583509D01*
X97144601Y-102554554D01*
X97182439Y-102525522D01*
X97220246Y-102496413D01*
X97258022Y-102467227D01*
X97295767Y-102437965D01*
X97333480Y-102408625D01*
X97371161Y-102379209D01*
X97408810Y-102349717D01*
X97446428Y-102320147D01*
X97484014Y-102290501D01*
X97521567Y-102260778D01*
X97559089Y-102230979D01*
X97596578Y-102201103D01*
X97634034Y-102171151D01*
X97671458Y-102141123D01*
X97708850Y-102111018D01*
X97746209Y-102080836D01*
X97783534Y-102050579D01*
X97820827Y-102020245D01*
X97858087Y-101989835D01*
X97895314Y-101959349D01*
X97932507Y-101928786D01*
X97969667Y-101898148D01*
X98006793Y-101867433D01*
X98043886Y-101836643D01*
X98080945Y-101805776D01*
X98117970Y-101774834D01*
X98154961Y-101743815D01*
X98191918Y-101712721D01*
X98228841Y-101681551D01*
X98265730Y-101650306D01*
X98302584Y-101618984D01*
X98339404Y-101587588D01*
X98376189Y-101556115D01*
X98412939Y-101524567D01*
X98449654Y-101492943D01*
X98486334Y-101461244D01*
X98522980Y-101429470D01*
X98559590Y-101397620D01*
X98596165Y-101365695D01*
X98632704Y-101333694D01*
X98669208Y-101301619D01*
X98705676Y-101269468D01*
X98742108Y-101237242D01*
X98778504Y-101204941D01*
X98814865Y-101172565D01*
X98851189Y-101140114D01*
X98887477Y-101107589D01*
X98923729Y-101074988D01*
X98959944Y-101042312D01*
X98996123Y-101009562D01*
X99032265Y-100976737D01*
X99068370Y-100943838D01*
X99104438Y-100910863D01*
X99140470Y-100877815D01*
X99176464Y-100844692D01*
X99212420Y-100811494D01*
X99248340Y-100778222D01*
X99284222Y-100744876D01*
X99320066Y-100711455D01*
X99355873Y-100677960D01*
X99391642Y-100644391D01*
X99427372Y-100610748D01*
X99463065Y-100577031D01*
X99498720Y-100543240D01*
X99534336Y-100509375D01*
X99569914Y-100475436D01*
X99605453Y-100441424D01*
X99640954Y-100407337D01*
X99676416Y-100373177D01*
X99711839Y-100338943D01*
X99747223Y-100304636D01*
X99782567Y-100270255D01*
X99817873Y-100235801D01*
X99853139Y-100201273D01*
X99888366Y-100166672D01*
X99923553Y-100131998D01*
X99958701Y-100097251D01*
X99993809Y-100062430D01*
X100028877Y-100027537D01*
X100063904Y-99992570D01*
X100098892Y-99957530D01*
X100133839Y-99922418D01*
X100168746Y-99887232D01*
X100203613Y-99851974D01*
X100238438Y-99816644D01*
X100273223Y-99781240D01*
X100307967Y-99745764D01*
X100342671Y-99710216D01*
X100377333Y-99674595D01*
X100411954Y-99638902D01*
X100446533Y-99603136D01*
X100481071Y-99567298D01*
X100515568Y-99531389D01*
X100550022Y-99495407D01*
X100584435Y-99459352D01*
X100618807Y-99423227D01*
X100653136Y-99387029D01*
X100687423Y-99350759D01*
X100721667Y-99314418D01*
X100755869Y-99278004D01*
X100790029Y-99241520D01*
X100824146Y-99204963D01*
X100858221Y-99168336D01*
X100892252Y-99131637D01*
X100926241Y-99094866D01*
X100960186Y-99058025D01*
X100994088Y-99021112D01*
X101027947Y-98984128D01*
X101061763Y-98947073D01*
X101095534Y-98909947D01*
X101129263Y-98872750D01*
X101162947Y-98835483D01*
X101196588Y-98798144D01*
X101230184Y-98760735D01*
X101263736Y-98723256D01*
X101297244Y-98685706D01*
X101330708Y-98648085D01*
X101364127Y-98610395D01*
X101397502Y-98572634D01*
X101430831Y-98534802D01*
X101464116Y-98496901D01*
X101497356Y-98458929D01*
X101530551Y-98420888D01*
X101563701Y-98382777D01*
X101596805Y-98344596D01*
X101629864Y-98306345D01*
X101662877Y-98268025D01*
X101695845Y-98229635D01*
X101728767Y-98191175D01*
X101761643Y-98152646D01*
X101794473Y-98114048D01*
X101827257Y-98075381D01*
X101859994Y-98036644D01*
X101892685Y-97997839D01*
X101925330Y-97958964D01*
X101957928Y-97920020D01*
X101990479Y-97881008D01*
X102022984Y-97841927D01*
X102055441Y-97802777D01*
X102087852Y-97763559D01*
X102120215Y-97724272D01*
X102152531Y-97684917D01*
X102184799Y-97645494D01*
X102217020Y-97606002D01*
X102249193Y-97566442D01*
X102281319Y-97526814D01*
X102313396Y-97487118D01*
X102345426Y-97447354D01*
X102377408Y-97407523D01*
X102409341Y-97367624D01*
X102441226Y-97327657D01*
X102473062Y-97287622D01*
X102504850Y-97247521D01*
X102536589Y-97207351D01*
X102568279Y-97167115D01*
X102599920Y-97126811D01*
X102631513Y-97086441D01*
X102663056Y-97046003D01*
X102694550Y-97005498D01*
X102725994Y-96964927D01*
X102757389Y-96924289D01*
X102788734Y-96883584D01*
X102820030Y-96842813D01*
X102851275Y-96801975D01*
X102882471Y-96761071D01*
X102913617Y-96720100D01*
X102944712Y-96679064D01*
X102975757Y-96637961D01*
X103006752Y-96596793D01*
X103037696Y-96555558D01*
X103068589Y-96514258D01*
X103099432Y-96472892D01*
X103130223Y-96431461D01*
X103160964Y-96389964D01*
X103191654Y-96348401D01*
X103222292Y-96306774D01*
X103252879Y-96265081D01*
X103283415Y-96223323D01*
X103313899Y-96181500D01*
X103344331Y-96139612D01*
X103374712Y-96097659D01*
X103405040Y-96055642D01*
X103435317Y-96013559D01*
X103465541Y-95971413D01*
X103495713Y-95929202D01*
X103525833Y-95886926D01*
X103555900Y-95844587D01*
X103585915Y-95802183D01*
X103615877Y-95759715D01*
X103645786Y-95717183D01*
X103675643Y-95674588D01*
X103705446Y-95631929D01*
X103735196Y-95589206D01*
X103764893Y-95546419D01*
X103794536Y-95503569D01*
X103824126Y-95460656D01*
X103853662Y-95417680D01*
X103883145Y-95374640D01*
X103912574Y-95331538D01*
X103941949Y-95288373D01*
X103971270Y-95245144D01*
X104000536Y-95201853D01*
X104029749Y-95158500D01*
X104058907Y-95115084D01*
X104088011Y-95071606D01*
X104117060Y-95028065D01*
X104146054Y-94984462D01*
X104174993Y-94940797D01*
X104203878Y-94897070D01*
X104232707Y-94853282D01*
X104261482Y-94809431D01*
X104290201Y-94765519D01*
X104318865Y-94721546D01*
X104347473Y-94677511D01*
X104376026Y-94633414D01*
X104404523Y-94589257D01*
X104432964Y-94545038D01*
X104461350Y-94500758D01*
X104489679Y-94456418D01*
X104517952Y-94412016D01*
X104546169Y-94367554D01*
X104574330Y-94323032D01*
X104602434Y-94278449D01*
X104630482Y-94233805D01*
X104658473Y-94189102D01*
X104686407Y-94144338D01*
X104714285Y-94099514D01*
X104742105Y-94054630D01*
X104769869Y-94009687D01*
X104797575Y-93964684D01*
X104825224Y-93919621D01*
X104852815Y-93874499D01*
X104880349Y-93829318D01*
X104907826Y-93784077D01*
X104935245Y-93738777D01*
X104962606Y-93693418D01*
X104989909Y-93648000D01*
X105017154Y-93602524D01*
X105044340Y-93556989D01*
X105071469Y-93511395D01*
X105098539Y-93465743D01*
X105125551Y-93420032D01*
X105152505Y-93374264D01*
X105165959Y-93351357D01*
X105179399Y-93328437D01*
X105192825Y-93305502D01*
X105206235Y-93282552D01*
X105219631Y-93259588D01*
X105233012Y-93236610D01*
X105246379Y-93213616D01*
X105259730Y-93190609D01*
X105273067Y-93167587D01*
X105286389Y-93144551D01*
X105299697Y-93121500D01*
X105312989Y-93098436D01*
X105326267Y-93075356D01*
X105339530Y-93052263D01*
X105352778Y-93029155D01*
X105366011Y-93006033D01*
X105379230Y-92982896D01*
X105392433Y-92959745D01*
X105405622Y-92936580D01*
X105418795Y-92913401D01*
X105431954Y-92890207D01*
X105445098Y-92866999D01*
X105458227Y-92843777D01*
X105471341Y-92820541D01*
X105484440Y-92797291D01*
X105497524Y-92774026D01*
X105510593Y-92750747D01*
X105523647Y-92727455D01*
X105536686Y-92704148D01*
X105549710Y-92680827D01*
X105562719Y-92657492D01*
X105575713Y-92634143D01*
X105588692Y-92610779D01*
X105601655Y-92587402D01*
X105614604Y-92564011D01*
X105627537Y-92540605D01*
X105640456Y-92517186D01*
X105653359Y-92493753D01*
X105666247Y-92470305D01*
X105679120Y-92446844D01*
X105691978Y-92423369D01*
X105704821Y-92399880D01*
X105717648Y-92376377D01*
X105730460Y-92352860D01*
X105743257Y-92329329D01*
X105756039Y-92305785D01*
X105768806Y-92282226D01*
X105781557Y-92258654D01*
X105794293Y-92235067D01*
X105807014Y-92211468D01*
X105819719Y-92187854D01*
X105832410Y-92164226D01*
X105845084Y-92140585D01*
X105857744Y-92116930D01*
X105870388Y-92093261D01*
X105883017Y-92069579D01*
X105895631Y-92045883D01*
X105908229Y-92022173D01*
X105920811Y-91998449D01*
X105933379Y-91974712D01*
X105945931Y-91950961D01*
X105958467Y-91927197D01*
X105970988Y-91903419D01*
X105983494Y-91879627D01*
X105995984Y-91855822D01*
X106008459Y-91832003D01*
X106020918Y-91808171D01*
X106033362Y-91784325D01*
X106045790Y-91760465D01*
X106058203Y-91736592D01*
X106070600Y-91712706D01*
X106082981Y-91688806D01*
X106095347Y-91664893D01*
X106107698Y-91640966D01*
X106120033Y-91617026D01*
X106132352Y-91593072D01*
X106144656Y-91569105D01*
X106156944Y-91545125D01*
X106169217Y-91521131D01*
X106181473Y-91497124D01*
X106193715Y-91473103D01*
X106205940Y-91449070D01*
X106218150Y-91425022D01*
X106230344Y-91400962D01*
X106242523Y-91376888D01*
X106254686Y-91352802D01*
X106266833Y-91328701D01*
X106278964Y-91304588D01*
X106291080Y-91280461D01*
X106303179Y-91256322D01*
X106315264Y-91232169D01*
X106327332Y-91208002D01*
X106339384Y-91183823D01*
X106351421Y-91159631D01*
X106363442Y-91135425D01*
X106375447Y-91111206D01*
X106387436Y-91086975D01*
X106399410Y-91062730D01*
X106411367Y-91038472D01*
X106423309Y-91014201D01*
X106435235Y-90989917D01*
X106447145Y-90965620D01*
X106459039Y-90941310D01*
X106470917Y-90916987D01*
X106482779Y-90892651D01*
X106494625Y-90868302D01*
X106506455Y-90843940D01*
X106518270Y-90819566D01*
X106530068Y-90795178D01*
X106541850Y-90770777D01*
X106553617Y-90746364D01*
X106565367Y-90721938D01*
X106577101Y-90697499D01*
X106588820Y-90673047D01*
X106600522Y-90648582D01*
X106612208Y-90624104D01*
X106623878Y-90599614D01*
X106635532Y-90575111D01*
X106647170Y-90550595D01*
X106658792Y-90526066D01*
X106670398Y-90501525D01*
X106681988Y-90476971D01*
X106693561Y-90452404D01*
X106705119Y-90427825D01*
X106716660Y-90403233D01*
X106728185Y-90378628D01*
X106739694Y-90354011D01*
X106751187Y-90329381D01*
X106762663Y-90304739D01*
X106774123Y-90280083D01*
X106785568Y-90255416D01*
X106796995Y-90230736D01*
X106808407Y-90206043D01*
X106819802Y-90181338D01*
X106831182Y-90156620D01*
X106842544Y-90131890D01*
X106853891Y-90107147D01*
X106865221Y-90082392D01*
X106876535Y-90057624D01*
X106887833Y-90032844D01*
X106899114Y-90008052D01*
X106910379Y-89983247D01*
X106921628Y-89958430D01*
X106932860Y-89933600D01*
X106944076Y-89908759D01*
X106955276Y-89883904D01*
X106966459Y-89859038D01*
X106977625Y-89834159D01*
X106988776Y-89809268D01*
X106999910Y-89784365D01*
X107011027Y-89759449D01*
X107022128Y-89734521D01*
X107033213Y-89709581D01*
X107044281Y-89684629D01*
X107055332Y-89659665D01*
X107066368Y-89634688D01*
X107077386Y-89609699D01*
X107088388Y-89584698D01*
X107099374Y-89559686D01*
X107110343Y-89534660D01*
X107121295Y-89509623D01*
X107132231Y-89484574D01*
X107143151Y-89459513D01*
X107154054Y-89434439D01*
X107164940Y-89409354D01*
X107175810Y-89384256D01*
X107186663Y-89359147D01*
X107197499Y-89334026D01*
X107208319Y-89308893D01*
X107219122Y-89283747D01*
X107229909Y-89258590D01*
X107240679Y-89233421D01*
X107251432Y-89208240D01*
X107262168Y-89183047D01*
X107272888Y-89157842D01*
X107283592Y-89132626D01*
X107294278Y-89107397D01*
X107304948Y-89082157D01*
X107315601Y-89056905D01*
X107326237Y-89031641D01*
X107336857Y-89006365D01*
X107347459Y-88981078D01*
X107358045Y-88955779D01*
X107368615Y-88930468D01*
X107379167Y-88905146D01*
X107389703Y-88879811D01*
X107400221Y-88854465D01*
X107410724Y-88829108D01*
X107421209Y-88803739D01*
X107431677Y-88778358D01*
X107442129Y-88752965D01*
X107452563Y-88727561D01*
X107462981Y-88702146D01*
X107473382Y-88676718D01*
X107483766Y-88651280D01*
X107494133Y-88625829D01*
X107504483Y-88600368D01*
X107514817Y-88574894D01*
X107525133Y-88549410D01*
X107535432Y-88523913D01*
X107545715Y-88498406D01*
X107555980Y-88472887D01*
X107566229Y-88447356D01*
X107576461Y-88421814D01*
X107586675Y-88396261D01*
X107596873Y-88370696D01*
X107607053Y-88345120D01*
X107617217Y-88319533D01*
X107627363Y-88293934D01*
X107637493Y-88268324D01*
X107647605Y-88242703D01*
X107657701Y-88217070D01*
X107667779Y-88191427D01*
X107677841Y-88165771D01*
X107687885Y-88140105D01*
X107697912Y-88114427D01*
X107707922Y-88088739D01*
X107717915Y-88063039D01*
X107727890Y-88037328D01*
X107737849Y-88011606D01*
X107747791Y-87985873D01*
X107757715Y-87960128D01*
X107767622Y-87934373D01*
X107777512Y-87908606D01*
X107787385Y-87882828D01*
X107797241Y-87857039D01*
X107807079Y-87831240D01*
X107816900Y-87805429D01*
X107826704Y-87779607D01*
X107836491Y-87753774D01*
X107846261Y-87727931D01*
X107856013Y-87702076D01*
X107865748Y-87676211D01*
X107875466Y-87650334D01*
X107885166Y-87624447D01*
X107894850Y-87598548D01*
X107904516Y-87572639D01*
X107914164Y-87546719D01*
X107923796Y-87520788D01*
X107933410Y-87494846D01*
X107943006Y-87468894D01*
X107952586Y-87442930D01*
X107962148Y-87416957D01*
X107971693Y-87390972D01*
X107981220Y-87364976D01*
X107990730Y-87338970D01*
X108000222Y-87312953D01*
X108009698Y-87286925D01*
X108019155Y-87260887D01*
X108028596Y-87234837D01*
X108038019Y-87208778D01*
X108047424Y-87182707D01*
X108056812Y-87156627D01*
X108066183Y-87130535D01*
X108075536Y-87104433D01*
X108084872Y-87078320D01*
X108094190Y-87052197D01*
X108103491Y-87026063D01*
X108112774Y-86999919D01*
X108122040Y-86973764D01*
X108131288Y-86947599D01*
X108140519Y-86921423D01*
X108149732Y-86895237D01*
X108158928Y-86869040D01*
X108168106Y-86842834D01*
X108177267Y-86816616D01*
X108186410Y-86790388D01*
X108195535Y-86764150D01*
X108204643Y-86737902D01*
X108213733Y-86711642D01*
X108222806Y-86685374D01*
X108231861Y-86659094D01*
X108240899Y-86632804D01*
X108249919Y-86606504D01*
X108258921Y-86580194D01*
X108267906Y-86553873D01*
X108276872Y-86527542D01*
X108285822Y-86501201D01*
X108294753Y-86474850D01*
X108303668Y-86448488D01*
X108312564Y-86422117D01*
X108321442Y-86395735D01*
X108330303Y-86369344D01*
X108339147Y-86342941D01*
X108347972Y-86316530D01*
X108356780Y-86290107D01*
X108365570Y-86263675D01*
X108374342Y-86237232D01*
X108383097Y-86210781D01*
X108391834Y-86184318D01*
X108400553Y-86157846D01*
X108409254Y-86131363D01*
X108417937Y-86104872D01*
X108426603Y-86078369D01*
X108435251Y-86051857D01*
X108443881Y-86025335D01*
X108452493Y-85998803D01*
X108461088Y-85972261D01*
X108469665Y-85945710D01*
X108478224Y-85919148D01*
X108486764Y-85892577D01*
X108495288Y-85865995D01*
X108503793Y-85839404D01*
X108512280Y-85812803D01*
X108520750Y-85786193D01*
X108529202Y-85759572D01*
X108537635Y-85732942D01*
X108546051Y-85706302D01*
X108554449Y-85679653D01*
X108562829Y-85652993D01*
X108571191Y-85626325D01*
X108579535Y-85599646D01*
X108587861Y-85572958D01*
X108596170Y-85546259D01*
X108604460Y-85519553D01*
X108612732Y-85492835D01*
X108620987Y-85466109D01*
X108629223Y-85439372D01*
X108637441Y-85412627D01*
X108645642Y-85385871D01*
X108653824Y-85359107D01*
X108661989Y-85332332D01*
X108670135Y-85305548D01*
X108678263Y-85278754D01*
X108686373Y-85251952D01*
X108694466Y-85225140D01*
X108702540Y-85198319D01*
X108710596Y-85171487D01*
X108718634Y-85144647D01*
X108726654Y-85117797D01*
X108734656Y-85090938D01*
X108742640Y-85064069D01*
X108750606Y-85037192D01*
X108758553Y-85010304D01*
X108766483Y-84983408D01*
X108774394Y-84956502D01*
X108782287Y-84929588D01*
X108790163Y-84902663D01*
X108798020Y-84875730D01*
X108805859Y-84848787D01*
X108813679Y-84821836D01*
X108821482Y-84794874D01*
X108829266Y-84767904D01*
X108837032Y-84740924D01*
X108844780Y-84713936D01*
X108852510Y-84686938D01*
X108860222Y-84659932D01*
X108867915Y-84632916D01*
X108875590Y-84605891D01*
X108883247Y-84578857D01*
X108890886Y-84551815D01*
X108898507Y-84524762D01*
X108906109Y-84497702D01*
X108913693Y-84470631D01*
X108921258Y-84443553D01*
X108928806Y-84416464D01*
X108936335Y-84389368D01*
X108943846Y-84362261D01*
X108951339Y-84335147D01*
X108958813Y-84308023D01*
X108966269Y-84280891D01*
X108973707Y-84253749D01*
X108981126Y-84226600D01*
X108988527Y-84199440D01*
X108995910Y-84172273D01*
X109003274Y-84145096D01*
X109010620Y-84117911D01*
X109017948Y-84090716D01*
X109025257Y-84063514D01*
X109032549Y-84036302D01*
X109039821Y-84009082D01*
X109047075Y-83981852D01*
X109054311Y-83954615D01*
X109061529Y-83927368D01*
X109068728Y-83900113D01*
X109075908Y-83872849D01*
X109083070Y-83845577D01*
X109090214Y-83818296D01*
X109097340Y-83791007D01*
X109104447Y-83763708D01*
X109111535Y-83736402D01*
X109118605Y-83709086D01*
X109125657Y-83681763D01*
X109132690Y-83654430D01*
X109139705Y-83627090D01*
X109146701Y-83599739D01*
X109153679Y-83572382D01*
X109160638Y-83545015D01*
X109167579Y-83517642D01*
X109174501Y-83490258D01*
X109181405Y-83462867D01*
X109188290Y-83435466D01*
X109195156Y-83408059D01*
X109202005Y-83380641D01*
X109208834Y-83353217D01*
X109215646Y-83325783D01*
X109222438Y-83298342D01*
X109229212Y-83270892D01*
X109235967Y-83243434D01*
X109242704Y-83215967D01*
X109249423Y-83188493D01*
X109256122Y-83161009D01*
X109262803Y-83133519D01*
X109269466Y-83106019D01*
X109276110Y-83078512D01*
X109282735Y-83050996D01*
X109289342Y-83023473D01*
X109295930Y-82995940D01*
X109302499Y-82968401D01*
X109309050Y-82940852D01*
X109315582Y-82913296D01*
X109322096Y-82885731D01*
X109328591Y-82858159D01*
X109335067Y-82830578D01*
X109341525Y-82802990D01*
X109347964Y-82775393D01*
X109354384Y-82747789D01*
X109360786Y-82720176D01*
X109367168Y-82692556D01*
X109373533Y-82664927D01*
X109379878Y-82637291D01*
X109386205Y-82609646D01*
X109392513Y-82581995D01*
X109398803Y-82554334D01*
X109405073Y-82526667D01*
X109411325Y-82498990D01*
X109417558Y-82471307D01*
X109423773Y-82443615D01*
X109429968Y-82415917D01*
X109436145Y-82388209D01*
X109442303Y-82360495D01*
X109448443Y-82332771D01*
X109454563Y-82305042D01*
X109460665Y-82277303D01*
X109466748Y-82249558D01*
X109472813Y-82221803D01*
X109478858Y-82194043D01*
X109484885Y-82166273D01*
X109490892Y-82138497D01*
X109496882Y-82110712D01*
X109502852Y-82082921D01*
X109508803Y-82055121D01*
X109514736Y-82027315D01*
X109520650Y-81999499D01*
X109526544Y-81971678D01*
X109532421Y-81943847D01*
X109538278Y-81916011D01*
X109544116Y-81888165D01*
X109549935Y-81860314D01*
X109555736Y-81832453D01*
X109561518Y-81804587D01*
X109567281Y-81776711D01*
X109573025Y-81748830D01*
X109578750Y-81720940D01*
X109584456Y-81693043D01*
X109590143Y-81665138D01*
X109595811Y-81637227D01*
X109601461Y-81609307D01*
X109607091Y-81581382D01*
X109612703Y-81553447D01*
X109618296Y-81525507D01*
X109623869Y-81497557D01*
X109629424Y-81469602D01*
X109634960Y-81441638D01*
X109640477Y-81413669D01*
X109645975Y-81385691D01*
X109651453Y-81357707D01*
X109656914Y-81329714D01*
X109662354Y-81301716D01*
X109667777Y-81273708D01*
X109673179Y-81245696D01*
X109678564Y-81217674D01*
X109683928Y-81189647D01*
X109689275Y-81161611D01*
X109694602Y-81133570D01*
X109699910Y-81105520D01*
X109705198Y-81077465D01*
X109710469Y-81049401D01*
X109715719Y-81021331D01*
X109720951Y-80993253D01*
X109726164Y-80965170D01*
X109731358Y-80937077D01*
X109736533Y-80908980D01*
X109741689Y-80880874D01*
X109746825Y-80852762D01*
X109751943Y-80824642D01*
X109757041Y-80796517D01*
X109762121Y-80768383D01*
X109767181Y-80740244D01*
X109772222Y-80712096D01*
X109777244Y-80683943D01*
X109782247Y-80655782D01*
X109787231Y-80627615D01*
X109792196Y-80599440D01*
X109797142Y-80571260D01*
X109802069Y-80543071D01*
X109806976Y-80514877D01*
X109811864Y-80486675D01*
X109816733Y-80458468D01*
X109821584Y-80430252D01*
X109826415Y-80402031D01*
X109831226Y-80373802D01*
X109836019Y-80345568D01*
X109840793Y-80317326D01*
X109845547Y-80289078D01*
X109850282Y-80260822D01*
X109854998Y-80232562D01*
X109859695Y-80204292D01*
X109864372Y-80176019D01*
X109869031Y-80147736D01*
X109873670Y-80119449D01*
X109878290Y-80091154D01*
X109882891Y-80062854D01*
X109887473Y-80034545D01*
X109892035Y-80006232D01*
X109896579Y-79977911D01*
X109901102Y-79949585D01*
X109905607Y-79921250D01*
X109910093Y-79892911D01*
X109914559Y-79864564D01*
X109919006Y-79836212D01*
X109923434Y-79807851D01*
X109927843Y-79779487D01*
X109932232Y-79751114D01*
X109936602Y-79722736D01*
X109940953Y-79694351D01*
X109945284Y-79665961D01*
X109949597Y-79637562D01*
X109953890Y-79609160D01*
X109958163Y-79580748D01*
X109962418Y-79552333D01*
X109966653Y-79523910D01*
X109970869Y-79495482D01*
X109975065Y-79467046D01*
X109979243Y-79438606D01*
X109983401Y-79410157D01*
X109987539Y-79381705D01*
X109991659Y-79353244D01*
X109995758Y-79324779D01*
X109999839Y-79296306D01*
X110003900Y-79267829D01*
X110007943Y-79239343D01*
X110011965Y-79210854D01*
X110015969Y-79182356D01*
X110019952Y-79153855D01*
X110023917Y-79125345D01*
X110027862Y-79096831D01*
X110031788Y-79068309D01*
X110035695Y-79039784D01*
X110039582Y-79011250D01*
X110043450Y-78982712D01*
X110047298Y-78954166D01*
X110051127Y-78925617D01*
X110054937Y-78897059D01*
X110058727Y-78868498D01*
X110062498Y-78839928D01*
X110066249Y-78811355D01*
X110069982Y-78782774D01*
X110073694Y-78754189D01*
X110077387Y-78725595D01*
X110081061Y-78696999D01*
X110084716Y-78668394D01*
X110088351Y-78639786D01*
X110091966Y-78611169D01*
X110095562Y-78582549D01*
X110099139Y-78553921D01*
X110102696Y-78525290D01*
X110106234Y-78496650D01*
X110109752Y-78468007D01*
X110113251Y-78439356D01*
X110116731Y-78410702D01*
X110120191Y-78382040D01*
X110123631Y-78353374D01*
X110127052Y-78324700D01*
X110130454Y-78296023D01*
X110133836Y-78267338D01*
X110137199Y-78238650D01*
X110140542Y-78209954D01*
X110143865Y-78181255D01*
X110147170Y-78152547D01*
X110150454Y-78123837D01*
X110153719Y-78095118D01*
X110156965Y-78066397D01*
X110160191Y-78037667D01*
X110163398Y-78008934D01*
X110166585Y-77980194D01*
X110169752Y-77951450D01*
X110172901Y-77922699D01*
X110176029Y-77893944D01*
X110179138Y-77865182D01*
X110182228Y-77836417D01*
X110185298Y-77807643D01*
X110188348Y-77778867D01*
X110191379Y-77750083D01*
X110194390Y-77721296D01*
X110197382Y-77692502D01*
X110200354Y-77663704D01*
X110203307Y-77634899D01*
X110206240Y-77606091D01*
X110209153Y-77577275D01*
X110212047Y-77548456D01*
X110214922Y-77519629D01*
X110217776Y-77490800D01*
X110220612Y-77461963D01*
X110223427Y-77433123D01*
X110226223Y-77404276D01*
X110228999Y-77375426D01*
X110231756Y-77346568D01*
X110234494Y-77317707D01*
X110237211Y-77288839D01*
X110239909Y-77259968D01*
X110242588Y-77231090D01*
X110245246Y-77202209D01*
X110247886Y-77173320D01*
X110250505Y-77144429D01*
X110253105Y-77115530D01*
X110255685Y-77086628D01*
X110258246Y-77057719D01*
X110260787Y-77028808D01*
X110263308Y-76999889D01*
X110265810Y-76970967D01*
X110268292Y-76942038D01*
X110270754Y-76913107D01*
X110273197Y-76884168D01*
X110275620Y-76855226D01*
X110278024Y-76826278D01*
X110280408Y-76797326D01*
X110282772Y-76768367D01*
X110285116Y-76739406D01*
X110287441Y-76710438D01*
X110289746Y-76681467D01*
X110292031Y-76652489D01*
X110294297Y-76623508D01*
X110296543Y-76594520D01*
X110297028Y-76588230D01*
X110297028Y-76588230D02*
X110301451Y-76530260D01*
X110305794Y-76472290D01*
X110310056Y-76414317D01*
X110314239Y-76356344D01*
X110318342Y-76298369D01*
X110322364Y-76240394D01*
X110326306Y-76182417D01*
X110330168Y-76124440D01*
X110333950Y-76066462D01*
X110337652Y-76008484D01*
X110341274Y-75950505D01*
X110344816Y-75892526D01*
X110348277Y-75834547D01*
X110351659Y-75776568D01*
X110354960Y-75718588D01*
X110358182Y-75660609D01*
X110361323Y-75602630D01*
X110364384Y-75544652D01*
X110367365Y-75486674D01*
X110370265Y-75428696D01*
X110373086Y-75370720D01*
X110375826Y-75312744D01*
X110378487Y-75254769D01*
X110381067Y-75196796D01*
X110383567Y-75138823D01*
X110385987Y-75080852D01*
X110388327Y-75022882D01*
X110390587Y-74964914D01*
X110392767Y-74906947D01*
X110394867Y-74848983D01*
X110396886Y-74791020D01*
X110398826Y-74733059D01*
X110400685Y-74675100D01*
X110402464Y-74617144D01*
X110404164Y-74559190D01*
X110405783Y-74501238D01*
X110407322Y-74443289D01*
X110408781Y-74385343D01*
X110410159Y-74327400D01*
X110411458Y-74269460D01*
X110412677Y-74211523D01*
X110413815Y-74153589D01*
X110414874Y-74095658D01*
X110415853Y-74037731D01*
X110416751Y-73979807D01*
X110417569Y-73921888D01*
X110418308Y-73863972D01*
X110418966Y-73806060D01*
X110419544Y-73748152D01*
X110420043Y-73690248D01*
X110420461Y-73632349D01*
X110420799Y-73574454D01*
X110421057Y-73516564D01*
X110421236Y-73458679D01*
X110421334Y-73400798D01*
X110421352Y-73342922D01*
X110421290Y-73285052D01*
X110421149Y-73227186D01*
X110420927Y-73169326D01*
X110420625Y-73111472D01*
X110420244Y-73053623D01*
X110419782Y-72995780D01*
X110419241Y-72937942D01*
X110418619Y-72880111D01*
X110417918Y-72822286D01*
X110417137Y-72764467D01*
X110416276Y-72706654D01*
X110415335Y-72648848D01*
X110414314Y-72591048D01*
X110413213Y-72533256D01*
X110412032Y-72475470D01*
X110410772Y-72417691D01*
X110409432Y-72359919D01*
X110408011Y-72302155D01*
X110406511Y-72244398D01*
X110404932Y-72186648D01*
X110403272Y-72128906D01*
X110401533Y-72071172D01*
X110399713Y-72013446D01*
X110397814Y-71955728D01*
X110395836Y-71898019D01*
X110393777Y-71840317D01*
X110391639Y-71782624D01*
X110389421Y-71724940D01*
X110387124Y-71667264D01*
X110384746Y-71609597D01*
X110382289Y-71551939D01*
X110379753Y-71494291D01*
X110377136Y-71436651D01*
X110374440Y-71379021D01*
X110371665Y-71321401D01*
X110368810Y-71263790D01*
X110365875Y-71206189D01*
X110362861Y-71148598D01*
X110359767Y-71091017D01*
X110356593Y-71033446D01*
X110353340Y-70975886D01*
X110350008Y-70918336D01*
X110346596Y-70860796D01*
X110343104Y-70803268D01*
X110339533Y-70745750D01*
X110335883Y-70688243D01*
X110332153Y-70630748D01*
X110328344Y-70573264D01*
X110324455Y-70515791D01*
X110320487Y-70458330D01*
X110316440Y-70400880D01*
X110312313Y-70343443D01*
X110308107Y-70286017D01*
X110303822Y-70228604D01*
X110299457Y-70171202D01*
X110295013Y-70113814D01*
X110290490Y-70056438D01*
X110285888Y-69999074D01*
X110281206Y-69941723D01*
X110276445Y-69884386D01*
X110271605Y-69827061D01*
X110266686Y-69769750D01*
X110261688Y-69712452D01*
X110256611Y-69655168D01*
X110251454Y-69597897D01*
X110246219Y-69540640D01*
X110240904Y-69483397D01*
X110235511Y-69426169D01*
X110230038Y-69368954D01*
X110224487Y-69311754D01*
X110218856Y-69254568D01*
X110213147Y-69197398D01*
X110207359Y-69140241D01*
X110201491Y-69083100D01*
X110195545Y-69025974D01*
X110189521Y-68968864D01*
X110183417Y-68911768D01*
X110177235Y-68854689D01*
X110170973Y-68797625D01*
X110164634Y-68740576D01*
X110158215Y-68683544D01*
X110151718Y-68626528D01*
X110145142Y-68569528D01*
X110138487Y-68512545D01*
X110131754Y-68455578D01*
X110124942Y-68398627D01*
X110118052Y-68341694D01*
X110111084Y-68284778D01*
X110104036Y-68227879D01*
X110096911Y-68170997D01*
X110089707Y-68114132D01*
X110082424Y-68057285D01*
X110075063Y-68000456D01*
X110067624Y-67943645D01*
X110060107Y-67886852D01*
X110052511Y-67830077D01*
X110044837Y-67773320D01*
X110037085Y-67716582D01*
X110029254Y-67659862D01*
X110021346Y-67603161D01*
X110013359Y-67546479D01*
X110005294Y-67489816D01*
X109997151Y-67433173D01*
X109988931Y-67376548D01*
X109980632Y-67319943D01*
X109972255Y-67263358D01*
X109963800Y-67206793D01*
X109955268Y-67150248D01*
X109946657Y-67093722D01*
X109937969Y-67037217D01*
X109929203Y-66980733D01*
X109920359Y-66924269D01*
X109911438Y-66867825D01*
X109902438Y-66811403D01*
X109893362Y-66755002D01*
X109884207Y-66698621D01*
X109874975Y-66642262D01*
X109865666Y-66585925D01*
X109856279Y-66529609D01*
X109846814Y-66473315D01*
X109837272Y-66417043D01*
X109827653Y-66360793D01*
X109817956Y-66304565D01*
X109808182Y-66248359D01*
X109798331Y-66192176D01*
X109788403Y-66136016D01*
X109778397Y-66079879D01*
X109768314Y-66023764D01*
X109758154Y-65967673D01*
X109747917Y-65911605D01*
X109737603Y-65855560D01*
X109727212Y-65799540D01*
X109716744Y-65743542D01*
X109706200Y-65687569D01*
X109695578Y-65631620D01*
X109684879Y-65575695D01*
X109674104Y-65519794D01*
X109663252Y-65463918D01*
X109652324Y-65408066D01*
X109641318Y-65352240D01*
X109630236Y-65296438D01*
X109619078Y-65240662D01*
X109607843Y-65184910D01*
X109596531Y-65129185D01*
X109585144Y-65073484D01*
X109573679Y-65017810D01*
X109562139Y-64962161D01*
X109550522Y-64906539D01*
X109538829Y-64850943D01*
X109527060Y-64795373D01*
X109515214Y-64739830D01*
X109503293Y-64684313D01*
X109491295Y-64628823D01*
X109479221Y-64573360D01*
X109467072Y-64517925D01*
X109454847Y-64462516D01*
X109442545Y-64407135D01*
X109430168Y-64351782D01*
X109417716Y-64296457D01*
X109405187Y-64241159D01*
X109392583Y-64185890D01*
X109379903Y-64130648D01*
X109367148Y-64075435D01*
X109354317Y-64020251D01*
X109341411Y-63965095D01*
X109328429Y-63909969D01*
X109315372Y-63854871D01*
X109302240Y-63799802D01*
X109289032Y-63744763D01*
X109275750Y-63689754D01*
X109262392Y-63634773D01*
X109248959Y-63579823D01*
X109235451Y-63524903D01*
X109221868Y-63470013D01*
X109208211Y-63415153D01*
X109194478Y-63360323D01*
X109180671Y-63305524D01*
X109166788Y-63250756D01*
X109152832Y-63196019D01*
X109138800Y-63141312D01*
X109131756Y-63113971D01*
X109124694Y-63086637D01*
X109117613Y-63059311D01*
X109110514Y-63031994D01*
X109103395Y-63004683D01*
X109096259Y-62977382D01*
X109089103Y-62950087D01*
X109081929Y-62922801D01*
X109074736Y-62895522D01*
X109067525Y-62868253D01*
X109060296Y-62840990D01*
X109053047Y-62813736D01*
X109045780Y-62786489D01*
X109038495Y-62759251D01*
X109031191Y-62732021D01*
X109023869Y-62704799D01*
X109016528Y-62677585D01*
X109009168Y-62650380D01*
X109001790Y-62623182D01*
X108994394Y-62595992D01*
X108986979Y-62568811D01*
X108979545Y-62541638D01*
X108972093Y-62514473D01*
X108964623Y-62487317D01*
X108957134Y-62460168D01*
X108949626Y-62433029D01*
X108942101Y-62405896D01*
X108934556Y-62378773D01*
X108926994Y-62351658D01*
X108919413Y-62324552D01*
X108911813Y-62297453D01*
X108904195Y-62270364D01*
X108896559Y-62243282D01*
X108888904Y-62216209D01*
X108881231Y-62189145D01*
X108873539Y-62162089D01*
X108865829Y-62135041D01*
X108858101Y-62108003D01*
X108850354Y-62080972D01*
X108842590Y-62053950D01*
X108834806Y-62026937D01*
X108827005Y-61999932D01*
X108819185Y-61972936D01*
X108811346Y-61945949D01*
X108803490Y-61918970D01*
X108795615Y-61892000D01*
X108787722Y-61865039D01*
X108779810Y-61838086D01*
X108771880Y-61811142D01*
X108763933Y-61784207D01*
X108755966Y-61757281D01*
X108747982Y-61730364D01*
X108739979Y-61703455D01*
X108731958Y-61676555D01*
X108723919Y-61649664D01*
X108715861Y-61622782D01*
X108707786Y-61595908D01*
X108699692Y-61569044D01*
X108691580Y-61542189D01*
X108683450Y-61515343D01*
X108675301Y-61488505D01*
X108667135Y-61461677D01*
X108658950Y-61434857D01*
X108650747Y-61408047D01*
X108642526Y-61381246D01*
X108634287Y-61354454D01*
X108626030Y-61327670D01*
X108617754Y-61300896D01*
X108609461Y-61274131D01*
X108601149Y-61247376D01*
X108592819Y-61220629D01*
X108584472Y-61193892D01*
X108576106Y-61167164D01*
X108567722Y-61140445D01*
X108559320Y-61113735D01*
X108550900Y-61087035D01*
X108542462Y-61060343D01*
X108534006Y-61033662D01*
X108525532Y-61006989D01*
X108517040Y-60980326D01*
X108508530Y-60953672D01*
X108500001Y-60927028D01*
X108491455Y-60900393D01*
X108482891Y-60873768D01*
X108474309Y-60847151D01*
X108465709Y-60820545D01*
X108457091Y-60793948D01*
X108448455Y-60767360D01*
X108439801Y-60740782D01*
X108431130Y-60714214D01*
X108422440Y-60687654D01*
X108413733Y-60661105D01*
X108405007Y-60634565D01*
X108396264Y-60608035D01*
X108387502Y-60581515D01*
X108378723Y-60555004D01*
X108369926Y-60528502D01*
X108361112Y-60502011D01*
X108352279Y-60475529D01*
X108343428Y-60449057D01*
X108334560Y-60422595D01*
X108325674Y-60396142D01*
X108316770Y-60369700D01*
X108307848Y-60343267D01*
X108298909Y-60316844D01*
X108289951Y-60290431D01*
X108280976Y-60264027D01*
X108271983Y-60237634D01*
X108262973Y-60211250D01*
X108253945Y-60184877D01*
X108244898Y-60158513D01*
X108235835Y-60132159D01*
X108226753Y-60105816D01*
X108217654Y-60079482D01*
X108208537Y-60053158D01*
X108199403Y-60026845D01*
X108190250Y-60000541D01*
X108181080Y-59974248D01*
X108171893Y-59947964D01*
X108162688Y-59921691D01*
X108153465Y-59895428D01*
X108144224Y-59869175D01*
X108134966Y-59842932D01*
X108125691Y-59816700D01*
X108116397Y-59790478D01*
X108107086Y-59764266D01*
X108097758Y-59738064D01*
X108088412Y-59711872D01*
X108079048Y-59685691D01*
X108069667Y-59659520D01*
X108060268Y-59633360D01*
X108050852Y-59607209D01*
X108041418Y-59581069D01*
X108031967Y-59554940D01*
X108022499Y-59528821D01*
X108013012Y-59502712D01*
X108003509Y-59476614D01*
X107993987Y-59450527D01*
X107984449Y-59424449D01*
X107974893Y-59398383D01*
X107965319Y-59372327D01*
X107955728Y-59346281D01*
X107946120Y-59320246D01*
X107936494Y-59294222D01*
X107926851Y-59268208D01*
X107917190Y-59242204D01*
X107907512Y-59216212D01*
X107897817Y-59190230D01*
X107888104Y-59164259D01*
X107878374Y-59138298D01*
X107868627Y-59112348D01*
X107858862Y-59086409D01*
X107849080Y-59060481D01*
X107839281Y-59034564D01*
X107829464Y-59008657D01*
X107819630Y-58982761D01*
X107809779Y-58956876D01*
X107799911Y-58931001D01*
X107790025Y-58905138D01*
X107780122Y-58879286D01*
X107770202Y-58853444D01*
X107760264Y-58827613D01*
X107750310Y-58801794D01*
X107740338Y-58775985D01*
X107730349Y-58750187D01*
X107720342Y-58724401D01*
X107710319Y-58698625D01*
X107700278Y-58672860D01*
X107690221Y-58647107D01*
X107680146Y-58621364D01*
X107670054Y-58595633D01*
X107659945Y-58569912D01*
X107649818Y-58544203D01*
X107639675Y-58518505D01*
X107629515Y-58492818D01*
X107619337Y-58467142D01*
X107609143Y-58441478D01*
X107598931Y-58415825D01*
X107588702Y-58390183D01*
X107578457Y-58364552D01*
X107568194Y-58338933D01*
X107557914Y-58313325D01*
X107547617Y-58287728D01*
X107537303Y-58262142D01*
X107526973Y-58236568D01*
X107516625Y-58211006D01*
X107506260Y-58185454D01*
X107495879Y-58159914D01*
X107485480Y-58134386D01*
X107475065Y-58108869D01*
X107464632Y-58083364D01*
X107454183Y-58057869D01*
X107443717Y-58032387D01*
X107433234Y-58006916D01*
X107422734Y-57981457D01*
X107412217Y-57956009D01*
X107401683Y-57930572D01*
X107391133Y-57905148D01*
X107380565Y-57879735D01*
X107369981Y-57854333D01*
X107359380Y-57828943D01*
X107348762Y-57803565D01*
X107338128Y-57778199D01*
X107327476Y-57752844D01*
X107316808Y-57727501D01*
X107306123Y-57702170D01*
X107295422Y-57676851D01*
X107284703Y-57651543D01*
X107273969Y-57626247D01*
X107263217Y-57600963D01*
X107252448Y-57575691D01*
X107241663Y-57550431D01*
X107230861Y-57525182D01*
X107220043Y-57499946D01*
X107209208Y-57474721D01*
X107198356Y-57449508D01*
X107187488Y-57424308D01*
X107176603Y-57399119D01*
X107165701Y-57373942D01*
X107154783Y-57348777D01*
X107143848Y-57323625D01*
X107132897Y-57298484D01*
X107121929Y-57273356D01*
X107110944Y-57248239D01*
X107099943Y-57223135D01*
X107088926Y-57198042D01*
X107077892Y-57172962D01*
X107066841Y-57147894D01*
X107055774Y-57122838D01*
X107044691Y-57097794D01*
X107033591Y-57072763D01*
X107022474Y-57047744D01*
X107011341Y-57022737D01*
X107000192Y-56997742D01*
X106989026Y-56972760D01*
X106977844Y-56947789D01*
X106966646Y-56922832D01*
X106955431Y-56897886D01*
X106944199Y-56872953D01*
X106932952Y-56848032D01*
X106921688Y-56823124D01*
X106910407Y-56798228D01*
X106899111Y-56773345D01*
X106887798Y-56748473D01*
X106876468Y-56723615D01*
X106865123Y-56698769D01*
X106853761Y-56673935D01*
X106842383Y-56649114D01*
X106830989Y-56624305D01*
X106819578Y-56599509D01*
X106808151Y-56574726D01*
X106796708Y-56549955D01*
X106785249Y-56525197D01*
X106773773Y-56500451D01*
X106762282Y-56475718D01*
X106750773Y-56450997D01*
X106739250Y-56426290D01*
X106727709Y-56401594D01*
X106716153Y-56376913D01*
X106704581Y-56352243D01*
X106692992Y-56327586D01*
X106681387Y-56302942D01*
X106669767Y-56278311D01*
X106658130Y-56253692D01*
X106646477Y-56229087D01*
X106634808Y-56204493D01*
X106623123Y-56179914D01*
X106611422Y-56155346D01*
X106599706Y-56130792D01*
X106587972Y-56106251D01*
X106576224Y-56081723D01*
X106564458Y-56057207D01*
X106552678Y-56032705D01*
X106540881Y-56008215D01*
X106529068Y-55983739D01*
X106517239Y-55959275D01*
X106505395Y-55934824D01*
X106493534Y-55910387D01*
X106481658Y-55885963D01*
X106469765Y-55861551D01*
X106457857Y-55837153D01*
X106445933Y-55812767D01*
X106433993Y-55788396D01*
X106422037Y-55764037D01*
X106410066Y-55739691D01*
X106398078Y-55715358D01*
X106386075Y-55691039D01*
X106374056Y-55666733D01*
X106362022Y-55642441D01*
X106349971Y-55618160D01*
X106337905Y-55593895D01*
X106325823Y-55569641D01*
X106313726Y-55545402D01*
X106301612Y-55521175D01*
X106289483Y-55496962D01*
X106277338Y-55472762D01*
X106265178Y-55448576D01*
X106253002Y-55424403D01*
X106240810Y-55400243D01*
X106228603Y-55376097D01*
X106216380Y-55351965D01*
X106204141Y-55327845D01*
X106191887Y-55303740D01*
X106179617Y-55279647D01*
X106167332Y-55255568D01*
X106155031Y-55231503D01*
X106142715Y-55207451D01*
X106130383Y-55183413D01*
X106118036Y-55159389D01*
X106105673Y-55135377D01*
X106093295Y-55111380D01*
X106080901Y-55087396D01*
X106068491Y-55063426D01*
X106056066Y-55039469D01*
X106043626Y-55015527D01*
X106031171Y-54991597D01*
X106018700Y-54967682D01*
X106006213Y-54943780D01*
X105993711Y-54919893D01*
X105981194Y-54896018D01*
X105968662Y-54872158D01*
X105956113Y-54848311D01*
X105943550Y-54824478D01*
X105930972Y-54800659D01*
X105918378Y-54776854D01*
X105905768Y-54753062D01*
X105893144Y-54729285D01*
X105880504Y-54705521D01*
X105867850Y-54681772D01*
X105855179Y-54658036D01*
X105842494Y-54634315D01*
X105829793Y-54610606D01*
X105817077Y-54586913D01*
X105804346Y-54563232D01*
X105791600Y-54539567D01*
X105778838Y-54515915D01*
X105766062Y-54492278D01*
X105753270Y-54468653D01*
X105740463Y-54445044D01*
X105727641Y-54421448D01*
X105714804Y-54397867D01*
X105701952Y-54374299D01*
X105689085Y-54350746D01*
X105676202Y-54327206D01*
X105663305Y-54303682D01*
X105650392Y-54280171D01*
X105637465Y-54256675D01*
X105624523Y-54233192D01*
X105611566Y-54209724D01*
X105598593Y-54186270D01*
X105585606Y-54162831D01*
X105572603Y-54139405D01*
X105559586Y-54115994D01*
X105546554Y-54092597D01*
X105533507Y-54069215D01*
X105520445Y-54045846D01*
X105507368Y-54022493D01*
X105494276Y-53999153D01*
X105481170Y-53975829D01*
X105468048Y-53952518D01*
X105454912Y-53929222D01*
X105441761Y-53905940D01*
X105428595Y-53882673D01*
X105415414Y-53859420D01*
X105402219Y-53836182D01*
X105389008Y-53812958D01*
X105375784Y-53789749D01*
X105362544Y-53766554D01*
X105349289Y-53743374D01*
X105336020Y-53720208D01*
X105322736Y-53697058D01*
X105309437Y-53673920D01*
X105296125Y-53650799D01*
X105282796Y-53627691D01*
X105269454Y-53604599D01*
X105256096Y-53581521D01*
X105242725Y-53558458D01*
X105229338Y-53535409D01*
X105215938Y-53512376D01*
X105202522Y-53489356D01*
X105189092Y-53466352D01*
X105175647Y-53443362D01*
X105162188Y-53420387D01*
X105148714Y-53397426D01*
X105135226Y-53374482D01*
X105121723Y-53351550D01*
X105108206Y-53328635D01*
X105094674Y-53305734D01*
X105081128Y-53282848D01*
X105067567Y-53259977D01*
X105053992Y-53237121D01*
X105040403Y-53214279D01*
X105026799Y-53191453D01*
X105013180Y-53168641D01*
X104999548Y-53145845D01*
X104985901Y-53123062D01*
X104972240Y-53100296D01*
X104958564Y-53077544D01*
X104944874Y-53054808D01*
X104931170Y-53032086D01*
X104917452Y-53009380D01*
X104903718Y-52986687D01*
X104889972Y-52964011D01*
X104876210Y-52941349D01*
X104862435Y-52918704D01*
X104848644Y-52896072D01*
X104834841Y-52873456D01*
X104821022Y-52850854D01*
X104807190Y-52828269D01*
X104793343Y-52805698D01*
X104779483Y-52783143D01*
X104765608Y-52760602D01*
X104751719Y-52738078D01*
X104737816Y-52715567D01*
X104723899Y-52693073D01*
X104709967Y-52670593D01*
X104696022Y-52648129D01*
X104682062Y-52625680D01*
X104668090Y-52603247D01*
X104654102Y-52580828D01*
X104640101Y-52558426D01*
X104626085Y-52536037D01*
X104612056Y-52513666D01*
X104598012Y-52491308D01*
X104583955Y-52468967D01*
X104569883Y-52446641D01*
X104555798Y-52424331D01*
X104541699Y-52402035D01*
X104527586Y-52379756D01*
X104513459Y-52357490D01*
X104499318Y-52335242D01*
X104485163Y-52313008D01*
X104470995Y-52290791D01*
X104456812Y-52268588D01*
X104442617Y-52246402D01*
X104428406Y-52224229D01*
X104414183Y-52202074D01*
X104399945Y-52179933D01*
X104385694Y-52157809D01*
X104371428Y-52135699D01*
X104357150Y-52113607D01*
X104342857Y-52091528D01*
X104328551Y-52069467D01*
X104314231Y-52047419D01*
X104299898Y-52025389D01*
X104285550Y-52003373D01*
X104271190Y-51981374D01*
X104256815Y-51959390D01*
X104242427Y-51937423D01*
X104228025Y-51915469D01*
X104213610Y-51893533D01*
X104199180Y-51871612D01*
X104184738Y-51849707D01*
X104170282Y-51827817D01*
X104155813Y-51805945D01*
X104141329Y-51784086D01*
X104126833Y-51762245D01*
X104112322Y-51740418D01*
X104097799Y-51718609D01*
X104083262Y-51696813D01*
X104068712Y-51675036D01*
X104054147Y-51653272D01*
X104039570Y-51631527D01*
X104024979Y-51609795D01*
X104010376Y-51588081D01*
X103995757Y-51566381D01*
X103981127Y-51544699D01*
X103966482Y-51523031D01*
X103951825Y-51501381D01*
X103937154Y-51479745D01*
X103922470Y-51458127D01*
X103907772Y-51436524D01*
X103893062Y-51414938D01*
X103878337Y-51393366D01*
X103863600Y-51371812D01*
X103848849Y-51350272D01*
X103834086Y-51328751D01*
X103819308Y-51307243D01*
X103804519Y-51285754D01*
X103789715Y-51264279D01*
X103774899Y-51242821D01*
X103760069Y-51221379D01*
X103745227Y-51199954D01*
X103730370Y-51178543D01*
X103715502Y-51157151D01*
X103700619Y-51135772D01*
X103685724Y-51114412D01*
X103670815Y-51093067D01*
X103655895Y-51071739D01*
X103640959Y-51050426D01*
X103626013Y-51029131D01*
X103611052Y-51007850D01*
X103596079Y-50986588D01*
X103581092Y-50965340D01*
X103566093Y-50944110D01*
X103551080Y-50922894D01*
X103536056Y-50901697D01*
X103521017Y-50880514D01*
X103505966Y-50859350D01*
X103490902Y-50838200D01*
X103475826Y-50817068D01*
X103460735Y-50795951D01*
X103445633Y-50774852D01*
X103430517Y-50753768D01*
X103415390Y-50732702D01*
X103400248Y-50711651D01*
X103385095Y-50690618D01*
X103369927Y-50669599D01*
X103354749Y-50648599D01*
X103339556Y-50627613D01*
X103324352Y-50606646D01*
X103309134Y-50585694D01*
X103293904Y-50564760D01*
X103278660Y-50543841D01*
X103263405Y-50522940D01*
X103248136Y-50502053D01*
X103232856Y-50481186D01*
X103217562Y-50460333D01*
X103202256Y-50439498D01*
X103186937Y-50418678D01*
X103171606Y-50397877D01*
X103156261Y-50377091D01*
X103140905Y-50356323D01*
X103125535Y-50335569D01*
X103110155Y-50314835D01*
X103094760Y-50294115D01*
X103079354Y-50273414D01*
X103063934Y-50252727D01*
X103048503Y-50232060D01*
X103033058Y-50211407D01*
X103017602Y-50190772D01*
X103002132Y-50170153D01*
X102986652Y-50149552D01*
X102971157Y-50128966D01*
X102955652Y-50108399D01*
X102940132Y-50087847D01*
X102924602Y-50067314D01*
X102909058Y-50046795D01*
X102893503Y-50026295D01*
X102877934Y-50005810D01*
X102862355Y-49985344D01*
X102846762Y-49964893D01*
X102831157Y-49944461D01*
X102815540Y-49924043D01*
X102799911Y-49903645D01*
X102784269Y-49883261D01*
X102768616Y-49862896D01*
X102752949Y-49842547D01*
X102737271Y-49822216D01*
X102721580Y-49801900D01*
X102705879Y-49781603D01*
X102690163Y-49761322D01*
X102674437Y-49741059D01*
X102658697Y-49720811D01*
X102642947Y-49700582D01*
X102627183Y-49680368D01*
X102611409Y-49660174D01*
X102595621Y-49639994D01*
X102579822Y-49619833D01*
X102564010Y-49599688D01*
X102548188Y-49579561D01*
X102532351Y-49559450D01*
X102516505Y-49539358D01*
X102500645Y-49519281D01*
X102484774Y-49499223D01*
X102468890Y-49479180D01*
X102452996Y-49459156D01*
X102437088Y-49439148D01*
X102421170Y-49419158D01*
X102405238Y-49399184D01*
X102389296Y-49379229D01*
X102373341Y-49359289D01*
X102357375Y-49339369D01*
X102341396Y-49319463D01*
X102325407Y-49299577D01*
X102309404Y-49279706D01*
X102293392Y-49259855D01*
X102277365Y-49240018D01*
X102261329Y-49220201D01*
X102245279Y-49200399D01*
X102229219Y-49180617D01*
X102213146Y-49160849D01*
X102197063Y-49141102D01*
X102180966Y-49121369D01*
X102164860Y-49101656D01*
X102148740Y-49081958D01*
X102132610Y-49062279D01*
X102116467Y-49042616D01*
X102100314Y-49022972D01*
X102084147Y-49003344D01*
X102067971Y-48983735D01*
X102051781Y-48964141D01*
X102035582Y-48944567D01*
X102019369Y-48925008D01*
X102003147Y-48905469D01*
X101986911Y-48885945D01*
X101970665Y-48866441D01*
X101954406Y-48846952D01*
X101938138Y-48827482D01*
X101921856Y-48808028D01*
X101905565Y-48788594D01*
X101889260Y-48769175D01*
X101872946Y-48749775D01*
X101856619Y-48730391D01*
X101840282Y-48711027D01*
X101823932Y-48691678D01*
X101807572Y-48672348D01*
X101791199Y-48653034D01*
X101774817Y-48633740D01*
X101758421Y-48614462D01*
X101742016Y-48595203D01*
X101725598Y-48575959D01*
X101709171Y-48556735D01*
X101692730Y-48537527D01*
X101676280Y-48518338D01*
X101659817Y-48499165D01*
X101643345Y-48480012D01*
X101626859Y-48460874D01*
X101610364Y-48441756D01*
X101593856Y-48422654D01*
X101577339Y-48403571D01*
X101560809Y-48384504D01*
X101544270Y-48365457D01*
X101527717Y-48346425D01*
X101511156Y-48327413D01*
X101494581Y-48308417D01*
X101477997Y-48289441D01*
X101461400Y-48270480D01*
X101444795Y-48251539D01*
X101428176Y-48232614D01*
X101411548Y-48213709D01*
X101394907Y-48194819D01*
X101378257Y-48175949D01*
X101361594Y-48157095D01*
X101344922Y-48138261D01*
X101328238Y-48119443D01*
X101311544Y-48100644D01*
X101294837Y-48081861D01*
X101278122Y-48063099D01*
X101261394Y-48044351D01*
X101244656Y-48025624D01*
X101227906Y-48006913D01*
X101211147Y-47988222D01*
X101194375Y-47969546D01*
X101177595Y-47950890D01*
X101160801Y-47932250D01*
X101143999Y-47913631D01*
X101127184Y-47895027D01*
X101110361Y-47876443D01*
X101093524Y-47857874D01*
X101076679Y-47839326D01*
X101059821Y-47820794D01*
X101042954Y-47802282D01*
X101026075Y-47783786D01*
X101009187Y-47765309D01*
X100992286Y-47746849D01*
X100975377Y-47728409D01*
X100958455Y-47709984D01*
X100941525Y-47691580D01*
X100924581Y-47673192D01*
X100907630Y-47654824D01*
X100890665Y-47636471D01*
X100873692Y-47618139D01*
X100856707Y-47599823D01*
X100839713Y-47581527D01*
X100822706Y-47563247D01*
X100805691Y-47544987D01*
X100788664Y-47526743D01*
X100771628Y-47508519D01*
X100754579Y-47490311D01*
X100737523Y-47472124D01*
X100720453Y-47453952D01*
X100703376Y-47435801D01*
X100686285Y-47417666D01*
X100669187Y-47399551D01*
X100652076Y-47381452D01*
X100634956Y-47363373D01*
X100617825Y-47345310D01*
X100600685Y-47327268D01*
X100583532Y-47309241D01*
X100566372Y-47291235D01*
X100549199Y-47273245D01*
X100532018Y-47255275D01*
X100514824Y-47237322D01*
X100497622Y-47219389D01*
X100480408Y-47201471D01*
X100463186Y-47183575D01*
X100445952Y-47165694D01*
X100428709Y-47147833D01*
X100411454Y-47129989D01*
X100394191Y-47112165D01*
X100376916Y-47094357D01*
X100359633Y-47076570D01*
X100342337Y-47058799D01*
X100325034Y-47041048D01*
X100307718Y-47023313D01*
X100290394Y-47005599D01*
X100273058Y-46987901D01*
X100255714Y-46970224D01*
X100238358Y-46952562D01*
X100220994Y-46934921D01*
X100203618Y-46917297D01*
X100186234Y-46899692D01*
X100168838Y-46882104D01*
X100151434Y-46864537D01*
X100134018Y-46846985D01*
X100116594Y-46829455D01*
X100099158Y-46811940D01*
X100081715Y-46794446D01*
X100064259Y-46776968D01*
X100046795Y-46759511D01*
X100029320Y-46742070D01*
X100011837Y-46724649D01*
X99994341Y-46707245D01*
X99976838Y-46689861D01*
X99959323Y-46672494D01*
X99941801Y-46655147D01*
X99924266Y-46637817D01*
X99906724Y-46620507D01*
X99889170Y-46603213D01*
X99871608Y-46585940D01*
X99854034Y-46568683D01*
X99836453Y-46551447D01*
X99818860Y-46534228D01*
X99801259Y-46517029D01*
X99783646Y-46499846D01*
X99766027Y-46482684D01*
X99748395Y-46465538D01*
X99730755Y-46448413D01*
X99713104Y-46431304D01*
X99695445Y-46414216D01*
X99677775Y-46397145D01*
X99660097Y-46380094D01*
X99642407Y-46363059D01*
X99624710Y-46346045D01*
X99607001Y-46329048D01*
X99589285Y-46312071D01*
X99571557Y-46295111D01*
X99553822Y-46278171D01*
X99536075Y-46261248D01*
X99518321Y-46244345D01*
X99500555Y-46227459D01*
X99482782Y-46210594D01*
X99464997Y-46193745D01*
X99447205Y-46176917D01*
X99429402Y-46160106D01*
X99411591Y-46143315D01*
X99393768Y-46126541D01*
X99375939Y-46109787D01*
X99358097Y-46093050D01*
X99340249Y-46076334D01*
X99322389Y-46059634D01*
X99304522Y-46042955D01*
X99286643Y-46026293D01*
X99268758Y-46009651D01*
X99250860Y-45993026D01*
X99232956Y-45976422D01*
X99215040Y-45959834D01*
X99197118Y-45943267D01*
X99179183Y-45926717D01*
X99161242Y-45910187D01*
X99143289Y-45893674D01*
X99125330Y-45877182D01*
X99107358Y-45860707D01*
X99089380Y-45844252D01*
X99071391Y-45827814D01*
X99053395Y-45811397D01*
X99035387Y-45794996D01*
X99017372Y-45778617D01*
X98999346Y-45762253D01*
X98981313Y-45745911D01*
X98963269Y-45729586D01*
X98945218Y-45713281D01*
X98927156Y-45696993D01*
X98909087Y-45680726D01*
X98891006Y-45664475D01*
X98872919Y-45648246D01*
X98854821Y-45632033D01*
X98836716Y-45615841D01*
X98818599Y-45599666D01*
X98800476Y-45583512D01*
X98782342Y-45567374D01*
X98764201Y-45551257D01*
X98746048Y-45535157D01*
X98727890Y-45519078D01*
X98709720Y-45503016D01*
X98691543Y-45486974D01*
X98673355Y-45470950D01*
X98655161Y-45454946D01*
X98636955Y-45438959D01*
X98618743Y-45422993D01*
X98600520Y-45407044D01*
X98582290Y-45391116D01*
X98564049Y-45375204D01*
X98545802Y-45359314D01*
X98527544Y-45343440D01*
X98509279Y-45327587D01*
X98491003Y-45311751D01*
X98472721Y-45295936D01*
X98454427Y-45280138D01*
X98436128Y-45264361D01*
X98417817Y-45248601D01*
X98399500Y-45232861D01*
X98381171Y-45217139D01*
X98362837Y-45201437D01*
X98344491Y-45185753D01*
X98326140Y-45170089D01*
X98307777Y-45154442D01*
X98289408Y-45138817D01*
X98271028Y-45123208D01*
X98252642Y-45107620D01*
X98234245Y-45092049D01*
X98215842Y-45076499D01*
X98197427Y-45060966D01*
X98179007Y-45045454D01*
X98160575Y-45029959D01*
X98142138Y-45014485D01*
X98123690Y-44999027D01*
X98105235Y-44983591D01*
X98086770Y-44968172D01*
X98068299Y-44952774D01*
X98049816Y-44937393D01*
X98031328Y-44922033D01*
X98012829Y-44906690D01*
X97994324Y-44891368D01*
X97975808Y-44876062D01*
X97957286Y-44860778D01*
X97938754Y-44845511D01*
X97920215Y-44830265D01*
X97901666Y-44815036D01*
X97883111Y-44799828D01*
X97864544Y-44784637D01*
X97845973Y-44769467D01*
X97827390Y-44754314D01*
X97808802Y-44739183D01*
X97790202Y-44724068D01*
X97771597Y-44708974D01*
X97752981Y-44693898D01*
X97734360Y-44678842D01*
X97715728Y-44663804D01*
X97697090Y-44648786D01*
X97678441Y-44633786D01*
X97659787Y-44618807D01*
X97641122Y-44603844D01*
X97622451Y-44588903D01*
X97603770Y-44573979D01*
X97585083Y-44559077D01*
X97566385Y-44544191D01*
X97547682Y-44529326D01*
X97528968Y-44514478D01*
X97510248Y-44499652D01*
X97491518Y-44484843D01*
X97472783Y-44470055D01*
X97454036Y-44455283D01*
X97435285Y-44440533D01*
X97416522Y-44425800D01*
X97397755Y-44411089D01*
X97378976Y-44396394D01*
X97360193Y-44381721D01*
X97341398Y-44367064D01*
X97322599Y-44352429D01*
X97303788Y-44337811D01*
X97284973Y-44323215D01*
X97266146Y-44308635D01*
X97247315Y-44294076D01*
X97228473Y-44279535D01*
X97209626Y-44265015D01*
X97190768Y-44250512D01*
X97171905Y-44236030D01*
X97153031Y-44221565D01*
X97134152Y-44207122D01*
X97115263Y-44192695D01*
X97096368Y-44178290D01*
X97077463Y-44163902D01*
X97058553Y-44149535D01*
X97039633Y-44135186D01*
X97020707Y-44120857D01*
X97001771Y-44106546D01*
X96982830Y-44092256D01*
X96963878Y-44077984D01*
X96944921Y-44063732D01*
X96925954Y-44049498D01*
X96906982Y-44035285D01*
X96887999Y-44021089D01*
X96869012Y-44006914D01*
X96850014Y-43992757D01*
X96831011Y-43978620D01*
X96811997Y-43964501D01*
X96792979Y-43950404D01*
X96773950Y-43936323D01*
X96754917Y-43922264D01*
X96735873Y-43908222D01*
X96716824Y-43894201D01*
X96697765Y-43880197D01*
X96678701Y-43866215D01*
X96659627Y-43852250D01*
X96640548Y-43838306D01*
X96621459Y-43824380D01*
X96602365Y-43810475D01*
X96583260Y-43796587D01*
X96564151Y-43782720D01*
X96545031Y-43768870D01*
X96525907Y-43755042D01*
X96506773Y-43741231D01*
X96487634Y-43727442D01*
X96468484Y-43713669D01*
X96449330Y-43699918D01*
X96430166Y-43686185D01*
X96410997Y-43672472D01*
X96391818Y-43658777D01*
X96372635Y-43645103D01*
X96353441Y-43631446D01*
X96334242Y-43617811D01*
X96315034Y-43604193D01*
X96295820Y-43590596D01*
X96276597Y-43577017D01*
X96257369Y-43563459D01*
X96238131Y-43549918D01*
X96218889Y-43536399D01*
X96199636Y-43522897D01*
X96180379Y-43509416D01*
X96161112Y-43495952D01*
X96141840Y-43482510D01*
X96122558Y-43469085D01*
X96103272Y-43455682D01*
X96083976Y-43442295D01*
X96064675Y-43428931D01*
X96045365Y-43415583D01*
X96026050Y-43402257D01*
X96006724Y-43388948D01*
X95987395Y-43375661D01*
X95968056Y-43362390D01*
X95948712Y-43349142D01*
X95929358Y-43335910D01*
X95910000Y-43322700D01*
X95890632Y-43309507D01*
X95871260Y-43296336D01*
X95851877Y-43283182D01*
X95832491Y-43270049D01*
X95813094Y-43256934D01*
X95793694Y-43243840D01*
X95774283Y-43230763D01*
X95754868Y-43217708D01*
X95735444Y-43204670D01*
X95716015Y-43191653D01*
X95696576Y-43178654D01*
X95677133Y-43165676D01*
X95657680Y-43152716D01*
X95638223Y-43139777D01*
X95618757Y-43126855D01*
X95599286Y-43113955D01*
X95579805Y-43101072D01*
X95560320Y-43088211D01*
X95540826Y-43075366D01*
X95521327Y-43062544D01*
X95501819Y-43049738D01*
X95482306Y-43036954D01*
X95462784Y-43024188D01*
X95443258Y-43011443D01*
X95423722Y-42998715D01*
X95404182Y-42986009D01*
X95384632Y-42973320D01*
X95365078Y-42960652D01*
X95345515Y-42948002D01*
X95325947Y-42935373D01*
X95306370Y-42922762D01*
X95286789Y-42910172D01*
X95267198Y-42897600D01*
X95247604Y-42885048D01*
X95228000Y-42872515D01*
X95208391Y-42860003D01*
X95188774Y-42847508D01*
X95169152Y-42835034D01*
X95149521Y-42822578D01*
X95129886Y-42810144D01*
X95110241Y-42797727D01*
X95090592Y-42785331D01*
X95070934Y-42772953D01*
X95051272Y-42760596D01*
X95031601Y-42748256D01*
X95011926Y-42735938D01*
X94992241Y-42723638D01*
X94972552Y-42711359D01*
X94952854Y-42699097D01*
X94933152Y-42686857D01*
X94913441Y-42674634D01*
X94893726Y-42662432D01*
X94874001Y-42650248D01*
X94854273Y-42638086D01*
X94834536Y-42625941D01*
X94814794Y-42613817D01*
X94795043Y-42601711D01*
X94775289Y-42589626D01*
X94755525Y-42577559D01*
X94735757Y-42565513D01*
X94715980Y-42553485D01*
X94696200Y-42541478D01*
X94676410Y-42529489D01*
X94656616Y-42517521D01*
X94636813Y-42505570D01*
X94617007Y-42493641D01*
X94597191Y-42481730D01*
X94577372Y-42469839D01*
X94557543Y-42457967D01*
X94537710Y-42446115D01*
X94517869Y-42434282D01*
X94498024Y-42422469D01*
X94478169Y-42410675D01*
X94458311Y-42398901D01*
X94438444Y-42387145D01*
X94418573Y-42375411D01*
X94398693Y-42363694D01*
X94378810Y-42351998D01*
X94358917Y-42340321D01*
X94339021Y-42328664D01*
X94319116Y-42317025D01*
X94299207Y-42305407D01*
X94279289Y-42293807D01*
X94259368Y-42282229D01*
X94239437Y-42270668D01*
X94219503Y-42259128D01*
X94199560Y-42247606D01*
X94179614Y-42236105D01*
X94159658Y-42224622D01*
X94139699Y-42213160D01*
X94119731Y-42201716D01*
X94099759Y-42190293D01*
X94079779Y-42178888D01*
X94059795Y-42167504D01*
X94039802Y-42156138D01*
X94019806Y-42144793D01*
X93999800Y-42133466D01*
X93979792Y-42122160D01*
X93959774Y-42110872D01*
X93939753Y-42099605D01*
X93919723Y-42088356D01*
X93899690Y-42077128D01*
X93879647Y-42065918D01*
X93859602Y-42054729D01*
X93839547Y-42043558D01*
X93819490Y-42032408D01*
X93799423Y-42021276D01*
X93779353Y-42010165D01*
X93759274Y-41999071D01*
X93739192Y-41987999D01*
X93719101Y-41976945D01*
X93699007Y-41965912D01*
X93678904Y-41954897D01*
X93658798Y-41943903D01*
X93638683Y-41932927D01*
X93618565Y-41921972D01*
X93598438Y-41911035D01*
X93578308Y-41900119D01*
X93558168Y-41889221D01*
X93538026Y-41878344D01*
X93517875Y-41867485D01*
X93497721Y-41856647D01*
X93477558Y-41845827D01*
X93457392Y-41835028D01*
X93437217Y-41824248D01*
X93417040Y-41813488D01*
X93396853Y-41802746D01*
X93376663Y-41792025D01*
X93356465Y-41781322D01*
X93336263Y-41770640D01*
X93316053Y-41759976D01*
X93295840Y-41749334D01*
X93275618Y-41738709D01*
X93255393Y-41728105D01*
X93235159Y-41717519D01*
X93214923Y-41706955D01*
X93194677Y-41696408D01*
X93174429Y-41685882D01*
X93154172Y-41675375D01*
X93133912Y-41664888D01*
X93113643Y-41654419D01*
X93093372Y-41643972D01*
X93073092Y-41633542D01*
X93052809Y-41623134D01*
X93032517Y-41612743D01*
X93012222Y-41602374D01*
X92991919Y-41592022D01*
X92971613Y-41581692D01*
X92951298Y-41571379D01*
X92930981Y-41561088D01*
X92910654Y-41550815D01*
X92890325Y-41540562D01*
X92869988Y-41530328D01*
X92849648Y-41520115D01*
X92829299Y-41509920D01*
X92808947Y-41499745D01*
X92788586Y-41489589D01*
X92768224Y-41479454D01*
X92747852Y-41469337D01*
X92727478Y-41459241D01*
X92707095Y-41449163D01*
X92686709Y-41439106D01*
X92666315Y-41429067D01*
X92645918Y-41419049D01*
X92625513Y-41409049D01*
X92605105Y-41399070D01*
X92584688Y-41389109D01*
X92564269Y-41379170D01*
X92543841Y-41369248D01*
X92523411Y-41359347D01*
X92502972Y-41349465D01*
X92482531Y-41339603D01*
X92462081Y-41329759D01*
X92441628Y-41319937D01*
X92421167Y-41310132D01*
X92400703Y-41300349D01*
X92380231Y-41290583D01*
X92359757Y-41280839D01*
X92339274Y-41271112D01*
X92318788Y-41261407D01*
X92298294Y-41251720D01*
X92277798Y-41242053D01*
X92257293Y-41232405D01*
X92236785Y-41222778D01*
X92216269Y-41213169D01*
X92195751Y-41203581D01*
X92175224Y-41194011D01*
X92154695Y-41184462D01*
X92134158Y-41174931D01*
X92113618Y-41165421D01*
X92093069Y-41155929D01*
X92072518Y-41146458D01*
X92051959Y-41137005D01*
X92031398Y-41127573D01*
X92010828Y-41118160D01*
X91990255Y-41108767D01*
X91969675Y-41099392D01*
X91949092Y-41090039D01*
X91928500Y-41080703D01*
X91907906Y-41071389D01*
X91887304Y-41062092D01*
X91866700Y-41052817D01*
X91846087Y-41043559D01*
X91825472Y-41034323D01*
X91804849Y-41025105D01*
X91784223Y-41015907D01*
X91763589Y-41006728D01*
X91742953Y-40997570D01*
X91722309Y-40988430D01*
X91701662Y-40979311D01*
X91681007Y-40970210D01*
X91660350Y-40961130D01*
X91639684Y-40952068D01*
X91619016Y-40943027D01*
X91598341Y-40934004D01*
X91577662Y-40925002D01*
X91556976Y-40916019D01*
X91536287Y-40907056D01*
X91515591Y-40898111D01*
X91494891Y-40889188D01*
X91474184Y-40880282D01*
X91453475Y-40871398D01*
X91432757Y-40862531D01*
X91412038Y-40853686D01*
X91391310Y-40844858D01*
X91370580Y-40836052D01*
X91349841Y-40827264D01*
X91329101Y-40818497D01*
X91308353Y-40809747D01*
X91287602Y-40801019D01*
X91266843Y-40792309D01*
X91246082Y-40783620D01*
X91225313Y-40774949D01*
X91204542Y-40766299D01*
X91183763Y-40757667D01*
X91162982Y-40749056D01*
X91142193Y-40740464D01*
X91121401Y-40731892D01*
X91100602Y-40723338D01*
X91079800Y-40714806D01*
X91058991Y-40706291D01*
X91038179Y-40697797D01*
X91017360Y-40689322D01*
X90996538Y-40680867D01*
X90975708Y-40672431D01*
X90954876Y-40664016D01*
X90934037Y-40655618D01*
X90913195Y-40647242D01*
X90892345Y-40638884D01*
X90871493Y-40630547D01*
X90850634Y-40622228D01*
X90829772Y-40613929D01*
X90808902Y-40605650D01*
X90788030Y-40597391D01*
X90767151Y-40589150D01*
X90746269Y-40580930D01*
X90725380Y-40572728D01*
X90704488Y-40564547D01*
X90683589Y-40556385D01*
X90662687Y-40548243D01*
X90641778Y-40540119D01*
X90620867Y-40532017D01*
X90599947Y-40523932D01*
X90579026Y-40515869D01*
X90558097Y-40507823D01*
X90537167Y-40499799D01*
X90516228Y-40491793D01*
X90495287Y-40483807D01*
X90474339Y-40475840D01*
X90453388Y-40467894D01*
X90432430Y-40459966D01*
X90411470Y-40452059D01*
X90390502Y-40444170D01*
X90369532Y-40436302D01*
X90348555Y-40428452D01*
X90327575Y-40420623D01*
X90306588Y-40412812D01*
X90285599Y-40405022D01*
X90264602Y-40397251D01*
X90243603Y-40389500D01*
X90222597Y-40381768D01*
X90201588Y-40374056D01*
X90180572Y-40366362D01*
X90159554Y-40358690D01*
X90138529Y-40351036D01*
X90117501Y-40343402D01*
X90096466Y-40335787D01*
X90075429Y-40328192D01*
X90054384Y-40320616D01*
X90033338Y-40313061D01*
X90012283Y-40305524D01*
X89991227Y-40298008D01*
X89970164Y-40290510D01*
X89949098Y-40283033D01*
X89928025Y-40275574D01*
X89906950Y-40268136D01*
X89885868Y-40260717D01*
X89864783Y-40253318D01*
X89843691Y-40245937D01*
X89822597Y-40238577D01*
X89801496Y-40231236D01*
X89780393Y-40223915D01*
X89759282Y-40216613D01*
X89738170Y-40209331D01*
X89717050Y-40202068D01*
X89695928Y-40194826D01*
X89674799Y-40187602D01*
X89653667Y-40180398D01*
X89632529Y-40173213D01*
X89611388Y-40166049D01*
X89590240Y-40158903D01*
X89569091Y-40151778D01*
X89547934Y-40144671D01*
X89526775Y-40137585D01*
X89505608Y-40130517D01*
X89484440Y-40123470D01*
X89463265Y-40116442D01*
X89442087Y-40109434D01*
X89420902Y-40102444D01*
X89399716Y-40095475D01*
X89378522Y-40088525D01*
X89357326Y-40081595D01*
X89336123Y-40074684D01*
X89314918Y-40067793D01*
X89293706Y-40060921D01*
X89272492Y-40054070D01*
X89251271Y-40047237D01*
X89230048Y-40040424D01*
X89208818Y-40033630D01*
X89187586Y-40026857D01*
X89166346Y-40020102D01*
X89145105Y-40013368D01*
X89123856Y-40006653D01*
X89102606Y-39999957D01*
X89081349Y-39993281D01*
X89060090Y-39986625D01*
X89038823Y-39979987D01*
X89017555Y-39973370D01*
X88996280Y-39966772D01*
X88975002Y-39960194D01*
X88953718Y-39953635D01*
X88932432Y-39947096D01*
X88911139Y-39940576D01*
X88889844Y-39934077D01*
X88868541Y-39927596D01*
X88847237Y-39921135D01*
X88825926Y-39914693D01*
X88804613Y-39908272D01*
X88783293Y-39901869D01*
X88761972Y-39895487D01*
X88740643Y-39889123D01*
X88719312Y-39882780D01*
X88697974Y-39876456D01*
X88676635Y-39870152D01*
X88655288Y-39863866D01*
X88633940Y-39857601D01*
X88612585Y-39851355D01*
X88591228Y-39845129D01*
X88569864Y-39838922D01*
X88548498Y-39832735D01*
X88527125Y-39826567D01*
X88505751Y-39820420D01*
X88484369Y-39814291D01*
X88462986Y-39808182D01*
X88441595Y-39802093D01*
X88420203Y-39796023D01*
X88398804Y-39789973D01*
X88377404Y-39783942D01*
X88355996Y-39777931D01*
X88334586Y-39771940D01*
X88313170Y-39765967D01*
X88291752Y-39760015D01*
X88270327Y-39754082D01*
X88248900Y-39748169D01*
X88227467Y-39742275D01*
X88206031Y-39736401D01*
X88184589Y-39730546D01*
X88163145Y-39724711D01*
X88141694Y-39718895D01*
X88120242Y-39713100D01*
X88098782Y-39707323D01*
X88077321Y-39701567D01*
X88055853Y-39695829D01*
X88034383Y-39690112D01*
X88012907Y-39684413D01*
X87991428Y-39678735D01*
X87969943Y-39673076D01*
X87948457Y-39667436D01*
X87926963Y-39661816D01*
X87920000Y-39660000D01*
D11*
X75920000Y-39660000D02*
X87920000Y-39660000D01*
X53720895Y-68386793D02*
X53720895Y-78386793D01*
M02*
