%TF.GenerationSoftware,KiCad,Pcbnew,9.0.7*%
%TF.CreationDate,2026-05-11T17:24:30-07:00*%
%TF.ProjectId,tamagotchi,74616d61-676f-4746-9368-692e6b696361,rev?*%
%TF.SameCoordinates,Original*%
%TF.FileFunction,Copper,L1,Top*%
%TF.FilePolarity,Positive*%
%FSLAX46Y46*%
G04 Gerber Fmt 4.6, Leading zero omitted, Abs format (unit mm)*
G04 Created by KiCad (PCBNEW 9.0.7) date 2026-05-11 17:24:30*
%MOMM*%
%LPD*%
G01*
G04 APERTURE LIST*
G04 Aperture macros list*
%AMRoundRect*
0 Rectangle with rounded corners*
0 $1 Rounding radius*
0 $2 $3 $4 $5 $6 $7 $8 $9 X,Y pos of 4 corners*
0 Add a 4 corners polygon primitive as box body*
4,1,4,$2,$3,$4,$5,$6,$7,$8,$9,$2,$3,0*
0 Add four circle primitives for the rounded corners*
1,1,$1+$1,$2,$3*
1,1,$1+$1,$4,$5*
1,1,$1+$1,$6,$7*
1,1,$1+$1,$8,$9*
0 Add four rect primitives between the rounded corners*
20,1,$1+$1,$2,$3,$4,$5,0*
20,1,$1+$1,$4,$5,$6,$7,0*
20,1,$1+$1,$6,$7,$8,$9,0*
20,1,$1+$1,$8,$9,$2,$3,0*%
G04 Aperture macros list end*
%TA.AperFunction,ComponentPad*%
%ADD10C,1.700000*%
%TD*%
%TA.AperFunction,ComponentPad*%
%ADD11R,1.700000X1.700000*%
%TD*%
%TA.AperFunction,ComponentPad*%
%ADD12R,1.308000X1.308000*%
%TD*%
%TA.AperFunction,ComponentPad*%
%ADD13C,1.308000*%
%TD*%
%TA.AperFunction,ConnectorPad*%
%ADD14C,6.400000*%
%TD*%
%TA.AperFunction,ComponentPad*%
%ADD15C,3.600000*%
%TD*%
%TA.AperFunction,ComponentPad*%
%ADD16C,1.400000*%
%TD*%
%TA.AperFunction,ComponentPad*%
%ADD17C,1.600000*%
%TD*%
%TA.AperFunction,ComponentPad*%
%ADD18R,1.500000X1.500000*%
%TD*%
%TA.AperFunction,ComponentPad*%
%ADD19C,1.500000*%
%TD*%
%TA.AperFunction,ComponentPad*%
%ADD20C,1.320800*%
%TD*%
%TA.AperFunction,ComponentPad*%
%ADD21C,2.006600*%
%TD*%
%TA.AperFunction,ComponentPad*%
%ADD22R,1.508000X1.508000*%
%TD*%
%TA.AperFunction,ComponentPad*%
%ADD23C,1.508000*%
%TD*%
%TA.AperFunction,SMDPad,CuDef*%
%ADD24RoundRect,0.150000X-0.512500X-0.150000X0.512500X-0.150000X0.512500X0.150000X-0.512500X0.150000X0*%
%TD*%
%TA.AperFunction,ComponentPad*%
%ADD25C,1.530000*%
%TD*%
%TA.AperFunction,ViaPad*%
%ADD26C,0.600000*%
%TD*%
%TA.AperFunction,Conductor*%
%ADD27C,0.200000*%
%TD*%
%TA.AperFunction,Conductor*%
%ADD28C,0.500000*%
%TD*%
G04 APERTURE END LIST*
D10*
%TO.P,U3,8,GND*%
%TO.N,GND*%
X73030000Y-89340000D03*
%TO.P,U3,7,VIN*%
%TO.N,+3.3V*%
X75570000Y-89340000D03*
%TO.P,U3,6,3Vo*%
%TO.N,unconnected-(U3-3Vo-Pad6)*%
X78110000Y-89340000D03*
%TO.P,U3,5,RST*%
%TO.N,RST*%
X80650000Y-89340000D03*
%TO.P,U3,4,CS*%
%TO.N,CS*%
X83190000Y-89340000D03*
%TO.P,U3,3,DC*%
%TO.N,DC*%
X85730000Y-89340000D03*
%TO.P,U3,2,CLK*%
%TO.N,SCK*%
X88270000Y-89340000D03*
D11*
%TO.P,U3,1,DATA*%
%TO.N,MOSI*%
X90810000Y-89340000D03*
%TD*%
D12*
%TO.P,BT1,1,+*%
%TO.N,VBAT*%
X58790000Y-62735000D03*
D13*
%TO.P,BT1,2,-*%
%TO.N,GND*%
X60790000Y-62735000D03*
%TD*%
D14*
%TO.P,H1,1,1*%
%TO.N,GND*%
X61000000Y-56000000D03*
D15*
X61000000Y-56000000D03*
%TD*%
D14*
%TO.P,H2,1,1*%
%TO.N,GND*%
X61000000Y-84000000D03*
D15*
X61000000Y-84000000D03*
%TD*%
D16*
%TO.P,R10,1*%
%TO.N,SOUND*%
X100600000Y-63160000D03*
%TO.P,R10,2*%
%TO.N,GND*%
X92980000Y-63160000D03*
%TD*%
%TO.P,R11,2*%
%TO.N,Net-(LS1-Pad1)*%
X92980000Y-59160000D03*
%TO.P,R11,1*%
%TO.N,+3.3V*%
X100600000Y-59160000D03*
%TD*%
D17*
%TO.P,C5,2*%
%TO.N,GND*%
X107480000Y-67160000D03*
%TO.P,C5,1*%
%TO.N,BTN3*%
X104980000Y-67160000D03*
%TD*%
%TO.P,C6,2*%
%TO.N,GND*%
X107480000Y-75160000D03*
%TO.P,C6,1*%
%TO.N,BTN1*%
X104980000Y-75160000D03*
%TD*%
%TO.P,C4,2*%
%TO.N,GND*%
X107480000Y-71160000D03*
%TO.P,C4,1*%
%TO.N,BTN2*%
X104980000Y-71160000D03*
%TD*%
D16*
%TO.P,R9,1*%
%TO.N,BTN1*%
X100600000Y-75160000D03*
%TO.P,R9,2*%
%TO.N,GND*%
X92980000Y-75160000D03*
%TD*%
%TO.P,R8,1*%
%TO.N,BTN3*%
X100600000Y-67160000D03*
%TO.P,R8,2*%
%TO.N,GND*%
X92980000Y-67160000D03*
%TD*%
D18*
%TO.P,Q4,1,S*%
%TO.N,GND*%
X105020000Y-63610000D03*
D19*
%TO.P,Q4,2,G*%
%TO.N,SOUND*%
X105020000Y-61070000D03*
%TO.P,Q4,3,D*%
%TO.N,Net-(Q4-D)*%
X105020000Y-58530000D03*
%TD*%
D17*
%TO.P,C1,1*%
%TO.N,VBAT*%
X64000000Y-70000000D03*
%TO.P,C1,2*%
%TO.N,GND*%
X61500000Y-70000000D03*
%TD*%
D16*
%TO.P,LS1,1,1*%
%TO.N,Net-(LS1-Pad1)*%
X94746749Y-53410000D03*
%TO.P,LS1,2,2*%
%TO.N,Net-(Q4-D)*%
X97946750Y-53410000D03*
%TD*%
D20*
%TO.P,SW2,1,A*%
%TO.N,Net-(SW2-A)*%
X56190000Y-71387000D03*
%TO.P,SW2,2,B*%
%TO.N,VBAT*%
X56190000Y-73387000D03*
%TO.P,SW2,3,C*%
%TO.N,unconnected-(SW2-C-Pad3)*%
X56190000Y-75387001D03*
D21*
%TO.P,SW2,4,4*%
%TO.N,GND*%
X56190000Y-69287001D03*
%TO.P,SW2,5,5*%
X56190000Y-77486999D03*
%TD*%
D15*
%TO.P,H3,1,1*%
%TO.N,GND*%
X105000000Y-84000000D03*
D14*
X105000000Y-84000000D03*
%TD*%
D16*
%TO.P,R7,1*%
%TO.N,BTN2*%
X100600000Y-71160000D03*
%TO.P,R7,2*%
%TO.N,GND*%
X92980000Y-71160000D03*
%TD*%
D22*
%TO.P,SW4,1*%
%TO.N,BTN1*%
X98170000Y-93750000D03*
D23*
%TO.P,SW4,2*%
X91670000Y-93750000D03*
%TO.P,SW4,3*%
%TO.N,+3.3V*%
X98170000Y-98250000D03*
%TO.P,SW4,4*%
X91670000Y-98250000D03*
%TD*%
D24*
%TO.P,U2,1,STAT*%
%TO.N,STAT*%
X67212500Y-62260000D03*
%TO.P,U2,2,V_{SS}*%
%TO.N,GND*%
X67212500Y-63210000D03*
%TO.P,U2,3,V_{BAT}*%
%TO.N,VBAT*%
X67212500Y-64160000D03*
%TO.P,U2,4,V_{DD}*%
%TO.N,VBUS*%
X69487500Y-64160000D03*
%TO.P,U2,5,PROG*%
%TO.N,Net-(U2-PROG)*%
X69487500Y-62260000D03*
%TD*%
D17*
%TO.P,C2,1*%
%TO.N,VBUS*%
X70000000Y-70000000D03*
%TO.P,C2,2*%
%TO.N,GND*%
X67500000Y-70000000D03*
%TD*%
D22*
%TO.P,SW3,1*%
%TO.N,BTN3*%
X72170000Y-93750000D03*
D23*
%TO.P,SW3,2*%
X65670000Y-93750000D03*
%TO.P,SW3,3*%
%TO.N,+3.3V*%
X72170000Y-98250000D03*
%TO.P,SW3,4*%
X65670000Y-98250000D03*
%TD*%
D16*
%TO.P,R6,1*%
%TO.N,Net-(U2-PROG)*%
X69400000Y-73950000D03*
%TO.P,R6,2*%
%TO.N,GND*%
X61780000Y-73950000D03*
%TD*%
D25*
%TO.P,U1,3.3V,3.3V*%
%TO.N,+3.3V*%
X74390000Y-44080000D03*
%TO.P,U1,A0,A0*%
%TO.N,unconnected-(U1-PadA0)*%
X74390000Y-51700000D03*
%TO.P,U1,A1,A1*%
%TO.N,unconnected-(U1-PadA1)*%
X74390000Y-54240000D03*
%TO.P,U1,A2,A2*%
%TO.N,unconnected-(U1-PadA2)*%
X74390000Y-56780000D03*
%TO.P,U1,A3,A3*%
%TO.N,unconnected-(U1-PadA3)*%
X74390000Y-59320000D03*
%TO.P,U1,A4,A4*%
%TO.N,STAT*%
X74390000Y-61860000D03*
%TO.P,U1,A5,A5*%
%TO.N,unconnected-(U1-PadA5)*%
X74390000Y-64400000D03*
%TO.P,U1,AREF,AREF*%
%TO.N,unconnected-(U1-PadAREF)*%
X74390000Y-46620000D03*
%TO.P,U1,D0,D0*%
%TO.N,BTN1*%
X89630000Y-74560000D03*
%TO.P,U1,D1,D1*%
%TO.N,BTN2*%
X89630000Y-72020000D03*
%TO.P,U1,D2,D2*%
%TO.N,RST*%
X74390000Y-74560000D03*
%TO.P,U1,D3,D3*%
%TO.N,CS*%
X84550000Y-74560000D03*
%TO.P,U1,D4,D4*%
%TO.N,DC*%
X87090000Y-74560000D03*
%TO.P,U1,D5,D5*%
%TO.N,BTN3*%
X89630000Y-64400000D03*
%TO.P,U1,D7,D7*%
%TO.N,SOUND*%
X89630000Y-61860000D03*
%TO.P,U1,D9,D9*%
%TO.N,unconnected-(U1-PadD9)*%
X89630000Y-59320000D03*
%TO.P,U1,D10,D10*%
%TO.N,unconnected-(U1-PadD10)*%
X89630000Y-56780000D03*
%TO.P,U1,D11,D11*%
%TO.N,unconnected-(U1-PadD11)*%
X89630000Y-54240000D03*
%TO.P,U1,D12,D12*%
%TO.N,unconnected-(U1-PadD12)*%
X89630000Y-51700000D03*
%TO.P,U1,D13,D13*%
%TO.N,unconnected-(U1-PadD13)*%
X89630000Y-49160000D03*
%TO.P,U1,EN,EN*%
%TO.N,unconnected-(U1-PadEN)*%
X76930000Y-74560000D03*
%TO.P,U1,GND,GND*%
%TO.N,GND*%
X89630000Y-44080000D03*
%TO.P,U1,MISO,MISO*%
%TO.N,unconnected-(U1-PadMISO)*%
X74390000Y-72020000D03*
%TO.P,U1,MOSI,MOSI*%
%TO.N,MOSI*%
X74390000Y-69480000D03*
%TO.P,U1,RESET,RESET*%
%TO.N,unconnected-(U1-PadRESET)*%
X74390000Y-41540000D03*
%TO.P,U1,SCK,SCK*%
%TO.N,SCK*%
X74390000Y-66940000D03*
%TO.P,U1,SCL,SCL*%
%TO.N,unconnected-(U1-PadSCL)*%
X89630000Y-66940000D03*
%TO.P,U1,SDA,SDA*%
%TO.N,unconnected-(U1-PadSDA)*%
X89630000Y-69480000D03*
%TO.P,U1,SWCLK,SWCLK*%
%TO.N,unconnected-(U1-PadSWCLK)*%
X82010000Y-74560000D03*
%TO.P,U1,SWDIO,SWDIO*%
%TO.N,unconnected-(U1-PadSWDIO)*%
X79470000Y-74560000D03*
%TO.P,U1,VBAT,VBAT*%
%TO.N,Net-(SW2-A)*%
X89630000Y-41540000D03*
%TO.P,U1,VBUS,VBUS*%
%TO.N,VBUS*%
X89630000Y-46620000D03*
%TO.P,U1,VHI,VHI*%
%TO.N,unconnected-(U1-PadVHI)*%
X74390000Y-49160000D03*
%TD*%
D22*
%TO.P,SW1,1*%
%TO.N,BTN2*%
X85170000Y-96750000D03*
D23*
%TO.P,SW1,2*%
X78670000Y-96750000D03*
%TO.P,SW1,3*%
%TO.N,+3.3V*%
X85170000Y-101250000D03*
%TO.P,SW1,4*%
X78670000Y-101250000D03*
%TD*%
D26*
%TO.N,GND*%
X65830000Y-63210000D03*
%TD*%
D27*
%TO.N,BTN3*%
X104980000Y-67160000D02*
X100600000Y-67160000D01*
%TO.N,Net-(LS1-Pad1)*%
X94746749Y-57393251D02*
X92980000Y-59160000D01*
X94746749Y-53410000D02*
X94746749Y-57393251D01*
%TO.N,Net-(Q4-D)*%
X103066750Y-58530000D02*
X97946750Y-53410000D01*
X105020000Y-58530000D02*
X103066750Y-58530000D01*
%TO.N,SOUND*%
X102690000Y-61070000D02*
X100600000Y-63160000D01*
X105020000Y-61070000D02*
X102690000Y-61070000D01*
X89630000Y-61860000D02*
X99300000Y-61860000D01*
X99300000Y-61860000D02*
X100600000Y-63160000D01*
D28*
%TO.N,VBUS*%
X70000000Y-64672500D02*
X69487500Y-64160000D01*
X70000000Y-70000000D02*
X70000000Y-64672500D01*
D27*
%TO.N,GND*%
X67212500Y-63210000D02*
X65830000Y-63210000D01*
%TO.N,STAT*%
X67813500Y-61659000D02*
X74189000Y-61659000D01*
X67212500Y-62260000D02*
X67813500Y-61659000D01*
X74189000Y-61659000D02*
X74390000Y-61860000D01*
%TO.N,Net-(U2-PROG)*%
X71101000Y-63873500D02*
X69487500Y-62260000D01*
X71101000Y-72249000D02*
X71101000Y-63873500D01*
X69400000Y-73950000D02*
X71101000Y-72249000D01*
D28*
%TO.N,VBAT*%
X64000000Y-67372500D02*
X67212500Y-64160000D01*
X64000000Y-70000000D02*
X64000000Y-67372500D01*
X56190000Y-73387000D02*
X60613000Y-73387000D01*
X60613000Y-73387000D02*
X64000000Y-70000000D01*
X54735700Y-71932700D02*
X56190000Y-73387000D01*
X54735700Y-66564300D02*
X54735700Y-71932700D01*
X58540000Y-62760000D02*
X54735700Y-66564300D01*
%TO.N,Net-(SW2-A)*%
X72013000Y-55564000D02*
X56190000Y-71387000D01*
X75606000Y-55564000D02*
X72013000Y-55564000D01*
X89630000Y-41540000D02*
X75606000Y-55564000D01*
D27*
%TO.N,BTN2*%
X97769000Y-85518100D02*
X97769000Y-73991000D01*
X86537100Y-96750000D02*
X97769000Y-85518100D01*
X85170000Y-96750000D02*
X86537100Y-96750000D01*
X97769000Y-73991000D02*
X100600000Y-71160000D01*
%TO.N,BTN1*%
X98170000Y-85684200D02*
X98170000Y-77590000D01*
X91670000Y-92184200D02*
X98170000Y-85684200D01*
X91670000Y-93750000D02*
X91670000Y-92184200D01*
X98170000Y-77590000D02*
X100600000Y-75160000D01*
%TO.N,BTN3*%
X97368000Y-85352000D02*
X97368000Y-70392000D01*
X88970000Y-93750000D02*
X97368000Y-85352000D01*
X72170000Y-93750000D02*
X88970000Y-93750000D01*
X97368000Y-70392000D02*
X100600000Y-67160000D01*
%TO.N,BTN1*%
X98170000Y-93750000D02*
X91670000Y-93750000D01*
X104980000Y-75160000D02*
X100600000Y-75160000D01*
%TO.N,BTN2*%
X104980000Y-71160000D02*
X100600000Y-71160000D01*
X78670000Y-96750000D02*
X85170000Y-96750000D01*
%TO.N,BTN3*%
X65670000Y-93750000D02*
X72170000Y-93750000D01*
%TO.N,RST*%
X78230964Y-81760375D02*
X77863268Y-82128071D01*
X74469161Y-79073374D02*
X74554013Y-79158226D01*
X74893425Y-79158226D02*
X75261120Y-78790530D01*
X78938070Y-81053268D02*
X78400669Y-81590670D01*
X77127879Y-80317879D02*
X77665279Y-79780476D01*
X76703616Y-79893616D02*
X76166214Y-80431017D01*
X77976406Y-81166405D02*
X77976406Y-81166406D01*
X78400670Y-81590670D02*
X78230964Y-81760375D01*
X77241016Y-79356214D02*
X76703615Y-79893616D01*
X75430826Y-78620824D02*
X75430825Y-78620825D01*
X77127879Y-80317878D02*
X77127879Y-80317879D01*
X76279352Y-79469352D02*
X76816752Y-78931949D01*
X78089543Y-80204741D02*
X77552142Y-80742143D01*
X78287532Y-82552334D02*
X78655227Y-82184638D01*
X75855088Y-79045089D02*
X75855089Y-79045089D01*
X76279352Y-79469351D02*
X76279352Y-79469352D01*
X77156164Y-78931950D02*
X77241016Y-79016802D01*
X77439005Y-81703807D02*
X77976406Y-81166405D01*
X76590478Y-80855280D02*
X77127879Y-80317878D01*
X76703615Y-79893616D02*
X76703616Y-79893616D01*
X77976406Y-81166406D02*
X78513806Y-80629003D01*
X77863268Y-82467482D02*
X77948120Y-82552334D01*
X75261120Y-78790530D02*
X75430826Y-78620824D01*
X77552143Y-80742143D02*
X77014741Y-81279544D01*
X77014741Y-81618955D02*
X77099593Y-81703807D01*
X74390000Y-77580000D02*
X74836857Y-78026857D01*
X75855089Y-79045089D02*
X75317687Y-79582490D01*
X74390000Y-74560000D02*
X74390000Y-77580000D01*
X76166214Y-80770428D02*
X76251066Y-80855280D01*
X75317687Y-79921901D02*
X75402539Y-80006753D01*
X79079492Y-82269492D02*
X79301650Y-82491650D01*
X78994638Y-82184638D02*
X79079492Y-82269492D01*
X78400669Y-81590670D02*
X78400670Y-81590670D01*
X75430825Y-78620825D02*
X75968225Y-78083422D01*
X78004691Y-79780477D02*
X78089543Y-79865329D01*
X78853218Y-80629004D02*
X78938070Y-80713856D01*
X75741951Y-80006753D02*
X76279352Y-79469351D01*
X76307637Y-78083423D02*
X76392489Y-78168275D01*
X77552142Y-80742143D02*
X77552143Y-80742143D01*
X74836857Y-78366268D02*
X74469161Y-78733963D01*
X76392489Y-78507687D02*
X75855088Y-79045089D01*
X78938070Y-80713856D02*
G75*
G02*
X78938108Y-81053306I-169670J-169744D01*
G01*
X77099593Y-81703807D02*
G75*
G03*
X77439005Y-81703807I169706J169704D01*
G01*
X75402539Y-80006753D02*
G75*
G03*
X75741951Y-80006753I169706J169704D01*
G01*
X77863268Y-82128071D02*
G75*
G03*
X77863244Y-82467505I169732J-169729D01*
G01*
X76251066Y-80855280D02*
G75*
G03*
X76590478Y-80855280I169706J169704D01*
G01*
X75317687Y-79582490D02*
G75*
G03*
X75317682Y-79921905I169713J-169710D01*
G01*
X78513806Y-80629003D02*
G75*
G02*
X78853206Y-80629015I169694J-169697D01*
G01*
X76392489Y-78168275D02*
G75*
G02*
X76392508Y-78507706I-169689J-169725D01*
G01*
X78655227Y-82184638D02*
G75*
G02*
X78994638Y-82184637I169706J-169707D01*
G01*
X77014741Y-81279544D02*
G75*
G03*
X77014790Y-81618905I169659J-169656D01*
G01*
X77948120Y-82552334D02*
G75*
G03*
X78287532Y-82552334I169706J169704D01*
G01*
X77665279Y-79780476D02*
G75*
G02*
X78004706Y-79780461I169721J-169724D01*
G01*
X77241016Y-79016802D02*
G75*
G02*
X77241008Y-79356206I-169716J-169698D01*
G01*
X78089543Y-79865329D02*
G75*
G02*
X78089508Y-80204706I-169743J-169671D01*
G01*
X76166214Y-80431017D02*
G75*
G03*
X76166236Y-80770405I169686J-169683D01*
G01*
X74554013Y-79158226D02*
G75*
G03*
X74893425Y-79158226I169706J169704D01*
G01*
X75968225Y-78083422D02*
G75*
G02*
X76307606Y-78083453I169675J-169678D01*
G01*
X74836857Y-78026857D02*
G75*
G02*
X74836895Y-78366306I-169657J-169743D01*
G01*
X76816752Y-78931949D02*
G75*
G02*
X77156206Y-78931907I169748J-169751D01*
G01*
X74469161Y-78733963D02*
G75*
G03*
X74469129Y-79073405I169739J-169737D01*
G01*
%TO.N,CS*%
X84530000Y-83440913D02*
X83770000Y-83440913D01*
X84530000Y-80440913D02*
X85290000Y-80440913D01*
X84530000Y-81640913D02*
X85290000Y-81640913D01*
X84770000Y-84040913D02*
X85290000Y-84040913D01*
X84530000Y-84040913D02*
X84770000Y-84040913D01*
X83770000Y-82840913D02*
X84530000Y-82840913D01*
X85290000Y-79840913D02*
X84770000Y-79840913D01*
X83530000Y-83680913D02*
X83530000Y-83800913D01*
X84530000Y-79840913D02*
X83770000Y-79840913D01*
X85530000Y-83080913D02*
X85530000Y-83200913D01*
X83530000Y-82480913D02*
X83530000Y-82600913D01*
X85290000Y-82240913D02*
X84530000Y-82240913D01*
X85290000Y-84640913D02*
X84770000Y-84640913D01*
X83770000Y-84040913D02*
X84530000Y-84040913D01*
X83530000Y-80080913D02*
X83530000Y-80200913D01*
X84770000Y-79840913D02*
X84530000Y-79840913D01*
X84770000Y-79240913D02*
X85290000Y-79240913D01*
X84530000Y-74580000D02*
X84530000Y-79000913D01*
X84530000Y-88000000D02*
X83190000Y-89340000D01*
X84530000Y-84880913D02*
X84530000Y-85000913D01*
X84530000Y-81040913D02*
X83770000Y-81040913D01*
X85530000Y-84280913D02*
X85530000Y-84400913D01*
X84530000Y-82240913D02*
X83770000Y-82240913D01*
X85530000Y-80680913D02*
X85530000Y-80800913D01*
X84530000Y-85000913D02*
X84530000Y-85544731D01*
X85530000Y-81880913D02*
X85530000Y-82000913D01*
X83770000Y-81640913D02*
X84530000Y-81640913D01*
X83770000Y-80440913D02*
X84530000Y-80440913D01*
X83530000Y-81280913D02*
X83530000Y-81400913D01*
X85290000Y-81040913D02*
X84530000Y-81040913D01*
X85290000Y-83440913D02*
X84530000Y-83440913D01*
X85530000Y-79480913D02*
X85530000Y-79600913D01*
X84530000Y-85544731D02*
X84530000Y-88000000D01*
X84550000Y-74560000D02*
X84530000Y-74580000D01*
X84530000Y-82840913D02*
X85290000Y-82840913D01*
X84530000Y-79000913D02*
G75*
G03*
X84770000Y-79240900I240000J13D01*
G01*
X85530000Y-84400913D02*
G75*
G02*
X85290000Y-84640900I-240000J13D01*
G01*
X83530000Y-83800913D02*
G75*
G03*
X83770000Y-84040900I240000J13D01*
G01*
X85290000Y-82840913D02*
G75*
G02*
X85529987Y-83080913I0J-239987D01*
G01*
X85530000Y-80800913D02*
G75*
G02*
X85290000Y-81040900I-240000J13D01*
G01*
X83770000Y-79840913D02*
G75*
G03*
X83530013Y-80080913I0J-239987D01*
G01*
X85290000Y-81640913D02*
G75*
G02*
X85529987Y-81880913I0J-239987D01*
G01*
X84770000Y-84640913D02*
G75*
G03*
X84530013Y-84880913I0J-239987D01*
G01*
X83770000Y-83440913D02*
G75*
G03*
X83530013Y-83680913I0J-239987D01*
G01*
X83530000Y-82600913D02*
G75*
G03*
X83770000Y-82840900I240000J13D01*
G01*
X83530000Y-81400913D02*
G75*
G03*
X83770000Y-81640900I240000J13D01*
G01*
X85530000Y-79600913D02*
G75*
G02*
X85290000Y-79840900I-240000J13D01*
G01*
X85530000Y-82000913D02*
G75*
G02*
X85290000Y-82240900I-240000J13D01*
G01*
X85290000Y-80440913D02*
G75*
G02*
X85529987Y-80680913I0J-239987D01*
G01*
X83770000Y-81040913D02*
G75*
G03*
X83530013Y-81280913I0J-239987D01*
G01*
X85290000Y-84040913D02*
G75*
G02*
X85529987Y-84280913I0J-239987D01*
G01*
X83770000Y-82240913D02*
G75*
G03*
X83530013Y-82480913I0J-239987D01*
G01*
X85530000Y-83200913D02*
G75*
G02*
X85290000Y-83440900I-240000J13D01*
G01*
X85290000Y-79240913D02*
G75*
G02*
X85529987Y-79480913I0J-239987D01*
G01*
X83530000Y-80200913D02*
G75*
G03*
X83770000Y-80440900I240000J13D01*
G01*
%TO.N,DC*%
X86850000Y-77502711D02*
X86330000Y-77502711D01*
X87090000Y-78702711D02*
X86330000Y-78702711D01*
X88040000Y-83142711D02*
X88040000Y-83262711D01*
X87800000Y-82302711D02*
X87090000Y-82302711D01*
X87090000Y-81702711D02*
X87800000Y-81702711D01*
X87090000Y-84420013D02*
X87090000Y-87980000D01*
X87090000Y-80502711D02*
X87800000Y-80502711D01*
X86850000Y-78102711D02*
X87090000Y-78102711D01*
X87330000Y-82902711D02*
X87800000Y-82902711D01*
X87800000Y-79902711D02*
X87090000Y-79902711D01*
X87090000Y-82902711D02*
X87330000Y-82902711D01*
X86330000Y-79302711D02*
X87090000Y-79302711D01*
X86090000Y-81342711D02*
X86090000Y-81462711D01*
X87800000Y-83502711D02*
X87330000Y-83502711D01*
X87090000Y-79302711D02*
X87800000Y-79302711D01*
X87090000Y-79902711D02*
X86330000Y-79902711D01*
X87090000Y-81102711D02*
X86330000Y-81102711D01*
X86090000Y-77742711D02*
X86090000Y-77862711D01*
X86090000Y-78942711D02*
X86090000Y-79062711D01*
X87090000Y-83862711D02*
X87090000Y-84420013D01*
X86090000Y-82542711D02*
X86090000Y-82662711D01*
X86330000Y-78102711D02*
X86850000Y-78102711D01*
X87090000Y-82302711D02*
X86330000Y-82302711D01*
X88040000Y-81942711D02*
X88040000Y-82062711D01*
X86330000Y-81702711D02*
X87090000Y-81702711D01*
X88040000Y-79542711D02*
X88040000Y-79662711D01*
X87800000Y-78702711D02*
X87090000Y-78702711D01*
X87090000Y-74560000D02*
X87090000Y-77262711D01*
X87090000Y-78102711D02*
X87800000Y-78102711D01*
X87800000Y-81102711D02*
X87090000Y-81102711D01*
X88040000Y-80742711D02*
X88040000Y-80862711D01*
X86090000Y-80142711D02*
X86090000Y-80262711D01*
X86330000Y-82902711D02*
X87090000Y-82902711D01*
X86330000Y-80502711D02*
X87090000Y-80502711D01*
X87090000Y-83742711D02*
X87090000Y-83862711D01*
X88040000Y-78342711D02*
X88040000Y-78462711D01*
X87090000Y-87980000D02*
X85730000Y-89340000D01*
X88040000Y-82062711D02*
G75*
G02*
X87800000Y-82302700I-240000J11D01*
G01*
X88040000Y-80862711D02*
G75*
G02*
X87800000Y-81102700I-240000J11D01*
G01*
X86330000Y-81102711D02*
G75*
G03*
X86090011Y-81342711I0J-239989D01*
G01*
X87800000Y-80502711D02*
G75*
G02*
X88039989Y-80742711I0J-239989D01*
G01*
X86090000Y-80262711D02*
G75*
G03*
X86330000Y-80502700I240000J11D01*
G01*
X86090000Y-81462711D02*
G75*
G03*
X86330000Y-81702700I240000J11D01*
G01*
X87330000Y-83502711D02*
G75*
G03*
X87090011Y-83742711I0J-239989D01*
G01*
X86090000Y-82662711D02*
G75*
G03*
X86330000Y-82902700I240000J11D01*
G01*
X88040000Y-83262711D02*
G75*
G02*
X87800000Y-83502700I-240000J11D01*
G01*
X86330000Y-82302711D02*
G75*
G03*
X86090011Y-82542711I0J-239989D01*
G01*
X86330000Y-79902711D02*
G75*
G03*
X86090011Y-80142711I0J-239989D01*
G01*
X88040000Y-79662711D02*
G75*
G02*
X87800000Y-79902700I-240000J11D01*
G01*
X87800000Y-82902711D02*
G75*
G02*
X88039989Y-83142711I0J-239989D01*
G01*
X86330000Y-77502711D02*
G75*
G03*
X86090011Y-77742711I0J-239989D01*
G01*
X87090000Y-77262711D02*
G75*
G02*
X86850000Y-77502700I-240000J11D01*
G01*
X86330000Y-78702711D02*
G75*
G03*
X86090011Y-78942711I0J-239989D01*
G01*
X86090000Y-77862711D02*
G75*
G03*
X86330000Y-78102700I240000J11D01*
G01*
X87800000Y-79302711D02*
G75*
G02*
X88039989Y-79542711I0J-239989D01*
G01*
X86090000Y-79062711D02*
G75*
G03*
X86330000Y-79302700I240000J11D01*
G01*
X87800000Y-81702711D02*
G75*
G02*
X88039989Y-81942711I0J-239989D01*
G01*
X87800000Y-78102711D02*
G75*
G02*
X88039989Y-78342711I0J-239989D01*
G01*
X88040000Y-78462711D02*
G75*
G02*
X87800000Y-78702700I-240000J11D01*
G01*
%TO.N,SCK*%
X88480000Y-74442448D02*
X80977552Y-66940000D01*
X88480000Y-89130000D02*
X88480000Y-74442448D01*
X80977552Y-66940000D02*
X74390000Y-66940000D01*
X88270000Y-89340000D02*
X88480000Y-89130000D01*
%TO.N,RST*%
X80650000Y-83840000D02*
X80650000Y-89340000D01*
X79301650Y-82491650D02*
X80650000Y-83840000D01*
%TD*%
M02*
