%TF.GenerationSoftware,KiCad,Pcbnew,9.0.7*%
%TF.CreationDate,2026-05-11T17:24:31-07:00*%
%TF.ProjectId,tamagotchi,74616d61-676f-4746-9368-692e6b696361,rev?*%
%TF.SameCoordinates,Original*%
%TF.FileFunction,Legend,Bot*%
%TF.FilePolarity,Positive*%
%FSLAX46Y46*%
G04 Gerber Fmt 4.6, Leading zero omitted, Abs format (unit mm)*
G04 Created by KiCad (PCBNEW 9.0.7) date 2026-05-11 17:24:31*
%MOMM*%
%LPD*%
G01*
G04 APERTURE LIST*
%ADD10C,0.300000*%
%ADD11C,0.508000*%
G04 APERTURE END LIST*
D10*
X88939774Y-78310996D02*
X88082632Y-78310996D01*
X88511203Y-79810996D02*
X88511203Y-78310996D01*
X86939775Y-79810996D02*
X86939775Y-79025282D01*
X86939775Y-79025282D02*
X87011203Y-78882425D01*
X87011203Y-78882425D02*
X87154060Y-78810996D01*
X87154060Y-78810996D02*
X87439775Y-78810996D01*
X87439775Y-78810996D02*
X87582632Y-78882425D01*
X86939775Y-79739568D02*
X87082632Y-79810996D01*
X87082632Y-79810996D02*
X87439775Y-79810996D01*
X87439775Y-79810996D02*
X87582632Y-79739568D01*
X87582632Y-79739568D02*
X87654060Y-79596710D01*
X87654060Y-79596710D02*
X87654060Y-79453853D01*
X87654060Y-79453853D02*
X87582632Y-79310996D01*
X87582632Y-79310996D02*
X87439775Y-79239568D01*
X87439775Y-79239568D02*
X87082632Y-79239568D01*
X87082632Y-79239568D02*
X86939775Y-79168139D01*
X86225489Y-79810996D02*
X86225489Y-78810996D01*
X86225489Y-78953853D02*
X86154060Y-78882425D01*
X86154060Y-78882425D02*
X86011203Y-78810996D01*
X86011203Y-78810996D02*
X85796917Y-78810996D01*
X85796917Y-78810996D02*
X85654060Y-78882425D01*
X85654060Y-78882425D02*
X85582632Y-79025282D01*
X85582632Y-79025282D02*
X85582632Y-79810996D01*
X85582632Y-79025282D02*
X85511203Y-78882425D01*
X85511203Y-78882425D02*
X85368346Y-78810996D01*
X85368346Y-78810996D02*
X85154060Y-78810996D01*
X85154060Y-78810996D02*
X85011203Y-78882425D01*
X85011203Y-78882425D02*
X84939774Y-79025282D01*
X84939774Y-79025282D02*
X84939774Y-79810996D01*
X83582632Y-79810996D02*
X83582632Y-79025282D01*
X83582632Y-79025282D02*
X83654060Y-78882425D01*
X83654060Y-78882425D02*
X83796917Y-78810996D01*
X83796917Y-78810996D02*
X84082632Y-78810996D01*
X84082632Y-78810996D02*
X84225489Y-78882425D01*
X83582632Y-79739568D02*
X83725489Y-79810996D01*
X83725489Y-79810996D02*
X84082632Y-79810996D01*
X84082632Y-79810996D02*
X84225489Y-79739568D01*
X84225489Y-79739568D02*
X84296917Y-79596710D01*
X84296917Y-79596710D02*
X84296917Y-79453853D01*
X84296917Y-79453853D02*
X84225489Y-79310996D01*
X84225489Y-79310996D02*
X84082632Y-79239568D01*
X84082632Y-79239568D02*
X83725489Y-79239568D01*
X83725489Y-79239568D02*
X83582632Y-79168139D01*
X82225489Y-78810996D02*
X82225489Y-80025282D01*
X82225489Y-80025282D02*
X82296917Y-80168139D01*
X82296917Y-80168139D02*
X82368346Y-80239568D01*
X82368346Y-80239568D02*
X82511203Y-80310996D01*
X82511203Y-80310996D02*
X82725489Y-80310996D01*
X82725489Y-80310996D02*
X82868346Y-80239568D01*
X82225489Y-79739568D02*
X82368346Y-79810996D01*
X82368346Y-79810996D02*
X82654060Y-79810996D01*
X82654060Y-79810996D02*
X82796917Y-79739568D01*
X82796917Y-79739568D02*
X82868346Y-79668139D01*
X82868346Y-79668139D02*
X82939774Y-79525282D01*
X82939774Y-79525282D02*
X82939774Y-79096710D01*
X82939774Y-79096710D02*
X82868346Y-78953853D01*
X82868346Y-78953853D02*
X82796917Y-78882425D01*
X82796917Y-78882425D02*
X82654060Y-78810996D01*
X82654060Y-78810996D02*
X82368346Y-78810996D01*
X82368346Y-78810996D02*
X82225489Y-78882425D01*
X81296917Y-79810996D02*
X81439774Y-79739568D01*
X81439774Y-79739568D02*
X81511203Y-79668139D01*
X81511203Y-79668139D02*
X81582631Y-79525282D01*
X81582631Y-79525282D02*
X81582631Y-79096710D01*
X81582631Y-79096710D02*
X81511203Y-78953853D01*
X81511203Y-78953853D02*
X81439774Y-78882425D01*
X81439774Y-78882425D02*
X81296917Y-78810996D01*
X81296917Y-78810996D02*
X81082631Y-78810996D01*
X81082631Y-78810996D02*
X80939774Y-78882425D01*
X80939774Y-78882425D02*
X80868346Y-78953853D01*
X80868346Y-78953853D02*
X80796917Y-79096710D01*
X80796917Y-79096710D02*
X80796917Y-79525282D01*
X80796917Y-79525282D02*
X80868346Y-79668139D01*
X80868346Y-79668139D02*
X80939774Y-79739568D01*
X80939774Y-79739568D02*
X81082631Y-79810996D01*
X81082631Y-79810996D02*
X81296917Y-79810996D01*
X80368345Y-78810996D02*
X79796917Y-78810996D01*
X80154060Y-78310996D02*
X80154060Y-79596710D01*
X80154060Y-79596710D02*
X80082631Y-79739568D01*
X80082631Y-79739568D02*
X79939774Y-79810996D01*
X79939774Y-79810996D02*
X79796917Y-79810996D01*
X78654060Y-79739568D02*
X78796917Y-79810996D01*
X78796917Y-79810996D02*
X79082631Y-79810996D01*
X79082631Y-79810996D02*
X79225488Y-79739568D01*
X79225488Y-79739568D02*
X79296917Y-79668139D01*
X79296917Y-79668139D02*
X79368345Y-79525282D01*
X79368345Y-79525282D02*
X79368345Y-79096710D01*
X79368345Y-79096710D02*
X79296917Y-78953853D01*
X79296917Y-78953853D02*
X79225488Y-78882425D01*
X79225488Y-78882425D02*
X79082631Y-78810996D01*
X79082631Y-78810996D02*
X78796917Y-78810996D01*
X78796917Y-78810996D02*
X78654060Y-78882425D01*
X78011203Y-79810996D02*
X78011203Y-78310996D01*
X77368346Y-79810996D02*
X77368346Y-79025282D01*
X77368346Y-79025282D02*
X77439774Y-78882425D01*
X77439774Y-78882425D02*
X77582631Y-78810996D01*
X77582631Y-78810996D02*
X77796917Y-78810996D01*
X77796917Y-78810996D02*
X77939774Y-78882425D01*
X77939774Y-78882425D02*
X78011203Y-78953853D01*
X76654060Y-79810996D02*
X76654060Y-78810996D01*
X76654060Y-78310996D02*
X76725488Y-78382425D01*
X76725488Y-78382425D02*
X76654060Y-78453853D01*
X76654060Y-78453853D02*
X76582631Y-78382425D01*
X76582631Y-78382425D02*
X76654060Y-78310996D01*
X76654060Y-78310996D02*
X76654060Y-78453853D01*
X75011202Y-78310996D02*
X74511202Y-79810996D01*
X74511202Y-79810996D02*
X74011202Y-78310996D01*
X73582631Y-78453853D02*
X73511203Y-78382425D01*
X73511203Y-78382425D02*
X73368346Y-78310996D01*
X73368346Y-78310996D02*
X73011203Y-78310996D01*
X73011203Y-78310996D02*
X72868346Y-78382425D01*
X72868346Y-78382425D02*
X72796917Y-78453853D01*
X72796917Y-78453853D02*
X72725488Y-78596710D01*
X72725488Y-78596710D02*
X72725488Y-78739568D01*
X72725488Y-78739568D02*
X72796917Y-78953853D01*
X72796917Y-78953853D02*
X73654060Y-79810996D01*
X73654060Y-79810996D02*
X72725488Y-79810996D01*
X88225489Y-81440198D02*
X88725489Y-81440198D01*
X88725489Y-82225912D02*
X88725489Y-80725912D01*
X88725489Y-80725912D02*
X88011203Y-80725912D01*
X87439775Y-82225912D02*
X87439775Y-81225912D01*
X87439775Y-80725912D02*
X87511203Y-80797341D01*
X87511203Y-80797341D02*
X87439775Y-80868769D01*
X87439775Y-80868769D02*
X87368346Y-80797341D01*
X87368346Y-80797341D02*
X87439775Y-80725912D01*
X87439775Y-80725912D02*
X87439775Y-80868769D01*
X86725489Y-81225912D02*
X86725489Y-82225912D01*
X86725489Y-81368769D02*
X86654060Y-81297341D01*
X86654060Y-81297341D02*
X86511203Y-81225912D01*
X86511203Y-81225912D02*
X86296917Y-81225912D01*
X86296917Y-81225912D02*
X86154060Y-81297341D01*
X86154060Y-81297341D02*
X86082632Y-81440198D01*
X86082632Y-81440198D02*
X86082632Y-82225912D01*
X85368346Y-81225912D02*
X85368346Y-82225912D01*
X85368346Y-81368769D02*
X85296917Y-81297341D01*
X85296917Y-81297341D02*
X85154060Y-81225912D01*
X85154060Y-81225912D02*
X84939774Y-81225912D01*
X84939774Y-81225912D02*
X84796917Y-81297341D01*
X84796917Y-81297341D02*
X84725489Y-81440198D01*
X84725489Y-81440198D02*
X84725489Y-82225912D01*
X82868346Y-82225912D02*
X82868346Y-80725912D01*
X82868346Y-81440198D02*
X82011203Y-81440198D01*
X82011203Y-82225912D02*
X82011203Y-80725912D01*
X81296917Y-82225912D02*
X81296917Y-81225912D01*
X81296917Y-80725912D02*
X81368345Y-80797341D01*
X81368345Y-80797341D02*
X81296917Y-80868769D01*
X81296917Y-80868769D02*
X81225488Y-80797341D01*
X81225488Y-80797341D02*
X81296917Y-80725912D01*
X81296917Y-80725912D02*
X81296917Y-80868769D01*
X80796916Y-81225912D02*
X80225488Y-81225912D01*
X80582631Y-80725912D02*
X80582631Y-82011626D01*
X80582631Y-82011626D02*
X80511202Y-82154484D01*
X80511202Y-82154484D02*
X80368345Y-82225912D01*
X80368345Y-82225912D02*
X80225488Y-82225912D01*
X79939773Y-81225912D02*
X79368345Y-81225912D01*
X79725488Y-80725912D02*
X79725488Y-82011626D01*
X79725488Y-82011626D02*
X79654059Y-82154484D01*
X79654059Y-82154484D02*
X79511202Y-82225912D01*
X79511202Y-82225912D02*
X79368345Y-82225912D01*
X78939773Y-82154484D02*
X78796916Y-82225912D01*
X78796916Y-82225912D02*
X78511202Y-82225912D01*
X78511202Y-82225912D02*
X78368345Y-82154484D01*
X78368345Y-82154484D02*
X78296916Y-82011626D01*
X78296916Y-82011626D02*
X78296916Y-81940198D01*
X78296916Y-81940198D02*
X78368345Y-81797341D01*
X78368345Y-81797341D02*
X78511202Y-81725912D01*
X78511202Y-81725912D02*
X78725488Y-81725912D01*
X78725488Y-81725912D02*
X78868345Y-81654484D01*
X78868345Y-81654484D02*
X78939773Y-81511626D01*
X78939773Y-81511626D02*
X78939773Y-81440198D01*
X78939773Y-81440198D02*
X78868345Y-81297341D01*
X78868345Y-81297341D02*
X78725488Y-81225912D01*
X78725488Y-81225912D02*
X78511202Y-81225912D01*
X78511202Y-81225912D02*
X78368345Y-81297341D01*
X77439773Y-82225912D02*
X77582630Y-82154484D01*
X77582630Y-82154484D02*
X77654059Y-82083055D01*
X77654059Y-82083055D02*
X77725487Y-81940198D01*
X77725487Y-81940198D02*
X77725487Y-81511626D01*
X77725487Y-81511626D02*
X77654059Y-81368769D01*
X77654059Y-81368769D02*
X77582630Y-81297341D01*
X77582630Y-81297341D02*
X77439773Y-81225912D01*
X77439773Y-81225912D02*
X77225487Y-81225912D01*
X77225487Y-81225912D02*
X77082630Y-81297341D01*
X77082630Y-81297341D02*
X77011202Y-81368769D01*
X77011202Y-81368769D02*
X76939773Y-81511626D01*
X76939773Y-81511626D02*
X76939773Y-81940198D01*
X76939773Y-81940198D02*
X77011202Y-82083055D01*
X77011202Y-82083055D02*
X77082630Y-82154484D01*
X77082630Y-82154484D02*
X77225487Y-82225912D01*
X77225487Y-82225912D02*
X77439773Y-82225912D01*
X76296916Y-81225912D02*
X76296916Y-82225912D01*
X76296916Y-81368769D02*
X76225487Y-81297341D01*
X76225487Y-81297341D02*
X76082630Y-81225912D01*
X76082630Y-81225912D02*
X75868344Y-81225912D01*
X75868344Y-81225912D02*
X75725487Y-81297341D01*
X75725487Y-81297341D02*
X75654059Y-81440198D01*
X75654059Y-81440198D02*
X75654059Y-82225912D01*
X88725489Y-84640828D02*
X88725489Y-83140828D01*
X88725489Y-83140828D02*
X88225489Y-84212257D01*
X88225489Y-84212257D02*
X87725489Y-83140828D01*
X87725489Y-83140828D02*
X87725489Y-84640828D01*
X86368346Y-84640828D02*
X86368346Y-83855114D01*
X86368346Y-83855114D02*
X86439774Y-83712257D01*
X86439774Y-83712257D02*
X86582631Y-83640828D01*
X86582631Y-83640828D02*
X86868346Y-83640828D01*
X86868346Y-83640828D02*
X87011203Y-83712257D01*
X86368346Y-84569400D02*
X86511203Y-84640828D01*
X86511203Y-84640828D02*
X86868346Y-84640828D01*
X86868346Y-84640828D02*
X87011203Y-84569400D01*
X87011203Y-84569400D02*
X87082631Y-84426542D01*
X87082631Y-84426542D02*
X87082631Y-84283685D01*
X87082631Y-84283685D02*
X87011203Y-84140828D01*
X87011203Y-84140828D02*
X86868346Y-84069400D01*
X86868346Y-84069400D02*
X86511203Y-84069400D01*
X86511203Y-84069400D02*
X86368346Y-83997971D01*
X85796917Y-83640828D02*
X85439774Y-84640828D01*
X85082631Y-83640828D02*
X85439774Y-84640828D01*
X85439774Y-84640828D02*
X85582631Y-84997971D01*
X85582631Y-84997971D02*
X85654060Y-85069400D01*
X85654060Y-85069400D02*
X85796917Y-85140828D01*
X83439774Y-83283685D02*
X83368346Y-83212257D01*
X83368346Y-83212257D02*
X83225489Y-83140828D01*
X83225489Y-83140828D02*
X82868346Y-83140828D01*
X82868346Y-83140828D02*
X82725489Y-83212257D01*
X82725489Y-83212257D02*
X82654060Y-83283685D01*
X82654060Y-83283685D02*
X82582631Y-83426542D01*
X82582631Y-83426542D02*
X82582631Y-83569400D01*
X82582631Y-83569400D02*
X82654060Y-83783685D01*
X82654060Y-83783685D02*
X83511203Y-84640828D01*
X83511203Y-84640828D02*
X82582631Y-84640828D01*
X81654060Y-83140828D02*
X81511203Y-83140828D01*
X81511203Y-83140828D02*
X81368346Y-83212257D01*
X81368346Y-83212257D02*
X81296918Y-83283685D01*
X81296918Y-83283685D02*
X81225489Y-83426542D01*
X81225489Y-83426542D02*
X81154060Y-83712257D01*
X81154060Y-83712257D02*
X81154060Y-84069400D01*
X81154060Y-84069400D02*
X81225489Y-84355114D01*
X81225489Y-84355114D02*
X81296918Y-84497971D01*
X81296918Y-84497971D02*
X81368346Y-84569400D01*
X81368346Y-84569400D02*
X81511203Y-84640828D01*
X81511203Y-84640828D02*
X81654060Y-84640828D01*
X81654060Y-84640828D02*
X81796918Y-84569400D01*
X81796918Y-84569400D02*
X81868346Y-84497971D01*
X81868346Y-84497971D02*
X81939775Y-84355114D01*
X81939775Y-84355114D02*
X82011203Y-84069400D01*
X82011203Y-84069400D02*
X82011203Y-83712257D01*
X82011203Y-83712257D02*
X81939775Y-83426542D01*
X81939775Y-83426542D02*
X81868346Y-83283685D01*
X81868346Y-83283685D02*
X81796918Y-83212257D01*
X81796918Y-83212257D02*
X81654060Y-83140828D01*
X80582632Y-83283685D02*
X80511204Y-83212257D01*
X80511204Y-83212257D02*
X80368347Y-83140828D01*
X80368347Y-83140828D02*
X80011204Y-83140828D01*
X80011204Y-83140828D02*
X79868347Y-83212257D01*
X79868347Y-83212257D02*
X79796918Y-83283685D01*
X79796918Y-83283685D02*
X79725489Y-83426542D01*
X79725489Y-83426542D02*
X79725489Y-83569400D01*
X79725489Y-83569400D02*
X79796918Y-83783685D01*
X79796918Y-83783685D02*
X80654061Y-84640828D01*
X80654061Y-84640828D02*
X79725489Y-84640828D01*
X78439776Y-83140828D02*
X78725490Y-83140828D01*
X78725490Y-83140828D02*
X78868347Y-83212257D01*
X78868347Y-83212257D02*
X78939776Y-83283685D01*
X78939776Y-83283685D02*
X79082633Y-83497971D01*
X79082633Y-83497971D02*
X79154061Y-83783685D01*
X79154061Y-83783685D02*
X79154061Y-84355114D01*
X79154061Y-84355114D02*
X79082633Y-84497971D01*
X79082633Y-84497971D02*
X79011204Y-84569400D01*
X79011204Y-84569400D02*
X78868347Y-84640828D01*
X78868347Y-84640828D02*
X78582633Y-84640828D01*
X78582633Y-84640828D02*
X78439776Y-84569400D01*
X78439776Y-84569400D02*
X78368347Y-84497971D01*
X78368347Y-84497971D02*
X78296918Y-84355114D01*
X78296918Y-84355114D02*
X78296918Y-83997971D01*
X78296918Y-83997971D02*
X78368347Y-83855114D01*
X78368347Y-83855114D02*
X78439776Y-83783685D01*
X78439776Y-83783685D02*
X78582633Y-83712257D01*
X78582633Y-83712257D02*
X78868347Y-83712257D01*
X78868347Y-83712257D02*
X79011204Y-83783685D01*
X79011204Y-83783685D02*
X79082633Y-83855114D01*
X79082633Y-83855114D02*
X79154061Y-83997971D01*
D11*
%TO.C,SW2*%
X56571000Y-67176700D02*
G75*
G02*
X55809000Y-67176700I-381000J0D01*
G01*
X55809000Y-67176700D02*
G75*
G02*
X56571000Y-67176700I381000J0D01*
G01*
%TD*%
M02*
