%TF.GenerationSoftware,KiCad,Pcbnew,9.0.7*%
%TF.CreationDate,2026-05-11T17:24:31-07:00*%
%TF.ProjectId,tamagotchi,74616d61-676f-4746-9368-692e6b696361,rev?*%
%TF.SameCoordinates,Original*%
%TF.FileFunction,Copper,L2,Inr*%
%TF.FilePolarity,Positive*%
%FSLAX46Y46*%
G04 Gerber Fmt 4.6, Leading zero omitted, Abs format (unit mm)*
G04 Created by KiCad (PCBNEW 9.0.7) date 2026-05-11 17:24:31*
%MOMM*%
%LPD*%
G01*
G04 APERTURE LIST*
%ADD10C,0.500000*%
%TA.AperFunction,NonConductor*%
%ADD11C,0.500000*%
%TD*%
%TA.AperFunction,ComponentPad*%
%ADD12C,1.700000*%
%TD*%
%TA.AperFunction,ComponentPad*%
%ADD13R,1.700000X1.700000*%
%TD*%
%TA.AperFunction,ComponentPad*%
%ADD14R,1.308000X1.308000*%
%TD*%
%TA.AperFunction,ComponentPad*%
%ADD15C,1.308000*%
%TD*%
%TA.AperFunction,ComponentPad*%
%ADD16C,3.600000*%
%TD*%
%TA.AperFunction,ComponentPad*%
%ADD17C,1.400000*%
%TD*%
%TA.AperFunction,ComponentPad*%
%ADD18C,1.600000*%
%TD*%
%TA.AperFunction,ComponentPad*%
%ADD19R,1.500000X1.500000*%
%TD*%
%TA.AperFunction,ComponentPad*%
%ADD20C,1.500000*%
%TD*%
%TA.AperFunction,ComponentPad*%
%ADD21C,1.320800*%
%TD*%
%TA.AperFunction,ComponentPad*%
%ADD22C,2.006600*%
%TD*%
%TA.AperFunction,ComponentPad*%
%ADD23R,1.508000X1.508000*%
%TD*%
%TA.AperFunction,ComponentPad*%
%ADD24C,1.508000*%
%TD*%
%TA.AperFunction,ComponentPad*%
%ADD25C,1.530000*%
%TD*%
%TA.AperFunction,ViaPad*%
%ADD26C,0.600000*%
%TD*%
G04 APERTURE END LIST*
D10*
D11*
X79219899Y-104969714D02*
X79315137Y-104874476D01*
X79315137Y-104874476D02*
X79505613Y-104779238D01*
X79505613Y-104779238D02*
X79981804Y-104779238D01*
X79981804Y-104779238D02*
X80172280Y-104874476D01*
X80172280Y-104874476D02*
X80267518Y-104969714D01*
X80267518Y-104969714D02*
X80362756Y-105160190D01*
X80362756Y-105160190D02*
X80362756Y-105350666D01*
X80362756Y-105350666D02*
X80267518Y-105636380D01*
X80267518Y-105636380D02*
X79124661Y-106779238D01*
X79124661Y-106779238D02*
X80362756Y-106779238D01*
D12*
%TO.N,GND*%
%TO.C,U3*%
X73030000Y-89340000D03*
%TO.N,+3.3V*%
X75570000Y-89340000D03*
%TO.N,unconnected-(U3-3Vo-Pad6)*%
X78110000Y-89340000D03*
%TO.N,RST*%
X80650000Y-89340000D03*
%TO.N,CS*%
X83190000Y-89340000D03*
%TO.N,DC*%
X85730000Y-89340000D03*
%TO.N,SCK*%
X88270000Y-89340000D03*
D13*
%TO.N,MOSI*%
X90810000Y-89340000D03*
%TD*%
D14*
%TO.N,VBAT*%
%TO.C,BT1*%
X58790000Y-62735000D03*
D15*
%TO.N,GND*%
X60790000Y-62735000D03*
%TD*%
D16*
%TO.N,GND*%
%TO.C,H1*%
X61000000Y-56000000D03*
%TD*%
%TO.N,GND*%
%TO.C,H2*%
X61000000Y-84000000D03*
%TD*%
D17*
%TO.N,SOUND*%
%TO.C,R10*%
X100600000Y-63160000D03*
%TO.N,GND*%
X92980000Y-63160000D03*
%TD*%
%TO.N,Net-(LS1-Pad1)*%
%TO.C,R11*%
X92980000Y-59160000D03*
%TO.N,+3.3V*%
X100600000Y-59160000D03*
%TD*%
D18*
%TO.N,GND*%
%TO.C,C5*%
X107480000Y-67160000D03*
%TO.N,BTN3*%
X104980000Y-67160000D03*
%TD*%
%TO.N,GND*%
%TO.C,C6*%
X107480000Y-75160000D03*
%TO.N,BTN1*%
X104980000Y-75160000D03*
%TD*%
%TO.N,GND*%
%TO.C,C4*%
X107480000Y-71160000D03*
%TO.N,BTN2*%
X104980000Y-71160000D03*
%TD*%
D17*
%TO.N,BTN1*%
%TO.C,R9*%
X100600000Y-75160000D03*
%TO.N,GND*%
X92980000Y-75160000D03*
%TD*%
%TO.N,BTN3*%
%TO.C,R8*%
X100600000Y-67160000D03*
%TO.N,GND*%
X92980000Y-67160000D03*
%TD*%
D19*
%TO.N,GND*%
%TO.C,Q4*%
X105020000Y-63610000D03*
D20*
%TO.N,SOUND*%
X105020000Y-61070000D03*
%TO.N,Net-(Q4-D)*%
X105020000Y-58530000D03*
%TD*%
D18*
%TO.N,VBAT*%
%TO.C,C1*%
X64000000Y-70000000D03*
%TO.N,GND*%
X61500000Y-70000000D03*
%TD*%
D17*
%TO.N,Net-(LS1-Pad1)*%
%TO.C,LS1*%
X94746749Y-53410000D03*
%TO.N,Net-(Q4-D)*%
X97946750Y-53410000D03*
%TD*%
D21*
%TO.N,Net-(SW2-A)*%
%TO.C,SW2*%
X56190000Y-71387000D03*
%TO.N,VBAT*%
X56190000Y-73387000D03*
%TO.N,unconnected-(SW2-C-Pad3)*%
X56190000Y-75387001D03*
D22*
%TO.N,GND*%
X56190000Y-69287001D03*
X56190000Y-77486999D03*
%TD*%
D16*
%TO.N,GND*%
%TO.C,H3*%
X105000000Y-84000000D03*
%TD*%
D17*
%TO.N,BTN2*%
%TO.C,R7*%
X100600000Y-71160000D03*
%TO.N,GND*%
X92980000Y-71160000D03*
%TD*%
D23*
%TO.N,BTN1*%
%TO.C,SW4*%
X98170000Y-93750000D03*
D24*
X91670000Y-93750000D03*
%TO.N,+3.3V*%
X98170000Y-98250000D03*
X91670000Y-98250000D03*
%TD*%
D18*
%TO.N,VBUS*%
%TO.C,C2*%
X70000000Y-70000000D03*
%TO.N,GND*%
X67500000Y-70000000D03*
%TD*%
D23*
%TO.N,BTN3*%
%TO.C,SW3*%
X72170000Y-93750000D03*
D24*
X65670000Y-93750000D03*
%TO.N,+3.3V*%
X72170000Y-98250000D03*
X65670000Y-98250000D03*
%TD*%
D17*
%TO.N,Net-(U2-PROG)*%
%TO.C,R6*%
X69400000Y-73950000D03*
%TO.N,GND*%
X61780000Y-73950000D03*
%TD*%
D25*
%TO.N,+3.3V*%
%TO.C,U1*%
X74390000Y-44080000D03*
%TO.N,unconnected-(U1-PadA0)*%
X74390000Y-51700000D03*
%TO.N,unconnected-(U1-PadA1)*%
X74390000Y-54240000D03*
%TO.N,unconnected-(U1-PadA2)*%
X74390000Y-56780000D03*
%TO.N,unconnected-(U1-PadA3)*%
X74390000Y-59320000D03*
%TO.N,STAT*%
X74390000Y-61860000D03*
%TO.N,unconnected-(U1-PadA5)*%
X74390000Y-64400000D03*
%TO.N,unconnected-(U1-PadAREF)*%
X74390000Y-46620000D03*
%TO.N,BTN1*%
X89630000Y-74560000D03*
%TO.N,BTN2*%
X89630000Y-72020000D03*
%TO.N,RST*%
X74390000Y-74560000D03*
%TO.N,CS*%
X84550000Y-74560000D03*
%TO.N,DC*%
X87090000Y-74560000D03*
%TO.N,BTN3*%
X89630000Y-64400000D03*
%TO.N,SOUND*%
X89630000Y-61860000D03*
%TO.N,unconnected-(U1-PadD9)*%
X89630000Y-59320000D03*
%TO.N,unconnected-(U1-PadD10)*%
X89630000Y-56780000D03*
%TO.N,unconnected-(U1-PadD11)*%
X89630000Y-54240000D03*
%TO.N,unconnected-(U1-PadD12)*%
X89630000Y-51700000D03*
%TO.N,unconnected-(U1-PadD13)*%
X89630000Y-49160000D03*
%TO.N,unconnected-(U1-PadEN)*%
X76930000Y-74560000D03*
%TO.N,GND*%
X89630000Y-44080000D03*
%TO.N,unconnected-(U1-PadMISO)*%
X74390000Y-72020000D03*
%TO.N,MOSI*%
X74390000Y-69480000D03*
%TO.N,unconnected-(U1-PadRESET)*%
X74390000Y-41540000D03*
%TO.N,SCK*%
X74390000Y-66940000D03*
%TO.N,unconnected-(U1-PadSCL)*%
X89630000Y-66940000D03*
%TO.N,unconnected-(U1-PadSDA)*%
X89630000Y-69480000D03*
%TO.N,unconnected-(U1-PadSWCLK)*%
X82010000Y-74560000D03*
%TO.N,unconnected-(U1-PadSWDIO)*%
X79470000Y-74560000D03*
%TO.N,Net-(SW2-A)*%
X89630000Y-41540000D03*
%TO.N,VBUS*%
X89630000Y-46620000D03*
%TO.N,unconnected-(U1-PadVHI)*%
X74390000Y-49160000D03*
%TD*%
D23*
%TO.N,BTN2*%
%TO.C,SW1*%
X85170000Y-96750000D03*
D24*
X78670000Y-96750000D03*
%TO.N,+3.3V*%
X85170000Y-101250000D03*
X78670000Y-101250000D03*
%TD*%
D26*
%TO.N,GND*%
X65830000Y-63210000D03*
%TD*%
%TA.AperFunction,Conductor*%
%TO.N,GND*%
G36*
X73174652Y-40952351D02*
G01*
X73210450Y-41012353D01*
X73208307Y-41081627D01*
X73155662Y-41243652D01*
X73155661Y-41243659D01*
X73145810Y-41305855D01*
X73124500Y-41440403D01*
X73124500Y-41639597D01*
X73139391Y-41733614D01*
X73155661Y-41836340D01*
X73155661Y-41836343D01*
X73217213Y-42025780D01*
X73217215Y-42025783D01*
X73307647Y-42203266D01*
X73424731Y-42364418D01*
X73565582Y-42505269D01*
X73726734Y-42622353D01*
X73781530Y-42650273D01*
X73878172Y-42699515D01*
X73928968Y-42747490D01*
X73945763Y-42815311D01*
X73923225Y-42881446D01*
X73878172Y-42920485D01*
X73726733Y-42997647D01*
X73688286Y-43025581D01*
X73565582Y-43114731D01*
X73565580Y-43114733D01*
X73565579Y-43114733D01*
X73424733Y-43255579D01*
X73424733Y-43255580D01*
X73424731Y-43255582D01*
X73424296Y-43256181D01*
X73307647Y-43416733D01*
X73217213Y-43594219D01*
X73155661Y-43783656D01*
X73155661Y-43783659D01*
X73124500Y-43980403D01*
X73124500Y-44179596D01*
X73155661Y-44376340D01*
X73155661Y-44376343D01*
X73217213Y-44565780D01*
X73276165Y-44681480D01*
X73307647Y-44743266D01*
X73424731Y-44904418D01*
X73565582Y-45045269D01*
X73726734Y-45162353D01*
X73796453Y-45197877D01*
X73878172Y-45239515D01*
X73928968Y-45287490D01*
X73945763Y-45355311D01*
X73923225Y-45421446D01*
X73878172Y-45460485D01*
X73726733Y-45537647D01*
X73634790Y-45604447D01*
X73565582Y-45654731D01*
X73565580Y-45654733D01*
X73565579Y-45654733D01*
X73424733Y-45795579D01*
X73424733Y-45795580D01*
X73424731Y-45795582D01*
X73409207Y-45816949D01*
X73307647Y-45956733D01*
X73217213Y-46134219D01*
X73155661Y-46323656D01*
X73155661Y-46323659D01*
X73130253Y-46484080D01*
X73124500Y-46520403D01*
X73124500Y-46719597D01*
X73133435Y-46776009D01*
X73155661Y-46916340D01*
X73155661Y-46916343D01*
X73217213Y-47105780D01*
X73250245Y-47170608D01*
X73307647Y-47283266D01*
X73424731Y-47444418D01*
X73565582Y-47585269D01*
X73726734Y-47702353D01*
X73796453Y-47737877D01*
X73878172Y-47779515D01*
X73928968Y-47827490D01*
X73945763Y-47895311D01*
X73923225Y-47961446D01*
X73878172Y-48000485D01*
X73726733Y-48077647D01*
X73647134Y-48135480D01*
X73565582Y-48194731D01*
X73565580Y-48194733D01*
X73565579Y-48194733D01*
X73424733Y-48335579D01*
X73424733Y-48335580D01*
X73424731Y-48335582D01*
X73389356Y-48384271D01*
X73307647Y-48496733D01*
X73217213Y-48674219D01*
X73155661Y-48863656D01*
X73155661Y-48863659D01*
X73124500Y-49060403D01*
X73124500Y-49259596D01*
X73155661Y-49456340D01*
X73155661Y-49456343D01*
X73217213Y-49645780D01*
X73229940Y-49670758D01*
X73307647Y-49823266D01*
X73424731Y-49984418D01*
X73565582Y-50125269D01*
X73726734Y-50242353D01*
X73796453Y-50277877D01*
X73878172Y-50319515D01*
X73928968Y-50367490D01*
X73945763Y-50435311D01*
X73923225Y-50501446D01*
X73878172Y-50540485D01*
X73726733Y-50617647D01*
X73634790Y-50684447D01*
X73565582Y-50734731D01*
X73565580Y-50734733D01*
X73565579Y-50734733D01*
X73424733Y-50875579D01*
X73424733Y-50875580D01*
X73424731Y-50875582D01*
X73406668Y-50900444D01*
X73307647Y-51036733D01*
X73217213Y-51214219D01*
X73155661Y-51403656D01*
X73155661Y-51403659D01*
X73124500Y-51600403D01*
X73124500Y-51799596D01*
X73155661Y-51996340D01*
X73155661Y-51996343D01*
X73217213Y-52185780D01*
X73274114Y-52297454D01*
X73307647Y-52363266D01*
X73424731Y-52524418D01*
X73565582Y-52665269D01*
X73726734Y-52782353D01*
X73796453Y-52817877D01*
X73878172Y-52859515D01*
X73928968Y-52907490D01*
X73945763Y-52975311D01*
X73923225Y-53041446D01*
X73878172Y-53080485D01*
X73726733Y-53157647D01*
X73667277Y-53200845D01*
X73565582Y-53274731D01*
X73565580Y-53274733D01*
X73565579Y-53274733D01*
X73424733Y-53415579D01*
X73424733Y-53415580D01*
X73424731Y-53415582D01*
X73386028Y-53468852D01*
X73307647Y-53576733D01*
X73217213Y-53754219D01*
X73155661Y-53943656D01*
X73155661Y-53943659D01*
X73124500Y-54140403D01*
X73124500Y-54339596D01*
X73155661Y-54536340D01*
X73155661Y-54536343D01*
X73217213Y-54725780D01*
X73228780Y-54748481D01*
X73307647Y-54903266D01*
X73424731Y-55064418D01*
X73565582Y-55205269D01*
X73726734Y-55322353D01*
X73796453Y-55357877D01*
X73878172Y-55399515D01*
X73928968Y-55447490D01*
X73945763Y-55515311D01*
X73923225Y-55581446D01*
X73878172Y-55620485D01*
X73726733Y-55697647D01*
X73634790Y-55764447D01*
X73565582Y-55814731D01*
X73565580Y-55814733D01*
X73565579Y-55814733D01*
X73424733Y-55955579D01*
X73424733Y-55955580D01*
X73424731Y-55955582D01*
X73374447Y-56024790D01*
X73307647Y-56116733D01*
X73217213Y-56294219D01*
X73155661Y-56483656D01*
X73155661Y-56483659D01*
X73155661Y-56483661D01*
X73124500Y-56680403D01*
X73124500Y-56879597D01*
X73139789Y-56976129D01*
X73155661Y-57076340D01*
X73155661Y-57076343D01*
X73217213Y-57265780D01*
X73217215Y-57265783D01*
X73307647Y-57443266D01*
X73424731Y-57604418D01*
X73565582Y-57745269D01*
X73726734Y-57862353D01*
X73796453Y-57897877D01*
X73878172Y-57939515D01*
X73928968Y-57987490D01*
X73945763Y-58055311D01*
X73923225Y-58121446D01*
X73878172Y-58160485D01*
X73726733Y-58237647D01*
X73717560Y-58244312D01*
X73565582Y-58354731D01*
X73565580Y-58354733D01*
X73565579Y-58354733D01*
X73424733Y-58495579D01*
X73424733Y-58495580D01*
X73424731Y-58495582D01*
X73399146Y-58530797D01*
X73307647Y-58656733D01*
X73217213Y-58834219D01*
X73155661Y-59023656D01*
X73155661Y-59023659D01*
X73155661Y-59023661D01*
X73124500Y-59220403D01*
X73124500Y-59419597D01*
X73129362Y-59450293D01*
X73155661Y-59616339D01*
X73155661Y-59616343D01*
X73217213Y-59805780D01*
X73250671Y-59871445D01*
X73307647Y-59983266D01*
X73424731Y-60144418D01*
X73565582Y-60285269D01*
X73726734Y-60402353D01*
X73771421Y-60425122D01*
X73878172Y-60479515D01*
X73928968Y-60527490D01*
X73945763Y-60595311D01*
X73923225Y-60661446D01*
X73878172Y-60700485D01*
X73726733Y-60777647D01*
X73634790Y-60844447D01*
X73565582Y-60894731D01*
X73565580Y-60894733D01*
X73565579Y-60894733D01*
X73424733Y-61035579D01*
X73424733Y-61035580D01*
X73424731Y-61035582D01*
X73405122Y-61062572D01*
X73307647Y-61196733D01*
X73217213Y-61374219D01*
X73155661Y-61563656D01*
X73155661Y-61563659D01*
X73124500Y-61760403D01*
X73124500Y-61959596D01*
X73155661Y-62156340D01*
X73155661Y-62156343D01*
X73217213Y-62345780D01*
X73307647Y-62523266D01*
X73424731Y-62684418D01*
X73565582Y-62825269D01*
X73726734Y-62942353D01*
X73742137Y-62950201D01*
X73878172Y-63019515D01*
X73928968Y-63067490D01*
X73945763Y-63135311D01*
X73923225Y-63201446D01*
X73878172Y-63240485D01*
X73726733Y-63317647D01*
X73696200Y-63339831D01*
X73565582Y-63434731D01*
X73565580Y-63434733D01*
X73565579Y-63434733D01*
X73424733Y-63575579D01*
X73424733Y-63575580D01*
X73424731Y-63575582D01*
X73397264Y-63613387D01*
X73307647Y-63736733D01*
X73217213Y-63914219D01*
X73155661Y-64103656D01*
X73155661Y-64103659D01*
X73124500Y-64300403D01*
X73124500Y-64499596D01*
X73155661Y-64696340D01*
X73155661Y-64696343D01*
X73217213Y-64885780D01*
X73217215Y-64885783D01*
X73307647Y-65063266D01*
X73424731Y-65224418D01*
X73565582Y-65365269D01*
X73726734Y-65482353D01*
X73796453Y-65517877D01*
X73878172Y-65559515D01*
X73928968Y-65607490D01*
X73945763Y-65675311D01*
X73923225Y-65741446D01*
X73878172Y-65780485D01*
X73726733Y-65857647D01*
X73634790Y-65924447D01*
X73565582Y-65974731D01*
X73565580Y-65974733D01*
X73565579Y-65974733D01*
X73424733Y-66115579D01*
X73424733Y-66115580D01*
X73424731Y-66115582D01*
X73386627Y-66168028D01*
X73307647Y-66276733D01*
X73217213Y-66454219D01*
X73155661Y-66643656D01*
X73155661Y-66643659D01*
X73144288Y-66715465D01*
X73124500Y-66840403D01*
X73124500Y-67039597D01*
X73128605Y-67065513D01*
X73155661Y-67236340D01*
X73155661Y-67236343D01*
X73217213Y-67425780D01*
X73262540Y-67514739D01*
X73307647Y-67603266D01*
X73424731Y-67764418D01*
X73565582Y-67905269D01*
X73726734Y-68022353D01*
X73796453Y-68057877D01*
X73878172Y-68099515D01*
X73928968Y-68147490D01*
X73945763Y-68215311D01*
X73923225Y-68281446D01*
X73878172Y-68320485D01*
X73726733Y-68397647D01*
X73684300Y-68428477D01*
X73565582Y-68514731D01*
X73565580Y-68514733D01*
X73565579Y-68514733D01*
X73424733Y-68655579D01*
X73424733Y-68655580D01*
X73424731Y-68655582D01*
X73385246Y-68709929D01*
X73307647Y-68816733D01*
X73217213Y-68994219D01*
X73155661Y-69183656D01*
X73155661Y-69183659D01*
X73124500Y-69380403D01*
X73124500Y-69579596D01*
X73155661Y-69776340D01*
X73155661Y-69776343D01*
X73217213Y-69965780D01*
X73302756Y-70133666D01*
X73307647Y-70143266D01*
X73424731Y-70304418D01*
X73565582Y-70445269D01*
X73726734Y-70562353D01*
X73767598Y-70583174D01*
X73878172Y-70639515D01*
X73928968Y-70687490D01*
X73945763Y-70755311D01*
X73923225Y-70821446D01*
X73878172Y-70860485D01*
X73726733Y-70937647D01*
X73634790Y-71004447D01*
X73565582Y-71054731D01*
X73565580Y-71054733D01*
X73565579Y-71054733D01*
X73424733Y-71195579D01*
X73424733Y-71195580D01*
X73424731Y-71195582D01*
X73381963Y-71254447D01*
X73307647Y-71356733D01*
X73217213Y-71534219D01*
X73155661Y-71723656D01*
X73155661Y-71723659D01*
X73145323Y-71788933D01*
X73124500Y-71920403D01*
X73124500Y-72119597D01*
X73135138Y-72186760D01*
X73155661Y-72316340D01*
X73155661Y-72316343D01*
X73217213Y-72505780D01*
X73299101Y-72666494D01*
X73307647Y-72683266D01*
X73424731Y-72844418D01*
X73565582Y-72985269D01*
X73726734Y-73102353D01*
X73796453Y-73137877D01*
X73878172Y-73179515D01*
X73928968Y-73227490D01*
X73945763Y-73295311D01*
X73923225Y-73361446D01*
X73878172Y-73400485D01*
X73726733Y-73477647D01*
X73634790Y-73544447D01*
X73565582Y-73594731D01*
X73565580Y-73594733D01*
X73565579Y-73594733D01*
X73424733Y-73735579D01*
X73424733Y-73735580D01*
X73424731Y-73735582D01*
X73374447Y-73804790D01*
X73307647Y-73896733D01*
X73217213Y-74074219D01*
X73155661Y-74263656D01*
X73155661Y-74263659D01*
X73140026Y-74362375D01*
X73124500Y-74460403D01*
X73124500Y-74659597D01*
X73130798Y-74699362D01*
X73155661Y-74856340D01*
X73155661Y-74856343D01*
X73217213Y-75045780D01*
X73252562Y-75115156D01*
X73307647Y-75223266D01*
X73424731Y-75384418D01*
X73565582Y-75525269D01*
X73726734Y-75642353D01*
X73879184Y-75720030D01*
X73904219Y-75732786D01*
X74093657Y-75794338D01*
X74093658Y-75794338D01*
X74093661Y-75794339D01*
X74290403Y-75825500D01*
X74290404Y-75825500D01*
X74489596Y-75825500D01*
X74489597Y-75825500D01*
X74686339Y-75794339D01*
X74686342Y-75794338D01*
X74686343Y-75794338D01*
X74875780Y-75732786D01*
X74875780Y-75732785D01*
X74875783Y-75732785D01*
X75053266Y-75642353D01*
X75214418Y-75525269D01*
X75355269Y-75384418D01*
X75472353Y-75223266D01*
X75549515Y-75071827D01*
X75597490Y-75021031D01*
X75665311Y-75004236D01*
X75731446Y-75026773D01*
X75770485Y-75071827D01*
X75792562Y-75115156D01*
X75847647Y-75223266D01*
X75964731Y-75384418D01*
X76105582Y-75525269D01*
X76266734Y-75642353D01*
X76419184Y-75720030D01*
X76444219Y-75732786D01*
X76633657Y-75794338D01*
X76633658Y-75794338D01*
X76633661Y-75794339D01*
X76830403Y-75825500D01*
X76830404Y-75825500D01*
X77029596Y-75825500D01*
X77029597Y-75825500D01*
X77226339Y-75794339D01*
X77226342Y-75794338D01*
X77226343Y-75794338D01*
X77415780Y-75732786D01*
X77415780Y-75732785D01*
X77415783Y-75732785D01*
X77593266Y-75642353D01*
X77754418Y-75525269D01*
X77895269Y-75384418D01*
X78012353Y-75223266D01*
X78089515Y-75071827D01*
X78137490Y-75021031D01*
X78205311Y-75004236D01*
X78271446Y-75026773D01*
X78310485Y-75071827D01*
X78332562Y-75115156D01*
X78387647Y-75223266D01*
X78504731Y-75384418D01*
X78645582Y-75525269D01*
X78806734Y-75642353D01*
X78959184Y-75720030D01*
X78984219Y-75732786D01*
X79173657Y-75794338D01*
X79173658Y-75794338D01*
X79173661Y-75794339D01*
X79370403Y-75825500D01*
X79370404Y-75825500D01*
X79569596Y-75825500D01*
X79569597Y-75825500D01*
X79766339Y-75794339D01*
X79766342Y-75794338D01*
X79766343Y-75794338D01*
X79955780Y-75732786D01*
X79955780Y-75732785D01*
X79955783Y-75732785D01*
X80133266Y-75642353D01*
X80294418Y-75525269D01*
X80435269Y-75384418D01*
X80552353Y-75223266D01*
X80629515Y-75071827D01*
X80677490Y-75021031D01*
X80745311Y-75004236D01*
X80811446Y-75026773D01*
X80850485Y-75071827D01*
X80872562Y-75115156D01*
X80927647Y-75223266D01*
X81044731Y-75384418D01*
X81185582Y-75525269D01*
X81346734Y-75642353D01*
X81499184Y-75720030D01*
X81524219Y-75732786D01*
X81713657Y-75794338D01*
X81713658Y-75794338D01*
X81713661Y-75794339D01*
X81910403Y-75825500D01*
X81910404Y-75825500D01*
X82109596Y-75825500D01*
X82109597Y-75825500D01*
X82306339Y-75794339D01*
X82306342Y-75794338D01*
X82306343Y-75794338D01*
X82495780Y-75732786D01*
X82495780Y-75732785D01*
X82495783Y-75732785D01*
X82673266Y-75642353D01*
X82834418Y-75525269D01*
X82975269Y-75384418D01*
X83092353Y-75223266D01*
X83169515Y-75071827D01*
X83217490Y-75021031D01*
X83285311Y-75004236D01*
X83351446Y-75026773D01*
X83390485Y-75071827D01*
X83412562Y-75115156D01*
X83467647Y-75223266D01*
X83584731Y-75384418D01*
X83725582Y-75525269D01*
X83886734Y-75642353D01*
X84039184Y-75720030D01*
X84064219Y-75732786D01*
X84253657Y-75794338D01*
X84253658Y-75794338D01*
X84253661Y-75794339D01*
X84450403Y-75825500D01*
X84450404Y-75825500D01*
X84649596Y-75825500D01*
X84649597Y-75825500D01*
X84846339Y-75794339D01*
X84846342Y-75794338D01*
X84846343Y-75794338D01*
X85035780Y-75732786D01*
X85035780Y-75732785D01*
X85035783Y-75732785D01*
X85213266Y-75642353D01*
X85374418Y-75525269D01*
X85515269Y-75384418D01*
X85632353Y-75223266D01*
X85709515Y-75071827D01*
X85757490Y-75021031D01*
X85825311Y-75004236D01*
X85891446Y-75026773D01*
X85930485Y-75071827D01*
X85952562Y-75115156D01*
X86007647Y-75223266D01*
X86124731Y-75384418D01*
X86265582Y-75525269D01*
X86426734Y-75642353D01*
X86579184Y-75720030D01*
X86604219Y-75732786D01*
X86793657Y-75794338D01*
X86793658Y-75794338D01*
X86793661Y-75794339D01*
X86990403Y-75825500D01*
X86990404Y-75825500D01*
X87189596Y-75825500D01*
X87189597Y-75825500D01*
X87386339Y-75794339D01*
X87386342Y-75794338D01*
X87386343Y-75794338D01*
X87575780Y-75732786D01*
X87575780Y-75732785D01*
X87575783Y-75732785D01*
X87753266Y-75642353D01*
X87914418Y-75525269D01*
X88055269Y-75384418D01*
X88172353Y-75223266D01*
X88249515Y-75071827D01*
X88297490Y-75021031D01*
X88365311Y-75004236D01*
X88431446Y-75026773D01*
X88470485Y-75071827D01*
X88492562Y-75115156D01*
X88547647Y-75223266D01*
X88664731Y-75384418D01*
X88805582Y-75525269D01*
X88966734Y-75642353D01*
X89119184Y-75720030D01*
X89144219Y-75732786D01*
X89333657Y-75794338D01*
X89333658Y-75794338D01*
X89333661Y-75794339D01*
X89530403Y-75825500D01*
X89530404Y-75825500D01*
X89729596Y-75825500D01*
X89729597Y-75825500D01*
X89926339Y-75794339D01*
X89926342Y-75794338D01*
X89926343Y-75794338D01*
X90115780Y-75732786D01*
X90115780Y-75732785D01*
X90115783Y-75732785D01*
X90293266Y-75642353D01*
X90454418Y-75525269D01*
X90595269Y-75384418D01*
X90712353Y-75223266D01*
X90792712Y-75065552D01*
X91780000Y-75065552D01*
X91780000Y-75254447D01*
X91809548Y-75441002D01*
X91867914Y-75620637D01*
X91953666Y-75788933D01*
X91972116Y-75814328D01*
X92626446Y-75160000D01*
X92626446Y-75159999D01*
X92580369Y-75113922D01*
X92630000Y-75113922D01*
X92630000Y-75206078D01*
X92653852Y-75295095D01*
X92699930Y-75374905D01*
X92765095Y-75440070D01*
X92844905Y-75486148D01*
X92933922Y-75510000D01*
X93026078Y-75510000D01*
X93115095Y-75486148D01*
X93194905Y-75440070D01*
X93260070Y-75374905D01*
X93306148Y-75295095D01*
X93330000Y-75206078D01*
X93330000Y-75159999D01*
X93333554Y-75159999D01*
X93333554Y-75160000D01*
X93987882Y-75814328D01*
X93987883Y-75814328D01*
X94006331Y-75788937D01*
X94092085Y-75620637D01*
X94150451Y-75441002D01*
X94180000Y-75254447D01*
X94180000Y-75065552D01*
X94179994Y-75065513D01*
X99399500Y-75065513D01*
X99399500Y-75254486D01*
X99429059Y-75441118D01*
X99487454Y-75620836D01*
X99549480Y-75742567D01*
X99573240Y-75789199D01*
X99684310Y-75942073D01*
X99817927Y-76075690D01*
X99970801Y-76186760D01*
X100050347Y-76227290D01*
X100139163Y-76272545D01*
X100139165Y-76272545D01*
X100139168Y-76272547D01*
X100235497Y-76303846D01*
X100318881Y-76330940D01*
X100505514Y-76360500D01*
X100505519Y-76360500D01*
X100694486Y-76360500D01*
X100881118Y-76330940D01*
X100882623Y-76330451D01*
X101060832Y-76272547D01*
X101229199Y-76186760D01*
X101382073Y-76075690D01*
X101515690Y-75942073D01*
X101626760Y-75789199D01*
X101712547Y-75620832D01*
X101770940Y-75441118D01*
X101771106Y-75440070D01*
X101800500Y-75254486D01*
X101800500Y-75065513D01*
X101799254Y-75057648D01*
X103679500Y-75057648D01*
X103679500Y-75262352D01*
X103682455Y-75281010D01*
X103711522Y-75464534D01*
X103774781Y-75659223D01*
X103817248Y-75742567D01*
X103867585Y-75841359D01*
X103867715Y-75841613D01*
X103988028Y-76007213D01*
X104132786Y-76151971D01*
X104253226Y-76239474D01*
X104298390Y-76272287D01*
X104412543Y-76330451D01*
X104480776Y-76365218D01*
X104480778Y-76365218D01*
X104480781Y-76365220D01*
X104525937Y-76379892D01*
X104675465Y-76428477D01*
X104776557Y-76444488D01*
X104877648Y-76460500D01*
X104877649Y-76460500D01*
X105082351Y-76460500D01*
X105082352Y-76460500D01*
X105284534Y-76428477D01*
X105479219Y-76365220D01*
X105661610Y-76272287D01*
X105779330Y-76186759D01*
X105827213Y-76151971D01*
X105827215Y-76151968D01*
X105827219Y-76151966D01*
X105971966Y-76007219D01*
X105971968Y-76007215D01*
X105971971Y-76007213D01*
X106092286Y-75841611D01*
X106092415Y-75841359D01*
X106119795Y-75787621D01*
X106167769Y-75736826D01*
X106235589Y-75720030D01*
X106301725Y-75742567D01*
X106340765Y-75787621D01*
X106368141Y-75841350D01*
X106368147Y-75841359D01*
X106400523Y-75885921D01*
X106400524Y-75885922D01*
X107080000Y-75206446D01*
X107080000Y-75212661D01*
X107107259Y-75314394D01*
X107159920Y-75405606D01*
X107234394Y-75480080D01*
X107325606Y-75532741D01*
X107427339Y-75560000D01*
X107433553Y-75560000D01*
X106754076Y-76239474D01*
X106798650Y-76271859D01*
X106980968Y-76364755D01*
X107175582Y-76427990D01*
X107377683Y-76460000D01*
X107582317Y-76460000D01*
X107784417Y-76427990D01*
X107979031Y-76364755D01*
X108161349Y-76271859D01*
X108205921Y-76239474D01*
X107526447Y-75560000D01*
X107532661Y-75560000D01*
X107634394Y-75532741D01*
X107725606Y-75480080D01*
X107800080Y-75405606D01*
X107852741Y-75314394D01*
X107880000Y-75212661D01*
X107880000Y-75206448D01*
X108559474Y-75885922D01*
X108559474Y-75885921D01*
X108591859Y-75841349D01*
X108684755Y-75659031D01*
X108747990Y-75464417D01*
X108780000Y-75262317D01*
X108780000Y-75057682D01*
X108747990Y-74855582D01*
X108684755Y-74660968D01*
X108591859Y-74478650D01*
X108559474Y-74434077D01*
X108559474Y-74434076D01*
X107880000Y-75113551D01*
X107880000Y-75107339D01*
X107852741Y-75005606D01*
X107800080Y-74914394D01*
X107725606Y-74839920D01*
X107634394Y-74787259D01*
X107532661Y-74760000D01*
X107526446Y-74760000D01*
X108205922Y-74080524D01*
X108205921Y-74080523D01*
X108161359Y-74048147D01*
X108161350Y-74048141D01*
X107979031Y-73955244D01*
X107784417Y-73892009D01*
X107582317Y-73860000D01*
X107377683Y-73860000D01*
X107175582Y-73892009D01*
X106980968Y-73955244D01*
X106798644Y-74048143D01*
X106754077Y-74080523D01*
X106754077Y-74080524D01*
X107433554Y-74760000D01*
X107427339Y-74760000D01*
X107325606Y-74787259D01*
X107234394Y-74839920D01*
X107159920Y-74914394D01*
X107107259Y-75005606D01*
X107080000Y-75107339D01*
X107080000Y-75113553D01*
X106400524Y-74434077D01*
X106400523Y-74434077D01*
X106368143Y-74478644D01*
X106340765Y-74532378D01*
X106292790Y-74583174D01*
X106224969Y-74599969D01*
X106158834Y-74577431D01*
X106119795Y-74532378D01*
X106092287Y-74478390D01*
X106092285Y-74478387D01*
X106092284Y-74478385D01*
X105971971Y-74312786D01*
X105827213Y-74168028D01*
X105661613Y-74047715D01*
X105661612Y-74047714D01*
X105661610Y-74047713D01*
X105604653Y-74018691D01*
X105479223Y-73954781D01*
X105284534Y-73891522D01*
X105109995Y-73863878D01*
X105082352Y-73859500D01*
X104877648Y-73859500D01*
X104853329Y-73863351D01*
X104675465Y-73891522D01*
X104480776Y-73954781D01*
X104298386Y-74047715D01*
X104132786Y-74168028D01*
X103988028Y-74312786D01*
X103867715Y-74478386D01*
X103774781Y-74660776D01*
X103711522Y-74855465D01*
X103685088Y-75022366D01*
X103679500Y-75057648D01*
X101799254Y-75057648D01*
X101770940Y-74878881D01*
X101723239Y-74732074D01*
X101712547Y-74699168D01*
X101712545Y-74699165D01*
X101712545Y-74699163D01*
X101650519Y-74577431D01*
X101626760Y-74530801D01*
X101515690Y-74377927D01*
X101382073Y-74244310D01*
X101229199Y-74133240D01*
X101060836Y-74047454D01*
X100881118Y-73989059D01*
X100694486Y-73959500D01*
X100694481Y-73959500D01*
X100505519Y-73959500D01*
X100505514Y-73959500D01*
X100318881Y-73989059D01*
X100139163Y-74047454D01*
X99970800Y-74133240D01*
X99922911Y-74168034D01*
X99817927Y-74244310D01*
X99817925Y-74244312D01*
X99817924Y-74244312D01*
X99684312Y-74377924D01*
X99684312Y-74377925D01*
X99684310Y-74377927D01*
X99636610Y-74443579D01*
X99573240Y-74530800D01*
X99487454Y-74699163D01*
X99429059Y-74878881D01*
X99399500Y-75065513D01*
X94179994Y-75065513D01*
X94150451Y-74878997D01*
X94092085Y-74699362D01*
X94006329Y-74531059D01*
X93987883Y-74505670D01*
X93987882Y-74505669D01*
X93333554Y-75159999D01*
X93330000Y-75159999D01*
X93330000Y-75113922D01*
X93306148Y-75024905D01*
X93260070Y-74945095D01*
X93194905Y-74879930D01*
X93115095Y-74833852D01*
X93026078Y-74810000D01*
X92933922Y-74810000D01*
X92844905Y-74833852D01*
X92765095Y-74879930D01*
X92699930Y-74945095D01*
X92653852Y-75024905D01*
X92630000Y-75113922D01*
X92580369Y-75113922D01*
X91972116Y-74505669D01*
X91972116Y-74505670D01*
X91953669Y-74531060D01*
X91867914Y-74699362D01*
X91809548Y-74878997D01*
X91780000Y-75065552D01*
X90792712Y-75065552D01*
X90802785Y-75045783D01*
X90809569Y-75024905D01*
X90810394Y-75022367D01*
X90810394Y-75022366D01*
X90864338Y-74856343D01*
X90864338Y-74856342D01*
X90864339Y-74856339D01*
X90895500Y-74659597D01*
X90895500Y-74460403D01*
X90864339Y-74263661D01*
X90828096Y-74152116D01*
X92325669Y-74152116D01*
X92980000Y-74806446D01*
X92980001Y-74806446D01*
X93634328Y-74152116D01*
X93608933Y-74133666D01*
X93440637Y-74047914D01*
X93261002Y-73989548D01*
X93074447Y-73960000D01*
X92885553Y-73960000D01*
X92698997Y-73989548D01*
X92519362Y-74047914D01*
X92351060Y-74133669D01*
X92325670Y-74152116D01*
X92325669Y-74152116D01*
X90828096Y-74152116D01*
X90808961Y-74093225D01*
X90802786Y-74074219D01*
X90789383Y-74047914D01*
X90712353Y-73896734D01*
X90595269Y-73735582D01*
X90454418Y-73594731D01*
X90293266Y-73477647D01*
X90141827Y-73400485D01*
X90091031Y-73352510D01*
X90074236Y-73284689D01*
X90096773Y-73218554D01*
X90141827Y-73179515D01*
X90151116Y-73174781D01*
X90293266Y-73102353D01*
X90454418Y-72985269D01*
X90595269Y-72844418D01*
X90712353Y-72683266D01*
X90802785Y-72505783D01*
X90827903Y-72428477D01*
X90864338Y-72316343D01*
X90864338Y-72316342D01*
X90864339Y-72316339D01*
X90887852Y-72167882D01*
X92325669Y-72167882D01*
X92325670Y-72167883D01*
X92351059Y-72186329D01*
X92519362Y-72272085D01*
X92698997Y-72330451D01*
X92885553Y-72360000D01*
X93074447Y-72360000D01*
X93261002Y-72330451D01*
X93440637Y-72272085D01*
X93608937Y-72186331D01*
X93634328Y-72167883D01*
X93634328Y-72167882D01*
X92980001Y-71513554D01*
X92980000Y-71513554D01*
X92325669Y-72167882D01*
X90887852Y-72167882D01*
X90895500Y-72119597D01*
X90895500Y-71920403D01*
X90864339Y-71723661D01*
X90864338Y-71723657D01*
X90864338Y-71723656D01*
X90802786Y-71534219D01*
X90775201Y-71480080D01*
X90712353Y-71356734D01*
X90595269Y-71195582D01*
X90465239Y-71065552D01*
X91780000Y-71065552D01*
X91780000Y-71254447D01*
X91809548Y-71441002D01*
X91867914Y-71620637D01*
X91953666Y-71788933D01*
X91972116Y-71814328D01*
X92626446Y-71160000D01*
X92626446Y-71159999D01*
X92580369Y-71113922D01*
X92630000Y-71113922D01*
X92630000Y-71206078D01*
X92653852Y-71295095D01*
X92699930Y-71374905D01*
X92765095Y-71440070D01*
X92844905Y-71486148D01*
X92933922Y-71510000D01*
X93026078Y-71510000D01*
X93115095Y-71486148D01*
X93194905Y-71440070D01*
X93260070Y-71374905D01*
X93306148Y-71295095D01*
X93330000Y-71206078D01*
X93330000Y-71159999D01*
X93333554Y-71159999D01*
X93333554Y-71160000D01*
X93987882Y-71814328D01*
X93987883Y-71814328D01*
X94006331Y-71788937D01*
X94092085Y-71620637D01*
X94150451Y-71441002D01*
X94180000Y-71254447D01*
X94180000Y-71065552D01*
X94179994Y-71065513D01*
X99399500Y-71065513D01*
X99399500Y-71254486D01*
X99429059Y-71441118D01*
X99487454Y-71620836D01*
X99549480Y-71742567D01*
X99573240Y-71789199D01*
X99684310Y-71942073D01*
X99817927Y-72075690D01*
X99970801Y-72186760D01*
X100050347Y-72227290D01*
X100139163Y-72272545D01*
X100139165Y-72272545D01*
X100139168Y-72272547D01*
X100182668Y-72286681D01*
X100318881Y-72330940D01*
X100505514Y-72360500D01*
X100505519Y-72360500D01*
X100694486Y-72360500D01*
X100881118Y-72330940D01*
X100882623Y-72330451D01*
X101060832Y-72272547D01*
X101229199Y-72186760D01*
X101382073Y-72075690D01*
X101515690Y-71942073D01*
X101626760Y-71789199D01*
X101712547Y-71620832D01*
X101770940Y-71441118D01*
X101776104Y-71408513D01*
X101800500Y-71254486D01*
X101800500Y-71065513D01*
X101799254Y-71057648D01*
X103679500Y-71057648D01*
X103679500Y-71262351D01*
X103711522Y-71464534D01*
X103774781Y-71659223D01*
X103817248Y-71742567D01*
X103867585Y-71841359D01*
X103867715Y-71841613D01*
X103988028Y-72007213D01*
X104132786Y-72151971D01*
X104253226Y-72239474D01*
X104298390Y-72272287D01*
X104384847Y-72316339D01*
X104480776Y-72365218D01*
X104480778Y-72365218D01*
X104480781Y-72365220D01*
X104525934Y-72379891D01*
X104675465Y-72428477D01*
X104776557Y-72444488D01*
X104877648Y-72460500D01*
X104877649Y-72460500D01*
X105082351Y-72460500D01*
X105082352Y-72460500D01*
X105284534Y-72428477D01*
X105479219Y-72365220D01*
X105661610Y-72272287D01*
X105779330Y-72186759D01*
X105827213Y-72151971D01*
X105827215Y-72151968D01*
X105827219Y-72151966D01*
X105971966Y-72007219D01*
X105971968Y-72007215D01*
X105971971Y-72007213D01*
X106092286Y-71841611D01*
X106092415Y-71841359D01*
X106119795Y-71787621D01*
X106167769Y-71736826D01*
X106235589Y-71720030D01*
X106301725Y-71742567D01*
X106340765Y-71787621D01*
X106368141Y-71841350D01*
X106368147Y-71841359D01*
X106400523Y-71885921D01*
X106400524Y-71885922D01*
X107080000Y-71206446D01*
X107080000Y-71212661D01*
X107107259Y-71314394D01*
X107159920Y-71405606D01*
X107234394Y-71480080D01*
X107325606Y-71532741D01*
X107427339Y-71560000D01*
X107433553Y-71560000D01*
X106754076Y-72239474D01*
X106798650Y-72271859D01*
X106980968Y-72364755D01*
X107175582Y-72427990D01*
X107377683Y-72460000D01*
X107582317Y-72460000D01*
X107784417Y-72427990D01*
X107979031Y-72364755D01*
X108161349Y-72271859D01*
X108205921Y-72239474D01*
X107526447Y-71560000D01*
X107532661Y-71560000D01*
X107634394Y-71532741D01*
X107725606Y-71480080D01*
X107800080Y-71405606D01*
X107852741Y-71314394D01*
X107880000Y-71212661D01*
X107880000Y-71206448D01*
X108559474Y-71885922D01*
X108559474Y-71885921D01*
X108591859Y-71841349D01*
X108684755Y-71659031D01*
X108747990Y-71464417D01*
X108780000Y-71262317D01*
X108780000Y-71057682D01*
X108747990Y-70855582D01*
X108684755Y-70660968D01*
X108591859Y-70478650D01*
X108559474Y-70434077D01*
X108559474Y-70434076D01*
X107880000Y-71113551D01*
X107880000Y-71107339D01*
X107852741Y-71005606D01*
X107800080Y-70914394D01*
X107725606Y-70839920D01*
X107634394Y-70787259D01*
X107532661Y-70760000D01*
X107526446Y-70760000D01*
X108205922Y-70080524D01*
X108205921Y-70080523D01*
X108161359Y-70048147D01*
X108161350Y-70048141D01*
X107979031Y-69955244D01*
X107784417Y-69892009D01*
X107582317Y-69860000D01*
X107377683Y-69860000D01*
X107175582Y-69892009D01*
X106980968Y-69955244D01*
X106798644Y-70048143D01*
X106754077Y-70080523D01*
X106754077Y-70080524D01*
X107433554Y-70760000D01*
X107427339Y-70760000D01*
X107325606Y-70787259D01*
X107234394Y-70839920D01*
X107159920Y-70914394D01*
X107107259Y-71005606D01*
X107080000Y-71107339D01*
X107080000Y-71113553D01*
X106400524Y-70434077D01*
X106400523Y-70434077D01*
X106368143Y-70478644D01*
X106340765Y-70532378D01*
X106292790Y-70583174D01*
X106224969Y-70599969D01*
X106158834Y-70577431D01*
X106119795Y-70532378D01*
X106092287Y-70478390D01*
X106092285Y-70478387D01*
X106092284Y-70478385D01*
X105971971Y-70312786D01*
X105827213Y-70168028D01*
X105661613Y-70047715D01*
X105661612Y-70047714D01*
X105661610Y-70047713D01*
X105604653Y-70018691D01*
X105479223Y-69954781D01*
X105284534Y-69891522D01*
X105109995Y-69863878D01*
X105082352Y-69859500D01*
X104877648Y-69859500D01*
X104853329Y-69863351D01*
X104675465Y-69891522D01*
X104480776Y-69954781D01*
X104298386Y-70047715D01*
X104132786Y-70168028D01*
X103988028Y-70312786D01*
X103867715Y-70478386D01*
X103774781Y-70660776D01*
X103711522Y-70855465D01*
X103679500Y-71057648D01*
X101799254Y-71057648D01*
X101770940Y-70878881D01*
X101730789Y-70755311D01*
X101712547Y-70699168D01*
X101712545Y-70699165D01*
X101712545Y-70699163D01*
X101639656Y-70556111D01*
X101626760Y-70530801D01*
X101515690Y-70377927D01*
X101382073Y-70244310D01*
X101229199Y-70133240D01*
X101168576Y-70102351D01*
X101060836Y-70047454D01*
X100881118Y-69989059D01*
X100694486Y-69959500D01*
X100694481Y-69959500D01*
X100505519Y-69959500D01*
X100505514Y-69959500D01*
X100318881Y-69989059D01*
X100139163Y-70047454D01*
X99970800Y-70133240D01*
X99922911Y-70168034D01*
X99817927Y-70244310D01*
X99817925Y-70244312D01*
X99817924Y-70244312D01*
X99684312Y-70377924D01*
X99684312Y-70377925D01*
X99684310Y-70377927D01*
X99636610Y-70443579D01*
X99573240Y-70530800D01*
X99487454Y-70699163D01*
X99429059Y-70878881D01*
X99399500Y-71065513D01*
X94179994Y-71065513D01*
X94150451Y-70878997D01*
X94092085Y-70699362D01*
X94006329Y-70531059D01*
X93987883Y-70505670D01*
X93987882Y-70505669D01*
X93333554Y-71159999D01*
X93330000Y-71159999D01*
X93330000Y-71113922D01*
X93306148Y-71024905D01*
X93260070Y-70945095D01*
X93194905Y-70879930D01*
X93115095Y-70833852D01*
X93026078Y-70810000D01*
X92933922Y-70810000D01*
X92844905Y-70833852D01*
X92765095Y-70879930D01*
X92699930Y-70945095D01*
X92653852Y-71024905D01*
X92630000Y-71113922D01*
X92580369Y-71113922D01*
X91972116Y-70505669D01*
X91972116Y-70505670D01*
X91953669Y-70531060D01*
X91867914Y-70699362D01*
X91809548Y-70878997D01*
X91780000Y-71065552D01*
X90465239Y-71065552D01*
X90454418Y-71054731D01*
X90293266Y-70937647D01*
X90141827Y-70860485D01*
X90091031Y-70812510D01*
X90074236Y-70744689D01*
X90096773Y-70678554D01*
X90141827Y-70639515D01*
X90171319Y-70624488D01*
X90293266Y-70562353D01*
X90454418Y-70445269D01*
X90595269Y-70304418D01*
X90705923Y-70152116D01*
X92325669Y-70152116D01*
X92980000Y-70806446D01*
X92980001Y-70806446D01*
X93634328Y-70152116D01*
X93608933Y-70133666D01*
X93440637Y-70047914D01*
X93261002Y-69989548D01*
X93074447Y-69960000D01*
X92885553Y-69960000D01*
X92698997Y-69989548D01*
X92519362Y-70047914D01*
X92351060Y-70133669D01*
X92325670Y-70152116D01*
X92325669Y-70152116D01*
X90705923Y-70152116D01*
X90712353Y-70143266D01*
X90712360Y-70143251D01*
X90712452Y-70143073D01*
X90785350Y-70000001D01*
X90802785Y-69965783D01*
X90804664Y-69960000D01*
X90864338Y-69776343D01*
X90864338Y-69776342D01*
X90864339Y-69776339D01*
X90895500Y-69579597D01*
X90895500Y-69380403D01*
X90864339Y-69183661D01*
X90864338Y-69183657D01*
X90864338Y-69183656D01*
X90802786Y-68994219D01*
X90771821Y-68933447D01*
X90712353Y-68816734D01*
X90595269Y-68655582D01*
X90454418Y-68514731D01*
X90293266Y-68397647D01*
X90141827Y-68320485D01*
X90133155Y-68312294D01*
X90122055Y-68307928D01*
X90108222Y-68288746D01*
X90091031Y-68272510D01*
X90088163Y-68260931D01*
X90081187Y-68251257D01*
X90079920Y-68227644D01*
X90074236Y-68204689D01*
X90078083Y-68193397D01*
X90077445Y-68181488D01*
X90085192Y-68167882D01*
X92325669Y-68167882D01*
X92325670Y-68167883D01*
X92351059Y-68186329D01*
X92519362Y-68272085D01*
X92698997Y-68330451D01*
X92885553Y-68360000D01*
X93074447Y-68360000D01*
X93261002Y-68330451D01*
X93440637Y-68272085D01*
X93608937Y-68186331D01*
X93634328Y-68167883D01*
X93634328Y-68167882D01*
X92980001Y-67513554D01*
X92980000Y-67513554D01*
X92325669Y-68167882D01*
X90085192Y-68167882D01*
X90089143Y-68160942D01*
X90096773Y-68138554D01*
X90106984Y-68129609D01*
X90112017Y-68120771D01*
X90139211Y-68101380D01*
X90140643Y-68100126D01*
X90141215Y-68099826D01*
X90293266Y-68022353D01*
X90454418Y-67905269D01*
X90595269Y-67764418D01*
X90712353Y-67603266D01*
X90802785Y-67425783D01*
X90829137Y-67344680D01*
X90864338Y-67236343D01*
X90864338Y-67236342D01*
X90864339Y-67236339D01*
X90891389Y-67065552D01*
X91780000Y-67065552D01*
X91780000Y-67254447D01*
X91809548Y-67441002D01*
X91867914Y-67620637D01*
X91953666Y-67788933D01*
X91972116Y-67814328D01*
X92626446Y-67160000D01*
X92626446Y-67159999D01*
X92580369Y-67113922D01*
X92630000Y-67113922D01*
X92630000Y-67206078D01*
X92653852Y-67295095D01*
X92699930Y-67374905D01*
X92765095Y-67440070D01*
X92844905Y-67486148D01*
X92933922Y-67510000D01*
X93026078Y-67510000D01*
X93115095Y-67486148D01*
X93194905Y-67440070D01*
X93260070Y-67374905D01*
X93306148Y-67295095D01*
X93330000Y-67206078D01*
X93330000Y-67159999D01*
X93333554Y-67159999D01*
X93333554Y-67160000D01*
X93987882Y-67814328D01*
X93987883Y-67814328D01*
X94006331Y-67788937D01*
X94092085Y-67620637D01*
X94150451Y-67441002D01*
X94180000Y-67254447D01*
X94180000Y-67065552D01*
X94179994Y-67065513D01*
X99399500Y-67065513D01*
X99399500Y-67254486D01*
X99429059Y-67441118D01*
X99487454Y-67620836D01*
X99570439Y-67783701D01*
X99573240Y-67789199D01*
X99684310Y-67942073D01*
X99817927Y-68075690D01*
X99970801Y-68186760D01*
X100025244Y-68214500D01*
X100139163Y-68272545D01*
X100139165Y-68272545D01*
X100139168Y-68272547D01*
X100235497Y-68303846D01*
X100318881Y-68330940D01*
X100505514Y-68360500D01*
X100505519Y-68360500D01*
X100694486Y-68360500D01*
X100881118Y-68330940D01*
X100913295Y-68320485D01*
X101060832Y-68272547D01*
X101229199Y-68186760D01*
X101382073Y-68075690D01*
X101515690Y-67942073D01*
X101626760Y-67789199D01*
X101712547Y-67620832D01*
X101770940Y-67441118D01*
X101773369Y-67425780D01*
X101800500Y-67254486D01*
X101800500Y-67065513D01*
X101799254Y-67057648D01*
X103679500Y-67057648D01*
X103679500Y-67262351D01*
X103711522Y-67464534D01*
X103774781Y-67659223D01*
X103828382Y-67764419D01*
X103867585Y-67841359D01*
X103867715Y-67841613D01*
X103988028Y-68007213D01*
X104132786Y-68151971D01*
X104253226Y-68239474D01*
X104298390Y-68272287D01*
X104392984Y-68320485D01*
X104480776Y-68365218D01*
X104480778Y-68365218D01*
X104480781Y-68365220D01*
X104585137Y-68399127D01*
X104675465Y-68428477D01*
X104776557Y-68444488D01*
X104877648Y-68460500D01*
X104877649Y-68460500D01*
X105082351Y-68460500D01*
X105082352Y-68460500D01*
X105284534Y-68428477D01*
X105479219Y-68365220D01*
X105661610Y-68272287D01*
X105779330Y-68186759D01*
X105827213Y-68151971D01*
X105827215Y-68151968D01*
X105827219Y-68151966D01*
X105971966Y-68007219D01*
X105971968Y-68007215D01*
X105971971Y-68007213D01*
X106092286Y-67841611D01*
X106092415Y-67841359D01*
X106119795Y-67787621D01*
X106167769Y-67736826D01*
X106235589Y-67720030D01*
X106301725Y-67742567D01*
X106340765Y-67787621D01*
X106368141Y-67841350D01*
X106368147Y-67841359D01*
X106400523Y-67885921D01*
X106400524Y-67885922D01*
X107080000Y-67206446D01*
X107080000Y-67212661D01*
X107107259Y-67314394D01*
X107159920Y-67405606D01*
X107234394Y-67480080D01*
X107325606Y-67532741D01*
X107427339Y-67560000D01*
X107433553Y-67560000D01*
X106754076Y-68239474D01*
X106798650Y-68271859D01*
X106980968Y-68364755D01*
X107175582Y-68427990D01*
X107377683Y-68460000D01*
X107582317Y-68460000D01*
X107784417Y-68427990D01*
X107979031Y-68364755D01*
X108161349Y-68271859D01*
X108205921Y-68239474D01*
X107526447Y-67560000D01*
X107532661Y-67560000D01*
X107634394Y-67532741D01*
X107725606Y-67480080D01*
X107800080Y-67405606D01*
X107852741Y-67314394D01*
X107880000Y-67212661D01*
X107880000Y-67206448D01*
X108559474Y-67885922D01*
X108559474Y-67885921D01*
X108591859Y-67841349D01*
X108684755Y-67659031D01*
X108747990Y-67464417D01*
X108780000Y-67262317D01*
X108780000Y-67057682D01*
X108747990Y-66855582D01*
X108684755Y-66660968D01*
X108591859Y-66478650D01*
X108559474Y-66434077D01*
X108559474Y-66434076D01*
X107880000Y-67113551D01*
X107880000Y-67107339D01*
X107852741Y-67005606D01*
X107800080Y-66914394D01*
X107725606Y-66839920D01*
X107634394Y-66787259D01*
X107532661Y-66760000D01*
X107526446Y-66760000D01*
X108205922Y-66080524D01*
X108205921Y-66080523D01*
X108161359Y-66048147D01*
X108161350Y-66048141D01*
X107979031Y-65955244D01*
X107784417Y-65892009D01*
X107582317Y-65860000D01*
X107377683Y-65860000D01*
X107175582Y-65892009D01*
X106980968Y-65955244D01*
X106798644Y-66048143D01*
X106754077Y-66080523D01*
X106754077Y-66080524D01*
X107433554Y-66760000D01*
X107427339Y-66760000D01*
X107325606Y-66787259D01*
X107234394Y-66839920D01*
X107159920Y-66914394D01*
X107107259Y-67005606D01*
X107080000Y-67107339D01*
X107080000Y-67113553D01*
X106400524Y-66434077D01*
X106400523Y-66434077D01*
X106368143Y-66478644D01*
X106340765Y-66532378D01*
X106292790Y-66583174D01*
X106224969Y-66599969D01*
X106158834Y-66577431D01*
X106119795Y-66532378D01*
X106092287Y-66478390D01*
X106092285Y-66478387D01*
X106092284Y-66478385D01*
X105971971Y-66312786D01*
X105827213Y-66168028D01*
X105661613Y-66047715D01*
X105661612Y-66047714D01*
X105661610Y-66047713D01*
X105604006Y-66018362D01*
X105479223Y-65954781D01*
X105284534Y-65891522D01*
X105109995Y-65863878D01*
X105082352Y-65859500D01*
X104877648Y-65859500D01*
X104853329Y-65863351D01*
X104675465Y-65891522D01*
X104480776Y-65954781D01*
X104298386Y-66047715D01*
X104132786Y-66168028D01*
X103988028Y-66312786D01*
X103867715Y-66478386D01*
X103774781Y-66660776D01*
X103711522Y-66855465D01*
X103679500Y-67057648D01*
X101799254Y-67057648D01*
X101770940Y-66878881D01*
X101717842Y-66715465D01*
X101712547Y-66699168D01*
X101712545Y-66699165D01*
X101712545Y-66699163D01*
X101650519Y-66577431D01*
X101626760Y-66530801D01*
X101515690Y-66377927D01*
X101382073Y-66244310D01*
X101229199Y-66133240D01*
X101060836Y-66047454D01*
X100881118Y-65989059D01*
X100694486Y-65959500D01*
X100694481Y-65959500D01*
X100505519Y-65959500D01*
X100505514Y-65959500D01*
X100318881Y-65989059D01*
X100139163Y-66047454D01*
X99970800Y-66133240D01*
X99922911Y-66168034D01*
X99817927Y-66244310D01*
X99817925Y-66244312D01*
X99817924Y-66244312D01*
X99684312Y-66377924D01*
X99684312Y-66377925D01*
X99684310Y-66377927D01*
X99636610Y-66443579D01*
X99573240Y-66530800D01*
X99487454Y-66699163D01*
X99429059Y-66878881D01*
X99399500Y-67065513D01*
X94179994Y-67065513D01*
X94150451Y-66878997D01*
X94092085Y-66699362D01*
X94006329Y-66531059D01*
X93987883Y-66505670D01*
X93987882Y-66505669D01*
X93333554Y-67159999D01*
X93330000Y-67159999D01*
X93330000Y-67113922D01*
X93306148Y-67024905D01*
X93260070Y-66945095D01*
X93194905Y-66879930D01*
X93115095Y-66833852D01*
X93026078Y-66810000D01*
X92933922Y-66810000D01*
X92844905Y-66833852D01*
X92765095Y-66879930D01*
X92699930Y-66945095D01*
X92653852Y-67024905D01*
X92630000Y-67113922D01*
X92580369Y-67113922D01*
X91972116Y-66505669D01*
X91972116Y-66505670D01*
X91953669Y-66531060D01*
X91867914Y-66699362D01*
X91809548Y-66878997D01*
X91780000Y-67065552D01*
X90891389Y-67065552D01*
X90895500Y-67039597D01*
X90895500Y-66840403D01*
X90864339Y-66643661D01*
X90864338Y-66643657D01*
X90864338Y-66643656D01*
X90802786Y-66454219D01*
X90733530Y-66318296D01*
X90712353Y-66276734D01*
X90712351Y-66276731D01*
X90712350Y-66276729D01*
X90709106Y-66272264D01*
X90709103Y-66272261D01*
X90688797Y-66244312D01*
X90621813Y-66152116D01*
X92325669Y-66152116D01*
X92980000Y-66806446D01*
X92980001Y-66806446D01*
X93634328Y-66152116D01*
X93608933Y-66133666D01*
X93440637Y-66047914D01*
X93261002Y-65989548D01*
X93074447Y-65960000D01*
X92885553Y-65960000D01*
X92698997Y-65989548D01*
X92519362Y-66047914D01*
X92351060Y-66133669D01*
X92325670Y-66152116D01*
X92325669Y-66152116D01*
X90621813Y-66152116D01*
X90595269Y-66115582D01*
X90454418Y-65974731D01*
X90293266Y-65857647D01*
X90141827Y-65780485D01*
X90091031Y-65732510D01*
X90074236Y-65664689D01*
X90096773Y-65598554D01*
X90141827Y-65559515D01*
X90151116Y-65554781D01*
X90293266Y-65482353D01*
X90454418Y-65365269D01*
X90595269Y-65224418D01*
X90712353Y-65063266D01*
X90802785Y-64885783D01*
X90829569Y-64803350D01*
X90864338Y-64696343D01*
X90864338Y-64696342D01*
X90864339Y-64696339D01*
X90895500Y-64499597D01*
X90895500Y-64300403D01*
X90877501Y-64186760D01*
X90874511Y-64167882D01*
X92325669Y-64167882D01*
X92325670Y-64167883D01*
X92351059Y-64186329D01*
X92519362Y-64272085D01*
X92698997Y-64330451D01*
X92885553Y-64360000D01*
X93074447Y-64360000D01*
X93261002Y-64330451D01*
X93440637Y-64272085D01*
X93608937Y-64186331D01*
X93634328Y-64167883D01*
X93634328Y-64167882D01*
X92980001Y-63513554D01*
X92980000Y-63513554D01*
X92325669Y-64167882D01*
X90874511Y-64167882D01*
X90870098Y-64140021D01*
X90868202Y-64128051D01*
X90864339Y-64103661D01*
X90864338Y-64103657D01*
X90864338Y-64103656D01*
X90802786Y-63914219D01*
X90790191Y-63889500D01*
X90712353Y-63736734D01*
X90595269Y-63575582D01*
X90454418Y-63434731D01*
X90293266Y-63317647D01*
X90216059Y-63278308D01*
X90141827Y-63240485D01*
X90132673Y-63231840D01*
X90121007Y-63227105D01*
X90107752Y-63208303D01*
X90091031Y-63192510D01*
X90088004Y-63180289D01*
X90080750Y-63169998D01*
X90079764Y-63147015D01*
X90074236Y-63124689D01*
X90078297Y-63112771D01*
X90077758Y-63100193D01*
X90089352Y-63080329D01*
X90094388Y-63065552D01*
X91780000Y-63065552D01*
X91780000Y-63254447D01*
X91809548Y-63441002D01*
X91867914Y-63620637D01*
X91953666Y-63788933D01*
X91972116Y-63814328D01*
X92626446Y-63160000D01*
X92626446Y-63159999D01*
X92580369Y-63113922D01*
X92630000Y-63113922D01*
X92630000Y-63206078D01*
X92653852Y-63295095D01*
X92699930Y-63374905D01*
X92765095Y-63440070D01*
X92844905Y-63486148D01*
X92933922Y-63510000D01*
X93026078Y-63510000D01*
X93115095Y-63486148D01*
X93194905Y-63440070D01*
X93260070Y-63374905D01*
X93306148Y-63295095D01*
X93330000Y-63206078D01*
X93330000Y-63159999D01*
X93333554Y-63159999D01*
X93333554Y-63160000D01*
X93987882Y-63814328D01*
X93987883Y-63814328D01*
X94006331Y-63788937D01*
X94092085Y-63620637D01*
X94150451Y-63441002D01*
X94180000Y-63254447D01*
X94180000Y-63065552D01*
X94179994Y-63065513D01*
X99399500Y-63065513D01*
X99399500Y-63254486D01*
X99429059Y-63441118D01*
X99487454Y-63620836D01*
X99573104Y-63788933D01*
X99573240Y-63789199D01*
X99684310Y-63942073D01*
X99817927Y-64075690D01*
X99970801Y-64186760D01*
X100045885Y-64225017D01*
X100139163Y-64272545D01*
X100139165Y-64272545D01*
X100139168Y-64272547D01*
X100235497Y-64303846D01*
X100318881Y-64330940D01*
X100505514Y-64360500D01*
X100505519Y-64360500D01*
X100694486Y-64360500D01*
X100881118Y-64330940D01*
X100882623Y-64330451D01*
X101060832Y-64272547D01*
X101229199Y-64186760D01*
X101382073Y-64075690D01*
X101515690Y-63942073D01*
X101626760Y-63789199D01*
X101691234Y-63662661D01*
X101712545Y-63620836D01*
X101712545Y-63620835D01*
X101712547Y-63620832D01*
X101770940Y-63441118D01*
X101771612Y-63436873D01*
X101800500Y-63254486D01*
X101800500Y-63065513D01*
X101770940Y-62878881D01*
X101729915Y-62752620D01*
X101712547Y-62699168D01*
X101712545Y-62699165D01*
X101712545Y-62699163D01*
X101650378Y-62577155D01*
X101626760Y-62530801D01*
X101515690Y-62377927D01*
X101382073Y-62244310D01*
X101229199Y-62133240D01*
X101060836Y-62047454D01*
X100881118Y-61989059D01*
X100694486Y-61959500D01*
X100694481Y-61959500D01*
X100505519Y-61959500D01*
X100505514Y-61959500D01*
X100318881Y-61989059D01*
X100139163Y-62047454D01*
X99970800Y-62133240D01*
X99932514Y-62161057D01*
X99817927Y-62244310D01*
X99817925Y-62244312D01*
X99817924Y-62244312D01*
X99684312Y-62377924D01*
X99684312Y-62377925D01*
X99684310Y-62377927D01*
X99657433Y-62414920D01*
X99573240Y-62530800D01*
X99487454Y-62699163D01*
X99429059Y-62878881D01*
X99399500Y-63065513D01*
X94179994Y-63065513D01*
X94150451Y-62878997D01*
X94092085Y-62699362D01*
X94006329Y-62531059D01*
X93987883Y-62505670D01*
X93987882Y-62505669D01*
X93333554Y-63159999D01*
X93330000Y-63159999D01*
X93330000Y-63113922D01*
X93306148Y-63024905D01*
X93260070Y-62945095D01*
X93194905Y-62879930D01*
X93115095Y-62833852D01*
X93026078Y-62810000D01*
X92933922Y-62810000D01*
X92844905Y-62833852D01*
X92765095Y-62879930D01*
X92699930Y-62945095D01*
X92653852Y-63024905D01*
X92630000Y-63113922D01*
X92580369Y-63113922D01*
X91972116Y-62505669D01*
X91972116Y-62505670D01*
X91953669Y-62531060D01*
X91867914Y-62699362D01*
X91809548Y-62878997D01*
X91780000Y-63065552D01*
X90094388Y-63065552D01*
X90096773Y-63058554D01*
X90107476Y-63049279D01*
X90112980Y-63039851D01*
X90141827Y-63019515D01*
X90277863Y-62950201D01*
X90293266Y-62942353D01*
X90454418Y-62825269D01*
X90595269Y-62684418D01*
X90712353Y-62523266D01*
X90802785Y-62345783D01*
X90811000Y-62320500D01*
X90862807Y-62161057D01*
X90862807Y-62161056D01*
X90864336Y-62156348D01*
X90864339Y-62156339D01*
X90865008Y-62152116D01*
X92325669Y-62152116D01*
X92980000Y-62806446D01*
X92980001Y-62806446D01*
X93634328Y-62152116D01*
X93608933Y-62133666D01*
X93440637Y-62047914D01*
X93261002Y-61989548D01*
X93074447Y-61960000D01*
X92885553Y-61960000D01*
X92698997Y-61989548D01*
X92519362Y-62047914D01*
X92351060Y-62133669D01*
X92325670Y-62152116D01*
X92325669Y-62152116D01*
X90865008Y-62152116D01*
X90895500Y-61959597D01*
X90895500Y-61760403D01*
X90864339Y-61563661D01*
X90864338Y-61563657D01*
X90864338Y-61563656D01*
X90802786Y-61374219D01*
X90796981Y-61362826D01*
X90712353Y-61196734D01*
X90595269Y-61035582D01*
X90454418Y-60894731D01*
X90293266Y-60777647D01*
X90292336Y-60777173D01*
X90141827Y-60700485D01*
X90091031Y-60652510D01*
X90074236Y-60584689D01*
X90096773Y-60518554D01*
X90141827Y-60479515D01*
X90179538Y-60460300D01*
X90293266Y-60402353D01*
X90454418Y-60285269D01*
X90595269Y-60144418D01*
X90712353Y-59983266D01*
X90802785Y-59805783D01*
X90806709Y-59793705D01*
X90864338Y-59616343D01*
X90864339Y-59616339D01*
X90890638Y-59450293D01*
X90895500Y-59419597D01*
X90895500Y-59220403D01*
X90870968Y-59065513D01*
X91779500Y-59065513D01*
X91779500Y-59254486D01*
X91809059Y-59441118D01*
X91867454Y-59620836D01*
X91933119Y-59749709D01*
X91953240Y-59789199D01*
X92064310Y-59942073D01*
X92197927Y-60075690D01*
X92350801Y-60186760D01*
X92430347Y-60227290D01*
X92519163Y-60272545D01*
X92519165Y-60272545D01*
X92519168Y-60272547D01*
X92615497Y-60303846D01*
X92698881Y-60330940D01*
X92885514Y-60360500D01*
X92885519Y-60360500D01*
X93074486Y-60360500D01*
X93261118Y-60330940D01*
X93293975Y-60320264D01*
X93440832Y-60272547D01*
X93609199Y-60186760D01*
X93762073Y-60075690D01*
X93895690Y-59942073D01*
X94006760Y-59789199D01*
X94092547Y-59620832D01*
X94150940Y-59441118D01*
X94154349Y-59419596D01*
X94180500Y-59254486D01*
X94180500Y-59065513D01*
X99399500Y-59065513D01*
X99399500Y-59254486D01*
X99429059Y-59441118D01*
X99487454Y-59620836D01*
X99553119Y-59749709D01*
X99573240Y-59789199D01*
X99684310Y-59942073D01*
X99817927Y-60075690D01*
X99970801Y-60186760D01*
X100050347Y-60227290D01*
X100139163Y-60272545D01*
X100139165Y-60272545D01*
X100139168Y-60272547D01*
X100235497Y-60303846D01*
X100318881Y-60330940D01*
X100505514Y-60360500D01*
X100505519Y-60360500D01*
X100694486Y-60360500D01*
X100881118Y-60330940D01*
X100913975Y-60320264D01*
X101060832Y-60272547D01*
X101229199Y-60186760D01*
X101382073Y-60075690D01*
X101515690Y-59942073D01*
X101626760Y-59789199D01*
X101712547Y-59620832D01*
X101770940Y-59441118D01*
X101774349Y-59419596D01*
X101800500Y-59254486D01*
X101800500Y-59065513D01*
X101770940Y-58878881D01*
X101712545Y-58699163D01*
X101656558Y-58589284D01*
X101626760Y-58530801D01*
X101624042Y-58527061D01*
X101604091Y-58499599D01*
X101604089Y-58499597D01*
X101585789Y-58474409D01*
X101554669Y-58431577D01*
X103769500Y-58431577D01*
X103769500Y-58628422D01*
X103800290Y-58822826D01*
X103861117Y-59010029D01*
X103937903Y-59160729D01*
X103950476Y-59185405D01*
X104066172Y-59344646D01*
X104205354Y-59483828D01*
X104364595Y-59599524D01*
X104487992Y-59662397D01*
X104541213Y-59689515D01*
X104592009Y-59737489D01*
X104608804Y-59805310D01*
X104586267Y-59871445D01*
X104541213Y-59910485D01*
X104364594Y-60000476D01*
X104273741Y-60066485D01*
X104205354Y-60116172D01*
X104205352Y-60116174D01*
X104205351Y-60116174D01*
X104066174Y-60255351D01*
X104066174Y-60255352D01*
X104066172Y-60255354D01*
X104019012Y-60320264D01*
X103950476Y-60414594D01*
X103861117Y-60589970D01*
X103800290Y-60777173D01*
X103769500Y-60971577D01*
X103769500Y-61168422D01*
X103800290Y-61362826D01*
X103861117Y-61550029D01*
X103920691Y-61666948D01*
X103950476Y-61725405D01*
X104066172Y-61884646D01*
X104205354Y-62023828D01*
X104305762Y-62096779D01*
X104359307Y-62135682D01*
X104401972Y-62191012D01*
X104407951Y-62260626D01*
X104375345Y-62322421D01*
X104314506Y-62356778D01*
X104286421Y-62360000D01*
X104222155Y-62360000D01*
X104162627Y-62366401D01*
X104162620Y-62366403D01*
X104027913Y-62416645D01*
X104027906Y-62416649D01*
X103912812Y-62502809D01*
X103912809Y-62502812D01*
X103826649Y-62617906D01*
X103826645Y-62617913D01*
X103776403Y-62752620D01*
X103776401Y-62752627D01*
X103770000Y-62812155D01*
X103770000Y-63360000D01*
X104704314Y-63360000D01*
X104699920Y-63364394D01*
X104647259Y-63455606D01*
X104620000Y-63557339D01*
X104620000Y-63662661D01*
X104647259Y-63764394D01*
X104699920Y-63855606D01*
X104704314Y-63860000D01*
X103770000Y-63860000D01*
X103770000Y-64407844D01*
X103776401Y-64467372D01*
X103776403Y-64467379D01*
X103826645Y-64602086D01*
X103826649Y-64602093D01*
X103912809Y-64717187D01*
X103912812Y-64717190D01*
X104027906Y-64803350D01*
X104027913Y-64803354D01*
X104162620Y-64853596D01*
X104162627Y-64853598D01*
X104222155Y-64859999D01*
X104222172Y-64860000D01*
X104770000Y-64860000D01*
X104770000Y-63925686D01*
X104774394Y-63930080D01*
X104865606Y-63982741D01*
X104967339Y-64010000D01*
X105072661Y-64010000D01*
X105174394Y-63982741D01*
X105265606Y-63930080D01*
X105270000Y-63925686D01*
X105270000Y-64860000D01*
X105817828Y-64860000D01*
X105817844Y-64859999D01*
X105877372Y-64853598D01*
X105877379Y-64853596D01*
X106012086Y-64803354D01*
X106012093Y-64803350D01*
X106127187Y-64717190D01*
X106127190Y-64717187D01*
X106213350Y-64602093D01*
X106213354Y-64602086D01*
X106263596Y-64467379D01*
X106263598Y-64467372D01*
X106269999Y-64407844D01*
X106270000Y-64407827D01*
X106270000Y-63860000D01*
X105335686Y-63860000D01*
X105340080Y-63855606D01*
X105392741Y-63764394D01*
X105420000Y-63662661D01*
X105420000Y-63557339D01*
X105392741Y-63455606D01*
X105340080Y-63364394D01*
X105335686Y-63360000D01*
X106270000Y-63360000D01*
X106270000Y-62812172D01*
X106269999Y-62812155D01*
X106263598Y-62752627D01*
X106263596Y-62752620D01*
X106213354Y-62617913D01*
X106213350Y-62617906D01*
X106127190Y-62502812D01*
X106127187Y-62502809D01*
X106012093Y-62416649D01*
X106012086Y-62416645D01*
X105877379Y-62366403D01*
X105877372Y-62366401D01*
X105817844Y-62360000D01*
X105753579Y-62360000D01*
X105686540Y-62340315D01*
X105640785Y-62287511D01*
X105630841Y-62218353D01*
X105659866Y-62154797D01*
X105680693Y-62135682D01*
X105688286Y-62130165D01*
X105834646Y-62023828D01*
X105973828Y-61884646D01*
X106089524Y-61725405D01*
X106178884Y-61550025D01*
X106239709Y-61362826D01*
X106251635Y-61287530D01*
X106270500Y-61168422D01*
X106270500Y-60971577D01*
X106239709Y-60777173D01*
X106186540Y-60613537D01*
X106178884Y-60589975D01*
X106178882Y-60589972D01*
X106178882Y-60589970D01*
X106114057Y-60462744D01*
X106089524Y-60414595D01*
X105973828Y-60255354D01*
X105834646Y-60116172D01*
X105755025Y-60058324D01*
X105675403Y-60000474D01*
X105498787Y-59910485D01*
X105447990Y-59862511D01*
X105431195Y-59794690D01*
X105453732Y-59728555D01*
X105498787Y-59689515D01*
X105675403Y-59599525D01*
X105675402Y-59599525D01*
X105675405Y-59599524D01*
X105834646Y-59483828D01*
X105973828Y-59344646D01*
X106089524Y-59185405D01*
X106178884Y-59010025D01*
X106239709Y-58822826D01*
X106270500Y-58628422D01*
X106270500Y-58431577D01*
X106239709Y-58237173D01*
X106188743Y-58080318D01*
X106178884Y-58049975D01*
X106178882Y-58049972D01*
X106178882Y-58049970D01*
X106089523Y-57874594D01*
X105973828Y-57715354D01*
X105834646Y-57576172D01*
X105675405Y-57460476D01*
X105673435Y-57459472D01*
X105500029Y-57371117D01*
X105312826Y-57310290D01*
X105118422Y-57279500D01*
X105118417Y-57279500D01*
X104921583Y-57279500D01*
X104921578Y-57279500D01*
X104727173Y-57310290D01*
X104539970Y-57371117D01*
X104364594Y-57460476D01*
X104273741Y-57526485D01*
X104205354Y-57576172D01*
X104205352Y-57576174D01*
X104205351Y-57576174D01*
X104066174Y-57715351D01*
X104066174Y-57715352D01*
X104066172Y-57715354D01*
X104037728Y-57754504D01*
X103950476Y-57874594D01*
X103861117Y-58049970D01*
X103800290Y-58237173D01*
X103769500Y-58431577D01*
X101554669Y-58431577D01*
X101515690Y-58377927D01*
X101382073Y-58244310D01*
X101229199Y-58133240D01*
X101188514Y-58112510D01*
X101060836Y-58047454D01*
X100881118Y-57989059D01*
X100694486Y-57959500D01*
X100694481Y-57959500D01*
X100505519Y-57959500D01*
X100505514Y-57959500D01*
X100318881Y-57989059D01*
X100139163Y-58047454D01*
X99970800Y-58133240D01*
X99883579Y-58196610D01*
X99817927Y-58244310D01*
X99817925Y-58244312D01*
X99817924Y-58244312D01*
X99684312Y-58377924D01*
X99684312Y-58377925D01*
X99684310Y-58377927D01*
X99636610Y-58443579D01*
X99573240Y-58530800D01*
X99487454Y-58699163D01*
X99429059Y-58878881D01*
X99399500Y-59065513D01*
X94180500Y-59065513D01*
X94150940Y-58878881D01*
X94092545Y-58699163D01*
X94006759Y-58530800D01*
X93984090Y-58499599D01*
X93895690Y-58377927D01*
X93762073Y-58244310D01*
X93609199Y-58133240D01*
X93568514Y-58112510D01*
X93440836Y-58047454D01*
X93261118Y-57989059D01*
X93074486Y-57959500D01*
X93074481Y-57959500D01*
X92885519Y-57959500D01*
X92885514Y-57959500D01*
X92698881Y-57989059D01*
X92519163Y-58047454D01*
X92350800Y-58133240D01*
X92263579Y-58196610D01*
X92197927Y-58244310D01*
X92197925Y-58244312D01*
X92197924Y-58244312D01*
X92064312Y-58377924D01*
X92064312Y-58377925D01*
X92064310Y-58377927D01*
X92016610Y-58443579D01*
X91953240Y-58530800D01*
X91867454Y-58699163D01*
X91809059Y-58878881D01*
X91779500Y-59065513D01*
X90870968Y-59065513D01*
X90864339Y-59023661D01*
X90802785Y-58834217D01*
X90712353Y-58656734D01*
X90595269Y-58495582D01*
X90454418Y-58354731D01*
X90293266Y-58237647D01*
X90141827Y-58160485D01*
X90091031Y-58112510D01*
X90074236Y-58044689D01*
X90096773Y-57978554D01*
X90141827Y-57939515D01*
X90151116Y-57934781D01*
X90293266Y-57862353D01*
X90454418Y-57745269D01*
X90595269Y-57604418D01*
X90712353Y-57443266D01*
X90802785Y-57265783D01*
X90828650Y-57186178D01*
X90864338Y-57076343D01*
X90864338Y-57076342D01*
X90864339Y-57076339D01*
X90895500Y-56879597D01*
X90895500Y-56680403D01*
X90864339Y-56483661D01*
X90864338Y-56483657D01*
X90864338Y-56483656D01*
X90802786Y-56294219D01*
X90802785Y-56294217D01*
X90712353Y-56116734D01*
X90595269Y-55955582D01*
X90454418Y-55814731D01*
X90293266Y-55697647D01*
X90141827Y-55620485D01*
X90091031Y-55572510D01*
X90074236Y-55504689D01*
X90096773Y-55438554D01*
X90141827Y-55399515D01*
X90151116Y-55394781D01*
X90293266Y-55322353D01*
X90454418Y-55205269D01*
X90595269Y-55064418D01*
X90712353Y-54903266D01*
X90802785Y-54725783D01*
X90840243Y-54610500D01*
X90864338Y-54536343D01*
X90864338Y-54536342D01*
X90864339Y-54536339D01*
X90895500Y-54339597D01*
X90895500Y-54140403D01*
X90864339Y-53943661D01*
X90864338Y-53943657D01*
X90864338Y-53943656D01*
X90802786Y-53754219D01*
X90780483Y-53710447D01*
X90712353Y-53576734D01*
X90595269Y-53415582D01*
X90495200Y-53315513D01*
X93546249Y-53315513D01*
X93546249Y-53504486D01*
X93575808Y-53691118D01*
X93634203Y-53870836D01*
X93671309Y-53943659D01*
X93719989Y-54039199D01*
X93831059Y-54192073D01*
X93964676Y-54325690D01*
X94117550Y-54436760D01*
X94169991Y-54463480D01*
X94285912Y-54522545D01*
X94285914Y-54522545D01*
X94285917Y-54522547D01*
X94382246Y-54553846D01*
X94465630Y-54580940D01*
X94652263Y-54610500D01*
X94652268Y-54610500D01*
X94841235Y-54610500D01*
X95027867Y-54580940D01*
X95207581Y-54522547D01*
X95375948Y-54436760D01*
X95528822Y-54325690D01*
X95662439Y-54192073D01*
X95773509Y-54039199D01*
X95859296Y-53870832D01*
X95917689Y-53691118D01*
X95947249Y-53504486D01*
X95947249Y-53315513D01*
X96746250Y-53315513D01*
X96746250Y-53504486D01*
X96775809Y-53691118D01*
X96834204Y-53870836D01*
X96871310Y-53943659D01*
X96919990Y-54039199D01*
X97031060Y-54192073D01*
X97164677Y-54325690D01*
X97317551Y-54436760D01*
X97369992Y-54463480D01*
X97485913Y-54522545D01*
X97485915Y-54522545D01*
X97485918Y-54522547D01*
X97582247Y-54553846D01*
X97665631Y-54580940D01*
X97852264Y-54610500D01*
X97852269Y-54610500D01*
X98041236Y-54610500D01*
X98227868Y-54580940D01*
X98407582Y-54522547D01*
X98575949Y-54436760D01*
X98728823Y-54325690D01*
X98862440Y-54192073D01*
X98973510Y-54039199D01*
X99059297Y-53870832D01*
X99117690Y-53691118D01*
X99147250Y-53504486D01*
X99147250Y-53315513D01*
X99117690Y-53128881D01*
X99067528Y-52974500D01*
X99059297Y-52949168D01*
X99059295Y-52949165D01*
X99059295Y-52949163D01*
X99012682Y-52857681D01*
X98973510Y-52780801D01*
X98862440Y-52627927D01*
X98728823Y-52494310D01*
X98575949Y-52383240D01*
X98536748Y-52363266D01*
X98407586Y-52297454D01*
X98227868Y-52239059D01*
X98041236Y-52209500D01*
X98041231Y-52209500D01*
X97852269Y-52209500D01*
X97852264Y-52209500D01*
X97665631Y-52239059D01*
X97485913Y-52297454D01*
X97317550Y-52383240D01*
X97273478Y-52415261D01*
X97164677Y-52494310D01*
X97164675Y-52494312D01*
X97164674Y-52494312D01*
X97031062Y-52627924D01*
X97031062Y-52627925D01*
X97031060Y-52627927D01*
X96983360Y-52693579D01*
X96919990Y-52780800D01*
X96834204Y-52949163D01*
X96775809Y-53128881D01*
X96746250Y-53315513D01*
X95947249Y-53315513D01*
X95917689Y-53128881D01*
X95867527Y-52974500D01*
X95859296Y-52949168D01*
X95859294Y-52949165D01*
X95859294Y-52949163D01*
X95812681Y-52857681D01*
X95773509Y-52780801D01*
X95662439Y-52627927D01*
X95528822Y-52494310D01*
X95375948Y-52383240D01*
X95336747Y-52363266D01*
X95207585Y-52297454D01*
X95027867Y-52239059D01*
X94841235Y-52209500D01*
X94841230Y-52209500D01*
X94652268Y-52209500D01*
X94652263Y-52209500D01*
X94465630Y-52239059D01*
X94285912Y-52297454D01*
X94117549Y-52383240D01*
X94073477Y-52415261D01*
X93964676Y-52494310D01*
X93964674Y-52494312D01*
X93964673Y-52494312D01*
X93831061Y-52627924D01*
X93831061Y-52627925D01*
X93831059Y-52627927D01*
X93783359Y-52693579D01*
X93719989Y-52780800D01*
X93634203Y-52949163D01*
X93575808Y-53128881D01*
X93546249Y-53315513D01*
X90495200Y-53315513D01*
X90454418Y-53274731D01*
X90293266Y-53157647D01*
X90236811Y-53128882D01*
X90141827Y-53080485D01*
X90091031Y-53032510D01*
X90074236Y-52964689D01*
X90096773Y-52898554D01*
X90141827Y-52859515D01*
X90151116Y-52854781D01*
X90293266Y-52782353D01*
X90454418Y-52665269D01*
X90595269Y-52524418D01*
X90712353Y-52363266D01*
X90802785Y-52185783D01*
X90864339Y-51996339D01*
X90895500Y-51799597D01*
X90895500Y-51600403D01*
X90864339Y-51403661D01*
X90864338Y-51403657D01*
X90864338Y-51403656D01*
X90802786Y-51214219D01*
X90763557Y-51137228D01*
X90712353Y-51036734D01*
X90595269Y-50875582D01*
X90454418Y-50734731D01*
X90293266Y-50617647D01*
X90141827Y-50540485D01*
X90091031Y-50492510D01*
X90074236Y-50424689D01*
X90096773Y-50358554D01*
X90141827Y-50319515D01*
X90152867Y-50313890D01*
X90293266Y-50242353D01*
X90454418Y-50125269D01*
X90595269Y-49984418D01*
X90712353Y-49823266D01*
X90802785Y-49645783D01*
X90802786Y-49645780D01*
X90864338Y-49456343D01*
X90864338Y-49456342D01*
X90864339Y-49456339D01*
X90895500Y-49259597D01*
X90895500Y-49060403D01*
X90864339Y-48863661D01*
X90864338Y-48863657D01*
X90864338Y-48863656D01*
X90802786Y-48674219D01*
X90747989Y-48566674D01*
X90712353Y-48496734D01*
X90595269Y-48335582D01*
X90454418Y-48194731D01*
X90293266Y-48077647D01*
X90141827Y-48000485D01*
X90091031Y-47952510D01*
X90074236Y-47884689D01*
X90096773Y-47818554D01*
X90141827Y-47779515D01*
X90178076Y-47761045D01*
X90293266Y-47702353D01*
X90454418Y-47585269D01*
X90595269Y-47444418D01*
X90712353Y-47283266D01*
X90802785Y-47105783D01*
X90802786Y-47105780D01*
X90864338Y-46916343D01*
X90864338Y-46916342D01*
X90864339Y-46916339D01*
X90895500Y-46719597D01*
X90895500Y-46520403D01*
X90864339Y-46323661D01*
X90864338Y-46323657D01*
X90864338Y-46323656D01*
X90802786Y-46134219D01*
X90781800Y-46093031D01*
X90712353Y-45956734D01*
X90595269Y-45795582D01*
X90454418Y-45654731D01*
X90293266Y-45537647D01*
X90293262Y-45537645D01*
X90141277Y-45460204D01*
X90090481Y-45412229D01*
X90073686Y-45344408D01*
X90096224Y-45278273D01*
X90141277Y-45239234D01*
X90293005Y-45161924D01*
X90330863Y-45134418D01*
X90330863Y-45134417D01*
X89767574Y-44571128D01*
X89826853Y-44555245D01*
X89943147Y-44488102D01*
X90038102Y-44393147D01*
X90105245Y-44276853D01*
X90121128Y-44217574D01*
X90684417Y-44780863D01*
X90684418Y-44780863D01*
X90711924Y-44743005D01*
X90802320Y-44565594D01*
X90863852Y-44376222D01*
X90895000Y-44179563D01*
X90895000Y-43980436D01*
X90863852Y-43783777D01*
X90802320Y-43594405D01*
X90711924Y-43416994D01*
X90684417Y-43379135D01*
X90684417Y-43379134D01*
X90121128Y-43942424D01*
X90105245Y-43883147D01*
X90038102Y-43766853D01*
X89943147Y-43671898D01*
X89826853Y-43604755D01*
X89767574Y-43588871D01*
X90330864Y-43025581D01*
X90330863Y-43025580D01*
X90293008Y-42998077D01*
X90141277Y-42920765D01*
X90090481Y-42872790D01*
X90073686Y-42804969D01*
X90096224Y-42738834D01*
X90141277Y-42699795D01*
X90141827Y-42699515D01*
X90293266Y-42622353D01*
X90454418Y-42505269D01*
X90595269Y-42364418D01*
X90712353Y-42203266D01*
X90802785Y-42025783D01*
X90828016Y-41948129D01*
X90864338Y-41836343D01*
X90864338Y-41836342D01*
X90864339Y-41836339D01*
X90895500Y-41639597D01*
X90895500Y-41440403D01*
X90864339Y-41243661D01*
X90837969Y-41162505D01*
X90835975Y-41092665D01*
X90872055Y-41032832D01*
X90934756Y-41002003D01*
X91003120Y-41009529D01*
X91059701Y-41032832D01*
X91237737Y-41106154D01*
X91240012Y-41107117D01*
X91311139Y-41138081D01*
X91695446Y-41305382D01*
X91697625Y-41306357D01*
X92152025Y-41515008D01*
X92154187Y-41516027D01*
X92346077Y-41608782D01*
X92604327Y-41733614D01*
X92606520Y-41734700D01*
X93022601Y-41946054D01*
X93055537Y-41962784D01*
X93057689Y-41963905D01*
X93502284Y-42200852D01*
X93504352Y-42201980D01*
X93947622Y-42449489D01*
X93949653Y-42450649D01*
X94043136Y-42505266D01*
X94388391Y-42706981D01*
X94390459Y-42708216D01*
X94827551Y-42975106D01*
X94829519Y-42976334D01*
X95261944Y-43251992D01*
X95263828Y-43253220D01*
X95694421Y-43539516D01*
X95696358Y-43540832D01*
X96121883Y-43835670D01*
X96123813Y-43837035D01*
X96547219Y-44142516D01*
X96549114Y-44143910D01*
X96967407Y-44457937D01*
X96969265Y-44459360D01*
X97385051Y-44783957D01*
X97386873Y-44785407D01*
X97797355Y-45118453D01*
X97799140Y-45119929D01*
X97929730Y-45229991D01*
X98206854Y-45463554D01*
X98208530Y-45464993D01*
X98554279Y-45767556D01*
X98610722Y-45816949D01*
X98612432Y-45818474D01*
X99011442Y-46180882D01*
X99013115Y-46182430D01*
X99406334Y-46552993D01*
X99407969Y-46554562D01*
X99797653Y-46935476D01*
X99799250Y-46937066D01*
X100140773Y-47283266D01*
X100182956Y-47326026D01*
X100184508Y-47327628D01*
X100202339Y-47346369D01*
X100564283Y-47726783D01*
X100565805Y-47728411D01*
X100935308Y-48131020D01*
X100939402Y-48135480D01*
X100940860Y-48137098D01*
X100988279Y-48190657D01*
X101310124Y-48554175D01*
X101311550Y-48555814D01*
X101674450Y-48980689D01*
X101675764Y-48982255D01*
X101908612Y-49264835D01*
X102033858Y-49416832D01*
X102035230Y-49418527D01*
X102386662Y-49860639D01*
X102387997Y-49862349D01*
X102734213Y-50313890D01*
X102735507Y-50315609D01*
X103074869Y-50774532D01*
X103076071Y-50776186D01*
X103388407Y-51214219D01*
X103409824Y-51244255D01*
X103411040Y-51245991D01*
X103588697Y-51504446D01*
X103737720Y-51721245D01*
X103738908Y-51723005D01*
X104059559Y-52207042D01*
X104060711Y-52208814D01*
X104374000Y-52699712D01*
X104375116Y-52701494D01*
X104637781Y-53128882D01*
X104682009Y-53200845D01*
X104683075Y-53202614D01*
X104749862Y-53315513D01*
X104982424Y-53708645D01*
X104983470Y-53710447D01*
X105275974Y-54224419D01*
X105276984Y-54226229D01*
X105561750Y-54746661D01*
X105562726Y-54748481D01*
X105840222Y-55276308D01*
X105841164Y-55278135D01*
X105909130Y-55412785D01*
X106102452Y-55795787D01*
X106110826Y-55812376D01*
X106111720Y-55814184D01*
X106373701Y-56355231D01*
X106374562Y-56357049D01*
X106530307Y-56692649D01*
X106628429Y-56904085D01*
X106629269Y-56905933D01*
X106875220Y-57459472D01*
X106876026Y-57461327D01*
X107113643Y-58020519D01*
X107114416Y-58022381D01*
X107343748Y-58587418D01*
X107344488Y-58589284D01*
X107565346Y-59159782D01*
X107566054Y-59161655D01*
X107778346Y-59737464D01*
X107779020Y-59739340D01*
X107982645Y-60320264D01*
X107983288Y-60322146D01*
X108178092Y-60907826D01*
X108178703Y-60909713D01*
X108364693Y-61500262D01*
X108365271Y-61502149D01*
X108523242Y-62033129D01*
X108542179Y-62096779D01*
X108542726Y-62098673D01*
X108710262Y-62696419D01*
X108711024Y-62699267D01*
X109019743Y-63910894D01*
X109020649Y-63914702D01*
X109291736Y-65138906D01*
X109292519Y-65142724D01*
X109525891Y-66379545D01*
X109526551Y-66383370D01*
X109721750Y-67631076D01*
X109722288Y-67634907D01*
X109821190Y-68428477D01*
X109878424Y-68887713D01*
X109878932Y-68891785D01*
X109879349Y-68895619D01*
X109997139Y-70160079D01*
X109997437Y-70163913D01*
X110076147Y-71434460D01*
X110076325Y-71438292D01*
X110115778Y-72713401D01*
X110115837Y-72717228D01*
X110115916Y-73995398D01*
X110115857Y-73999218D01*
X110076498Y-75279080D01*
X110076323Y-75282888D01*
X109997437Y-76564214D01*
X109997195Y-76567451D01*
X109918045Y-77467951D01*
X109917821Y-77470247D01*
X109849792Y-78107983D01*
X109849574Y-78109893D01*
X109771913Y-78744478D01*
X109771664Y-78746389D01*
X109684229Y-79379125D01*
X109683949Y-79381037D01*
X109587095Y-80009532D01*
X109586785Y-80011445D01*
X109480254Y-80637581D01*
X109479914Y-80639492D01*
X109364083Y-81261240D01*
X109363711Y-81263152D01*
X109238300Y-81882174D01*
X109237897Y-81884084D01*
X109103341Y-82498371D01*
X109102907Y-82500280D01*
X108958904Y-83111377D01*
X108958439Y-83113284D01*
X108805404Y-83719553D01*
X108804907Y-83721458D01*
X108642594Y-84324010D01*
X108642065Y-84325912D01*
X108470888Y-84923332D01*
X108470328Y-84925231D01*
X108290022Y-85518566D01*
X108289429Y-85520461D01*
X108100450Y-86108330D01*
X108099826Y-86110221D01*
X107901896Y-86693601D01*
X107901238Y-86695488D01*
X107694822Y-87273117D01*
X107694133Y-87274999D01*
X107478989Y-87847673D01*
X107478266Y-87849550D01*
X107254804Y-88416271D01*
X107254049Y-88418141D01*
X107022150Y-88979334D01*
X107021361Y-88981199D01*
X106781315Y-89536247D01*
X106780494Y-89538105D01*
X106532243Y-90087262D01*
X106531388Y-90089113D01*
X106275204Y-90631856D01*
X106274315Y-90633699D01*
X106010333Y-91169865D01*
X106009411Y-91171700D01*
X105737588Y-91701463D01*
X105736631Y-91703290D01*
X105457339Y-92226022D01*
X105456348Y-92227840D01*
X105170319Y-92742325D01*
X105168769Y-92745032D01*
X104572501Y-93756751D01*
X104570312Y-93760326D01*
X103946845Y-94740844D01*
X103944516Y-94744372D01*
X103294260Y-95693896D01*
X103291789Y-95697375D01*
X102615925Y-96614907D01*
X102613311Y-96618329D01*
X101913197Y-97502737D01*
X101910439Y-97506099D01*
X101187258Y-98356580D01*
X101184354Y-98359875D01*
X100439563Y-99175399D01*
X100436513Y-99178620D01*
X99671346Y-99958505D01*
X99668151Y-99961647D01*
X98883907Y-100705214D01*
X98880564Y-100708269D01*
X98078533Y-101414920D01*
X98075045Y-101417880D01*
X97256485Y-102087111D01*
X97252853Y-102089970D01*
X96418949Y-102721387D01*
X96415182Y-102724128D01*
X96060021Y-102972579D01*
X95567199Y-103317331D01*
X95563284Y-103319960D01*
X94702226Y-103874770D01*
X94698174Y-103877272D01*
X93825201Y-104393430D01*
X93821016Y-104395796D01*
X92937100Y-104873192D01*
X92932789Y-104875413D01*
X92038861Y-105313966D01*
X92034429Y-105316033D01*
X91131374Y-105715695D01*
X91126830Y-105717599D01*
X90215482Y-106078348D01*
X90210833Y-106080081D01*
X89291926Y-106401932D01*
X89287183Y-106403487D01*
X88361301Y-106686494D01*
X88356473Y-106687863D01*
X87424366Y-106932010D01*
X87419467Y-106933188D01*
X86481556Y-107138535D01*
X86476598Y-107139515D01*
X85533441Y-107306052D01*
X85528437Y-107306831D01*
X84580410Y-107434564D01*
X84575373Y-107435138D01*
X83622871Y-107524023D01*
X83617818Y-107524390D01*
X82660102Y-107574414D01*
X82655677Y-107574566D01*
X81937395Y-107586400D01*
X81934219Y-107586412D01*
X81454735Y-107582031D01*
X81452187Y-107581981D01*
X81241459Y-107575722D01*
X81175033Y-107554056D01*
X81130866Y-107499917D01*
X81121140Y-107451777D01*
X81121140Y-104020854D01*
X78369161Y-104020854D01*
X78369161Y-107171502D01*
X78363960Y-107189213D01*
X78363768Y-107207675D01*
X78354319Y-107222045D01*
X78349476Y-107238541D01*
X78335526Y-107250628D01*
X78325383Y-107266056D01*
X78309665Y-107273036D01*
X78296672Y-107284296D01*
X78278400Y-107286923D01*
X78261528Y-107294417D01*
X78228666Y-107294074D01*
X78227514Y-107294240D01*
X78226236Y-107294049D01*
X78099125Y-107274419D01*
X78096608Y-107274004D01*
X77622748Y-107190812D01*
X77620245Y-107190346D01*
X77148790Y-107097559D01*
X77146300Y-107097043D01*
X76674735Y-106994148D01*
X76672261Y-106993581D01*
X76203256Y-106881139D01*
X76200799Y-106880523D01*
X75731843Y-106757912D01*
X75729404Y-106757248D01*
X75263150Y-106625133D01*
X75260732Y-106624421D01*
X74794717Y-106482078D01*
X74792320Y-106481319D01*
X74329187Y-106329525D01*
X74326813Y-106328721D01*
X73863996Y-106166599D01*
X73861687Y-106165764D01*
X73627382Y-106078348D01*
X73401918Y-105994230D01*
X73399595Y-105993336D01*
X72940545Y-105811489D01*
X72938247Y-105810552D01*
X72482383Y-105619328D01*
X72480113Y-105618349D01*
X72025124Y-105416732D01*
X72022883Y-105415712D01*
X71571407Y-105204831D01*
X71569196Y-105203772D01*
X71118715Y-104982401D01*
X71116534Y-104981302D01*
X70669790Y-104750738D01*
X70667641Y-104749602D01*
X70222312Y-104508597D01*
X70220195Y-104507425D01*
X69778751Y-104257264D01*
X69776667Y-104256056D01*
X69336891Y-103995427D01*
X69334840Y-103994185D01*
X68899216Y-103724503D01*
X68897200Y-103723228D01*
X68463548Y-103443087D01*
X68461567Y-103441780D01*
X68032310Y-103152683D01*
X68030363Y-103151344D01*
X67603534Y-102851908D01*
X67601624Y-102850541D01*
X67179318Y-102542176D01*
X67177442Y-102540779D01*
X66757865Y-102222106D01*
X66756026Y-102220682D01*
X66349470Y-101899698D01*
X66341308Y-101893253D01*
X66339531Y-101891824D01*
X66318667Y-101874710D01*
X65927964Y-101554228D01*
X65926201Y-101552755D01*
X65915644Y-101543763D01*
X65519638Y-101206446D01*
X65517909Y-101204945D01*
X65457195Y-101151263D01*
X77415500Y-101151263D01*
X77415500Y-101348736D01*
X77446389Y-101543763D01*
X77507408Y-101731558D01*
X77507409Y-101731561D01*
X77597056Y-101907501D01*
X77597058Y-101907504D01*
X77713115Y-102067246D01*
X77852753Y-102206884D01*
X78002234Y-102315486D01*
X78012499Y-102322944D01*
X78188439Y-102412591D01*
X78313637Y-102453270D01*
X78376236Y-102473610D01*
X78571264Y-102504500D01*
X78571269Y-102504500D01*
X78768736Y-102504500D01*
X78963763Y-102473610D01*
X79151561Y-102412591D01*
X79327501Y-102322944D01*
X79466294Y-102222106D01*
X79487246Y-102206884D01*
X79487248Y-102206881D01*
X79487252Y-102206879D01*
X79626879Y-102067252D01*
X79626881Y-102067248D01*
X79626884Y-102067246D01*
X79683737Y-101988993D01*
X79742944Y-101907501D01*
X79832591Y-101731561D01*
X79893610Y-101543763D01*
X79914017Y-101414920D01*
X79924500Y-101348736D01*
X79924500Y-101151263D01*
X83915500Y-101151263D01*
X83915500Y-101348736D01*
X83946389Y-101543763D01*
X84007408Y-101731558D01*
X84007409Y-101731561D01*
X84097056Y-101907501D01*
X84097058Y-101907504D01*
X84213115Y-102067246D01*
X84352753Y-102206884D01*
X84502234Y-102315486D01*
X84512499Y-102322944D01*
X84688439Y-102412591D01*
X84813637Y-102453270D01*
X84876236Y-102473610D01*
X85071264Y-102504500D01*
X85071269Y-102504500D01*
X85268736Y-102504500D01*
X85463763Y-102473610D01*
X85651561Y-102412591D01*
X85827501Y-102322944D01*
X85966294Y-102222106D01*
X85987246Y-102206884D01*
X85987248Y-102206881D01*
X85987252Y-102206879D01*
X86126879Y-102067252D01*
X86126881Y-102067248D01*
X86126884Y-102067246D01*
X86183737Y-101988993D01*
X86242944Y-101907501D01*
X86332591Y-101731561D01*
X86393610Y-101543763D01*
X86414017Y-101414920D01*
X86424500Y-101348736D01*
X86424500Y-101151263D01*
X86393610Y-100956236D01*
X86358167Y-100847155D01*
X86332591Y-100768439D01*
X86242944Y-100592499D01*
X86222307Y-100564094D01*
X86126884Y-100432753D01*
X85987246Y-100293115D01*
X85827504Y-100177058D01*
X85827503Y-100177057D01*
X85827501Y-100177056D01*
X85651561Y-100087409D01*
X85651558Y-100087408D01*
X85463763Y-100026389D01*
X85268736Y-99995500D01*
X85268731Y-99995500D01*
X85071269Y-99995500D01*
X85071264Y-99995500D01*
X84876236Y-100026389D01*
X84688441Y-100087408D01*
X84512495Y-100177058D01*
X84352753Y-100293115D01*
X84213115Y-100432753D01*
X84097058Y-100592495D01*
X84007408Y-100768441D01*
X83946389Y-100956236D01*
X83915500Y-101151263D01*
X79924500Y-101151263D01*
X79893610Y-100956236D01*
X79858167Y-100847155D01*
X79832591Y-100768439D01*
X79742944Y-100592499D01*
X79722307Y-100564094D01*
X79626884Y-100432753D01*
X79487246Y-100293115D01*
X79327504Y-100177058D01*
X79327503Y-100177057D01*
X79327501Y-100177056D01*
X79151561Y-100087409D01*
X79151558Y-100087408D01*
X78963763Y-100026389D01*
X78768736Y-99995500D01*
X78768731Y-99995500D01*
X78571269Y-99995500D01*
X78571264Y-99995500D01*
X78376236Y-100026389D01*
X78188441Y-100087408D01*
X78012495Y-100177058D01*
X77852753Y-100293115D01*
X77713115Y-100432753D01*
X77597058Y-100592495D01*
X77507408Y-100768441D01*
X77446389Y-100956236D01*
X77415500Y-101151263D01*
X65457195Y-101151263D01*
X65114973Y-100848679D01*
X65113281Y-100847155D01*
X64715558Y-100482267D01*
X64713903Y-100480720D01*
X64516769Y-100293115D01*
X64320204Y-100106052D01*
X64318634Y-100104530D01*
X63930334Y-99721308D01*
X63928753Y-99719719D01*
X63545013Y-99327053D01*
X63543468Y-99325444D01*
X63165359Y-98924356D01*
X63163852Y-98922729D01*
X62790643Y-98512372D01*
X62789173Y-98510726D01*
X62541252Y-98228185D01*
X62541250Y-98228183D01*
X62473755Y-98151263D01*
X64415500Y-98151263D01*
X64415500Y-98348736D01*
X64446389Y-98543763D01*
X64505466Y-98725580D01*
X64507409Y-98731561D01*
X64584176Y-98882222D01*
X64597058Y-98907504D01*
X64713115Y-99067246D01*
X64852753Y-99206884D01*
X64984608Y-99302680D01*
X65012499Y-99322944D01*
X65188439Y-99412591D01*
X65313637Y-99453270D01*
X65376236Y-99473610D01*
X65571264Y-99504500D01*
X65571269Y-99504500D01*
X65768736Y-99504500D01*
X65963763Y-99473610D01*
X66151561Y-99412591D01*
X66327501Y-99322944D01*
X66417192Y-99257779D01*
X66487246Y-99206884D01*
X66487248Y-99206881D01*
X66487252Y-99206879D01*
X66626879Y-99067252D01*
X66626881Y-99067248D01*
X66626884Y-99067246D01*
X66718487Y-98941163D01*
X66742944Y-98907501D01*
X66832591Y-98731561D01*
X66893610Y-98543763D01*
X66924500Y-98348736D01*
X66924500Y-98151263D01*
X70915500Y-98151263D01*
X70915500Y-98348736D01*
X70946389Y-98543763D01*
X71005466Y-98725580D01*
X71007409Y-98731561D01*
X71084176Y-98882222D01*
X71097058Y-98907504D01*
X71213115Y-99067246D01*
X71352753Y-99206884D01*
X71484608Y-99302680D01*
X71512499Y-99322944D01*
X71688439Y-99412591D01*
X71813637Y-99453270D01*
X71876236Y-99473610D01*
X72071264Y-99504500D01*
X72071269Y-99504500D01*
X72268736Y-99504500D01*
X72463763Y-99473610D01*
X72651561Y-99412591D01*
X72827501Y-99322944D01*
X72917192Y-99257779D01*
X72987246Y-99206884D01*
X72987248Y-99206881D01*
X72987252Y-99206879D01*
X73126879Y-99067252D01*
X73126881Y-99067248D01*
X73126884Y-99067246D01*
X73218487Y-98941163D01*
X73242944Y-98907501D01*
X73332591Y-98731561D01*
X73393610Y-98543763D01*
X73424500Y-98348736D01*
X73424500Y-98151263D01*
X90415500Y-98151263D01*
X90415500Y-98348736D01*
X90446389Y-98543763D01*
X90505466Y-98725580D01*
X90507409Y-98731561D01*
X90584176Y-98882222D01*
X90597058Y-98907504D01*
X90713115Y-99067246D01*
X90852753Y-99206884D01*
X90984608Y-99302680D01*
X91012499Y-99322944D01*
X91188439Y-99412591D01*
X91313637Y-99453270D01*
X91376236Y-99473610D01*
X91571264Y-99504500D01*
X91571269Y-99504500D01*
X91768736Y-99504500D01*
X91963763Y-99473610D01*
X92151561Y-99412591D01*
X92327501Y-99322944D01*
X92417192Y-99257779D01*
X92487246Y-99206884D01*
X92487248Y-99206881D01*
X92487252Y-99206879D01*
X92626879Y-99067252D01*
X92626881Y-99067248D01*
X92626884Y-99067246D01*
X92718487Y-98941163D01*
X92742944Y-98907501D01*
X92832591Y-98731561D01*
X92893610Y-98543763D01*
X92924500Y-98348736D01*
X92924500Y-98151263D01*
X96915500Y-98151263D01*
X96915500Y-98348736D01*
X96946389Y-98543763D01*
X97005466Y-98725580D01*
X97007409Y-98731561D01*
X97084176Y-98882222D01*
X97097058Y-98907504D01*
X97213115Y-99067246D01*
X97352753Y-99206884D01*
X97484608Y-99302680D01*
X97512499Y-99322944D01*
X97688439Y-99412591D01*
X97813637Y-99453270D01*
X97876236Y-99473610D01*
X98071264Y-99504500D01*
X98071269Y-99504500D01*
X98268736Y-99504500D01*
X98463763Y-99473610D01*
X98651561Y-99412591D01*
X98827501Y-99322944D01*
X98917192Y-99257779D01*
X98987246Y-99206884D01*
X98987248Y-99206881D01*
X98987252Y-99206879D01*
X99126879Y-99067252D01*
X99126881Y-99067248D01*
X99126884Y-99067246D01*
X99218487Y-98941163D01*
X99242944Y-98907501D01*
X99332591Y-98731561D01*
X99393610Y-98543763D01*
X99424500Y-98348736D01*
X99424500Y-98151263D01*
X99393610Y-97956236D01*
X99362843Y-97861546D01*
X99332591Y-97768439D01*
X99242944Y-97592499D01*
X99235486Y-97582234D01*
X99126884Y-97432753D01*
X98987246Y-97293115D01*
X98827504Y-97177058D01*
X98827503Y-97177057D01*
X98827501Y-97177056D01*
X98651561Y-97087409D01*
X98651558Y-97087408D01*
X98463763Y-97026389D01*
X98268736Y-96995500D01*
X98268731Y-96995500D01*
X98071269Y-96995500D01*
X98071264Y-96995500D01*
X97876236Y-97026389D01*
X97688441Y-97087408D01*
X97512495Y-97177058D01*
X97352753Y-97293115D01*
X97213115Y-97432753D01*
X97097058Y-97592495D01*
X97007408Y-97768441D01*
X96946389Y-97956236D01*
X96915500Y-98151263D01*
X92924500Y-98151263D01*
X92893610Y-97956236D01*
X92862843Y-97861546D01*
X92832591Y-97768439D01*
X92742944Y-97592499D01*
X92735486Y-97582234D01*
X92626884Y-97432753D01*
X92487246Y-97293115D01*
X92327504Y-97177058D01*
X92327503Y-97177057D01*
X92327501Y-97177056D01*
X92151561Y-97087409D01*
X92151558Y-97087408D01*
X91963763Y-97026389D01*
X91768736Y-96995500D01*
X91768731Y-96995500D01*
X91571269Y-96995500D01*
X91571264Y-96995500D01*
X91376236Y-97026389D01*
X91188441Y-97087408D01*
X91012495Y-97177058D01*
X90852753Y-97293115D01*
X90713115Y-97432753D01*
X90597058Y-97592495D01*
X90507408Y-97768441D01*
X90446389Y-97956236D01*
X90415500Y-98151263D01*
X73424500Y-98151263D01*
X73393610Y-97956236D01*
X73362843Y-97861546D01*
X73332591Y-97768439D01*
X73242944Y-97592499D01*
X73235486Y-97582234D01*
X73126884Y-97432753D01*
X72987246Y-97293115D01*
X72827504Y-97177058D01*
X72827503Y-97177057D01*
X72827501Y-97177056D01*
X72651561Y-97087409D01*
X72651558Y-97087408D01*
X72463763Y-97026389D01*
X72268736Y-96995500D01*
X72268731Y-96995500D01*
X72071269Y-96995500D01*
X72071264Y-96995500D01*
X71876236Y-97026389D01*
X71688441Y-97087408D01*
X71512495Y-97177058D01*
X71352753Y-97293115D01*
X71213115Y-97432753D01*
X71097058Y-97592495D01*
X71007408Y-97768441D01*
X70946389Y-97956236D01*
X70915500Y-98151263D01*
X66924500Y-98151263D01*
X66893610Y-97956236D01*
X66862843Y-97861546D01*
X66832591Y-97768439D01*
X66742944Y-97592499D01*
X66735486Y-97582234D01*
X66626884Y-97432753D01*
X66487246Y-97293115D01*
X66327504Y-97177058D01*
X66327503Y-97177057D01*
X66327501Y-97177056D01*
X66151561Y-97087409D01*
X66151558Y-97087408D01*
X65963763Y-97026389D01*
X65768736Y-96995500D01*
X65768731Y-96995500D01*
X65571269Y-96995500D01*
X65571264Y-96995500D01*
X65376236Y-97026389D01*
X65188441Y-97087408D01*
X65012495Y-97177058D01*
X64852753Y-97293115D01*
X64713115Y-97432753D01*
X64597058Y-97592495D01*
X64507408Y-97768441D01*
X64446389Y-97956236D01*
X64415500Y-98151263D01*
X62473755Y-98151263D01*
X62421795Y-98092047D01*
X62420439Y-98090473D01*
X62147809Y-97768441D01*
X62058410Y-97662842D01*
X62057013Y-97661162D01*
X61849826Y-97407501D01*
X61701194Y-97225530D01*
X61699899Y-97223917D01*
X61483816Y-96949690D01*
X61349674Y-96779452D01*
X61348350Y-96777741D01*
X61305551Y-96721432D01*
X61252218Y-96651263D01*
X77415500Y-96651263D01*
X77415500Y-96848736D01*
X77446389Y-97043763D01*
X77489699Y-97177056D01*
X77507409Y-97231561D01*
X77538773Y-97293115D01*
X77597058Y-97407504D01*
X77713115Y-97567246D01*
X77852753Y-97706884D01*
X77937481Y-97768441D01*
X78012499Y-97822944D01*
X78188439Y-97912591D01*
X78313637Y-97953270D01*
X78376236Y-97973610D01*
X78571264Y-98004500D01*
X78571269Y-98004500D01*
X78768736Y-98004500D01*
X78963763Y-97973610D01*
X79151561Y-97912591D01*
X79327501Y-97822944D01*
X79432955Y-97746328D01*
X79487246Y-97706884D01*
X79487248Y-97706881D01*
X79487252Y-97706879D01*
X79626879Y-97567252D01*
X79626881Y-97567248D01*
X79626884Y-97567246D01*
X79724601Y-97432748D01*
X79742944Y-97407501D01*
X79832591Y-97231561D01*
X79893610Y-97043763D01*
X79901254Y-96995500D01*
X79924500Y-96848736D01*
X79924500Y-96651263D01*
X79893610Y-96456236D01*
X79873270Y-96393637D01*
X79832591Y-96268439D01*
X79742944Y-96092499D01*
X79728164Y-96072156D01*
X79688596Y-96017694D01*
X79688593Y-96017691D01*
X79687431Y-96016091D01*
X79638058Y-95948135D01*
X83915500Y-95948135D01*
X83915500Y-97551870D01*
X83915501Y-97551876D01*
X83921908Y-97611483D01*
X83972202Y-97746328D01*
X83972206Y-97746335D01*
X84058452Y-97861544D01*
X84058455Y-97861547D01*
X84173664Y-97947793D01*
X84173671Y-97947797D01*
X84308517Y-97998091D01*
X84308516Y-97998091D01*
X84315444Y-97998835D01*
X84368127Y-98004500D01*
X85971872Y-98004499D01*
X86031483Y-97998091D01*
X86166331Y-97947796D01*
X86281546Y-97861546D01*
X86367796Y-97746331D01*
X86418091Y-97611483D01*
X86424500Y-97551873D01*
X86424499Y-95948128D01*
X86418091Y-95888517D01*
X86408288Y-95862235D01*
X86367797Y-95753671D01*
X86367793Y-95753664D01*
X86281547Y-95638455D01*
X86281544Y-95638452D01*
X86166335Y-95552206D01*
X86166328Y-95552202D01*
X86031482Y-95501908D01*
X86031483Y-95501908D01*
X85971883Y-95495501D01*
X85971881Y-95495500D01*
X85971873Y-95495500D01*
X85971864Y-95495500D01*
X84368129Y-95495500D01*
X84368123Y-95495501D01*
X84308516Y-95501908D01*
X84173671Y-95552202D01*
X84173664Y-95552206D01*
X84058455Y-95638452D01*
X84058452Y-95638455D01*
X83972206Y-95753664D01*
X83972202Y-95753671D01*
X83921908Y-95888517D01*
X83917153Y-95932748D01*
X83915501Y-95948123D01*
X83915500Y-95948135D01*
X79638058Y-95948135D01*
X79626879Y-95932748D01*
X79487252Y-95793121D01*
X79487246Y-95793115D01*
X79327504Y-95677058D01*
X79327503Y-95677057D01*
X79327501Y-95677056D01*
X79151561Y-95587409D01*
X79151558Y-95587408D01*
X78963763Y-95526389D01*
X78768736Y-95495500D01*
X78768731Y-95495500D01*
X78571269Y-95495500D01*
X78571264Y-95495500D01*
X78376236Y-95526389D01*
X78188441Y-95587408D01*
X78012495Y-95677058D01*
X77852753Y-95793115D01*
X77713115Y-95932753D01*
X77597058Y-96092495D01*
X77507408Y-96268441D01*
X77446389Y-96456236D01*
X77415500Y-96651263D01*
X61252218Y-96651263D01*
X61004652Y-96325548D01*
X61003364Y-96323823D01*
X60665615Y-95863068D01*
X60664364Y-95861329D01*
X60333385Y-95393051D01*
X60332169Y-95391299D01*
X60256910Y-95280839D01*
X60007531Y-94914819D01*
X60006452Y-94913204D01*
X59688735Y-94429281D01*
X59687591Y-94427505D01*
X59563667Y-94231558D01*
X59376720Y-93935958D01*
X59375652Y-93934237D01*
X59239646Y-93710889D01*
X59203337Y-93651263D01*
X64415500Y-93651263D01*
X64415500Y-93848736D01*
X64446389Y-94043763D01*
X64466543Y-94105789D01*
X64507409Y-94231561D01*
X64517847Y-94252046D01*
X64597058Y-94407504D01*
X64713115Y-94567246D01*
X64852753Y-94706884D01*
X64960642Y-94785268D01*
X65012499Y-94822944D01*
X65188439Y-94912591D01*
X65313637Y-94953270D01*
X65376236Y-94973610D01*
X65571264Y-95004500D01*
X65571269Y-95004500D01*
X65768736Y-95004500D01*
X65963763Y-94973610D01*
X66151561Y-94912591D01*
X66327501Y-94822944D01*
X66440503Y-94740844D01*
X66487246Y-94706884D01*
X66487248Y-94706881D01*
X66487252Y-94706879D01*
X66626879Y-94567252D01*
X66626881Y-94567248D01*
X66626884Y-94567246D01*
X66677779Y-94497192D01*
X66742944Y-94407501D01*
X66832591Y-94231561D01*
X66893610Y-94043763D01*
X66894451Y-94038452D01*
X66924500Y-93848736D01*
X66924500Y-93651263D01*
X66893610Y-93456236D01*
X66873270Y-93393637D01*
X66832591Y-93268439D01*
X66742944Y-93092499D01*
X66729184Y-93073560D01*
X66688596Y-93017694D01*
X66688593Y-93017691D01*
X66638058Y-92948135D01*
X70915500Y-92948135D01*
X70915500Y-94551870D01*
X70915501Y-94551876D01*
X70921908Y-94611483D01*
X70972202Y-94746328D01*
X70972206Y-94746335D01*
X71058452Y-94861544D01*
X71058455Y-94861547D01*
X71173664Y-94947793D01*
X71173671Y-94947797D01*
X71308517Y-94998091D01*
X71308516Y-94998091D01*
X71315444Y-94998835D01*
X71368127Y-95004500D01*
X72971872Y-95004499D01*
X73031483Y-94998091D01*
X73166331Y-94947796D01*
X73281546Y-94861546D01*
X73367796Y-94746331D01*
X73418091Y-94611483D01*
X73424500Y-94551873D01*
X73424499Y-93651263D01*
X90415500Y-93651263D01*
X90415500Y-93848736D01*
X90446389Y-94043763D01*
X90466543Y-94105789D01*
X90507409Y-94231561D01*
X90517847Y-94252046D01*
X90597058Y-94407504D01*
X90713115Y-94567246D01*
X90852753Y-94706884D01*
X90960642Y-94785268D01*
X91012499Y-94822944D01*
X91188439Y-94912591D01*
X91313637Y-94953270D01*
X91376236Y-94973610D01*
X91571264Y-95004500D01*
X91571269Y-95004500D01*
X91768736Y-95004500D01*
X91963763Y-94973610D01*
X92151561Y-94912591D01*
X92327501Y-94822944D01*
X92440503Y-94740844D01*
X92487246Y-94706884D01*
X92487248Y-94706881D01*
X92487252Y-94706879D01*
X92626879Y-94567252D01*
X92626881Y-94567248D01*
X92626884Y-94567246D01*
X92677779Y-94497192D01*
X92742944Y-94407501D01*
X92832591Y-94231561D01*
X92893610Y-94043763D01*
X92894451Y-94038452D01*
X92924500Y-93848736D01*
X92924500Y-93651263D01*
X92893610Y-93456236D01*
X92873270Y-93393637D01*
X92832591Y-93268439D01*
X92742944Y-93092499D01*
X92729184Y-93073560D01*
X92688596Y-93017694D01*
X92688593Y-93017691D01*
X92638058Y-92948135D01*
X96915500Y-92948135D01*
X96915500Y-94551870D01*
X96915501Y-94551876D01*
X96921908Y-94611483D01*
X96972202Y-94746328D01*
X96972206Y-94746335D01*
X97058452Y-94861544D01*
X97058455Y-94861547D01*
X97173664Y-94947793D01*
X97173671Y-94947797D01*
X97308517Y-94998091D01*
X97308516Y-94998091D01*
X97315444Y-94998835D01*
X97368127Y-95004500D01*
X98971872Y-95004499D01*
X99031483Y-94998091D01*
X99166331Y-94947796D01*
X99281546Y-94861546D01*
X99367796Y-94746331D01*
X99418091Y-94611483D01*
X99424500Y-94551873D01*
X99424499Y-92948128D01*
X99418091Y-92888517D01*
X99382508Y-92793115D01*
X99367797Y-92753671D01*
X99367793Y-92753664D01*
X99281547Y-92638455D01*
X99281544Y-92638452D01*
X99166335Y-92552206D01*
X99166328Y-92552202D01*
X99031482Y-92501908D01*
X99031483Y-92501908D01*
X98971883Y-92495501D01*
X98971881Y-92495500D01*
X98971873Y-92495500D01*
X98971864Y-92495500D01*
X97368129Y-92495500D01*
X97368123Y-92495501D01*
X97308516Y-92501908D01*
X97173671Y-92552202D01*
X97173664Y-92552206D01*
X97058455Y-92638452D01*
X97058452Y-92638455D01*
X96972206Y-92753664D01*
X96972202Y-92753671D01*
X96921908Y-92888517D01*
X96917153Y-92932748D01*
X96915501Y-92948123D01*
X96915500Y-92948135D01*
X92638058Y-92948135D01*
X92638052Y-92948127D01*
X92626879Y-92932748D01*
X92487252Y-92793121D01*
X92487246Y-92793115D01*
X92327504Y-92677058D01*
X92327503Y-92677057D01*
X92327501Y-92677056D01*
X92151561Y-92587409D01*
X92151558Y-92587408D01*
X91963763Y-92526389D01*
X91768736Y-92495500D01*
X91768731Y-92495500D01*
X91571269Y-92495500D01*
X91571264Y-92495500D01*
X91376236Y-92526389D01*
X91188441Y-92587408D01*
X91012495Y-92677058D01*
X90852753Y-92793115D01*
X90713115Y-92932753D01*
X90597058Y-93092495D01*
X90507408Y-93268441D01*
X90446389Y-93456236D01*
X90415500Y-93651263D01*
X73424499Y-93651263D01*
X73424499Y-92948128D01*
X73418091Y-92888517D01*
X73382508Y-92793115D01*
X73367797Y-92753671D01*
X73367793Y-92753664D01*
X73281547Y-92638455D01*
X73281544Y-92638452D01*
X73166335Y-92552206D01*
X73166328Y-92552202D01*
X73031482Y-92501908D01*
X73031483Y-92501908D01*
X72971883Y-92495501D01*
X72971881Y-92495500D01*
X72971873Y-92495500D01*
X72971864Y-92495500D01*
X71368129Y-92495500D01*
X71368123Y-92495501D01*
X71308516Y-92501908D01*
X71173671Y-92552202D01*
X71173664Y-92552206D01*
X71058455Y-92638452D01*
X71058452Y-92638455D01*
X70972206Y-92753664D01*
X70972202Y-92753671D01*
X70921908Y-92888517D01*
X70917153Y-92932748D01*
X70915501Y-92948123D01*
X70915500Y-92948135D01*
X66638058Y-92948135D01*
X66638052Y-92948127D01*
X66626879Y-92932748D01*
X66487252Y-92793121D01*
X66487246Y-92793115D01*
X66327504Y-92677058D01*
X66327503Y-92677057D01*
X66327501Y-92677056D01*
X66151561Y-92587409D01*
X66151558Y-92587408D01*
X65963763Y-92526389D01*
X65768736Y-92495500D01*
X65768731Y-92495500D01*
X65571269Y-92495500D01*
X65571264Y-92495500D01*
X65376236Y-92526389D01*
X65188441Y-92587408D01*
X65012495Y-92677058D01*
X64852753Y-92793115D01*
X64713115Y-92932753D01*
X64597058Y-93092495D01*
X64507408Y-93268441D01*
X64446389Y-93456236D01*
X64415500Y-93651263D01*
X59203337Y-93651263D01*
X59071903Y-93435422D01*
X59070829Y-93433625D01*
X58929041Y-93191677D01*
X58774182Y-92927423D01*
X58773201Y-92925716D01*
X58483915Y-92412486D01*
X58482934Y-92410711D01*
X58201148Y-91890624D01*
X58200233Y-91888900D01*
X57926016Y-91362001D01*
X57925081Y-91360168D01*
X57658646Y-90826783D01*
X57657745Y-90824941D01*
X57593344Y-90690499D01*
X57399079Y-90284957D01*
X57398225Y-90283135D01*
X57377457Y-90237883D01*
X57177256Y-89801650D01*
X57147679Y-89737202D01*
X57146845Y-89735347D01*
X56946296Y-89278747D01*
X56946295Y-89278743D01*
X56926534Y-89233753D01*
X71680000Y-89233753D01*
X71680000Y-89446246D01*
X71713242Y-89656127D01*
X71713242Y-89656130D01*
X71778904Y-89858217D01*
X71875375Y-90047550D01*
X71914728Y-90101716D01*
X72547037Y-89469408D01*
X72564075Y-89532993D01*
X72629901Y-89647007D01*
X72722993Y-89740099D01*
X72837007Y-89805925D01*
X72900590Y-89822962D01*
X72268282Y-90455269D01*
X72268282Y-90455270D01*
X72322449Y-90494624D01*
X72511782Y-90591095D01*
X72713870Y-90656757D01*
X72923754Y-90690000D01*
X73136246Y-90690000D01*
X73346127Y-90656757D01*
X73346130Y-90656757D01*
X73548217Y-90591095D01*
X73737554Y-90494622D01*
X73791716Y-90455270D01*
X73791717Y-90455270D01*
X73159408Y-89822962D01*
X73222993Y-89805925D01*
X73337007Y-89740099D01*
X73430099Y-89647007D01*
X73495925Y-89532993D01*
X73512962Y-89469408D01*
X74145270Y-90101717D01*
X74145270Y-90101716D01*
X74184622Y-90047555D01*
X74189232Y-90038507D01*
X74237205Y-89987709D01*
X74305025Y-89970912D01*
X74371161Y-89993447D01*
X74410204Y-90038504D01*
X74414949Y-90047817D01*
X74539890Y-90219786D01*
X74690213Y-90370109D01*
X74862179Y-90495048D01*
X74862181Y-90495049D01*
X74862184Y-90495051D01*
X75051588Y-90591557D01*
X75253757Y-90657246D01*
X75463713Y-90690500D01*
X75463714Y-90690500D01*
X75676286Y-90690500D01*
X75676287Y-90690500D01*
X75886243Y-90657246D01*
X76088412Y-90591557D01*
X76277816Y-90495051D01*
X76364138Y-90432335D01*
X76449786Y-90370109D01*
X76449788Y-90370106D01*
X76449792Y-90370104D01*
X76600104Y-90219792D01*
X76600106Y-90219788D01*
X76600109Y-90219786D01*
X76725048Y-90047820D01*
X76725050Y-90047817D01*
X76725051Y-90047816D01*
X76729514Y-90039054D01*
X76777488Y-89988259D01*
X76845308Y-89971463D01*
X76911444Y-89993999D01*
X76950486Y-90039056D01*
X76954951Y-90047820D01*
X77079890Y-90219786D01*
X77230213Y-90370109D01*
X77402179Y-90495048D01*
X77402181Y-90495049D01*
X77402184Y-90495051D01*
X77591588Y-90591557D01*
X77793757Y-90657246D01*
X78003713Y-90690500D01*
X78003714Y-90690500D01*
X78216286Y-90690500D01*
X78216287Y-90690500D01*
X78426243Y-90657246D01*
X78628412Y-90591557D01*
X78817816Y-90495051D01*
X78904138Y-90432335D01*
X78989786Y-90370109D01*
X78989788Y-90370106D01*
X78989792Y-90370104D01*
X79140104Y-90219792D01*
X79140106Y-90219788D01*
X79140109Y-90219786D01*
X79265048Y-90047820D01*
X79265050Y-90047817D01*
X79265051Y-90047816D01*
X79269514Y-90039054D01*
X79317488Y-89988259D01*
X79385308Y-89971463D01*
X79451444Y-89993999D01*
X79490486Y-90039056D01*
X79494951Y-90047820D01*
X79619890Y-90219786D01*
X79770213Y-90370109D01*
X79942179Y-90495048D01*
X79942181Y-90495049D01*
X79942184Y-90495051D01*
X80131588Y-90591557D01*
X80333757Y-90657246D01*
X80543713Y-90690500D01*
X80543714Y-90690500D01*
X80756286Y-90690500D01*
X80756287Y-90690500D01*
X80966243Y-90657246D01*
X81168412Y-90591557D01*
X81357816Y-90495051D01*
X81444138Y-90432335D01*
X81529786Y-90370109D01*
X81529788Y-90370106D01*
X81529792Y-90370104D01*
X81680104Y-90219792D01*
X81680106Y-90219788D01*
X81680109Y-90219786D01*
X81805048Y-90047820D01*
X81805050Y-90047817D01*
X81805051Y-90047816D01*
X81809514Y-90039054D01*
X81857488Y-89988259D01*
X81925308Y-89971463D01*
X81991444Y-89993999D01*
X82030486Y-90039056D01*
X82034951Y-90047820D01*
X82159890Y-90219786D01*
X82310213Y-90370109D01*
X82482179Y-90495048D01*
X82482181Y-90495049D01*
X82482184Y-90495051D01*
X82671588Y-90591557D01*
X82873757Y-90657246D01*
X83083713Y-90690500D01*
X83083714Y-90690500D01*
X83296286Y-90690500D01*
X83296287Y-90690500D01*
X83506243Y-90657246D01*
X83708412Y-90591557D01*
X83897816Y-90495051D01*
X83984138Y-90432335D01*
X84069786Y-90370109D01*
X84069788Y-90370106D01*
X84069792Y-90370104D01*
X84220104Y-90219792D01*
X84220106Y-90219788D01*
X84220109Y-90219786D01*
X84345048Y-90047820D01*
X84345050Y-90047817D01*
X84345051Y-90047816D01*
X84349514Y-90039054D01*
X84397488Y-89988259D01*
X84465308Y-89971463D01*
X84531444Y-89993999D01*
X84570486Y-90039056D01*
X84574951Y-90047820D01*
X84699890Y-90219786D01*
X84850213Y-90370109D01*
X85022179Y-90495048D01*
X85022181Y-90495049D01*
X85022184Y-90495051D01*
X85211588Y-90591557D01*
X85413757Y-90657246D01*
X85623713Y-90690500D01*
X85623714Y-90690500D01*
X85836286Y-90690500D01*
X85836287Y-90690500D01*
X86046243Y-90657246D01*
X86248412Y-90591557D01*
X86437816Y-90495051D01*
X86524138Y-90432335D01*
X86609786Y-90370109D01*
X86609788Y-90370106D01*
X86609792Y-90370104D01*
X86760104Y-90219792D01*
X86760106Y-90219788D01*
X86760109Y-90219786D01*
X86885048Y-90047820D01*
X86885050Y-90047817D01*
X86885051Y-90047816D01*
X86889514Y-90039054D01*
X86937488Y-89988259D01*
X87005308Y-89971463D01*
X87071444Y-89993999D01*
X87110486Y-90039056D01*
X87114951Y-90047820D01*
X87239890Y-90219786D01*
X87390213Y-90370109D01*
X87562179Y-90495048D01*
X87562181Y-90495049D01*
X87562184Y-90495051D01*
X87751588Y-90591557D01*
X87953757Y-90657246D01*
X88163713Y-90690500D01*
X88163714Y-90690500D01*
X88376286Y-90690500D01*
X88376287Y-90690500D01*
X88586243Y-90657246D01*
X88788412Y-90591557D01*
X88977816Y-90495051D01*
X89141722Y-90375967D01*
X89149784Y-90370110D01*
X89149784Y-90370109D01*
X89149792Y-90370104D01*
X89263329Y-90256566D01*
X89324648Y-90223084D01*
X89394340Y-90228068D01*
X89450274Y-90269939D01*
X89467189Y-90300917D01*
X89516202Y-90432328D01*
X89516206Y-90432335D01*
X89602452Y-90547544D01*
X89602455Y-90547547D01*
X89717664Y-90633793D01*
X89717671Y-90633797D01*
X89852517Y-90684091D01*
X89852516Y-90684091D01*
X89859444Y-90684835D01*
X89912127Y-90690500D01*
X91707872Y-90690499D01*
X91767483Y-90684091D01*
X91902331Y-90633796D01*
X92017546Y-90547546D01*
X92103796Y-90432331D01*
X92154091Y-90297483D01*
X92160500Y-90237873D01*
X92160499Y-88442128D01*
X92154091Y-88382517D01*
X92152810Y-88379083D01*
X92103797Y-88247671D01*
X92103793Y-88247664D01*
X92017547Y-88132455D01*
X92017544Y-88132452D01*
X91902335Y-88046206D01*
X91902328Y-88046202D01*
X91767482Y-87995908D01*
X91767483Y-87995908D01*
X91707883Y-87989501D01*
X91707881Y-87989500D01*
X91707873Y-87989500D01*
X91707864Y-87989500D01*
X89912129Y-87989500D01*
X89912123Y-87989501D01*
X89852516Y-87995908D01*
X89717671Y-88046202D01*
X89717664Y-88046206D01*
X89602455Y-88132452D01*
X89602452Y-88132455D01*
X89516206Y-88247664D01*
X89516203Y-88247669D01*
X89467189Y-88379083D01*
X89425317Y-88435016D01*
X89359853Y-88459433D01*
X89291580Y-88444581D01*
X89263326Y-88423430D01*
X89149786Y-88309890D01*
X88977820Y-88184951D01*
X88788414Y-88088444D01*
X88788413Y-88088443D01*
X88788412Y-88088443D01*
X88586243Y-88022754D01*
X88586241Y-88022753D01*
X88586240Y-88022753D01*
X88424957Y-87997208D01*
X88376287Y-87989500D01*
X88163713Y-87989500D01*
X88115042Y-87997208D01*
X87953760Y-88022753D01*
X87751585Y-88088444D01*
X87562179Y-88184951D01*
X87390213Y-88309890D01*
X87239890Y-88460213D01*
X87114949Y-88632182D01*
X87110484Y-88640946D01*
X87062509Y-88691742D01*
X86994688Y-88708536D01*
X86928553Y-88685998D01*
X86889516Y-88640946D01*
X86885050Y-88632182D01*
X86760109Y-88460213D01*
X86609786Y-88309890D01*
X86437820Y-88184951D01*
X86248414Y-88088444D01*
X86248413Y-88088443D01*
X86248412Y-88088443D01*
X86046243Y-88022754D01*
X86046241Y-88022753D01*
X86046240Y-88022753D01*
X85884957Y-87997208D01*
X85836287Y-87989500D01*
X85623713Y-87989500D01*
X85575042Y-87997208D01*
X85413760Y-88022753D01*
X85211585Y-88088444D01*
X85022179Y-88184951D01*
X84850213Y-88309890D01*
X84699890Y-88460213D01*
X84574949Y-88632182D01*
X84570484Y-88640946D01*
X84522509Y-88691742D01*
X84454688Y-88708536D01*
X84388553Y-88685998D01*
X84349516Y-88640946D01*
X84345050Y-88632182D01*
X84220109Y-88460213D01*
X84069786Y-88309890D01*
X83897820Y-88184951D01*
X83708414Y-88088444D01*
X83708413Y-88088443D01*
X83708412Y-88088443D01*
X83506243Y-88022754D01*
X83506241Y-88022753D01*
X83506240Y-88022753D01*
X83344957Y-87997208D01*
X83296287Y-87989500D01*
X83083713Y-87989500D01*
X83035042Y-87997208D01*
X82873760Y-88022753D01*
X82671585Y-88088444D01*
X82482179Y-88184951D01*
X82310213Y-88309890D01*
X82159890Y-88460213D01*
X82034949Y-88632182D01*
X82030484Y-88640946D01*
X81982509Y-88691742D01*
X81914688Y-88708536D01*
X81848553Y-88685998D01*
X81809516Y-88640946D01*
X81805050Y-88632182D01*
X81680109Y-88460213D01*
X81529786Y-88309890D01*
X81357820Y-88184951D01*
X81168414Y-88088444D01*
X81168413Y-88088443D01*
X81168412Y-88088443D01*
X80966243Y-88022754D01*
X80966241Y-88022753D01*
X80966240Y-88022753D01*
X80804957Y-87997208D01*
X80756287Y-87989500D01*
X80543713Y-87989500D01*
X80495042Y-87997208D01*
X80333760Y-88022753D01*
X80131585Y-88088444D01*
X79942179Y-88184951D01*
X79770213Y-88309890D01*
X79619890Y-88460213D01*
X79494949Y-88632182D01*
X79490484Y-88640946D01*
X79442509Y-88691742D01*
X79374688Y-88708536D01*
X79308553Y-88685998D01*
X79269516Y-88640946D01*
X79265050Y-88632182D01*
X79140109Y-88460213D01*
X78989786Y-88309890D01*
X78817820Y-88184951D01*
X78628414Y-88088444D01*
X78628413Y-88088443D01*
X78628412Y-88088443D01*
X78426243Y-88022754D01*
X78426241Y-88022753D01*
X78426240Y-88022753D01*
X78264957Y-87997208D01*
X78216287Y-87989500D01*
X78003713Y-87989500D01*
X77955042Y-87997208D01*
X77793760Y-88022753D01*
X77591585Y-88088444D01*
X77402179Y-88184951D01*
X77230213Y-88309890D01*
X77079890Y-88460213D01*
X76954949Y-88632182D01*
X76950484Y-88640946D01*
X76902509Y-88691742D01*
X76834688Y-88708536D01*
X76768553Y-88685998D01*
X76729516Y-88640946D01*
X76725050Y-88632182D01*
X76600109Y-88460213D01*
X76449786Y-88309890D01*
X76277820Y-88184951D01*
X76088414Y-88088444D01*
X76088413Y-88088443D01*
X76088412Y-88088443D01*
X75886243Y-88022754D01*
X75886241Y-88022753D01*
X75886240Y-88022753D01*
X75724957Y-87997208D01*
X75676287Y-87989500D01*
X75463713Y-87989500D01*
X75415042Y-87997208D01*
X75253760Y-88022753D01*
X75051585Y-88088444D01*
X74862179Y-88184951D01*
X74690213Y-88309890D01*
X74539890Y-88460213D01*
X74414949Y-88632182D01*
X74410202Y-88641499D01*
X74362227Y-88692293D01*
X74294405Y-88709087D01*
X74228271Y-88686548D01*
X74189234Y-88641495D01*
X74184626Y-88632452D01*
X74145270Y-88578282D01*
X74145269Y-88578282D01*
X73512962Y-89210590D01*
X73495925Y-89147007D01*
X73430099Y-89032993D01*
X73337007Y-88939901D01*
X73222993Y-88874075D01*
X73159409Y-88857037D01*
X73791716Y-88224728D01*
X73737550Y-88185375D01*
X73548217Y-88088904D01*
X73346129Y-88023242D01*
X73136246Y-87990000D01*
X72923754Y-87990000D01*
X72713872Y-88023242D01*
X72713869Y-88023242D01*
X72511782Y-88088904D01*
X72322439Y-88185380D01*
X72268282Y-88224727D01*
X72268282Y-88224728D01*
X72900591Y-88857037D01*
X72837007Y-88874075D01*
X72722993Y-88939901D01*
X72629901Y-89032993D01*
X72564075Y-89147007D01*
X72547037Y-89210591D01*
X71914728Y-88578282D01*
X71914727Y-88578282D01*
X71875380Y-88632439D01*
X71778904Y-88821782D01*
X71713242Y-89023869D01*
X71713242Y-89023872D01*
X71680000Y-89233753D01*
X56926534Y-89233753D01*
X56904161Y-89182815D01*
X56903361Y-89180953D01*
X56903076Y-89180275D01*
X56669113Y-88623042D01*
X56668357Y-88621200D01*
X56663029Y-88607909D01*
X56442160Y-88056891D01*
X56441475Y-88055142D01*
X56223892Y-87485757D01*
X56223222Y-87483959D01*
X56013925Y-86908536D01*
X56013335Y-86906874D01*
X55812812Y-86326646D01*
X55812222Y-86324891D01*
X55620793Y-85740782D01*
X55619928Y-85738034D01*
X55262131Y-84550802D01*
X55261058Y-84547021D01*
X55254327Y-84521812D01*
X54939575Y-83343084D01*
X54938629Y-83339300D01*
X54909929Y-83216375D01*
X54653511Y-82118115D01*
X54652694Y-82114350D01*
X54638483Y-82043517D01*
X54404507Y-80877284D01*
X54403808Y-80873496D01*
X54388541Y-80782830D01*
X54193016Y-79621639D01*
X54192441Y-79617866D01*
X54177156Y-79506031D01*
X54073335Y-78746389D01*
X54064474Y-78681552D01*
X54022537Y-78374707D01*
X54021395Y-78357916D01*
X54021395Y-69168683D01*
X54686700Y-69168683D01*
X54686700Y-69405318D01*
X54723715Y-69639025D01*
X54796838Y-69864072D01*
X54904260Y-70074898D01*
X54964977Y-70158469D01*
X55512956Y-69610489D01*
X55525979Y-69641928D01*
X55607980Y-69764652D01*
X55712349Y-69869021D01*
X55835073Y-69951022D01*
X55866509Y-69964043D01*
X55318530Y-70512021D01*
X55322000Y-70556111D01*
X55307636Y-70624488D01*
X55298701Y-70638725D01*
X55197108Y-70778556D01*
X55114153Y-70941366D01*
X55057684Y-71115158D01*
X55029100Y-71295629D01*
X55029100Y-71478370D01*
X55051633Y-71620637D01*
X55057685Y-71658845D01*
X55114152Y-71832631D01*
X55197109Y-71995444D01*
X55304515Y-72143276D01*
X55433724Y-72272485D01*
X55440591Y-72277474D01*
X55453265Y-72286683D01*
X55495931Y-72342013D01*
X55501909Y-72411626D01*
X55469303Y-72473421D01*
X55453265Y-72487317D01*
X55433730Y-72501510D01*
X55433721Y-72501517D01*
X55304517Y-72630721D01*
X55197109Y-72778555D01*
X55114153Y-72941366D01*
X55057684Y-73115158D01*
X55029100Y-73295629D01*
X55029100Y-73478370D01*
X55057684Y-73658841D01*
X55057684Y-73658843D01*
X55057685Y-73658845D01*
X55114152Y-73832631D01*
X55197109Y-73995444D01*
X55304515Y-74143276D01*
X55433724Y-74272485D01*
X55453265Y-74286682D01*
X55495931Y-74342011D01*
X55501911Y-74411624D01*
X55469305Y-74473419D01*
X55453267Y-74487317D01*
X55433724Y-74501515D01*
X55304517Y-74630722D01*
X55197109Y-74778556D01*
X55114153Y-74941367D01*
X55057684Y-75115159D01*
X55029100Y-75295630D01*
X55029100Y-75478371D01*
X55057684Y-75658842D01*
X55057685Y-75658846D01*
X55114152Y-75832632D01*
X55169915Y-75942074D01*
X55197111Y-75995448D01*
X55298699Y-76135273D01*
X55322179Y-76201079D01*
X55321999Y-76217886D01*
X55318529Y-76261976D01*
X55866509Y-76809956D01*
X55835073Y-76822978D01*
X55712349Y-76904979D01*
X55607980Y-77009348D01*
X55525979Y-77132072D01*
X55512957Y-77163509D01*
X54964977Y-76615529D01*
X54964976Y-76615529D01*
X54904263Y-76699096D01*
X54796838Y-76909927D01*
X54723715Y-77134974D01*
X54686700Y-77368681D01*
X54686700Y-77605316D01*
X54723715Y-77839023D01*
X54796838Y-78064070D01*
X54904260Y-78274896D01*
X54964977Y-78358467D01*
X55512956Y-77810487D01*
X55525979Y-77841926D01*
X55607980Y-77964650D01*
X55712349Y-78069019D01*
X55835073Y-78151020D01*
X55866509Y-78164041D01*
X55318529Y-78712020D01*
X55318530Y-78712021D01*
X55402094Y-78772734D01*
X55612928Y-78880160D01*
X55837975Y-78953283D01*
X56071683Y-78990299D01*
X56308317Y-78990299D01*
X56542024Y-78953283D01*
X56767071Y-78880160D01*
X56977901Y-78772736D01*
X57061468Y-78712020D01*
X57061469Y-78712020D01*
X56513490Y-78164041D01*
X56544927Y-78151020D01*
X56667651Y-78069019D01*
X56772020Y-77964650D01*
X56854021Y-77841926D01*
X56867042Y-77810489D01*
X57415021Y-78358468D01*
X57415021Y-78358467D01*
X57475737Y-78274900D01*
X57583161Y-78064070D01*
X57656284Y-77839023D01*
X57693300Y-77605316D01*
X57693300Y-77368681D01*
X57656284Y-77134974D01*
X57583161Y-76909927D01*
X57475735Y-76699093D01*
X57415022Y-76615529D01*
X57415021Y-76615528D01*
X56867042Y-77163507D01*
X56854021Y-77132072D01*
X56772020Y-77009348D01*
X56667651Y-76904979D01*
X56544927Y-76822978D01*
X56513488Y-76809955D01*
X57061468Y-76261977D01*
X57057999Y-76217888D01*
X57063343Y-76192445D01*
X57064748Y-76167882D01*
X92325669Y-76167882D01*
X92325670Y-76167883D01*
X92351059Y-76186329D01*
X92519362Y-76272085D01*
X92698997Y-76330451D01*
X92885553Y-76360000D01*
X93074447Y-76360000D01*
X93261002Y-76330451D01*
X93440637Y-76272085D01*
X93608937Y-76186331D01*
X93634328Y-76167883D01*
X93634328Y-76167882D01*
X92980001Y-75513554D01*
X92980000Y-75513554D01*
X92325669Y-76167882D01*
X57064748Y-76167882D01*
X57064828Y-76166489D01*
X57071421Y-76153993D01*
X57072363Y-76149511D01*
X57081291Y-76135285D01*
X57182891Y-75995445D01*
X57265848Y-75832632D01*
X57322315Y-75658846D01*
X57342288Y-75532741D01*
X57350900Y-75478371D01*
X57350900Y-75295630D01*
X57329418Y-75160001D01*
X57322315Y-75115156D01*
X57271213Y-74957882D01*
X61125669Y-74957882D01*
X61125670Y-74957883D01*
X61151059Y-74976329D01*
X61319362Y-75062085D01*
X61498997Y-75120451D01*
X61685553Y-75150000D01*
X61874447Y-75150000D01*
X62061002Y-75120451D01*
X62240637Y-75062085D01*
X62408937Y-74976331D01*
X62434328Y-74957883D01*
X62434328Y-74957882D01*
X61780001Y-74303554D01*
X61780000Y-74303554D01*
X61125669Y-74957882D01*
X57271213Y-74957882D01*
X57265848Y-74941370D01*
X57182891Y-74778557D01*
X57075485Y-74630725D01*
X56946276Y-74501516D01*
X56926733Y-74487317D01*
X56884068Y-74431989D01*
X56878089Y-74362375D01*
X56910694Y-74300580D01*
X56926730Y-74286685D01*
X56946276Y-74272485D01*
X57075485Y-74143276D01*
X57182891Y-73995444D01*
X57254169Y-73855552D01*
X60580000Y-73855552D01*
X60580000Y-74044447D01*
X60609548Y-74231002D01*
X60667914Y-74410637D01*
X60753666Y-74578933D01*
X60772116Y-74604328D01*
X61426446Y-73950000D01*
X61426446Y-73949999D01*
X61380369Y-73903922D01*
X61430000Y-73903922D01*
X61430000Y-73996078D01*
X61453852Y-74085095D01*
X61499930Y-74164905D01*
X61565095Y-74230070D01*
X61644905Y-74276148D01*
X61733922Y-74300000D01*
X61826078Y-74300000D01*
X61915095Y-74276148D01*
X61994905Y-74230070D01*
X62060070Y-74164905D01*
X62106148Y-74085095D01*
X62130000Y-73996078D01*
X62130000Y-73949999D01*
X62133554Y-73949999D01*
X62133554Y-73950000D01*
X62787882Y-74604328D01*
X62787883Y-74604328D01*
X62806331Y-74578937D01*
X62892085Y-74410637D01*
X62950451Y-74231002D01*
X62980000Y-74044447D01*
X62980000Y-73855552D01*
X62979994Y-73855513D01*
X68199500Y-73855513D01*
X68199500Y-74044486D01*
X68229059Y-74231118D01*
X68287454Y-74410836D01*
X68372339Y-74577431D01*
X68373240Y-74579199D01*
X68484310Y-74732073D01*
X68617927Y-74865690D01*
X68770801Y-74976760D01*
X68824726Y-75004236D01*
X68939163Y-75062545D01*
X68939165Y-75062545D01*
X68939168Y-75062547D01*
X69035497Y-75093846D01*
X69118881Y-75120940D01*
X69305514Y-75150500D01*
X69305519Y-75150500D01*
X69494486Y-75150500D01*
X69681118Y-75120940D01*
X69722977Y-75107339D01*
X69860832Y-75062547D01*
X70029199Y-74976760D01*
X70182073Y-74865690D01*
X70315690Y-74732073D01*
X70426760Y-74579199D01*
X70512547Y-74410832D01*
X70570940Y-74231118D01*
X70571106Y-74230070D01*
X70600500Y-74044486D01*
X70600500Y-73855513D01*
X70570940Y-73668881D01*
X70512545Y-73489163D01*
X70467290Y-73400347D01*
X70426760Y-73320801D01*
X70315690Y-73167927D01*
X70182073Y-73034310D01*
X70029199Y-72923240D01*
X69860836Y-72837454D01*
X69681118Y-72779059D01*
X69494486Y-72749500D01*
X69494481Y-72749500D01*
X69305519Y-72749500D01*
X69305514Y-72749500D01*
X69118881Y-72779059D01*
X68939163Y-72837454D01*
X68770800Y-72923240D01*
X68685430Y-72985266D01*
X68617927Y-73034310D01*
X68617925Y-73034312D01*
X68617924Y-73034312D01*
X68484312Y-73167924D01*
X68484312Y-73167925D01*
X68484310Y-73167927D01*
X68475891Y-73179515D01*
X68373240Y-73320800D01*
X68287454Y-73489163D01*
X68229059Y-73668881D01*
X68199500Y-73855513D01*
X62979994Y-73855513D01*
X62950451Y-73668997D01*
X62892085Y-73489362D01*
X62806329Y-73321059D01*
X62787883Y-73295670D01*
X62787882Y-73295669D01*
X62133554Y-73949999D01*
X62130000Y-73949999D01*
X62130000Y-73903922D01*
X62106148Y-73814905D01*
X62060070Y-73735095D01*
X61994905Y-73669930D01*
X61915095Y-73623852D01*
X61826078Y-73600000D01*
X61733922Y-73600000D01*
X61644905Y-73623852D01*
X61565095Y-73669930D01*
X61499930Y-73735095D01*
X61453852Y-73814905D01*
X61430000Y-73903922D01*
X61380369Y-73903922D01*
X60772116Y-73295669D01*
X60772116Y-73295670D01*
X60753669Y-73321060D01*
X60667914Y-73489362D01*
X60609548Y-73668997D01*
X60580000Y-73855552D01*
X57254169Y-73855552D01*
X57265848Y-73832631D01*
X57322315Y-73658845D01*
X57335019Y-73578631D01*
X57350900Y-73478370D01*
X57350900Y-73295629D01*
X57334610Y-73192785D01*
X57322315Y-73115155D01*
X57266091Y-72942116D01*
X61125669Y-72942116D01*
X61780000Y-73596446D01*
X61780001Y-73596446D01*
X62434328Y-72942116D01*
X62408933Y-72923666D01*
X62240637Y-72837914D01*
X62061002Y-72779548D01*
X61874447Y-72750000D01*
X61685553Y-72750000D01*
X61498997Y-72779548D01*
X61319362Y-72837914D01*
X61151060Y-72923669D01*
X61125670Y-72942116D01*
X61125669Y-72942116D01*
X57266091Y-72942116D01*
X57265848Y-72941369D01*
X57182891Y-72778556D01*
X57075485Y-72630724D01*
X56946276Y-72501515D01*
X56926734Y-72487317D01*
X56884069Y-72431989D01*
X56878089Y-72362376D01*
X56910695Y-72300581D01*
X56926734Y-72286683D01*
X56946276Y-72272485D01*
X57075485Y-72143276D01*
X57182891Y-71995444D01*
X57265848Y-71832631D01*
X57322315Y-71658845D01*
X57335019Y-71578631D01*
X57350900Y-71478370D01*
X57350900Y-71295629D01*
X57329418Y-71160000D01*
X57322315Y-71115155D01*
X57265848Y-70941369D01*
X57182891Y-70778556D01*
X57081297Y-70638723D01*
X57057818Y-70572919D01*
X57057998Y-70556110D01*
X57061468Y-70512021D01*
X56513490Y-69964043D01*
X56544927Y-69951022D01*
X56667651Y-69869021D01*
X56772020Y-69764652D01*
X56854021Y-69641928D01*
X56867042Y-69610491D01*
X57415021Y-70158470D01*
X57415021Y-70158469D01*
X57475737Y-70074902D01*
X57566035Y-69897682D01*
X60200000Y-69897682D01*
X60200000Y-70102317D01*
X60232009Y-70304417D01*
X60295244Y-70499031D01*
X60388141Y-70681350D01*
X60388147Y-70681359D01*
X60420523Y-70725921D01*
X60420524Y-70725922D01*
X61100000Y-70046446D01*
X61100000Y-70052661D01*
X61127259Y-70154394D01*
X61179920Y-70245606D01*
X61254394Y-70320080D01*
X61345606Y-70372741D01*
X61447339Y-70400000D01*
X61453553Y-70400000D01*
X60774076Y-71079474D01*
X60818650Y-71111859D01*
X61000968Y-71204755D01*
X61195582Y-71267990D01*
X61397683Y-71300000D01*
X61602317Y-71300000D01*
X61804417Y-71267990D01*
X61999031Y-71204755D01*
X62181349Y-71111859D01*
X62225921Y-71079474D01*
X61546447Y-70400000D01*
X61552661Y-70400000D01*
X61654394Y-70372741D01*
X61745606Y-70320080D01*
X61820080Y-70245606D01*
X61872741Y-70154394D01*
X61900000Y-70052661D01*
X61900000Y-70046447D01*
X62579474Y-70725921D01*
X62611859Y-70681349D01*
X62639233Y-70627624D01*
X62687207Y-70576827D01*
X62755028Y-70560031D01*
X62821163Y-70582567D01*
X62860203Y-70627621D01*
X62887713Y-70681611D01*
X63008028Y-70847213D01*
X63152786Y-70991971D01*
X63254064Y-71065552D01*
X63318390Y-71112287D01*
X63412030Y-71159999D01*
X63500776Y-71205218D01*
X63500778Y-71205218D01*
X63500781Y-71205220D01*
X63605137Y-71239127D01*
X63695465Y-71268477D01*
X63796557Y-71284488D01*
X63897648Y-71300500D01*
X63897649Y-71300500D01*
X64102351Y-71300500D01*
X64102352Y-71300500D01*
X64304534Y-71268477D01*
X64499219Y-71205220D01*
X64681610Y-71112287D01*
X64801882Y-71024905D01*
X64847213Y-70991971D01*
X64847215Y-70991968D01*
X64847219Y-70991966D01*
X64991966Y-70847219D01*
X64991968Y-70847215D01*
X64991971Y-70847213D01*
X65055334Y-70760000D01*
X65112287Y-70681610D01*
X65205220Y-70499219D01*
X65268477Y-70304534D01*
X65300500Y-70102352D01*
X65300500Y-69897682D01*
X66200000Y-69897682D01*
X66200000Y-70102317D01*
X66232009Y-70304417D01*
X66295244Y-70499031D01*
X66388141Y-70681350D01*
X66388147Y-70681359D01*
X66420523Y-70725921D01*
X66420524Y-70725922D01*
X67100000Y-70046446D01*
X67100000Y-70052661D01*
X67127259Y-70154394D01*
X67179920Y-70245606D01*
X67254394Y-70320080D01*
X67345606Y-70372741D01*
X67447339Y-70400000D01*
X67453553Y-70400000D01*
X66774076Y-71079474D01*
X66818650Y-71111859D01*
X67000968Y-71204755D01*
X67195582Y-71267990D01*
X67397683Y-71300000D01*
X67602317Y-71300000D01*
X67804417Y-71267990D01*
X67999031Y-71204755D01*
X68181349Y-71111859D01*
X68225921Y-71079474D01*
X67546447Y-70400000D01*
X67552661Y-70400000D01*
X67654394Y-70372741D01*
X67745606Y-70320080D01*
X67820080Y-70245606D01*
X67872741Y-70154394D01*
X67900000Y-70052661D01*
X67900000Y-70046447D01*
X68579474Y-70725921D01*
X68611859Y-70681349D01*
X68639233Y-70627624D01*
X68687207Y-70576827D01*
X68755028Y-70560031D01*
X68821163Y-70582567D01*
X68860203Y-70627621D01*
X68887713Y-70681611D01*
X69008028Y-70847213D01*
X69152786Y-70991971D01*
X69254064Y-71065552D01*
X69318390Y-71112287D01*
X69412030Y-71159999D01*
X69500776Y-71205218D01*
X69500778Y-71205218D01*
X69500781Y-71205220D01*
X69605137Y-71239127D01*
X69695465Y-71268477D01*
X69796557Y-71284488D01*
X69897648Y-71300500D01*
X69897649Y-71300500D01*
X70102351Y-71300500D01*
X70102352Y-71300500D01*
X70304534Y-71268477D01*
X70499219Y-71205220D01*
X70681610Y-71112287D01*
X70801882Y-71024905D01*
X70847213Y-70991971D01*
X70847215Y-70991968D01*
X70847219Y-70991966D01*
X70991966Y-70847219D01*
X70991968Y-70847215D01*
X70991971Y-70847213D01*
X71055334Y-70760000D01*
X71112287Y-70681610D01*
X71205220Y-70499219D01*
X71268477Y-70304534D01*
X71300500Y-70102352D01*
X71300500Y-69897648D01*
X71279435Y-69764652D01*
X71268477Y-69695465D01*
X71230829Y-69579597D01*
X71205220Y-69500781D01*
X71205218Y-69500778D01*
X71205218Y-69500776D01*
X71143884Y-69380403D01*
X71112287Y-69318390D01*
X71080092Y-69274077D01*
X70991971Y-69152786D01*
X70847213Y-69008028D01*
X70681613Y-68887715D01*
X70681612Y-68887714D01*
X70681610Y-68887713D01*
X70624653Y-68858691D01*
X70499223Y-68794781D01*
X70304534Y-68731522D01*
X70129995Y-68703878D01*
X70102352Y-68699500D01*
X69897648Y-68699500D01*
X69873329Y-68703351D01*
X69695465Y-68731522D01*
X69500776Y-68794781D01*
X69318386Y-68887715D01*
X69152786Y-69008028D01*
X69008028Y-69152786D01*
X68887714Y-69318386D01*
X68860203Y-69372379D01*
X68812227Y-69423174D01*
X68744406Y-69439968D01*
X68678272Y-69417429D01*
X68639234Y-69372376D01*
X68611861Y-69318652D01*
X68579474Y-69274077D01*
X68579474Y-69274076D01*
X67900000Y-69953551D01*
X67900000Y-69947339D01*
X67872741Y-69845606D01*
X67820080Y-69754394D01*
X67745606Y-69679920D01*
X67654394Y-69627259D01*
X67552661Y-69600000D01*
X67546446Y-69600000D01*
X68225922Y-68920524D01*
X68225921Y-68920523D01*
X68181359Y-68888147D01*
X68181350Y-68888141D01*
X67999031Y-68795244D01*
X67804417Y-68732009D01*
X67602317Y-68700000D01*
X67397683Y-68700000D01*
X67195582Y-68732009D01*
X67000968Y-68795244D01*
X66818644Y-68888143D01*
X66774077Y-68920523D01*
X66774077Y-68920524D01*
X67453554Y-69600000D01*
X67447339Y-69600000D01*
X67345606Y-69627259D01*
X67254394Y-69679920D01*
X67179920Y-69754394D01*
X67127259Y-69845606D01*
X67100000Y-69947339D01*
X67100000Y-69953553D01*
X66420524Y-69274077D01*
X66420523Y-69274077D01*
X66388143Y-69318644D01*
X66295244Y-69500968D01*
X66232009Y-69695582D01*
X66200000Y-69897682D01*
X65300500Y-69897682D01*
X65300500Y-69897648D01*
X65279435Y-69764652D01*
X65268477Y-69695465D01*
X65230829Y-69579597D01*
X65205220Y-69500781D01*
X65205218Y-69500778D01*
X65205218Y-69500776D01*
X65143884Y-69380403D01*
X65112287Y-69318390D01*
X65080092Y-69274077D01*
X64991971Y-69152786D01*
X64847213Y-69008028D01*
X64681613Y-68887715D01*
X64681612Y-68887714D01*
X64681610Y-68887713D01*
X64624653Y-68858691D01*
X64499223Y-68794781D01*
X64304534Y-68731522D01*
X64129995Y-68703878D01*
X64102352Y-68699500D01*
X63897648Y-68699500D01*
X63873329Y-68703351D01*
X63695465Y-68731522D01*
X63500776Y-68794781D01*
X63318386Y-68887715D01*
X63152786Y-69008028D01*
X63008028Y-69152786D01*
X62887714Y-69318386D01*
X62860203Y-69372379D01*
X62812227Y-69423174D01*
X62744406Y-69439968D01*
X62678272Y-69417429D01*
X62639234Y-69372376D01*
X62611861Y-69318652D01*
X62579474Y-69274077D01*
X62579474Y-69274076D01*
X61900000Y-69953551D01*
X61900000Y-69947339D01*
X61872741Y-69845606D01*
X61820080Y-69754394D01*
X61745606Y-69679920D01*
X61654394Y-69627259D01*
X61552661Y-69600000D01*
X61546446Y-69600000D01*
X62225922Y-68920524D01*
X62225921Y-68920523D01*
X62181359Y-68888147D01*
X62181350Y-68888141D01*
X61999031Y-68795244D01*
X61804417Y-68732009D01*
X61602317Y-68700000D01*
X61397683Y-68700000D01*
X61195582Y-68732009D01*
X61000968Y-68795244D01*
X60818644Y-68888143D01*
X60774077Y-68920523D01*
X60774077Y-68920524D01*
X61453554Y-69600000D01*
X61447339Y-69600000D01*
X61345606Y-69627259D01*
X61254394Y-69679920D01*
X61179920Y-69754394D01*
X61127259Y-69845606D01*
X61100000Y-69947339D01*
X61100000Y-69953553D01*
X60420524Y-69274077D01*
X60420523Y-69274077D01*
X60388143Y-69318644D01*
X60295244Y-69500968D01*
X60232009Y-69695582D01*
X60200000Y-69897682D01*
X57566035Y-69897682D01*
X57583162Y-69864069D01*
X57586272Y-69854499D01*
X57586272Y-69854497D01*
X57656284Y-69639025D01*
X57693300Y-69405318D01*
X57693300Y-69168683D01*
X57664553Y-68987181D01*
X57656283Y-68934975D01*
X57583161Y-68709929D01*
X57475735Y-68499095D01*
X57415022Y-68415531D01*
X57415021Y-68415530D01*
X56867042Y-68963509D01*
X56854021Y-68932074D01*
X56772020Y-68809350D01*
X56667651Y-68704981D01*
X56544927Y-68622980D01*
X56513488Y-68609957D01*
X57061468Y-68061978D01*
X56977897Y-68001261D01*
X56767071Y-67893839D01*
X56542024Y-67820716D01*
X56308317Y-67783701D01*
X56071683Y-67783701D01*
X55837975Y-67820716D01*
X55612928Y-67893839D01*
X55402097Y-68001264D01*
X55318530Y-68061977D01*
X55318530Y-68061978D01*
X55866510Y-68609958D01*
X55835073Y-68622980D01*
X55712349Y-68704981D01*
X55607980Y-68809350D01*
X55525979Y-68932074D01*
X55512957Y-68963511D01*
X54964977Y-68415531D01*
X54964976Y-68415531D01*
X54904263Y-68499098D01*
X54796838Y-68709929D01*
X54723715Y-68934976D01*
X54686700Y-69168683D01*
X54021395Y-69168683D01*
X54021395Y-68415183D01*
X54022498Y-68398683D01*
X54163783Y-67347226D01*
X54164152Y-67344680D01*
X54171792Y-67295647D01*
X54262044Y-66716376D01*
X54262351Y-66714503D01*
X54274524Y-66643661D01*
X54369818Y-66089079D01*
X54370120Y-66087403D01*
X54487224Y-65464474D01*
X54487586Y-65462630D01*
X54503094Y-65386720D01*
X54613926Y-64844176D01*
X54614325Y-64842301D01*
X54750160Y-64226891D01*
X54750590Y-64225017D01*
X54759669Y-64186760D01*
X54895543Y-63614218D01*
X54895957Y-63612535D01*
X55050271Y-63005198D01*
X55050717Y-63003497D01*
X55213990Y-62401077D01*
X55214511Y-62399218D01*
X55320006Y-62033135D01*
X57635500Y-62033135D01*
X57635500Y-63436870D01*
X57635501Y-63436876D01*
X57641908Y-63496483D01*
X57692202Y-63631328D01*
X57692206Y-63631335D01*
X57778452Y-63746544D01*
X57778455Y-63746547D01*
X57893664Y-63832793D01*
X57893671Y-63832797D01*
X58028517Y-63883091D01*
X58028516Y-63883091D01*
X58035444Y-63883835D01*
X58088127Y-63889500D01*
X59491872Y-63889499D01*
X59551483Y-63883091D01*
X59686331Y-63832796D01*
X59801546Y-63746546D01*
X59887796Y-63631331D01*
X59891157Y-63622319D01*
X59892263Y-63619355D01*
X59892263Y-63619354D01*
X59908589Y-63575582D01*
X59938091Y-63496483D01*
X59944500Y-63436873D01*
X59944499Y-63278304D01*
X59964183Y-63211268D01*
X59980818Y-63190625D01*
X60390000Y-62781443D01*
X60390000Y-62787661D01*
X60417259Y-62889394D01*
X60469920Y-62980606D01*
X60544394Y-63055080D01*
X60635606Y-63107741D01*
X60737339Y-63135000D01*
X60743554Y-63135000D01*
X60168602Y-63709949D01*
X60168603Y-63709950D01*
X60185165Y-63721985D01*
X60185179Y-63721993D01*
X60347012Y-63804450D01*
X60519774Y-63860584D01*
X60699179Y-63889000D01*
X60880821Y-63889000D01*
X61060225Y-63860584D01*
X61232984Y-63804451D01*
X61394831Y-63721986D01*
X61411396Y-63709949D01*
X60836447Y-63135000D01*
X60842661Y-63135000D01*
X60944394Y-63107741D01*
X61035606Y-63055080D01*
X61110080Y-62980606D01*
X61162741Y-62889394D01*
X61190000Y-62787661D01*
X61190000Y-62781446D01*
X61764949Y-63356395D01*
X61776986Y-63339831D01*
X61859451Y-63177984D01*
X61915584Y-63005225D01*
X61944000Y-62825821D01*
X61944000Y-62644178D01*
X61915584Y-62464774D01*
X61859450Y-62292012D01*
X61776993Y-62130179D01*
X61776985Y-62130165D01*
X61764950Y-62113603D01*
X61764949Y-62113602D01*
X61190000Y-62688552D01*
X61190000Y-62682339D01*
X61162741Y-62580606D01*
X61110080Y-62489394D01*
X61035606Y-62414920D01*
X60944394Y-62362259D01*
X60842661Y-62335000D01*
X60836447Y-62335000D01*
X61411396Y-61760049D01*
X61411395Y-61760048D01*
X61394834Y-61748014D01*
X61394830Y-61748012D01*
X61232984Y-61665548D01*
X61060225Y-61609415D01*
X60880821Y-61581000D01*
X60699179Y-61581000D01*
X60519774Y-61609415D01*
X60347015Y-61665548D01*
X60185170Y-61748012D01*
X60185161Y-61748018D01*
X60168603Y-61760048D01*
X60168602Y-61760049D01*
X60743554Y-62335000D01*
X60737339Y-62335000D01*
X60635606Y-62362259D01*
X60544394Y-62414920D01*
X60469920Y-62489394D01*
X60417259Y-62580606D01*
X60390000Y-62682339D01*
X60390000Y-62688554D01*
X59980818Y-62279372D01*
X59947333Y-62218049D01*
X59944499Y-62191691D01*
X59944499Y-62033129D01*
X59944498Y-62033123D01*
X59944497Y-62033116D01*
X59938091Y-61973517D01*
X59933049Y-61960000D01*
X59892262Y-61850642D01*
X59887797Y-61838671D01*
X59887793Y-61838664D01*
X59801547Y-61723455D01*
X59801544Y-61723452D01*
X59686335Y-61637206D01*
X59686328Y-61637202D01*
X59551482Y-61586908D01*
X59551483Y-61586908D01*
X59491883Y-61580501D01*
X59491881Y-61580500D01*
X59491873Y-61580500D01*
X59491864Y-61580500D01*
X58088129Y-61580500D01*
X58088123Y-61580501D01*
X58028516Y-61586908D01*
X57893671Y-61637202D01*
X57893664Y-61637206D01*
X57778455Y-61723452D01*
X57778452Y-61723455D01*
X57692206Y-61838664D01*
X57692202Y-61838671D01*
X57641908Y-61973517D01*
X57635501Y-62033116D01*
X57635501Y-62033123D01*
X57635500Y-62033135D01*
X55320006Y-62033135D01*
X55386935Y-61800879D01*
X55387481Y-61799039D01*
X55399285Y-61760403D01*
X55568728Y-61205790D01*
X55569244Y-61204148D01*
X55759490Y-60615317D01*
X55760046Y-60613640D01*
X55958932Y-60030220D01*
X55959519Y-60028542D01*
X56167116Y-59450202D01*
X56167775Y-59448414D01*
X56245745Y-59241754D01*
X56328031Y-59023652D01*
X56383776Y-58875898D01*
X56384499Y-58874026D01*
X56609033Y-58306871D01*
X56609680Y-58305274D01*
X56842519Y-57743968D01*
X56843246Y-57742255D01*
X57084269Y-57186978D01*
X57085006Y-57185318D01*
X57334128Y-56636171D01*
X57334867Y-56634574D01*
X57591902Y-56091855D01*
X57592711Y-56090182D01*
X57856815Y-55555507D01*
X57858163Y-55552862D01*
X58411417Y-54499551D01*
X58413369Y-54495979D01*
X58995381Y-53472408D01*
X58997462Y-53468887D01*
X59607844Y-52474835D01*
X59610062Y-52471356D01*
X60247675Y-51507914D01*
X60250035Y-51504480D01*
X60913541Y-50572915D01*
X60916083Y-50569475D01*
X60948443Y-50527215D01*
X61604299Y-49670712D01*
X61606919Y-49667411D01*
X62318558Y-48802409D01*
X62321327Y-48799161D01*
X63055129Y-47968759D01*
X63058078Y-47965539D01*
X63812684Y-47170587D01*
X63815777Y-47167445D01*
X64590008Y-46408524D01*
X64593234Y-46405473D01*
X65385859Y-45683161D01*
X65389225Y-45680204D01*
X66199012Y-44995012D01*
X66202546Y-44992134D01*
X67028299Y-44344491D01*
X67032011Y-44341691D01*
X67255464Y-44179597D01*
X67872657Y-43731882D01*
X67876443Y-43729242D01*
X68731006Y-43157464D01*
X68734920Y-43154953D01*
X69602312Y-42621453D01*
X69606359Y-42619070D01*
X70485641Y-42123981D01*
X70489714Y-42121790D01*
X71380103Y-41665143D01*
X71384383Y-41663053D01*
X72284879Y-41244997D01*
X72289338Y-41243033D01*
X73042647Y-40928863D01*
X73112097Y-40921227D01*
X73174652Y-40952351D01*
G37*
%TD.AperFunction*%
%TA.AperFunction,Conductor*%
G36*
X87896615Y-39964588D02*
G01*
X87961331Y-39981634D01*
X87962739Y-39982014D01*
X88437242Y-40113422D01*
X88439513Y-40114076D01*
X88907978Y-40254044D01*
X88966576Y-40292096D01*
X88995299Y-40355789D01*
X88985028Y-40424899D01*
X88945365Y-40473172D01*
X88805580Y-40574732D01*
X88664733Y-40715579D01*
X88664733Y-40715580D01*
X88664731Y-40715582D01*
X88623888Y-40771798D01*
X88547647Y-40876733D01*
X88457213Y-41054219D01*
X88395661Y-41243656D01*
X88395661Y-41243659D01*
X88385810Y-41305855D01*
X88364500Y-41440403D01*
X88364500Y-41639597D01*
X88379391Y-41733614D01*
X88395661Y-41836340D01*
X88395661Y-41836343D01*
X88457213Y-42025780D01*
X88457215Y-42025783D01*
X88547647Y-42203266D01*
X88664731Y-42364418D01*
X88805582Y-42505269D01*
X88966734Y-42622353D01*
X89056308Y-42667993D01*
X89118722Y-42699795D01*
X89169518Y-42747770D01*
X89186313Y-42815591D01*
X89163776Y-42881726D01*
X89118723Y-42920764D01*
X88966993Y-42998075D01*
X88929135Y-43025580D01*
X88929135Y-43025581D01*
X89492425Y-43588871D01*
X89433147Y-43604755D01*
X89316853Y-43671898D01*
X89221898Y-43766853D01*
X89154755Y-43883147D01*
X89138871Y-43942425D01*
X88575581Y-43379135D01*
X88575580Y-43379135D01*
X88548077Y-43416990D01*
X88457679Y-43594405D01*
X88396147Y-43783777D01*
X88365000Y-43980436D01*
X88365000Y-44179563D01*
X88396147Y-44376222D01*
X88457679Y-44565594D01*
X88548077Y-44743008D01*
X88575580Y-44780863D01*
X88575581Y-44780864D01*
X89138871Y-44217574D01*
X89154755Y-44276853D01*
X89221898Y-44393147D01*
X89316853Y-44488102D01*
X89433147Y-44555245D01*
X89492425Y-44571128D01*
X88929134Y-45134417D01*
X88966994Y-45161924D01*
X89118722Y-45239234D01*
X89169518Y-45287209D01*
X89186313Y-45355030D01*
X89163776Y-45421165D01*
X89118723Y-45460203D01*
X88966735Y-45537645D01*
X88853997Y-45619555D01*
X88805582Y-45654731D01*
X88805580Y-45654733D01*
X88805579Y-45654733D01*
X88664733Y-45795579D01*
X88664733Y-45795580D01*
X88664731Y-45795582D01*
X88649207Y-45816949D01*
X88547647Y-45956733D01*
X88457213Y-46134219D01*
X88395661Y-46323656D01*
X88395661Y-46323659D01*
X88370253Y-46484080D01*
X88364500Y-46520403D01*
X88364500Y-46719597D01*
X88373435Y-46776009D01*
X88395661Y-46916340D01*
X88395661Y-46916343D01*
X88457213Y-47105780D01*
X88490245Y-47170608D01*
X88547647Y-47283266D01*
X88664731Y-47444418D01*
X88805582Y-47585269D01*
X88966734Y-47702353D01*
X89036453Y-47737877D01*
X89118172Y-47779515D01*
X89168968Y-47827490D01*
X89185763Y-47895311D01*
X89163225Y-47961446D01*
X89118172Y-48000485D01*
X88966733Y-48077647D01*
X88887134Y-48135480D01*
X88805582Y-48194731D01*
X88805580Y-48194733D01*
X88805579Y-48194733D01*
X88664733Y-48335579D01*
X88664733Y-48335580D01*
X88664731Y-48335582D01*
X88629356Y-48384271D01*
X88547647Y-48496733D01*
X88457213Y-48674219D01*
X88395661Y-48863656D01*
X88395661Y-48863659D01*
X88364500Y-49060403D01*
X88364500Y-49259596D01*
X88395661Y-49456340D01*
X88395661Y-49456343D01*
X88457213Y-49645780D01*
X88469940Y-49670758D01*
X88547647Y-49823266D01*
X88664731Y-49984418D01*
X88805582Y-50125269D01*
X88966734Y-50242353D01*
X89036453Y-50277877D01*
X89118172Y-50319515D01*
X89168968Y-50367490D01*
X89185763Y-50435311D01*
X89163225Y-50501446D01*
X89118172Y-50540485D01*
X88966733Y-50617647D01*
X88874790Y-50684447D01*
X88805582Y-50734731D01*
X88805580Y-50734733D01*
X88805579Y-50734733D01*
X88664733Y-50875579D01*
X88664733Y-50875580D01*
X88664731Y-50875582D01*
X88646668Y-50900444D01*
X88547647Y-51036733D01*
X88457213Y-51214219D01*
X88395661Y-51403656D01*
X88395661Y-51403659D01*
X88364500Y-51600403D01*
X88364500Y-51799596D01*
X88395661Y-51996340D01*
X88395661Y-51996343D01*
X88457213Y-52185780D01*
X88514114Y-52297454D01*
X88547647Y-52363266D01*
X88664731Y-52524418D01*
X88805582Y-52665269D01*
X88966734Y-52782353D01*
X89036453Y-52817877D01*
X89118172Y-52859515D01*
X89168968Y-52907490D01*
X89185763Y-52975311D01*
X89163225Y-53041446D01*
X89118172Y-53080485D01*
X88966733Y-53157647D01*
X88907277Y-53200845D01*
X88805582Y-53274731D01*
X88805580Y-53274733D01*
X88805579Y-53274733D01*
X88664733Y-53415579D01*
X88664733Y-53415580D01*
X88664731Y-53415582D01*
X88626028Y-53468852D01*
X88547647Y-53576733D01*
X88457213Y-53754219D01*
X88395661Y-53943656D01*
X88395661Y-53943659D01*
X88364500Y-54140403D01*
X88364500Y-54339596D01*
X88395661Y-54536340D01*
X88395661Y-54536343D01*
X88457213Y-54725780D01*
X88468780Y-54748481D01*
X88547647Y-54903266D01*
X88664731Y-55064418D01*
X88805582Y-55205269D01*
X88966734Y-55322353D01*
X89036453Y-55357877D01*
X89118172Y-55399515D01*
X89168968Y-55447490D01*
X89185763Y-55515311D01*
X89163225Y-55581446D01*
X89118172Y-55620485D01*
X88966733Y-55697647D01*
X88874790Y-55764447D01*
X88805582Y-55814731D01*
X88805580Y-55814733D01*
X88805579Y-55814733D01*
X88664733Y-55955579D01*
X88664733Y-55955580D01*
X88664731Y-55955582D01*
X88614447Y-56024790D01*
X88547647Y-56116733D01*
X88457213Y-56294219D01*
X88395661Y-56483656D01*
X88395661Y-56483659D01*
X88395661Y-56483661D01*
X88364500Y-56680403D01*
X88364500Y-56879597D01*
X88379789Y-56976129D01*
X88395661Y-57076340D01*
X88395661Y-57076343D01*
X88457213Y-57265780D01*
X88457215Y-57265783D01*
X88547647Y-57443266D01*
X88664731Y-57604418D01*
X88805582Y-57745269D01*
X88966734Y-57862353D01*
X89036453Y-57897877D01*
X89118172Y-57939515D01*
X89168968Y-57987490D01*
X89185763Y-58055311D01*
X89163225Y-58121446D01*
X89118172Y-58160485D01*
X88966733Y-58237647D01*
X88957560Y-58244312D01*
X88805582Y-58354731D01*
X88805580Y-58354733D01*
X88805579Y-58354733D01*
X88664733Y-58495579D01*
X88664733Y-58495580D01*
X88664731Y-58495582D01*
X88639146Y-58530797D01*
X88547647Y-58656733D01*
X88457213Y-58834219D01*
X88395661Y-59023656D01*
X88395661Y-59023659D01*
X88395661Y-59023661D01*
X88364500Y-59220403D01*
X88364500Y-59419597D01*
X88369362Y-59450293D01*
X88395661Y-59616339D01*
X88395661Y-59616343D01*
X88457213Y-59805780D01*
X88490671Y-59871445D01*
X88547647Y-59983266D01*
X88664731Y-60144418D01*
X88805582Y-60285269D01*
X88966734Y-60402353D01*
X89011421Y-60425122D01*
X89118172Y-60479515D01*
X89168968Y-60527490D01*
X89185763Y-60595311D01*
X89163225Y-60661446D01*
X89118172Y-60700485D01*
X88966733Y-60777647D01*
X88874790Y-60844447D01*
X88805582Y-60894731D01*
X88805580Y-60894733D01*
X88805579Y-60894733D01*
X88664733Y-61035579D01*
X88664733Y-61035580D01*
X88664731Y-61035582D01*
X88645122Y-61062572D01*
X88547647Y-61196733D01*
X88457213Y-61374219D01*
X88395661Y-61563656D01*
X88395661Y-61563659D01*
X88364500Y-61760403D01*
X88364500Y-61959596D01*
X88395661Y-62156340D01*
X88395661Y-62156343D01*
X88457213Y-62345780D01*
X88547647Y-62523266D01*
X88664731Y-62684418D01*
X88805582Y-62825269D01*
X88966734Y-62942353D01*
X88982137Y-62950201D01*
X89118172Y-63019515D01*
X89168968Y-63067490D01*
X89185763Y-63135311D01*
X89163225Y-63201446D01*
X89118172Y-63240485D01*
X88966733Y-63317647D01*
X88936200Y-63339831D01*
X88805582Y-63434731D01*
X88805580Y-63434733D01*
X88805579Y-63434733D01*
X88664733Y-63575579D01*
X88664733Y-63575580D01*
X88664731Y-63575582D01*
X88637264Y-63613387D01*
X88547647Y-63736733D01*
X88457213Y-63914219D01*
X88395661Y-64103656D01*
X88395661Y-64103659D01*
X88364500Y-64300403D01*
X88364500Y-64499596D01*
X88395661Y-64696340D01*
X88395661Y-64696343D01*
X88457213Y-64885780D01*
X88457215Y-64885783D01*
X88547647Y-65063266D01*
X88664731Y-65224418D01*
X88805582Y-65365269D01*
X88966734Y-65482353D01*
X89036453Y-65517877D01*
X89118172Y-65559515D01*
X89168968Y-65607490D01*
X89185763Y-65675311D01*
X89163225Y-65741446D01*
X89118172Y-65780485D01*
X88966733Y-65857647D01*
X88874790Y-65924447D01*
X88805582Y-65974731D01*
X88805580Y-65974733D01*
X88805579Y-65974733D01*
X88664733Y-66115579D01*
X88664733Y-66115580D01*
X88664731Y-66115582D01*
X88626627Y-66168028D01*
X88547647Y-66276733D01*
X88457213Y-66454219D01*
X88395661Y-66643656D01*
X88395661Y-66643659D01*
X88384288Y-66715465D01*
X88364500Y-66840403D01*
X88364500Y-67039597D01*
X88368605Y-67065513D01*
X88395661Y-67236340D01*
X88395661Y-67236343D01*
X88457213Y-67425780D01*
X88502540Y-67514739D01*
X88547647Y-67603266D01*
X88664731Y-67764418D01*
X88805582Y-67905269D01*
X88966734Y-68022353D01*
X89036453Y-68057877D01*
X89118172Y-68099515D01*
X89168968Y-68147490D01*
X89185763Y-68215311D01*
X89163225Y-68281446D01*
X89118172Y-68320485D01*
X88966733Y-68397647D01*
X88924300Y-68428477D01*
X88805582Y-68514731D01*
X88805580Y-68514733D01*
X88805579Y-68514733D01*
X88664733Y-68655579D01*
X88664733Y-68655580D01*
X88664731Y-68655582D01*
X88625246Y-68709929D01*
X88547647Y-68816733D01*
X88457213Y-68994219D01*
X88395661Y-69183656D01*
X88395661Y-69183659D01*
X88364500Y-69380403D01*
X88364500Y-69579596D01*
X88395661Y-69776340D01*
X88395661Y-69776343D01*
X88457213Y-69965780D01*
X88542756Y-70133666D01*
X88547647Y-70143266D01*
X88664731Y-70304418D01*
X88805582Y-70445269D01*
X88966734Y-70562353D01*
X89007598Y-70583174D01*
X89118172Y-70639515D01*
X89168968Y-70687490D01*
X89185763Y-70755311D01*
X89163225Y-70821446D01*
X89118172Y-70860485D01*
X88966733Y-70937647D01*
X88874790Y-71004447D01*
X88805582Y-71054731D01*
X88805580Y-71054733D01*
X88805579Y-71054733D01*
X88664733Y-71195579D01*
X88664733Y-71195580D01*
X88664731Y-71195582D01*
X88621963Y-71254447D01*
X88547647Y-71356733D01*
X88457213Y-71534219D01*
X88395661Y-71723656D01*
X88395661Y-71723659D01*
X88385323Y-71788933D01*
X88364500Y-71920403D01*
X88364500Y-72119597D01*
X88375138Y-72186760D01*
X88395661Y-72316340D01*
X88395661Y-72316343D01*
X88457213Y-72505780D01*
X88539101Y-72666494D01*
X88547647Y-72683266D01*
X88664731Y-72844418D01*
X88805582Y-72985269D01*
X88966734Y-73102353D01*
X89036453Y-73137877D01*
X89118172Y-73179515D01*
X89168968Y-73227490D01*
X89185763Y-73295311D01*
X89163225Y-73361446D01*
X89118172Y-73400485D01*
X88966733Y-73477647D01*
X88874790Y-73544447D01*
X88805582Y-73594731D01*
X88805580Y-73594733D01*
X88805579Y-73594733D01*
X88664733Y-73735579D01*
X88664733Y-73735580D01*
X88664731Y-73735582D01*
X88614447Y-73804790D01*
X88547647Y-73896733D01*
X88470485Y-74048172D01*
X88422510Y-74098968D01*
X88354689Y-74115763D01*
X88288554Y-74093225D01*
X88249515Y-74048172D01*
X88172352Y-73896733D01*
X88145664Y-73860000D01*
X88055269Y-73735582D01*
X87914418Y-73594731D01*
X87753266Y-73477647D01*
X87575780Y-73387213D01*
X87386342Y-73325661D01*
X87238782Y-73302290D01*
X87189597Y-73294500D01*
X86990403Y-73294500D01*
X86924822Y-73304887D01*
X86793659Y-73325661D01*
X86793656Y-73325661D01*
X86604219Y-73387213D01*
X86426733Y-73477647D01*
X86334790Y-73544447D01*
X86265582Y-73594731D01*
X86265580Y-73594733D01*
X86265579Y-73594733D01*
X86124733Y-73735579D01*
X86124733Y-73735580D01*
X86124731Y-73735582D01*
X86074447Y-73804790D01*
X86007647Y-73896733D01*
X85930485Y-74048172D01*
X85882510Y-74098968D01*
X85814689Y-74115763D01*
X85748554Y-74093225D01*
X85709515Y-74048172D01*
X85632352Y-73896733D01*
X85605664Y-73860000D01*
X85515269Y-73735582D01*
X85374418Y-73594731D01*
X85213266Y-73477647D01*
X85035780Y-73387213D01*
X84846342Y-73325661D01*
X84698782Y-73302290D01*
X84649597Y-73294500D01*
X84450403Y-73294500D01*
X84384822Y-73304887D01*
X84253659Y-73325661D01*
X84253656Y-73325661D01*
X84064219Y-73387213D01*
X83886733Y-73477647D01*
X83794790Y-73544447D01*
X83725582Y-73594731D01*
X83725580Y-73594733D01*
X83725579Y-73594733D01*
X83584733Y-73735579D01*
X83584733Y-73735580D01*
X83584731Y-73735582D01*
X83534447Y-73804790D01*
X83467647Y-73896733D01*
X83390485Y-74048172D01*
X83342510Y-74098968D01*
X83274689Y-74115763D01*
X83208554Y-74093225D01*
X83169515Y-74048172D01*
X83092352Y-73896733D01*
X83065664Y-73860000D01*
X82975269Y-73735582D01*
X82834418Y-73594731D01*
X82673266Y-73477647D01*
X82495780Y-73387213D01*
X82306342Y-73325661D01*
X82158782Y-73302290D01*
X82109597Y-73294500D01*
X81910403Y-73294500D01*
X81844822Y-73304887D01*
X81713659Y-73325661D01*
X81713656Y-73325661D01*
X81524219Y-73387213D01*
X81346733Y-73477647D01*
X81254790Y-73544447D01*
X81185582Y-73594731D01*
X81185580Y-73594733D01*
X81185579Y-73594733D01*
X81044733Y-73735579D01*
X81044733Y-73735580D01*
X81044731Y-73735582D01*
X80994447Y-73804790D01*
X80927647Y-73896733D01*
X80850485Y-74048172D01*
X80802510Y-74098968D01*
X80734689Y-74115763D01*
X80668554Y-74093225D01*
X80629515Y-74048172D01*
X80552352Y-73896733D01*
X80525664Y-73860000D01*
X80435269Y-73735582D01*
X80294418Y-73594731D01*
X80133266Y-73477647D01*
X79955780Y-73387213D01*
X79766342Y-73325661D01*
X79618782Y-73302290D01*
X79569597Y-73294500D01*
X79370403Y-73294500D01*
X79304822Y-73304887D01*
X79173659Y-73325661D01*
X79173656Y-73325661D01*
X78984219Y-73387213D01*
X78806733Y-73477647D01*
X78714790Y-73544447D01*
X78645582Y-73594731D01*
X78645580Y-73594733D01*
X78645579Y-73594733D01*
X78504733Y-73735579D01*
X78504733Y-73735580D01*
X78504731Y-73735582D01*
X78454447Y-73804790D01*
X78387647Y-73896733D01*
X78310485Y-74048172D01*
X78262510Y-74098968D01*
X78194689Y-74115763D01*
X78128554Y-74093225D01*
X78089515Y-74048172D01*
X78012352Y-73896733D01*
X77985664Y-73860000D01*
X77895269Y-73735582D01*
X77754418Y-73594731D01*
X77593266Y-73477647D01*
X77415780Y-73387213D01*
X77226342Y-73325661D01*
X77078782Y-73302290D01*
X77029597Y-73294500D01*
X76830403Y-73294500D01*
X76764822Y-73304887D01*
X76633659Y-73325661D01*
X76633656Y-73325661D01*
X76444219Y-73387213D01*
X76266733Y-73477647D01*
X76174790Y-73544447D01*
X76105582Y-73594731D01*
X76105580Y-73594733D01*
X76105579Y-73594733D01*
X75964733Y-73735579D01*
X75964733Y-73735580D01*
X75964731Y-73735582D01*
X75914447Y-73804790D01*
X75847647Y-73896733D01*
X75770485Y-74048172D01*
X75722510Y-74098968D01*
X75654689Y-74115763D01*
X75588554Y-74093225D01*
X75549515Y-74048172D01*
X75472352Y-73896733D01*
X75445664Y-73860000D01*
X75355269Y-73735582D01*
X75214418Y-73594731D01*
X75053266Y-73477647D01*
X74901827Y-73400485D01*
X74851031Y-73352510D01*
X74834236Y-73284689D01*
X74856773Y-73218554D01*
X74901827Y-73179515D01*
X74911116Y-73174781D01*
X75053266Y-73102353D01*
X75214418Y-72985269D01*
X75355269Y-72844418D01*
X75472353Y-72683266D01*
X75562785Y-72505783D01*
X75587903Y-72428477D01*
X75624338Y-72316343D01*
X75624338Y-72316342D01*
X75624339Y-72316339D01*
X75655500Y-72119597D01*
X75655500Y-71920403D01*
X75624339Y-71723661D01*
X75624338Y-71723657D01*
X75624338Y-71723656D01*
X75562786Y-71534219D01*
X75535201Y-71480080D01*
X75472353Y-71356734D01*
X75355269Y-71195582D01*
X75214418Y-71054731D01*
X75053266Y-70937647D01*
X74901827Y-70860485D01*
X74851031Y-70812510D01*
X74834236Y-70744689D01*
X74856773Y-70678554D01*
X74901827Y-70639515D01*
X74931319Y-70624488D01*
X75053266Y-70562353D01*
X75214418Y-70445269D01*
X75355269Y-70304418D01*
X75472353Y-70143266D01*
X75562785Y-69965783D01*
X75564664Y-69960000D01*
X75624338Y-69776343D01*
X75624338Y-69776342D01*
X75624339Y-69776339D01*
X75655500Y-69579597D01*
X75655500Y-69380403D01*
X75624339Y-69183661D01*
X75624338Y-69183657D01*
X75624338Y-69183656D01*
X75562786Y-68994219D01*
X75531821Y-68933447D01*
X75472353Y-68816734D01*
X75355269Y-68655582D01*
X75214418Y-68514731D01*
X75053266Y-68397647D01*
X74901827Y-68320485D01*
X74851031Y-68272510D01*
X74834236Y-68204689D01*
X74856773Y-68138554D01*
X74901827Y-68099515D01*
X74948586Y-68075690D01*
X75053266Y-68022353D01*
X75214418Y-67905269D01*
X75355269Y-67764418D01*
X75472353Y-67603266D01*
X75562785Y-67425783D01*
X75589137Y-67344680D01*
X75624338Y-67236343D01*
X75624338Y-67236342D01*
X75624339Y-67236339D01*
X75655500Y-67039597D01*
X75655500Y-66840403D01*
X75624339Y-66643661D01*
X75624338Y-66643657D01*
X75624338Y-66643656D01*
X75562786Y-66454219D01*
X75552523Y-66434076D01*
X75472353Y-66276734D01*
X75355269Y-66115582D01*
X75214418Y-65974731D01*
X75053266Y-65857647D01*
X74901827Y-65780485D01*
X74851031Y-65732510D01*
X74834236Y-65664689D01*
X74856773Y-65598554D01*
X74901827Y-65559515D01*
X74911116Y-65554781D01*
X75053266Y-65482353D01*
X75214418Y-65365269D01*
X75355269Y-65224418D01*
X75472353Y-65063266D01*
X75562785Y-64885783D01*
X75589569Y-64803350D01*
X75624338Y-64696343D01*
X75624338Y-64696342D01*
X75624339Y-64696339D01*
X75655500Y-64499597D01*
X75655500Y-64300403D01*
X75624339Y-64103661D01*
X75624338Y-64103657D01*
X75624338Y-64103656D01*
X75562786Y-63914219D01*
X75550191Y-63889500D01*
X75472353Y-63736734D01*
X75355269Y-63575582D01*
X75214418Y-63434731D01*
X75053266Y-63317647D01*
X74976059Y-63278308D01*
X74901827Y-63240485D01*
X74851031Y-63192510D01*
X74834236Y-63124689D01*
X74856773Y-63058554D01*
X74901827Y-63019515D01*
X74929727Y-63005299D01*
X75053266Y-62942353D01*
X75214418Y-62825269D01*
X75355269Y-62684418D01*
X75472353Y-62523266D01*
X75562785Y-62345783D01*
X75584363Y-62279372D01*
X75624338Y-62156343D01*
X75624338Y-62156342D01*
X75624339Y-62156339D01*
X75655500Y-61959597D01*
X75655500Y-61760403D01*
X75624339Y-61563661D01*
X75624338Y-61563657D01*
X75624338Y-61563656D01*
X75562786Y-61374219D01*
X75556981Y-61362826D01*
X75472353Y-61196734D01*
X75355269Y-61035582D01*
X75214418Y-60894731D01*
X75053266Y-60777647D01*
X75052336Y-60777173D01*
X74901827Y-60700485D01*
X74851031Y-60652510D01*
X74834236Y-60584689D01*
X74856773Y-60518554D01*
X74901827Y-60479515D01*
X74939538Y-60460300D01*
X75053266Y-60402353D01*
X75214418Y-60285269D01*
X75355269Y-60144418D01*
X75472353Y-59983266D01*
X75562785Y-59805783D01*
X75566709Y-59793705D01*
X75624338Y-59616343D01*
X75624339Y-59616339D01*
X75650638Y-59450293D01*
X75655500Y-59419597D01*
X75655500Y-59220403D01*
X75624339Y-59023661D01*
X75624338Y-59023657D01*
X75624338Y-59023656D01*
X75562786Y-58834219D01*
X75493974Y-58699168D01*
X75472353Y-58656734D01*
X75355269Y-58495582D01*
X75214418Y-58354731D01*
X75053266Y-58237647D01*
X74901827Y-58160485D01*
X74851031Y-58112510D01*
X74834236Y-58044689D01*
X74856773Y-57978554D01*
X74901827Y-57939515D01*
X74911116Y-57934781D01*
X75053266Y-57862353D01*
X75214418Y-57745269D01*
X75355269Y-57604418D01*
X75472353Y-57443266D01*
X75562785Y-57265783D01*
X75588650Y-57186178D01*
X75624338Y-57076343D01*
X75624338Y-57076342D01*
X75624339Y-57076339D01*
X75655500Y-56879597D01*
X75655500Y-56680403D01*
X75624339Y-56483661D01*
X75624338Y-56483657D01*
X75624338Y-56483656D01*
X75562786Y-56294219D01*
X75562785Y-56294217D01*
X75472353Y-56116734D01*
X75355269Y-55955582D01*
X75214418Y-55814731D01*
X75053266Y-55697647D01*
X74901827Y-55620485D01*
X74851031Y-55572510D01*
X74834236Y-55504689D01*
X74856773Y-55438554D01*
X74901827Y-55399515D01*
X74911116Y-55394781D01*
X75053266Y-55322353D01*
X75214418Y-55205269D01*
X75355269Y-55064418D01*
X75472353Y-54903266D01*
X75562785Y-54725783D01*
X75600243Y-54610500D01*
X75624338Y-54536343D01*
X75624338Y-54536342D01*
X75624339Y-54536339D01*
X75655500Y-54339597D01*
X75655500Y-54140403D01*
X75624339Y-53943661D01*
X75624338Y-53943657D01*
X75624338Y-53943656D01*
X75562786Y-53754219D01*
X75540483Y-53710447D01*
X75472353Y-53576734D01*
X75355269Y-53415582D01*
X75214418Y-53274731D01*
X75053266Y-53157647D01*
X74996811Y-53128882D01*
X74901827Y-53080485D01*
X74851031Y-53032510D01*
X74834236Y-52964689D01*
X74856773Y-52898554D01*
X74901827Y-52859515D01*
X74911116Y-52854781D01*
X75053266Y-52782353D01*
X75214418Y-52665269D01*
X75355269Y-52524418D01*
X75472353Y-52363266D01*
X75562785Y-52185783D01*
X75624339Y-51996339D01*
X75655500Y-51799597D01*
X75655500Y-51600403D01*
X75624339Y-51403661D01*
X75624338Y-51403657D01*
X75624338Y-51403656D01*
X75562786Y-51214219D01*
X75523557Y-51137228D01*
X75472353Y-51036734D01*
X75355269Y-50875582D01*
X75214418Y-50734731D01*
X75053266Y-50617647D01*
X74901827Y-50540485D01*
X74851031Y-50492510D01*
X74834236Y-50424689D01*
X74856773Y-50358554D01*
X74901827Y-50319515D01*
X74912867Y-50313890D01*
X75053266Y-50242353D01*
X75214418Y-50125269D01*
X75355269Y-49984418D01*
X75472353Y-49823266D01*
X75562785Y-49645783D01*
X75562786Y-49645780D01*
X75624338Y-49456343D01*
X75624338Y-49456342D01*
X75624339Y-49456339D01*
X75655500Y-49259597D01*
X75655500Y-49060403D01*
X75624339Y-48863661D01*
X75624338Y-48863657D01*
X75624338Y-48863656D01*
X75562786Y-48674219D01*
X75507989Y-48566674D01*
X75472353Y-48496734D01*
X75355269Y-48335582D01*
X75214418Y-48194731D01*
X75053266Y-48077647D01*
X74901827Y-48000485D01*
X74851031Y-47952510D01*
X74834236Y-47884689D01*
X74856773Y-47818554D01*
X74901827Y-47779515D01*
X74938076Y-47761045D01*
X75053266Y-47702353D01*
X75214418Y-47585269D01*
X75355269Y-47444418D01*
X75472353Y-47283266D01*
X75562785Y-47105783D01*
X75562786Y-47105780D01*
X75624338Y-46916343D01*
X75624338Y-46916342D01*
X75624339Y-46916339D01*
X75655500Y-46719597D01*
X75655500Y-46520403D01*
X75624339Y-46323661D01*
X75624338Y-46323657D01*
X75624338Y-46323656D01*
X75562786Y-46134219D01*
X75541800Y-46093031D01*
X75472353Y-45956734D01*
X75355269Y-45795582D01*
X75214418Y-45654731D01*
X75053266Y-45537647D01*
X74901827Y-45460485D01*
X74851031Y-45412510D01*
X74834236Y-45344689D01*
X74856773Y-45278554D01*
X74901827Y-45239515D01*
X74920519Y-45229991D01*
X75053266Y-45162353D01*
X75214418Y-45045269D01*
X75355269Y-44904418D01*
X75472353Y-44743266D01*
X75562785Y-44565783D01*
X75624339Y-44376339D01*
X75655500Y-44179597D01*
X75655500Y-43980403D01*
X75624339Y-43783661D01*
X75624338Y-43783657D01*
X75624338Y-43783656D01*
X75562786Y-43594219D01*
X75472352Y-43416733D01*
X75355269Y-43255582D01*
X75214418Y-43114731D01*
X75053266Y-42997647D01*
X75009027Y-42975106D01*
X74901827Y-42920485D01*
X74851031Y-42872510D01*
X74834236Y-42804689D01*
X74856773Y-42738554D01*
X74901827Y-42699515D01*
X74911116Y-42694781D01*
X75053266Y-42622353D01*
X75214418Y-42505269D01*
X75355269Y-42364418D01*
X75472353Y-42203266D01*
X75562785Y-42025783D01*
X75588016Y-41948129D01*
X75624338Y-41836343D01*
X75624338Y-41836342D01*
X75624339Y-41836339D01*
X75655500Y-41639597D01*
X75655500Y-41440403D01*
X75624339Y-41243661D01*
X75624338Y-41243657D01*
X75624338Y-41243656D01*
X75562786Y-41054219D01*
X75529561Y-40989011D01*
X75472353Y-40876734D01*
X75355269Y-40715582D01*
X75214418Y-40574731D01*
X75053266Y-40457647D01*
X75053265Y-40457646D01*
X75053263Y-40457645D01*
X75031718Y-40446667D01*
X75015670Y-40431511D01*
X74996756Y-40420135D01*
X74990767Y-40407990D01*
X74980922Y-40398692D01*
X74975616Y-40377264D01*
X74965855Y-40357470D01*
X74967382Y-40344015D01*
X74964128Y-40330871D01*
X74971247Y-40309979D01*
X74973738Y-40288047D01*
X74982297Y-40277553D01*
X74986666Y-40264736D01*
X75003952Y-40251008D01*
X75017904Y-40233906D01*
X75037914Y-40224038D01*
X75041382Y-40221285D01*
X75049558Y-40218297D01*
X75054098Y-40216816D01*
X75058834Y-40215375D01*
X75886799Y-39981620D01*
X75945083Y-39965165D01*
X75978774Y-39960500D01*
X87865034Y-39960500D01*
X87896615Y-39964588D01*
G37*
%TD.AperFunction*%
%TD*%
M02*
