M48
; DRILL file {KiCad 9.0.7} date 2026-05-11T17:24:29-0700
; FORMAT={-:-/ absolute / inch / decimal}
; #@! TF.CreationDate,2026-05-11T17:24:29-07:00
; #@! TF.GenerationSoftware,Kicad,Pcbnew,9.0.7
; #@! TF.FileFunction,Plated,1,4,PTH
FMAT,2
INCH
; #@! TA.AperFunction,Plated,PTH,ViaDrill
T1C0.0118
; #@! TA.AperFunction,Plated,PTH,ComponentDrill
T2C0.0276
; #@! TA.AperFunction,Plated,PTH,ComponentDrill
T3C0.0280
; #@! TA.AperFunction,Plated,PTH,ComponentDrill
T4C0.0315
; #@! TA.AperFunction,Plated,PTH,ComponentDrill
T5C0.0320
; #@! TA.AperFunction,Plated,PTH,ComponentDrill
T6C0.0394
; #@! TA.AperFunction,Plated,PTH,ComponentDrill
T7C0.0402
; #@! TA.AperFunction,Plated,PTH,ComponentDrill
T8C0.0590
; #@! TA.AperFunction,Plated,PTH,ComponentDrill
T9C0.1260
%
G90
G05
T1
X2.5917Y-2.4886
T2
X2.4323Y-2.9114
X2.7323Y-2.9114
X3.6606Y-2.3291
X3.6606Y-2.4866
X3.6606Y-2.6441
X3.6606Y-2.8016
X3.6606Y-2.9591
X3.9606Y-2.3291
X3.9606Y-2.4866
X3.9606Y-2.6441
X3.9606Y-2.8016
X3.9606Y-2.9591
T3
X3.7302Y-2.1028
X3.8562Y-2.1028
T4
X2.3146Y-2.4699
X2.3933Y-2.4699
X2.4213Y-2.7559
X2.5197Y-2.7559
X2.6575Y-2.7559
X2.7559Y-2.7559
X4.1331Y-2.6441
X4.1331Y-2.8016
X4.1331Y-2.9591
X4.1346Y-2.3043
X4.1346Y-2.4043
X4.1346Y-2.5043
X4.2315Y-2.6441
X4.2315Y-2.8016
X4.2315Y-2.9591
T5
X2.2122Y-2.8105
X2.2122Y-2.8893
X2.2122Y-2.968
T6
X2.5854Y-3.6909
X2.5854Y-3.8681
X2.8413Y-3.6909
X2.8413Y-3.8681
X2.8752Y-3.5173
X2.9752Y-3.5173
X3.0752Y-3.5173
X3.0972Y-3.8091
X3.0972Y-3.9862
X3.1752Y-3.5173
X3.2752Y-3.5173
X3.3531Y-3.8091
X3.3531Y-3.9862
X3.3752Y-3.5173
X3.4752Y-3.5173
X3.5752Y-3.5173
X3.6091Y-3.6909
X3.6091Y-3.8681
X3.865Y-3.6909
X3.865Y-3.8681
T7
X2.9287Y-1.6354
X2.9287Y-1.7354
X2.9287Y-1.8354
X2.9287Y-1.9354
X2.9287Y-2.0354
X2.9287Y-2.1354
X2.9287Y-2.2354
X2.9287Y-2.3354
X2.9287Y-2.4354
X2.9287Y-2.5354
X2.9287Y-2.6354
X2.9287Y-2.7354
X2.9287Y-2.8354
X2.9287Y-2.9354
X3.0287Y-2.9354
X3.1287Y-2.9354
X3.2287Y-2.9354
X3.3287Y-2.9354
X3.4287Y-2.9354
X3.5287Y-1.6354
X3.5287Y-1.7354
X3.5287Y-1.8354
X3.5287Y-1.9354
X3.5287Y-2.0354
X3.5287Y-2.1354
X3.5287Y-2.2354
X3.5287Y-2.3354
X3.5287Y-2.4354
X3.5287Y-2.5354
X3.5287Y-2.6354
X3.5287Y-2.7354
X3.5287Y-2.8354
X3.5287Y-2.9354
T8
X2.2122Y-2.7278
X2.2122Y-3.0507
T9
X2.4016Y-2.2047
X2.4016Y-3.3071
X4.1339Y-3.3071
M30
